<?xml version="1.0" encoding="utf-8" standalone="no"?>
<!DOCTYPE svg PUBLIC "-//W3C//DTD SVG 1.1//EN"
  "http://www.w3.org/Graphics/SVG/1.1/DTD/svg11.dtd">
<svg xmlns:xlink="http://www.w3.org/1999/xlink" width="864pt" height="576pt" viewBox="0 0 864 576" xmlns="http://www.w3.org/2000/svg" version="1.1">
 <metadata>
  <rdf:RDF xmlns:dc="http://purl.org/dc/elements/1.1/" xmlns:cc="http://creativecommons.org/ns#" xmlns:rdf="http://www.w3.org/1999/02/22-rdf-syntax-ns#">
   <cc:Work>
    <dc:type rdf:resource="http://purl.org/dc/dcmitype/StillImage"/>
    <dc:date>2025-03-15T13:39:23.450160</dc:date>
    <dc:format>image/svg+xml</dc:format>
    <dc:creator>
     <cc:Agent>
      <dc:title>Matplotlib v3.10.1, https://matplotlib.org/</dc:title>
     </cc:Agent>
    </dc:creator>
   </cc:Work>
  </rdf:RDF>
 </metadata>
 <defs>
  <style type="text/css">*{stroke-linejoin: round; stroke-linecap: butt}</style>
 </defs>
 <g id="figure_1">
  <g id="patch_1">
   <path d="M 0 576 
L 864 576 
L 864 0 
L 0 0 
z
" style="fill: #121212"/>
  </g>
  <g id="axes_1">
   <g id="patch_2">
    <path d="M 44.57 534.04 
L 845.28 534.04 
L 845.28 26.88 
L 44.57 26.88 
z
" style="fill: #121212"/>
   </g>
   <g id="matplotlib.axis_1">
    <g id="xtick_1">
     <g id="line2d_1">
      <path d="M 44.57 534.04 
L 44.57 26.88 
" clip-path="url(#pb8f0b2a526)" style="fill: none; stroke-dasharray: 2.96,1.28; stroke-dashoffset: 0; stroke: #444444; stroke-opacity: 0.7; stroke-width: 0.8"/>
     </g>
     <g id="line2d_2">
      <defs>
       <path id="m5c37992c62" d="M 0 0 
L 0 3.5 
" style="stroke: #aaaaaa; stroke-width: 0.8"/>
      </defs>
      <g>
       <use xlink:href="#m5c37992c62" x="44.57" y="534.04" style="fill: #aaaaaa; stroke: #aaaaaa; stroke-width: 0.8"/>
      </g>
     </g>
     <g id="text_1">
      <!-- 0.0 -->
      <g style="fill: #aaaaaa" transform="translate(36.618437 548.638438) scale(0.1 -0.1)">
       <defs>
        <path id="DejaVuSans-30" d="M 2034 4250 
Q 1547 4250 1301 3770 
Q 1056 3291 1056 2328 
Q 1056 1369 1301 889 
Q 1547 409 2034 409 
Q 2525 409 2770 889 
Q 3016 1369 3016 2328 
Q 3016 3291 2770 3770 
Q 2525 4250 2034 4250 
z
M 2034 4750 
Q 2819 4750 3233 4129 
Q 3647 3509 3647 2328 
Q 3647 1150 3233 529 
Q 2819 -91 2034 -91 
Q 1250 -91 836 529 
Q 422 1150 422 2328 
Q 422 3509 836 4129 
Q 1250 4750 2034 4750 
z
" transform="scale(0.015625)"/>
        <path id="DejaVuSans-2e" d="M 684 794 
L 1344 794 
L 1344 0 
L 684 0 
L 684 794 
z
" transform="scale(0.015625)"/>
       </defs>
       <use xlink:href="#DejaVuSans-30"/>
       <use xlink:href="#DejaVuSans-2e" transform="translate(63.623047 0)"/>
       <use xlink:href="#DejaVuSans-30" transform="translate(95.410156 0)"/>
      </g>
     </g>
    </g>
    <g id="xtick_2">
     <g id="line2d_3">
      <path d="M 204.712 534.04 
L 204.712 26.88 
" clip-path="url(#pb8f0b2a526)" style="fill: none; stroke-dasharray: 2.96,1.28; stroke-dashoffset: 0; stroke: #444444; stroke-opacity: 0.7; stroke-width: 0.8"/>
     </g>
     <g id="line2d_4">
      <g>
       <use xlink:href="#m5c37992c62" x="204.712" y="534.04" style="fill: #aaaaaa; stroke: #aaaaaa; stroke-width: 0.8"/>
      </g>
     </g>
     <g id="text_2">
      <!-- 0.2 -->
      <g style="fill: #aaaaaa" transform="translate(196.760438 548.638438) scale(0.1 -0.1)">
       <defs>
        <path id="DejaVuSans-32" d="M 1228 531 
L 3431 531 
L 3431 0 
L 469 0 
L 469 531 
Q 828 903 1448 1529 
Q 2069 2156 2228 2338 
Q 2531 2678 2651 2914 
Q 2772 3150 2772 3378 
Q 2772 3750 2511 3984 
Q 2250 4219 1831 4219 
Q 1534 4219 1204 4116 
Q 875 4013 500 3803 
L 500 4441 
Q 881 4594 1212 4672 
Q 1544 4750 1819 4750 
Q 2544 4750 2975 4387 
Q 3406 4025 3406 3419 
Q 3406 3131 3298 2873 
Q 3191 2616 2906 2266 
Q 2828 2175 2409 1742 
Q 1991 1309 1228 531 
z
" transform="scale(0.015625)"/>
       </defs>
       <use xlink:href="#DejaVuSans-30"/>
       <use xlink:href="#DejaVuSans-2e" transform="translate(63.623047 0)"/>
       <use xlink:href="#DejaVuSans-32" transform="translate(95.410156 0)"/>
      </g>
     </g>
    </g>
    <g id="xtick_3">
     <g id="line2d_5">
      <path d="M 364.854 534.04 
L 364.854 26.88 
" clip-path="url(#pb8f0b2a526)" style="fill: none; stroke-dasharray: 2.96,1.28; stroke-dashoffset: 0; stroke: #444444; stroke-opacity: 0.7; stroke-width: 0.8"/>
     </g>
     <g id="line2d_6">
      <g>
       <use xlink:href="#m5c37992c62" x="364.854" y="534.04" style="fill: #aaaaaa; stroke: #aaaaaa; stroke-width: 0.8"/>
      </g>
     </g>
     <g id="text_3">
      <!-- 0.4 -->
      <g style="fill: #aaaaaa" transform="translate(356.902438 548.638438) scale(0.1 -0.1)">
       <defs>
        <path id="DejaVuSans-34" d="M 2419 4116 
L 825 1625 
L 2419 1625 
L 2419 4116 
z
M 2253 4666 
L 3047 4666 
L 3047 1625 
L 3713 1625 
L 3713 1100 
L 3047 1100 
L 3047 0 
L 2419 0 
L 2419 1100 
L 313 1100 
L 313 1709 
L 2253 4666 
z
" transform="scale(0.015625)"/>
       </defs>
       <use xlink:href="#DejaVuSans-30"/>
       <use xlink:href="#DejaVuSans-2e" transform="translate(63.623047 0)"/>
       <use xlink:href="#DejaVuSans-34" transform="translate(95.410156 0)"/>
      </g>
     </g>
    </g>
    <g id="xtick_4">
     <g id="line2d_7">
      <path d="M 524.996 534.04 
L 524.996 26.88 
" clip-path="url(#pb8f0b2a526)" style="fill: none; stroke-dasharray: 2.96,1.28; stroke-dashoffset: 0; stroke: #444444; stroke-opacity: 0.7; stroke-width: 0.8"/>
     </g>
     <g id="line2d_8">
      <g>
       <use xlink:href="#m5c37992c62" x="524.996" y="534.04" style="fill: #aaaaaa; stroke: #aaaaaa; stroke-width: 0.8"/>
      </g>
     </g>
     <g id="text_4">
      <!-- 0.6 -->
      <g style="fill: #aaaaaa" transform="translate(517.044438 548.638438) scale(0.1 -0.1)">
       <defs>
        <path id="DejaVuSans-36" d="M 2113 2584 
Q 1688 2584 1439 2293 
Q 1191 2003 1191 1497 
Q 1191 994 1439 701 
Q 1688 409 2113 409 
Q 2538 409 2786 701 
Q 3034 994 3034 1497 
Q 3034 2003 2786 2293 
Q 2538 2584 2113 2584 
z
M 3366 4563 
L 3366 3988 
Q 3128 4100 2886 4159 
Q 2644 4219 2406 4219 
Q 1781 4219 1451 3797 
Q 1122 3375 1075 2522 
Q 1259 2794 1537 2939 
Q 1816 3084 2150 3084 
Q 2853 3084 3261 2657 
Q 3669 2231 3669 1497 
Q 3669 778 3244 343 
Q 2819 -91 2113 -91 
Q 1303 -91 875 529 
Q 447 1150 447 2328 
Q 447 3434 972 4092 
Q 1497 4750 2381 4750 
Q 2619 4750 2861 4703 
Q 3103 4656 3366 4563 
z
" transform="scale(0.015625)"/>
       </defs>
       <use xlink:href="#DejaVuSans-30"/>
       <use xlink:href="#DejaVuSans-2e" transform="translate(63.623047 0)"/>
       <use xlink:href="#DejaVuSans-36" transform="translate(95.410156 0)"/>
      </g>
     </g>
    </g>
    <g id="xtick_5">
     <g id="line2d_9">
      <path d="M 685.138 534.04 
L 685.138 26.88 
" clip-path="url(#pb8f0b2a526)" style="fill: none; stroke-dasharray: 2.96,1.28; stroke-dashoffset: 0; stroke: #444444; stroke-opacity: 0.7; stroke-width: 0.8"/>
     </g>
     <g id="line2d_10">
      <g>
       <use xlink:href="#m5c37992c62" x="685.138" y="534.04" style="fill: #aaaaaa; stroke: #aaaaaa; stroke-width: 0.8"/>
      </g>
     </g>
     <g id="text_5">
      <!-- 0.8 -->
      <g style="fill: #aaaaaa" transform="translate(677.186438 548.638438) scale(0.1 -0.1)">
       <defs>
        <path id="DejaVuSans-38" d="M 2034 2216 
Q 1584 2216 1326 1975 
Q 1069 1734 1069 1313 
Q 1069 891 1326 650 
Q 1584 409 2034 409 
Q 2484 409 2743 651 
Q 3003 894 3003 1313 
Q 3003 1734 2745 1975 
Q 2488 2216 2034 2216 
z
M 1403 2484 
Q 997 2584 770 2862 
Q 544 3141 544 3541 
Q 544 4100 942 4425 
Q 1341 4750 2034 4750 
Q 2731 4750 3128 4425 
Q 3525 4100 3525 3541 
Q 3525 3141 3298 2862 
Q 3072 2584 2669 2484 
Q 3125 2378 3379 2068 
Q 3634 1759 3634 1313 
Q 3634 634 3220 271 
Q 2806 -91 2034 -91 
Q 1263 -91 848 271 
Q 434 634 434 1313 
Q 434 1759 690 2068 
Q 947 2378 1403 2484 
z
M 1172 3481 
Q 1172 3119 1398 2916 
Q 1625 2713 2034 2713 
Q 2441 2713 2670 2916 
Q 2900 3119 2900 3481 
Q 2900 3844 2670 4047 
Q 2441 4250 2034 4250 
Q 1625 4250 1398 4047 
Q 1172 3844 1172 3481 
z
" transform="scale(0.015625)"/>
       </defs>
       <use xlink:href="#DejaVuSans-30"/>
       <use xlink:href="#DejaVuSans-2e" transform="translate(63.623047 0)"/>
       <use xlink:href="#DejaVuSans-38" transform="translate(95.410156 0)"/>
      </g>
     </g>
    </g>
    <g id="xtick_6">
     <g id="line2d_11">
      <path d="M 845.28 534.04 
L 845.28 26.88 
" clip-path="url(#pb8f0b2a526)" style="fill: none; stroke-dasharray: 2.96,1.28; stroke-dashoffset: 0; stroke: #444444; stroke-opacity: 0.7; stroke-width: 0.8"/>
     </g>
     <g id="line2d_12">
      <g>
       <use xlink:href="#m5c37992c62" x="845.28" y="534.04" style="fill: #aaaaaa; stroke: #aaaaaa; stroke-width: 0.8"/>
      </g>
     </g>
     <g id="text_6">
      <!-- 1.0 -->
      <g style="fill: #aaaaaa" transform="translate(837.328438 548.638438) scale(0.1 -0.1)">
       <defs>
        <path id="DejaVuSans-31" d="M 794 531 
L 1825 531 
L 1825 4091 
L 703 3866 
L 703 4441 
L 1819 4666 
L 2450 4666 
L 2450 531 
L 3481 531 
L 3481 0 
L 794 0 
L 794 531 
z
" transform="scale(0.015625)"/>
       </defs>
       <use xlink:href="#DejaVuSans-31"/>
       <use xlink:href="#DejaVuSans-2e" transform="translate(63.623047 0)"/>
       <use xlink:href="#DejaVuSans-30" transform="translate(95.410156 0)"/>
      </g>
     </g>
    </g>
    <g id="text_7">
     <!-- Position -->
     <g style="fill: #ffffff" transform="translate(425.460938 562.316562) scale(0.1 -0.1)">
      <defs>
       <path id="DejaVuSans-50" d="M 1259 4147 
L 1259 2394 
L 2053 2394 
Q 2494 2394 2734 2622 
Q 2975 2850 2975 3272 
Q 2975 3691 2734 3919 
Q 2494 4147 2053 4147 
L 1259 4147 
z
M 628 4666 
L 2053 4666 
Q 2838 4666 3239 4311 
Q 3641 3956 3641 3272 
Q 3641 2581 3239 2228 
Q 2838 1875 2053 1875 
L 1259 1875 
L 1259 0 
L 628 0 
L 628 4666 
z
" transform="scale(0.015625)"/>
       <path id="DejaVuSans-6f" d="M 1959 3097 
Q 1497 3097 1228 2736 
Q 959 2375 959 1747 
Q 959 1119 1226 758 
Q 1494 397 1959 397 
Q 2419 397 2687 759 
Q 2956 1122 2956 1747 
Q 2956 2369 2687 2733 
Q 2419 3097 1959 3097 
z
M 1959 3584 
Q 2709 3584 3137 3096 
Q 3566 2609 3566 1747 
Q 3566 888 3137 398 
Q 2709 -91 1959 -91 
Q 1206 -91 779 398 
Q 353 888 353 1747 
Q 353 2609 779 3096 
Q 1206 3584 1959 3584 
z
" transform="scale(0.015625)"/>
       <path id="DejaVuSans-73" d="M 2834 3397 
L 2834 2853 
Q 2591 2978 2328 3040 
Q 2066 3103 1784 3103 
Q 1356 3103 1142 2972 
Q 928 2841 928 2578 
Q 928 2378 1081 2264 
Q 1234 2150 1697 2047 
L 1894 2003 
Q 2506 1872 2764 1633 
Q 3022 1394 3022 966 
Q 3022 478 2636 193 
Q 2250 -91 1575 -91 
Q 1294 -91 989 -36 
Q 684 19 347 128 
L 347 722 
Q 666 556 975 473 
Q 1284 391 1588 391 
Q 1994 391 2212 530 
Q 2431 669 2431 922 
Q 2431 1156 2273 1281 
Q 2116 1406 1581 1522 
L 1381 1569 
Q 847 1681 609 1914 
Q 372 2147 372 2553 
Q 372 3047 722 3315 
Q 1072 3584 1716 3584 
Q 2034 3584 2315 3537 
Q 2597 3491 2834 3397 
z
" transform="scale(0.015625)"/>
       <path id="DejaVuSans-69" d="M 603 3500 
L 1178 3500 
L 1178 0 
L 603 0 
L 603 3500 
z
M 603 4863 
L 1178 4863 
L 1178 4134 
L 603 4134 
L 603 4863 
z
" transform="scale(0.015625)"/>
       <path id="DejaVuSans-74" d="M 1172 4494 
L 1172 3500 
L 2356 3500 
L 2356 3053 
L 1172 3053 
L 1172 1153 
Q 1172 725 1289 603 
Q 1406 481 1766 481 
L 2356 481 
L 2356 0 
L 1766 0 
Q 1100 0 847 248 
Q 594 497 594 1153 
L 594 3053 
L 172 3053 
L 172 3500 
L 594 3500 
L 594 4494 
L 1172 4494 
z
" transform="scale(0.015625)"/>
       <path id="DejaVuSans-6e" d="M 3513 2113 
L 3513 0 
L 2938 0 
L 2938 2094 
Q 2938 2591 2744 2837 
Q 2550 3084 2163 3084 
Q 1697 3084 1428 2787 
Q 1159 2491 1159 1978 
L 1159 0 
L 581 0 
L 581 3500 
L 1159 3500 
L 1159 2956 
Q 1366 3272 1645 3428 
Q 1925 3584 2291 3584 
Q 2894 3584 3203 3211 
Q 3513 2838 3513 2113 
z
" transform="scale(0.015625)"/>
      </defs>
      <use xlink:href="#DejaVuSans-50"/>
      <use xlink:href="#DejaVuSans-6f" transform="translate(56.677734 0)"/>
      <use xlink:href="#DejaVuSans-73" transform="translate(117.859375 0)"/>
      <use xlink:href="#DejaVuSans-69" transform="translate(169.958984 0)"/>
      <use xlink:href="#DejaVuSans-74" transform="translate(197.742188 0)"/>
      <use xlink:href="#DejaVuSans-69" transform="translate(236.951172 0)"/>
      <use xlink:href="#DejaVuSans-6f" transform="translate(264.734375 0)"/>
      <use xlink:href="#DejaVuSans-6e" transform="translate(325.916016 0)"/>
     </g>
    </g>
   </g>
   <g id="matplotlib.axis_2">
    <g id="ytick_1">
     <g id="line2d_13">
      <path d="M 44.57 510.987273 
L 845.28 510.987273 
" clip-path="url(#pb8f0b2a526)" style="fill: none; stroke-dasharray: 2.96,1.28; stroke-dashoffset: 0; stroke: #444444; stroke-opacity: 0.7; stroke-width: 0.8"/>
     </g>
     <g id="line2d_14">
      <defs>
       <path id="m17766aa513" d="M 0 0 
L -3.5 0 
" style="stroke: #aaaaaa; stroke-width: 0.8"/>
      </defs>
      <g>
       <use xlink:href="#m17766aa513" x="44.57" y="510.987273" style="fill: #aaaaaa; stroke: #aaaaaa; stroke-width: 0.8"/>
      </g>
     </g>
     <g id="text_8">
      <!-- 0 -->
      <g style="fill: #aaaaaa" transform="translate(31.2075 514.786491) scale(0.1 -0.1)">
       <use xlink:href="#DejaVuSans-30"/>
      </g>
     </g>
    </g>
    <g id="ytick_2">
     <g id="line2d_15">
      <path d="M 44.57 408.530707 
L 845.28 408.530707 
" clip-path="url(#pb8f0b2a526)" style="fill: none; stroke-dasharray: 2.96,1.28; stroke-dashoffset: 0; stroke: #444444; stroke-opacity: 0.7; stroke-width: 0.8"/>
     </g>
     <g id="line2d_16">
      <g>
       <use xlink:href="#m17766aa513" x="44.57" y="408.530707" style="fill: #aaaaaa; stroke: #aaaaaa; stroke-width: 0.8"/>
      </g>
     </g>
     <g id="text_9">
      <!-- 20 -->
      <g style="fill: #aaaaaa" transform="translate(24.845 412.329926) scale(0.1 -0.1)">
       <use xlink:href="#DejaVuSans-32"/>
       <use xlink:href="#DejaVuSans-30" transform="translate(63.623047 0)"/>
      </g>
     </g>
    </g>
    <g id="ytick_3">
     <g id="line2d_17">
      <path d="M 44.57 306.074141 
L 845.28 306.074141 
" clip-path="url(#pb8f0b2a526)" style="fill: none; stroke-dasharray: 2.96,1.28; stroke-dashoffset: 0; stroke: #444444; stroke-opacity: 0.7; stroke-width: 0.8"/>
     </g>
     <g id="line2d_18">
      <g>
       <use xlink:href="#m17766aa513" x="44.57" y="306.074141" style="fill: #aaaaaa; stroke: #aaaaaa; stroke-width: 0.8"/>
      </g>
     </g>
     <g id="text_10">
      <!-- 40 -->
      <g style="fill: #aaaaaa" transform="translate(24.845 309.87336) scale(0.1 -0.1)">
       <use xlink:href="#DejaVuSans-34"/>
       <use xlink:href="#DejaVuSans-30" transform="translate(63.623047 0)"/>
      </g>
     </g>
    </g>
    <g id="ytick_4">
     <g id="line2d_19">
      <path d="M 44.57 203.617576 
L 845.28 203.617576 
" clip-path="url(#pb8f0b2a526)" style="fill: none; stroke-dasharray: 2.96,1.28; stroke-dashoffset: 0; stroke: #444444; stroke-opacity: 0.7; stroke-width: 0.8"/>
     </g>
     <g id="line2d_20">
      <g>
       <use xlink:href="#m17766aa513" x="44.57" y="203.617576" style="fill: #aaaaaa; stroke: #aaaaaa; stroke-width: 0.8"/>
      </g>
     </g>
     <g id="text_11">
      <!-- 60 -->
      <g style="fill: #aaaaaa" transform="translate(24.845 207.416795) scale(0.1 -0.1)">
       <use xlink:href="#DejaVuSans-36"/>
       <use xlink:href="#DejaVuSans-30" transform="translate(63.623047 0)"/>
      </g>
     </g>
    </g>
    <g id="ytick_5">
     <g id="line2d_21">
      <path d="M 44.57 101.16101 
L 845.28 101.16101 
" clip-path="url(#pb8f0b2a526)" style="fill: none; stroke-dasharray: 2.96,1.28; stroke-dashoffset: 0; stroke: #444444; stroke-opacity: 0.7; stroke-width: 0.8"/>
     </g>
     <g id="line2d_22">
      <g>
       <use xlink:href="#m17766aa513" x="44.57" y="101.16101" style="fill: #aaaaaa; stroke: #aaaaaa; stroke-width: 0.8"/>
      </g>
     </g>
     <g id="text_12">
      <!-- 80 -->
      <g style="fill: #aaaaaa" transform="translate(24.845 104.960229) scale(0.1 -0.1)">
       <use xlink:href="#DejaVuSans-38"/>
       <use xlink:href="#DejaVuSans-30" transform="translate(63.623047 0)"/>
      </g>
     </g>
    </g>
    <g id="text_13">
     <!-- Value -->
     <g style="fill: #ffffff" transform="translate(18.765313 294.19125) rotate(-90) scale(0.1 -0.1)">
      <defs>
       <path id="DejaVuSans-56" d="M 1831 0 
L 50 4666 
L 709 4666 
L 2188 738 
L 3669 4666 
L 4325 4666 
L 2547 0 
L 1831 0 
z
" transform="scale(0.015625)"/>
       <path id="DejaVuSans-61" d="M 2194 1759 
Q 1497 1759 1228 1600 
Q 959 1441 959 1056 
Q 959 750 1161 570 
Q 1363 391 1709 391 
Q 2188 391 2477 730 
Q 2766 1069 2766 1631 
L 2766 1759 
L 2194 1759 
z
M 3341 1997 
L 3341 0 
L 2766 0 
L 2766 531 
Q 2569 213 2275 61 
Q 1981 -91 1556 -91 
Q 1019 -91 701 211 
Q 384 513 384 1019 
Q 384 1609 779 1909 
Q 1175 2209 1959 2209 
L 2766 2209 
L 2766 2266 
Q 2766 2663 2505 2880 
Q 2244 3097 1772 3097 
Q 1472 3097 1187 3025 
Q 903 2953 641 2809 
L 641 3341 
Q 956 3463 1253 3523 
Q 1550 3584 1831 3584 
Q 2591 3584 2966 3190 
Q 3341 2797 3341 1997 
z
" transform="scale(0.015625)"/>
       <path id="DejaVuSans-6c" d="M 603 4863 
L 1178 4863 
L 1178 0 
L 603 0 
L 603 4863 
z
" transform="scale(0.015625)"/>
       <path id="DejaVuSans-75" d="M 544 1381 
L 544 3500 
L 1119 3500 
L 1119 1403 
Q 1119 906 1312 657 
Q 1506 409 1894 409 
Q 2359 409 2629 706 
Q 2900 1003 2900 1516 
L 2900 3500 
L 3475 3500 
L 3475 0 
L 2900 0 
L 2900 538 
Q 2691 219 2414 64 
Q 2138 -91 1772 -91 
Q 1169 -91 856 284 
Q 544 659 544 1381 
z
M 1991 3584 
L 1991 3584 
z
" transform="scale(0.015625)"/>
       <path id="DejaVuSans-65" d="M 3597 1894 
L 3597 1613 
L 953 1613 
Q 991 1019 1311 708 
Q 1631 397 2203 397 
Q 2534 397 2845 478 
Q 3156 559 3463 722 
L 3463 178 
Q 3153 47 2828 -22 
Q 2503 -91 2169 -91 
Q 1331 -91 842 396 
Q 353 884 353 1716 
Q 353 2575 817 3079 
Q 1281 3584 2069 3584 
Q 2775 3584 3186 3129 
Q 3597 2675 3597 1894 
z
M 3022 2063 
Q 3016 2534 2758 2815 
Q 2500 3097 2075 3097 
Q 1594 3097 1305 2825 
Q 1016 2553 972 2059 
L 3022 2063 
z
" transform="scale(0.015625)"/>
      </defs>
      <use xlink:href="#DejaVuSans-56"/>
      <use xlink:href="#DejaVuSans-61" transform="translate(60.658203 0)"/>
      <use xlink:href="#DejaVuSans-6c" transform="translate(121.9375 0)"/>
      <use xlink:href="#DejaVuSans-75" transform="translate(149.720703 0)"/>
      <use xlink:href="#DejaVuSans-65" transform="translate(213.099609 0)"/>
     </g>
    </g>
   </g>
   <g id="line2d_23">
    <path d="M 44.57 510.987273 
L 52.65798 510.469815 
L 60.74596 509.952358 
L 68.833939 509.434901 
L 76.921919 508.917443 
L 85.009899 508.399986 
L 93.097879 507.882528 
L 101.185859 507.365071 
L 109.273838 506.847614 
L 117.361818 506.330156 
L 125.449798 505.812699 
L 133.537778 505.295241 
L 141.625758 504.777784 
L 149.713737 504.260326 
L 157.801717 503.742869 
L 165.889697 503.225412 
L 173.977677 502.707954 
L 182.065657 502.190497 
L 190.153636 501.673039 
L 198.241616 501.155582 
L 206.329596 500.638125 
L 214.417576 500.120667 
L 222.505556 499.60321 
L 230.593535 499.085752 
L 238.681515 498.568295 
L 246.769495 498.050838 
L 254.857475 497.53338 
L 262.945455 497.015923 
L 271.033434 496.498465 
L 279.121414 495.981008 
L 287.209394 495.463551 
L 295.297374 494.946093 
L 303.385354 494.428636 
L 311.473333 493.911178 
L 319.561313 493.393721 
L 327.649293 492.876264 
L 335.737273 492.358806 
L 343.825253 491.841349 
L 351.913232 491.323891 
L 360.001212 490.806434 
L 368.089192 490.288977 
L 376.177172 489.771519 
L 384.265152 489.254062 
L 392.353131 488.736604 
L 400.441111 488.219147 
L 408.529091 487.70169 
L 416.617071 487.184232 
L 424.705051 486.666775 
L 432.79303 486.149317 
L 440.88101 485.63186 
L 448.96899 485.114403 
L 457.05697 484.596945 
L 465.144949 484.079488 
L 473.232929 483.56203 
L 481.320909 483.044573 
L 489.408889 482.527116 
L 497.496869 482.009658 
L 505.584848 481.492201 
L 513.672828 480.974743 
L 521.760808 480.457286 
L 529.848788 479.939829 
L 537.936768 479.422371 
L 546.024747 478.904914 
L 554.112727 478.387456 
L 562.200707 477.869999 
L 570.288687 477.352542 
L 578.376667 476.835084 
L 586.464646 476.317627 
L 594.552626 475.800169 
L 602.640606 475.282712 
L 610.728586 474.765255 
L 618.816566 474.247797 
L 626.904545 473.73034 
L 634.992525 473.212882 
L 643.080505 472.695425 
L 651.168485 472.177968 
L 659.256465 471.66051 
L 667.344444 471.143053 
L 675.432424 470.625595 
L 683.520404 470.108138 
L 691.608384 469.590681 
L 699.696364 469.073223 
L 707.784343 468.555766 
L 715.872323 468.038308 
L 723.960303 467.520851 
L 732.048283 467.003394 
L 740.136263 466.485936 
L 748.224242 465.968479 
L 756.312222 465.451021 
L 764.400202 464.933564 
L 772.488182 464.416107 
L 780.576162 463.898649 
L 788.664141 463.381192 
L 796.752121 462.863734 
L 804.840101 462.346277 
L 812.928081 461.82882 
L 821.016061 461.311362 
L 829.10404 460.793905 
L 837.19202 460.276447 
L 845.28 459.75899 
" clip-path="url(#pb8f0b2a526)" style="fill: none; stroke: #ff9500; stroke-width: 2; stroke-linecap: square"/>
   </g>
   <g id="line2d_24">
    <path d="M 44.57 485.373131 
L 52.65798 484.855674 
L 60.74596 484.338217 
L 68.833939 483.820759 
L 76.921919 483.303302 
L 85.009899 482.785844 
L 93.097879 482.268387 
L 101.185859 481.750929 
L 109.273838 481.233472 
L 117.361818 480.716015 
L 125.449798 480.198557 
L 133.537778 479.6811 
L 141.625758 479.163642 
L 149.713737 478.646185 
L 157.801717 478.128728 
L 165.889697 477.61127 
L 173.977677 477.093813 
L 182.065657 476.576355 
L 190.153636 476.058898 
L 198.241616 475.541441 
L 206.329596 475.023983 
L 214.417576 474.506526 
L 222.505556 473.989068 
L 230.593535 473.471611 
L 238.681515 472.954154 
L 246.769495 472.436696 
L 254.857475 471.919239 
L 262.945455 471.401781 
L 271.033434 470.884324 
L 279.121414 470.366867 
L 287.209394 469.849409 
L 295.297374 469.331952 
L 303.385354 468.814494 
L 311.473333 468.297037 
L 319.561313 467.77958 
L 327.649293 467.262122 
L 335.737273 466.744665 
L 343.825253 466.227207 
L 351.913232 465.70975 
L 360.001212 465.192293 
L 368.089192 464.674835 
L 376.177172 464.157378 
L 384.265152 463.63992 
L 392.353131 463.122463 
L 400.441111 462.605006 
L 408.529091 462.087548 
L 416.617071 461.570091 
L 424.705051 461.052633 
L 432.79303 460.535176 
L 440.88101 460.017719 
L 448.96899 459.500261 
L 457.05697 458.982804 
L 465.144949 458.465346 
L 473.232929 457.947889 
L 481.320909 457.430432 
L 489.408889 456.912974 
L 497.496869 456.395517 
L 505.584848 455.878059 
L 513.672828 455.360602 
L 521.760808 454.843145 
L 529.848788 454.325687 
L 537.936768 453.80823 
L 546.024747 453.290772 
L 554.112727 452.773315 
L 562.200707 452.255858 
L 570.288687 451.7384 
L 578.376667 451.220943 
L 586.464646 450.703485 
L 594.552626 450.186028 
L 602.640606 449.668571 
L 610.728586 449.151113 
L 618.816566 448.633656 
L 626.904545 448.116198 
L 634.992525 447.598741 
L 643.080505 447.081284 
L 651.168485 446.563826 
L 659.256465 446.046369 
L 667.344444 445.528911 
L 675.432424 445.011454 
L 683.520404 444.493997 
L 691.608384 443.976539 
L 699.696364 443.459082 
L 707.784343 442.941624 
L 715.872323 442.424167 
L 723.960303 441.90671 
L 732.048283 441.389252 
L 740.136263 440.871795 
L 748.224242 440.354337 
L 756.312222 439.83688 
L 764.400202 439.319423 
L 772.488182 438.801965 
L 780.576162 438.284508 
L 788.664141 437.76705 
L 796.752121 437.249593 
L 804.840101 436.732135 
L 812.928081 436.214678 
L 821.016061 435.697221 
L 829.10404 435.179763 
L 837.19202 434.662306 
L 845.28 434.144848 
" clip-path="url(#pb8f0b2a526)" style="fill: none; stroke: #00b9f1; stroke-width: 2; stroke-linecap: square"/>
   </g>
   <g id="line2d_25">
    <path d="M 44.57 510.987273 
L 52.65798 510.940548 
L 60.74596 510.801641 
L 68.833939 510.572452 
L 76.921919 510.254881 
L 85.009899 509.85083 
L 93.097879 509.3622 
L 101.185859 508.79089 
L 109.273838 508.138802 
L 117.361818 507.407836 
L 125.449798 506.599893 
L 133.537778 505.716873 
L 141.625758 504.760678 
L 149.713737 503.733207 
L 157.801717 502.636362 
L 165.889697 501.472044 
L 173.977677 500.242152 
L 182.065657 498.948587 
L 190.153636 497.593251 
L 198.241616 496.178044 
L 206.329596 494.704867 
L 214.417576 493.175619 
L 222.505556 491.592203 
L 230.593535 489.956518 
L 238.681515 488.270465 
L 246.769495 486.535945 
L 254.857475 484.754859 
L 262.945455 482.929107 
L 271.033434 481.06059 
L 279.121414 479.151209 
L 287.209394 477.202864 
L 295.297374 475.217456 
L 303.385354 473.196885 
L 311.473333 471.143053 
L 319.561313 469.057859 
L 327.649293 466.943206 
L 335.737273 464.800992 
L 343.825253 462.63312 
L 351.913232 460.441489 
L 360.001212 458.228 
L 368.089192 455.994555 
L 376.177172 453.743053 
L 384.265152 451.475395 
L 392.353131 449.193482 
L 400.441111 446.899215 
L 408.529091 444.594494 
L 416.617071 442.281221 
L 424.705051 439.961295 
L 432.79303 437.636617 
L 440.88101 435.309088 
L 448.96899 432.980609 
L 457.05697 430.65308 
L 465.144949 428.328402 
L 473.232929 426.008476 
L 481.320909 423.695203 
L 489.408889 421.390482 
L 497.496869 419.096215 
L 505.584848 416.814302 
L 513.672828 414.546644 
L 521.760808 412.295142 
L 529.848788 410.061697 
L 537.936768 407.848208 
L 546.024747 405.656577 
L 554.112727 403.488705 
L 562.200707 401.346491 
L 570.288687 399.231838 
L 578.376667 397.146644 
L 586.464646 395.092812 
L 594.552626 393.072241 
L 602.640606 391.086833 
L 610.728586 389.138488 
L 618.816566 387.229107 
L 626.904545 385.36059 
L 634.992525 383.534838 
L 643.080505 381.753752 
L 651.168485 380.019232 
L 659.256465 378.333179 
L 667.344444 376.697494 
L 675.432424 375.114078 
L 683.520404 373.58483 
L 691.608384 372.111653 
L 699.696364 370.696446 
L 707.784343 369.34111 
L 715.872323 368.047545 
L 723.960303 366.817653 
L 732.048283 365.653335 
L 740.136263 364.55649 
L 748.224242 363.529019 
L 756.312222 362.572824 
L 764.400202 361.689804 
L 772.488182 360.881861 
L 780.576162 360.150895 
L 788.664141 359.498807 
L 796.752121 358.927497 
L 804.840101 358.438867 
L 812.928081 358.034816 
L 821.016061 357.717245 
L 829.10404 357.488056 
L 837.19202 357.349149 
L 845.28 357.302424 
" clip-path="url(#pb8f0b2a526)" style="fill: none; stroke: #fb02fe; stroke-width: 2; stroke-linecap: square"/>
   </g>
   <g id="line2d_26">
    <path d="M 44.57 510.987273 
L 52.65798 506.330156 
L 60.74596 501.673039 
L 68.833939 497.015923 
L 76.921919 492.358806 
L 85.009899 487.70169 
L 93.097879 483.044573 
L 101.185859 478.387456 
L 109.273838 473.73034 
L 117.361818 469.073223 
L 125.449798 464.416107 
L 133.537778 459.75899 
L 141.625758 455.101873 
L 149.713737 450.444757 
L 157.801717 445.78764 
L 165.889697 441.130523 
L 173.977677 436.473407 
L 182.065657 431.81629 
L 190.153636 427.159174 
L 198.241616 422.502057 
L 206.329596 417.84494 
L 214.417576 413.187824 
L 222.505556 408.530707 
L 230.593535 403.87359 
L 238.681515 399.216474 
L 246.769495 394.559357 
L 254.857475 389.902241 
L 262.945455 385.245124 
L 271.033434 380.588007 
L 279.121414 375.930891 
L 287.209394 371.273774 
L 295.297374 366.616657 
L 303.385354 361.959541 
L 311.473333 357.302424 
L 319.561313 352.645308 
L 327.649293 347.988191 
L 335.737273 343.331074 
L 343.825253 338.673958 
L 351.913232 334.016841 
L 360.001212 329.359725 
L 368.089192 324.702608 
L 376.177172 320.045491 
L 384.265152 315.388375 
L 392.353131 310.731258 
L 400.441111 306.074141 
L 408.529091 301.417025 
L 416.617071 296.759908 
L 424.705051 292.102792 
L 432.79303 287.445675 
L 440.88101 282.788558 
L 448.96899 278.131442 
L 457.05697 273.474325 
L 465.144949 268.817208 
L 473.232929 264.160092 
L 481.320909 259.502975 
L 489.408889 254.845859 
L 497.496869 250.188742 
L 505.584848 245.531625 
L 513.672828 240.874509 
L 521.760808 236.217392 
L 529.848788 231.560275 
L 537.936768 226.903159 
L 546.024747 222.246042 
L 554.112727 217.588926 
L 562.200707 212.931809 
L 570.288687 208.274692 
L 578.376667 203.617576 
L 586.464646 198.960459 
L 594.552626 194.303343 
L 602.640606 189.646226 
L 610.728586 184.989109 
L 618.816566 180.331993 
L 626.904545 175.674876 
L 634.992525 171.017759 
L 643.080505 166.360643 
L 651.168485 161.703526 
L 659.256465 157.04641 
L 667.344444 152.389293 
L 675.432424 147.732176 
L 683.520404 143.07506 
L 691.608384 138.417943 
L 699.696364 133.760826 
L 707.784343 129.10371 
L 715.872323 124.446593 
L 723.960303 119.789477 
L 732.048283 115.13236 
L 740.136263 110.475243 
L 748.224242 105.818127 
L 756.312222 101.16101 
L 764.400202 96.503893 
L 772.488182 91.846777 
L 780.576162 87.18966 
L 788.664141 82.532544 
L 796.752121 77.875427 
L 804.840101 73.21831 
L 812.928081 68.561194 
L 821.016061 63.904077 
L 829.10404 59.246961 
L 837.19202 54.589844 
L 845.28 49.932727 
" clip-path="url(#pb8f0b2a526)" style="fill: none; stroke: #01ff66; stroke-width: 2; stroke-linecap: square"/>
   </g>
   <g id="line2d_27">
    <path d="M 44.57 510.987273 
L 52.65798 510.940548 
L 60.74596 510.801641 
L 68.833939 510.572452 
L 76.921919 510.254881 
L 85.009899 509.85083 
L 93.097879 509.3622 
L 101.185859 508.79089 
L 109.273838 508.138802 
L 117.361818 507.407836 
L 125.449798 506.599893 
L 133.537778 505.716873 
L 141.625758 504.760678 
L 149.713737 503.733207 
L 157.801717 502.636362 
L 165.889697 501.472044 
L 173.977677 500.242152 
L 182.065657 498.948587 
L 190.153636 497.593251 
L 198.241616 496.178044 
L 206.329596 494.704867 
L 214.417576 493.175619 
L 222.505556 491.592203 
L 230.593535 489.956518 
L 238.681515 488.270465 
L 246.769495 486.535945 
L 254.857475 484.754859 
L 262.945455 482.929107 
L 271.033434 481.06059 
L 279.121414 479.151209 
L 287.209394 477.202864 
L 295.297374 475.217456 
L 303.385354 473.196885 
L 311.473333 471.143053 
L 319.561313 469.057859 
L 327.649293 466.943206 
L 335.737273 464.800992 
L 343.825253 462.63312 
L 351.913232 460.441489 
L 360.001212 458.228 
L 368.089192 455.994555 
L 376.177172 453.743053 
L 384.265152 451.475395 
L 392.353131 449.193482 
L 400.441111 446.899215 
L 408.529091 444.594494 
L 416.617071 442.281221 
L 424.705051 439.961295 
L 432.79303 437.636617 
L 440.88101 435.309088 
L 448.96899 432.980609 
L 457.05697 430.65308 
L 465.144949 428.328402 
L 473.232929 426.008476 
L 481.320909 423.695203 
L 489.408889 421.390482 
L 497.496869 419.096215 
L 505.584848 416.814302 
L 513.672828 414.546644 
L 521.760808 412.295142 
L 529.848788 410.061697 
L 537.936768 407.848208 
L 546.024747 405.656577 
L 554.112727 403.488705 
L 562.200707 401.346491 
L 570.288687 399.231838 
L 578.376667 397.146644 
L 586.464646 395.092812 
L 594.552626 393.072241 
L 602.640606 391.086833 
L 610.728586 389.138488 
L 618.816566 387.229107 
L 626.904545 385.36059 
L 634.992525 383.534838 
L 643.080505 381.753752 
L 651.168485 380.019232 
L 659.256465 378.333179 
L 667.344444 376.697494 
L 675.432424 375.114078 
L 683.520404 373.58483 
L 691.608384 372.111653 
L 699.696364 370.696446 
L 707.784343 369.34111 
L 715.872323 368.047545 
L 723.960303 366.817653 
L 732.048283 365.653335 
L 740.136263 364.55649 
L 748.224242 363.529019 
L 756.312222 362.572824 
L 764.400202 361.689804 
L 772.488182 360.881861 
L 780.576162 360.150895 
L 788.664141 359.498807 
L 796.752121 358.927497 
L 804.840101 358.438867 
L 812.928081 358.034816 
L 821.016061 357.717245 
L 829.10404 357.488056 
L 837.19202 357.349149 
L 845.28 357.302424 
" clip-path="url(#pb8f0b2a526)" style="fill: none; stroke: #fffd01; stroke-width: 2; stroke-linecap: square"/>
   </g>
   <g id="line2d_28">
    <path d="M 44.57 500.741616 
L 52.65798 500.68987 
L 60.74596 500.638125 
L 68.833939 500.586379 
L 76.921919 500.534633 
L 85.009899 500.482887 
L 93.097879 500.431142 
L 101.185859 500.379396 
L 109.273838 500.32765 
L 117.361818 500.275904 
L 125.449798 500.224159 
L 133.537778 500.172413 
L 141.625758 500.120667 
L 149.713737 500.068922 
L 157.801717 500.017176 
L 165.889697 499.96543 
L 173.977677 499.913684 
L 182.065657 499.861939 
L 190.153636 499.810193 
L 198.241616 499.758447 
L 206.329596 499.706701 
L 214.417576 499.654956 
L 222.505556 499.60321 
L 230.593535 499.551464 
L 238.681515 499.499718 
L 246.769495 499.447973 
L 254.857475 499.396227 
L 262.945455 499.344481 
L 271.033434 499.292735 
L 279.121414 499.24099 
L 287.209394 499.189244 
L 295.297374 499.137498 
L 303.385354 499.085752 
L 311.473333 499.034007 
L 319.561313 498.982261 
L 327.649293 498.930515 
L 335.737273 498.87877 
L 343.825253 498.827024 
L 351.913232 498.775278 
L 360.001212 498.723532 
L 368.089192 498.671787 
L 376.177172 498.620041 
L 384.265152 498.568295 
L 392.353131 498.516549 
L 400.441111 498.464804 
L 408.529091 498.413058 
L 416.617071 498.361312 
L 424.705051 498.309566 
L 432.79303 498.257821 
L 440.88101 498.206075 
L 448.96899 498.154329 
L 457.05697 498.102583 
L 465.144949 498.050838 
L 473.232929 497.999092 
L 481.320909 497.947346 
L 489.408889 497.8956 
L 497.496869 497.843855 
L 505.584848 497.792109 
L 513.672828 497.740363 
L 521.760808 497.688617 
L 529.848788 497.636872 
L 537.936768 497.585126 
L 546.024747 497.53338 
L 554.112727 497.481635 
L 562.200707 497.429889 
L 570.288687 497.378143 
L 578.376667 497.326397 
L 586.464646 497.274652 
L 594.552626 497.222906 
L 602.640606 497.17116 
L 610.728586 497.119414 
L 618.816566 497.067669 
L 626.904545 497.015923 
L 634.992525 496.964177 
L 643.080505 496.912431 
L 651.168485 496.860686 
L 659.256465 496.80894 
L 667.344444 496.757194 
L 675.432424 496.705448 
L 683.520404 496.653703 
L 691.608384 496.601957 
L 699.696364 496.550211 
L 707.784343 496.498465 
L 715.872323 496.44672 
L 723.960303 496.394974 
L 732.048283 496.343228 
L 740.136263 496.291483 
L 748.224242 496.239737 
L 756.312222 496.187991 
L 764.400202 496.136245 
L 772.488182 496.0845 
L 780.576162 496.032754 
L 788.664141 495.981008 
L 796.752121 495.929262 
L 804.840101 495.877517 
L 812.928081 495.825771 
L 821.016061 495.774025 
L 829.10404 495.722279 
L 837.19202 495.670534 
L 845.28 495.618788 
" clip-path="url(#pb8f0b2a526)" style="fill: none; stroke: #ff2301; stroke-width: 2; stroke-linecap: square"/>
   </g>
   <g id="patch_3">
    <path d="M 44.57 534.04 
L 44.57 26.88 
" style="fill: none; stroke: #444444; stroke-width: 0.8; stroke-linejoin: miter; stroke-linecap: square"/>
   </g>
   <g id="patch_4">
    <path d="M 845.28 534.04 
L 845.28 26.88 
" style="fill: none; stroke: #444444; stroke-width: 0.8; stroke-linejoin: miter; stroke-linecap: square"/>
   </g>
   <g id="patch_5">
    <path d="M 44.57 534.04 
L 845.28 534.04 
" style="fill: none; stroke: #444444; stroke-width: 0.8; stroke-linejoin: miter; stroke-linecap: square"/>
   </g>
   <g id="patch_6">
    <path d="M 44.57 26.88 
L 845.28 26.88 
" style="fill: none; stroke: #444444; stroke-width: 0.8; stroke-linejoin: miter; stroke-linecap: square"/>
   </g>
   <g id="text_14">
    <!-- Solver: CrossReference -->
    <g style="fill: #ffffff" transform="translate(375.589375 20.88) scale(0.12 -0.12)">
     <defs>
      <path id="DejaVuSans-53" d="M 3425 4513 
L 3425 3897 
Q 3066 4069 2747 4153 
Q 2428 4238 2131 4238 
Q 1616 4238 1336 4038 
Q 1056 3838 1056 3469 
Q 1056 3159 1242 3001 
Q 1428 2844 1947 2747 
L 2328 2669 
Q 3034 2534 3370 2195 
Q 3706 1856 3706 1288 
Q 3706 609 3251 259 
Q 2797 -91 1919 -91 
Q 1588 -91 1214 -16 
Q 841 59 441 206 
L 441 856 
Q 825 641 1194 531 
Q 1563 422 1919 422 
Q 2459 422 2753 634 
Q 3047 847 3047 1241 
Q 3047 1584 2836 1778 
Q 2625 1972 2144 2069 
L 1759 2144 
Q 1053 2284 737 2584 
Q 422 2884 422 3419 
Q 422 4038 858 4394 
Q 1294 4750 2059 4750 
Q 2388 4750 2728 4690 
Q 3069 4631 3425 4513 
z
" transform="scale(0.015625)"/>
      <path id="DejaVuSans-76" d="M 191 3500 
L 800 3500 
L 1894 563 
L 2988 3500 
L 3597 3500 
L 2284 0 
L 1503 0 
L 191 3500 
z
" transform="scale(0.015625)"/>
      <path id="DejaVuSans-72" d="M 2631 2963 
Q 2534 3019 2420 3045 
Q 2306 3072 2169 3072 
Q 1681 3072 1420 2755 
Q 1159 2438 1159 1844 
L 1159 0 
L 581 0 
L 581 3500 
L 1159 3500 
L 1159 2956 
Q 1341 3275 1631 3429 
Q 1922 3584 2338 3584 
Q 2397 3584 2469 3576 
Q 2541 3569 2628 3553 
L 2631 2963 
z
" transform="scale(0.015625)"/>
      <path id="DejaVuSans-3a" d="M 750 794 
L 1409 794 
L 1409 0 
L 750 0 
L 750 794 
z
M 750 3309 
L 1409 3309 
L 1409 2516 
L 750 2516 
L 750 3309 
z
" transform="scale(0.015625)"/>
      <path id="DejaVuSans-20" transform="scale(0.015625)"/>
      <path id="DejaVuSans-43" d="M 4122 4306 
L 4122 3641 
Q 3803 3938 3442 4084 
Q 3081 4231 2675 4231 
Q 1875 4231 1450 3742 
Q 1025 3253 1025 2328 
Q 1025 1406 1450 917 
Q 1875 428 2675 428 
Q 3081 428 3442 575 
Q 3803 722 4122 1019 
L 4122 359 
Q 3791 134 3420 21 
Q 3050 -91 2638 -91 
Q 1578 -91 968 557 
Q 359 1206 359 2328 
Q 359 3453 968 4101 
Q 1578 4750 2638 4750 
Q 3056 4750 3426 4639 
Q 3797 4528 4122 4306 
z
" transform="scale(0.015625)"/>
      <path id="DejaVuSans-52" d="M 2841 2188 
Q 3044 2119 3236 1894 
Q 3428 1669 3622 1275 
L 4263 0 
L 3584 0 
L 2988 1197 
Q 2756 1666 2539 1819 
Q 2322 1972 1947 1972 
L 1259 1972 
L 1259 0 
L 628 0 
L 628 4666 
L 2053 4666 
Q 2853 4666 3247 4331 
Q 3641 3997 3641 3322 
Q 3641 2881 3436 2590 
Q 3231 2300 2841 2188 
z
M 1259 4147 
L 1259 2491 
L 2053 2491 
Q 2509 2491 2742 2702 
Q 2975 2913 2975 3322 
Q 2975 3731 2742 3939 
Q 2509 4147 2053 4147 
L 1259 4147 
z
" transform="scale(0.015625)"/>
      <path id="DejaVuSans-66" d="M 2375 4863 
L 2375 4384 
L 1825 4384 
Q 1516 4384 1395 4259 
Q 1275 4134 1275 3809 
L 1275 3500 
L 2222 3500 
L 2222 3053 
L 1275 3053 
L 1275 0 
L 697 0 
L 697 3053 
L 147 3053 
L 147 3500 
L 697 3500 
L 697 3744 
Q 697 4328 969 4595 
Q 1241 4863 1831 4863 
L 2375 4863 
z
" transform="scale(0.015625)"/>
      <path id="DejaVuSans-63" d="M 3122 3366 
L 3122 2828 
Q 2878 2963 2633 3030 
Q 2388 3097 2138 3097 
Q 1578 3097 1268 2742 
Q 959 2388 959 1747 
Q 959 1106 1268 751 
Q 1578 397 2138 397 
Q 2388 397 2633 464 
Q 2878 531 3122 666 
L 3122 134 
Q 2881 22 2623 -34 
Q 2366 -91 2075 -91 
Q 1284 -91 818 406 
Q 353 903 353 1747 
Q 353 2603 823 3093 
Q 1294 3584 2113 3584 
Q 2378 3584 2631 3529 
Q 2884 3475 3122 3366 
z
" transform="scale(0.015625)"/>
     </defs>
     <use xlink:href="#DejaVuSans-53"/>
     <use xlink:href="#DejaVuSans-6f" transform="translate(63.476562 0)"/>
     <use xlink:href="#DejaVuSans-6c" transform="translate(124.658203 0)"/>
     <use xlink:href="#DejaVuSans-76" transform="translate(152.441406 0)"/>
     <use xlink:href="#DejaVuSans-65" transform="translate(211.621094 0)"/>
     <use xlink:href="#DejaVuSans-72" transform="translate(273.144531 0)"/>
     <use xlink:href="#DejaVuSans-3a" transform="translate(312.507812 0)"/>
     <use xlink:href="#DejaVuSans-20" transform="translate(346.199219 0)"/>
     <use xlink:href="#DejaVuSans-43" transform="translate(377.986328 0)"/>
     <use xlink:href="#DejaVuSans-72" transform="translate(447.810547 0)"/>
     <use xlink:href="#DejaVuSans-6f" transform="translate(486.673828 0)"/>
     <use xlink:href="#DejaVuSans-73" transform="translate(547.855469 0)"/>
     <use xlink:href="#DejaVuSans-73" transform="translate(599.955078 0)"/>
     <use xlink:href="#DejaVuSans-52" transform="translate(652.054688 0)"/>
     <use xlink:href="#DejaVuSans-65" transform="translate(717.037109 0)"/>
     <use xlink:href="#DejaVuSans-66" transform="translate(778.560547 0)"/>
     <use xlink:href="#DejaVuSans-65" transform="translate(813.765625 0)"/>
     <use xlink:href="#DejaVuSans-72" transform="translate(875.289062 0)"/>
     <use xlink:href="#DejaVuSans-65" transform="translate(914.152344 0)"/>
     <use xlink:href="#DejaVuSans-6e" transform="translate(975.675781 0)"/>
     <use xlink:href="#DejaVuSans-63" transform="translate(1039.054688 0)"/>
     <use xlink:href="#DejaVuSans-65" transform="translate(1094.035156 0)"/>
    </g>
   </g>
   <g id="PathCollection_1">
    <defs>
     <path id="m5286946aad" d="M 0 3.872983 
C 1.027127 3.872983 2.012324 3.464901 2.738613 2.738613 
C 3.464901 2.012324 3.872983 1.027127 3.872983 0 
C 3.872983 -1.027127 3.464901 -2.012324 2.738613 -2.738613 
C 2.012324 -3.464901 1.027127 -3.872983 0 -3.872983 
C -1.027127 -3.872983 -2.012324 -3.464901 -2.738613 -2.738613 
C -3.464901 -2.012324 -3.872983 -1.027127 -3.872983 0 
C -3.872983 1.027127 -3.464901 2.012324 -2.738613 2.738613 
C -2.012324 3.464901 -1.027127 3.872983 0 3.872983 
z
" style="stroke: #ff9500"/>
    </defs>
    <g clip-path="url(#pb8f0b2a526)">
     <use xlink:href="#m5286946aad" x="44.57" y="510.987273" style="fill: #ff9500; stroke: #ff9500"/>
     <use xlink:href="#m5286946aad" x="845.28" y="459.75899" style="fill: #ff9500; stroke: #ff9500"/>
    </g>
   </g>
   <g id="PathCollection_2">
    <defs>
     <path id="m5c2c417492" d="M 0 3.872983 
C 1.027127 3.872983 2.012324 3.464901 2.738613 2.738613 
C 3.464901 2.012324 3.872983 1.027127 3.872983 0 
C 3.872983 -1.027127 3.464901 -2.012324 2.738613 -2.738613 
C 2.012324 -3.464901 1.027127 -3.872983 0 -3.872983 
C -1.027127 -3.872983 -2.012324 -3.464901 -2.738613 -2.738613 
C -3.464901 -2.012324 -3.872983 -1.027127 -3.872983 0 
C -3.872983 1.027127 -3.464901 2.012324 -2.738613 2.738613 
C -2.012324 3.464901 -1.027127 3.872983 0 3.872983 
z
" style="stroke: #00b9f1"/>
    </defs>
    <g clip-path="url(#pb8f0b2a526)">
     <use xlink:href="#m5c2c417492" x="44.57" y="485.373131" style="fill: #00b9f1; stroke: #00b9f1"/>
     <use xlink:href="#m5c2c417492" x="845.28" y="434.144848" style="fill: #00b9f1; stroke: #00b9f1"/>
    </g>
   </g>
   <g id="PathCollection_3">
    <defs>
     <path id="m299406a0eb" d="M 0 3.872983 
C 1.027127 3.872983 2.012324 3.464901 2.738613 2.738613 
C 3.464901 2.012324 3.872983 1.027127 3.872983 0 
C 3.872983 -1.027127 3.464901 -2.012324 2.738613 -2.738613 
C 2.012324 -3.464901 1.027127 -3.872983 0 -3.872983 
C -1.027127 -3.872983 -2.012324 -3.464901 -2.738613 -2.738613 
C -3.464901 -2.012324 -3.872983 -1.027127 -3.872983 0 
C -3.872983 1.027127 -3.464901 2.012324 -2.738613 2.738613 
C -2.012324 3.464901 -1.027127 3.872983 0 3.872983 
z
" style="stroke: #fb02fe"/>
    </defs>
    <g clip-path="url(#pb8f0b2a526)">
     <use xlink:href="#m299406a0eb" x="44.57" y="510.987273" style="fill: #fb02fe; stroke: #fb02fe"/>
     <use xlink:href="#m299406a0eb" x="845.28" y="357.302424" style="fill: #fb02fe; stroke: #fb02fe"/>
    </g>
   </g>
   <g id="PathCollection_4">
    <defs>
     <path id="m491912ef16" d="M 0 3.872983 
C 1.027127 3.872983 2.012324 3.464901 2.738613 2.738613 
C 3.464901 2.012324 3.872983 1.027127 3.872983 0 
C 3.872983 -1.027127 3.464901 -2.012324 2.738613 -2.738613 
C 2.012324 -3.464901 1.027127 -3.872983 0 -3.872983 
C -1.027127 -3.872983 -2.012324 -3.464901 -2.738613 -2.738613 
C -3.464901 -2.012324 -3.872983 -1.027127 -3.872983 0 
C -3.872983 1.027127 -3.464901 2.012324 -2.738613 2.738613 
C -2.012324 3.464901 -1.027127 3.872983 0 3.872983 
z
" style="stroke: #01ff66"/>
    </defs>
    <g clip-path="url(#pb8f0b2a526)">
     <use xlink:href="#m491912ef16" x="44.57" y="510.987273" style="fill: #01ff66; stroke: #01ff66"/>
     <use xlink:href="#m491912ef16" x="845.28" y="49.932727" style="fill: #01ff66; stroke: #01ff66"/>
    </g>
   </g>
   <g id="PathCollection_5">
    <defs>
     <path id="md8a4fb64bc" d="M 0 3.872983 
C 1.027127 3.872983 2.012324 3.464901 2.738613 2.738613 
C 3.464901 2.012324 3.872983 1.027127 3.872983 0 
C 3.872983 -1.027127 3.464901 -2.012324 2.738613 -2.738613 
C 2.012324 -3.464901 1.027127 -3.872983 0 -3.872983 
C -1.027127 -3.872983 -2.012324 -3.464901 -2.738613 -2.738613 
C -3.464901 -2.012324 -3.872983 -1.027127 -3.872983 0 
C -3.872983 1.027127 -3.464901 2.012324 -2.738613 2.738613 
C -2.012324 3.464901 -1.027127 3.872983 0 3.872983 
z
" style="stroke: #fffd01"/>
    </defs>
    <g clip-path="url(#pb8f0b2a526)">
     <use xlink:href="#md8a4fb64bc" x="44.57" y="510.987273" style="fill: #fffd01; stroke: #fffd01"/>
     <use xlink:href="#md8a4fb64bc" x="845.28" y="357.302424" style="fill: #fffd01; stroke: #fffd01"/>
    </g>
   </g>
   <g id="PathCollection_6">
    <defs>
     <path id="me4e3ffa5de" d="M 0 3.872983 
C 1.027127 3.872983 2.012324 3.464901 2.738613 2.738613 
C 3.464901 2.012324 3.872983 1.027127 3.872983 0 
C 3.872983 -1.027127 3.464901 -2.012324 2.738613 -2.738613 
C 2.012324 -3.464901 1.027127 -3.872983 0 -3.872983 
C -1.027127 -3.872983 -2.012324 -3.464901 -2.738613 -2.738613 
C -3.464901 -2.012324 -3.872983 -1.027127 -3.872983 0 
C -3.872983 1.027127 -3.464901 2.012324 -2.738613 2.738613 
C -2.012324 3.464901 -1.027127 3.872983 0 3.872983 
z
" style="stroke: #ff2301"/>
    </defs>
    <g clip-path="url(#pb8f0b2a526)">
     <use xlink:href="#me4e3ffa5de" x="44.57" y="500.741616" style="fill: #ff2301; stroke: #ff2301"/>
     <use xlink:href="#me4e3ffa5de" x="845.28" y="495.618788" style="fill: #ff2301; stroke: #ff2301"/>
    </g>
   </g>
   <g id="legend_1">
    <g id="patch_7">
     <path d="M 51.57 122.94875 
L 168.512187 122.94875 
Q 170.512187 122.94875 170.512187 120.94875 
L 170.512187 33.88 
Q 170.512187 31.88 168.512187 31.88 
L 51.57 31.88 
Q 49.57 31.88 49.57 33.88 
L 49.57 120.94875 
Q 49.57 122.94875 51.57 122.94875 
z
" style="fill: #121212; opacity: 0.8; stroke: #444444; stroke-linejoin: miter"/>
    </g>
    <g id="line2d_29">
     <path d="M 53.57 39.978438 
L 63.57 39.978438 
L 73.57 39.978438 
" style="fill: none; stroke: #ff9500; stroke-width: 2; stroke-linecap: square"/>
    </g>
    <g id="text_15">
     <!-- position.x -->
     <g style="fill: #ffffff" transform="translate(81.57 43.478438) scale(0.1 -0.1)">
      <defs>
       <path id="DejaVuSans-70" d="M 1159 525 
L 1159 -1331 
L 581 -1331 
L 581 3500 
L 1159 3500 
L 1159 2969 
Q 1341 3281 1617 3432 
Q 1894 3584 2278 3584 
Q 2916 3584 3314 3078 
Q 3713 2572 3713 1747 
Q 3713 922 3314 415 
Q 2916 -91 2278 -91 
Q 1894 -91 1617 61 
Q 1341 213 1159 525 
z
M 3116 1747 
Q 3116 2381 2855 2742 
Q 2594 3103 2138 3103 
Q 1681 3103 1420 2742 
Q 1159 2381 1159 1747 
Q 1159 1113 1420 752 
Q 1681 391 2138 391 
Q 2594 391 2855 752 
Q 3116 1113 3116 1747 
z
" transform="scale(0.015625)"/>
       <path id="DejaVuSans-78" d="M 3513 3500 
L 2247 1797 
L 3578 0 
L 2900 0 
L 1881 1375 
L 863 0 
L 184 0 
L 1544 1831 
L 300 3500 
L 978 3500 
L 1906 2253 
L 2834 3500 
L 3513 3500 
z
" transform="scale(0.015625)"/>
      </defs>
      <use xlink:href="#DejaVuSans-70"/>
      <use xlink:href="#DejaVuSans-6f" transform="translate(63.476562 0)"/>
      <use xlink:href="#DejaVuSans-73" transform="translate(124.658203 0)"/>
      <use xlink:href="#DejaVuSans-69" transform="translate(176.757812 0)"/>
      <use xlink:href="#DejaVuSans-74" transform="translate(204.541016 0)"/>
      <use xlink:href="#DejaVuSans-69" transform="translate(243.75 0)"/>
      <use xlink:href="#DejaVuSans-6f" transform="translate(271.533203 0)"/>
      <use xlink:href="#DejaVuSans-6e" transform="translate(332.714844 0)"/>
      <use xlink:href="#DejaVuSans-2e" transform="translate(396.09375 0)"/>
      <use xlink:href="#DejaVuSans-78" transform="translate(427.880859 0)"/>
     </g>
    </g>
    <g id="line2d_30">
     <path d="M 53.57 54.656563 
L 63.57 54.656563 
L 73.57 54.656563 
" style="fill: none; stroke: #00b9f1; stroke-width: 2; stroke-linecap: square"/>
    </g>
    <g id="text_16">
     <!-- position.y -->
     <g style="fill: #ffffff" transform="translate(81.57 58.156563) scale(0.1 -0.1)">
      <defs>
       <path id="DejaVuSans-79" d="M 2059 -325 
Q 1816 -950 1584 -1140 
Q 1353 -1331 966 -1331 
L 506 -1331 
L 506 -850 
L 844 -850 
Q 1081 -850 1212 -737 
Q 1344 -625 1503 -206 
L 1606 56 
L 191 3500 
L 800 3500 
L 1894 763 
L 2988 3500 
L 3597 3500 
L 2059 -325 
z
" transform="scale(0.015625)"/>
      </defs>
      <use xlink:href="#DejaVuSans-70"/>
      <use xlink:href="#DejaVuSans-6f" transform="translate(63.476562 0)"/>
      <use xlink:href="#DejaVuSans-73" transform="translate(124.658203 0)"/>
      <use xlink:href="#DejaVuSans-69" transform="translate(176.757812 0)"/>
      <use xlink:href="#DejaVuSans-74" transform="translate(204.541016 0)"/>
      <use xlink:href="#DejaVuSans-69" transform="translate(243.75 0)"/>
      <use xlink:href="#DejaVuSans-6f" transform="translate(271.533203 0)"/>
      <use xlink:href="#DejaVuSans-6e" transform="translate(332.714844 0)"/>
      <use xlink:href="#DejaVuSans-2e" transform="translate(396.09375 0)"/>
      <use xlink:href="#DejaVuSans-79" transform="translate(427.880859 0)"/>
     </g>
    </g>
    <g id="line2d_31">
     <path d="M 53.57 69.334688 
L 63.57 69.334688 
L 73.57 69.334688 
" style="fill: none; stroke: #fb02fe; stroke-width: 2; stroke-linecap: square"/>
    </g>
    <g id="text_17">
     <!-- position.rescaled -->
     <g style="fill: #ffffff" transform="translate(81.57 72.834688) scale(0.1 -0.1)">
      <defs>
       <path id="DejaVuSans-64" d="M 2906 2969 
L 2906 4863 
L 3481 4863 
L 3481 0 
L 2906 0 
L 2906 525 
Q 2725 213 2448 61 
Q 2172 -91 1784 -91 
Q 1150 -91 751 415 
Q 353 922 353 1747 
Q 353 2572 751 3078 
Q 1150 3584 1784 3584 
Q 2172 3584 2448 3432 
Q 2725 3281 2906 2969 
z
M 947 1747 
Q 947 1113 1208 752 
Q 1469 391 1925 391 
Q 2381 391 2643 752 
Q 2906 1113 2906 1747 
Q 2906 2381 2643 2742 
Q 2381 3103 1925 3103 
Q 1469 3103 1208 2742 
Q 947 2381 947 1747 
z
" transform="scale(0.015625)"/>
      </defs>
      <use xlink:href="#DejaVuSans-70"/>
      <use xlink:href="#DejaVuSans-6f" transform="translate(63.476562 0)"/>
      <use xlink:href="#DejaVuSans-73" transform="translate(124.658203 0)"/>
      <use xlink:href="#DejaVuSans-69" transform="translate(176.757812 0)"/>
      <use xlink:href="#DejaVuSans-74" transform="translate(204.541016 0)"/>
      <use xlink:href="#DejaVuSans-69" transform="translate(243.75 0)"/>
      <use xlink:href="#DejaVuSans-6f" transform="translate(271.533203 0)"/>
      <use xlink:href="#DejaVuSans-6e" transform="translate(332.714844 0)"/>
      <use xlink:href="#DejaVuSans-2e" transform="translate(396.09375 0)"/>
      <use xlink:href="#DejaVuSans-72" transform="translate(427.880859 0)"/>
      <use xlink:href="#DejaVuSans-65" transform="translate(466.744141 0)"/>
      <use xlink:href="#DejaVuSans-73" transform="translate(528.267578 0)"/>
      <use xlink:href="#DejaVuSans-63" transform="translate(580.367188 0)"/>
      <use xlink:href="#DejaVuSans-61" transform="translate(635.347656 0)"/>
      <use xlink:href="#DejaVuSans-6c" transform="translate(696.626953 0)"/>
      <use xlink:href="#DejaVuSans-65" transform="translate(724.410156 0)"/>
      <use xlink:href="#DejaVuSans-64" transform="translate(785.933594 0)"/>
     </g>
    </g>
    <g id="line2d_32">
     <path d="M 53.57 84.012813 
L 63.57 84.012813 
L 73.57 84.012813 
" style="fill: none; stroke: #01ff66; stroke-width: 2; stroke-linecap: square"/>
    </g>
    <g id="text_18">
     <!-- rotation.angle -->
     <g style="fill: #ffffff" transform="translate(81.57 87.512813) scale(0.1 -0.1)">
      <defs>
       <path id="DejaVuSans-67" d="M 2906 1791 
Q 2906 2416 2648 2759 
Q 2391 3103 1925 3103 
Q 1463 3103 1205 2759 
Q 947 2416 947 1791 
Q 947 1169 1205 825 
Q 1463 481 1925 481 
Q 2391 481 2648 825 
Q 2906 1169 2906 1791 
z
M 3481 434 
Q 3481 -459 3084 -895 
Q 2688 -1331 1869 -1331 
Q 1566 -1331 1297 -1286 
Q 1028 -1241 775 -1147 
L 775 -588 
Q 1028 -725 1275 -790 
Q 1522 -856 1778 -856 
Q 2344 -856 2625 -561 
Q 2906 -266 2906 331 
L 2906 616 
Q 2728 306 2450 153 
Q 2172 0 1784 0 
Q 1141 0 747 490 
Q 353 981 353 1791 
Q 353 2603 747 3093 
Q 1141 3584 1784 3584 
Q 2172 3584 2450 3431 
Q 2728 3278 2906 2969 
L 2906 3500 
L 3481 3500 
L 3481 434 
z
" transform="scale(0.015625)"/>
      </defs>
      <use xlink:href="#DejaVuSans-72"/>
      <use xlink:href="#DejaVuSans-6f" transform="translate(38.863281 0)"/>
      <use xlink:href="#DejaVuSans-74" transform="translate(100.044922 0)"/>
      <use xlink:href="#DejaVuSans-61" transform="translate(139.253906 0)"/>
      <use xlink:href="#DejaVuSans-74" transform="translate(200.533203 0)"/>
      <use xlink:href="#DejaVuSans-69" transform="translate(239.742188 0)"/>
      <use xlink:href="#DejaVuSans-6f" transform="translate(267.525391 0)"/>
      <use xlink:href="#DejaVuSans-6e" transform="translate(328.707031 0)"/>
      <use xlink:href="#DejaVuSans-2e" transform="translate(392.085938 0)"/>
      <use xlink:href="#DejaVuSans-61" transform="translate(423.873047 0)"/>
      <use xlink:href="#DejaVuSans-6e" transform="translate(485.152344 0)"/>
      <use xlink:href="#DejaVuSans-67" transform="translate(548.53125 0)"/>
      <use xlink:href="#DejaVuSans-6c" transform="translate(612.007812 0)"/>
      <use xlink:href="#DejaVuSans-65" transform="translate(639.791016 0)"/>
     </g>
    </g>
    <g id="line2d_33">
     <path d="M 53.57 98.690938 
L 63.57 98.690938 
L 73.57 98.690938 
" style="fill: none; stroke: #fffd01; stroke-width: 2; stroke-linecap: square"/>
    </g>
    <g id="text_19">
     <!-- rotation.derived -->
     <g style="fill: #ffffff" transform="translate(81.57 102.190938) scale(0.1 -0.1)">
      <use xlink:href="#DejaVuSans-72"/>
      <use xlink:href="#DejaVuSans-6f" transform="translate(38.863281 0)"/>
      <use xlink:href="#DejaVuSans-74" transform="translate(100.044922 0)"/>
      <use xlink:href="#DejaVuSans-61" transform="translate(139.253906 0)"/>
      <use xlink:href="#DejaVuSans-74" transform="translate(200.533203 0)"/>
      <use xlink:href="#DejaVuSans-69" transform="translate(239.742188 0)"/>
      <use xlink:href="#DejaVuSans-6f" transform="translate(267.525391 0)"/>
      <use xlink:href="#DejaVuSans-6e" transform="translate(328.707031 0)"/>
      <use xlink:href="#DejaVuSans-2e" transform="translate(392.085938 0)"/>
      <use xlink:href="#DejaVuSans-64" transform="translate(423.873047 0)"/>
      <use xlink:href="#DejaVuSans-65" transform="translate(487.349609 0)"/>
      <use xlink:href="#DejaVuSans-72" transform="translate(548.873047 0)"/>
      <use xlink:href="#DejaVuSans-69" transform="translate(589.986328 0)"/>
      <use xlink:href="#DejaVuSans-76" transform="translate(617.769531 0)"/>
      <use xlink:href="#DejaVuSans-65" transform="translate(676.949219 0)"/>
      <use xlink:href="#DejaVuSans-64" transform="translate(738.472656 0)"/>
     </g>
    </g>
    <g id="line2d_34">
     <path d="M 53.57 113.369063 
L 63.57 113.369063 
L 73.57 113.369063 
" style="fill: none; stroke: #ff2301; stroke-width: 2; stroke-linecap: square"/>
    </g>
    <g id="text_20">
     <!-- scale.factor -->
     <g style="fill: #ffffff" transform="translate(81.57 116.869063) scale(0.1 -0.1)">
      <use xlink:href="#DejaVuSans-73"/>
      <use xlink:href="#DejaVuSans-63" transform="translate(52.099609 0)"/>
      <use xlink:href="#DejaVuSans-61" transform="translate(107.080078 0)"/>
      <use xlink:href="#DejaVuSans-6c" transform="translate(168.359375 0)"/>
      <use xlink:href="#DejaVuSans-65" transform="translate(196.142578 0)"/>
      <use xlink:href="#DejaVuSans-2e" transform="translate(257.666016 0)"/>
      <use xlink:href="#DejaVuSans-66" transform="translate(289.453125 0)"/>
      <use xlink:href="#DejaVuSans-61" transform="translate(324.658203 0)"/>
      <use xlink:href="#DejaVuSans-63" transform="translate(385.9375 0)"/>
      <use xlink:href="#DejaVuSans-74" transform="translate(440.917969 0)"/>
      <use xlink:href="#DejaVuSans-6f" transform="translate(480.126953 0)"/>
      <use xlink:href="#DejaVuSans-72" transform="translate(541.308594 0)"/>
     </g>
    </g>
   </g>
  </g>
 </g>
 <defs>
  <clipPath id="pb8f0b2a526">
   <rect x="44.57" y="26.88" width="800.71" height="507.16"/>
  </clipPath>
 </defs>
</svg>
