<?xml version="1.0" encoding="utf-8" standalone="no"?>
<!DOCTYPE svg PUBLIC "-//W3C//DTD SVG 1.1//EN"
  "http://www.w3.org/Graphics/SVG/1.1/DTD/svg11.dtd">
<svg xmlns:xlink="http://www.w3.org/1999/xlink" width="856.411875pt" height="567.034375pt" viewBox="0 0 856.411875 567.034375" xmlns="http://www.w3.org/2000/svg" version="1.1">
 <metadata>
  <rdf:RDF xmlns:dc="http://purl.org/dc/elements/1.1/" xmlns:cc="http://creativecommons.org/ns#" xmlns:rdf="http://www.w3.org/1999/02/22-rdf-syntax-ns#">
   <cc:Work>
    <dc:type rdf:resource="http://purl.org/dc/dcmitype/StillImage"/>
    <dc:date>2025-03-17T20:37:17.684332</dc:date>
    <dc:format>image/svg+xml</dc:format>
    <dc:creator>
     <cc:Agent>
      <dc:title>Matplotlib v3.10.1, https://matplotlib.org/</dc:title>
     </cc:Agent>
    </dc:creator>
   </cc:Work>
  </rdf:RDF>
 </metadata>
 <defs>
  <style type="text/css">*{stroke-linejoin: round; stroke-linecap: butt}</style>
 </defs>
 <g id="figure_1">
  <g id="patch_1">
   <path d="M 0 567.034375 
L 856.411875 567.034375 
L 856.411875 0 
L 0 0 
z
" style="fill: #121212"/>
  </g>
  <g id="axes_1">
   <g id="patch_2">
    <path d="M 42.620313 529.478125 
L 841.260313 529.478125 
L 841.260313 22.318125 
L 42.620313 22.318125 
z
" style="fill: #121212"/>
   </g>
   <g id="matplotlib.axis_1">
    <g id="xtick_1">
     <g id="line2d_1">
      <path d="M 42.620313 529.478125 
L 42.620313 22.318125 
" clip-path="url(#ped264aa621)" style="fill: none; stroke-dasharray: 2.96,1.28; stroke-dashoffset: 0; stroke: #444444; stroke-opacity: 0.7; stroke-width: 0.8"/>
     </g>
     <g id="line2d_2">
      <defs>
       <path id="md6119ea8a2" d="M 0 0 
L 0 3.5 
" style="stroke: #aaaaaa; stroke-width: 0.8"/>
      </defs>
      <g>
       <use xlink:href="#md6119ea8a2" x="42.620313" y="529.478125" style="fill: #aaaaaa; stroke: #aaaaaa; stroke-width: 0.8"/>
      </g>
     </g>
     <g id="text_1">
      <!-- 0.0 -->
      <g style="fill: #aaaaaa" transform="translate(34.66875 544.076562) scale(0.1 -0.1)">
       <defs>
        <path id="DejaVuSans-30" d="M 2034 4250 
Q 1547 4250 1301 3770 
Q 1056 3291 1056 2328 
Q 1056 1369 1301 889 
Q 1547 409 2034 409 
Q 2525 409 2770 889 
Q 3016 1369 3016 2328 
Q 3016 3291 2770 3770 
Q 2525 4250 2034 4250 
z
M 2034 4750 
Q 2819 4750 3233 4129 
Q 3647 3509 3647 2328 
Q 3647 1150 3233 529 
Q 2819 -91 2034 -91 
Q 1250 -91 836 529 
Q 422 1150 422 2328 
Q 422 3509 836 4129 
Q 1250 4750 2034 4750 
z
" transform="scale(0.015625)"/>
        <path id="DejaVuSans-2e" d="M 684 794 
L 1344 794 
L 1344 0 
L 684 0 
L 684 794 
z
" transform="scale(0.015625)"/>
       </defs>
       <use xlink:href="#DejaVuSans-30"/>
       <use xlink:href="#DejaVuSans-2e" transform="translate(63.623047 0)"/>
       <use xlink:href="#DejaVuSans-30" transform="translate(95.410156 0)"/>
      </g>
     </g>
    </g>
    <g id="xtick_2">
     <g id="line2d_3">
      <path d="M 202.348313 529.478125 
L 202.348313 22.318125 
" clip-path="url(#ped264aa621)" style="fill: none; stroke-dasharray: 2.96,1.28; stroke-dashoffset: 0; stroke: #444444; stroke-opacity: 0.7; stroke-width: 0.8"/>
     </g>
     <g id="line2d_4">
      <g>
       <use xlink:href="#md6119ea8a2" x="202.348313" y="529.478125" style="fill: #aaaaaa; stroke: #aaaaaa; stroke-width: 0.8"/>
      </g>
     </g>
     <g id="text_2">
      <!-- 0.2 -->
      <g style="fill: #aaaaaa" transform="translate(194.39675 544.076562) scale(0.1 -0.1)">
       <defs>
        <path id="DejaVuSans-32" d="M 1228 531 
L 3431 531 
L 3431 0 
L 469 0 
L 469 531 
Q 828 903 1448 1529 
Q 2069 2156 2228 2338 
Q 2531 2678 2651 2914 
Q 2772 3150 2772 3378 
Q 2772 3750 2511 3984 
Q 2250 4219 1831 4219 
Q 1534 4219 1204 4116 
Q 875 4013 500 3803 
L 500 4441 
Q 881 4594 1212 4672 
Q 1544 4750 1819 4750 
Q 2544 4750 2975 4387 
Q 3406 4025 3406 3419 
Q 3406 3131 3298 2873 
Q 3191 2616 2906 2266 
Q 2828 2175 2409 1742 
Q 1991 1309 1228 531 
z
" transform="scale(0.015625)"/>
       </defs>
       <use xlink:href="#DejaVuSans-30"/>
       <use xlink:href="#DejaVuSans-2e" transform="translate(63.623047 0)"/>
       <use xlink:href="#DejaVuSans-32" transform="translate(95.410156 0)"/>
      </g>
     </g>
    </g>
    <g id="xtick_3">
     <g id="line2d_5">
      <path d="M 362.076313 529.478125 
L 362.076313 22.318125 
" clip-path="url(#ped264aa621)" style="fill: none; stroke-dasharray: 2.96,1.28; stroke-dashoffset: 0; stroke: #444444; stroke-opacity: 0.7; stroke-width: 0.8"/>
     </g>
     <g id="line2d_6">
      <g>
       <use xlink:href="#md6119ea8a2" x="362.076313" y="529.478125" style="fill: #aaaaaa; stroke: #aaaaaa; stroke-width: 0.8"/>
      </g>
     </g>
     <g id="text_3">
      <!-- 0.4 -->
      <g style="fill: #aaaaaa" transform="translate(354.12475 544.076562) scale(0.1 -0.1)">
       <defs>
        <path id="DejaVuSans-34" d="M 2419 4116 
L 825 1625 
L 2419 1625 
L 2419 4116 
z
M 2253 4666 
L 3047 4666 
L 3047 1625 
L 3713 1625 
L 3713 1100 
L 3047 1100 
L 3047 0 
L 2419 0 
L 2419 1100 
L 313 1100 
L 313 1709 
L 2253 4666 
z
" transform="scale(0.015625)"/>
       </defs>
       <use xlink:href="#DejaVuSans-30"/>
       <use xlink:href="#DejaVuSans-2e" transform="translate(63.623047 0)"/>
       <use xlink:href="#DejaVuSans-34" transform="translate(95.410156 0)"/>
      </g>
     </g>
    </g>
    <g id="xtick_4">
     <g id="line2d_7">
      <path d="M 521.804313 529.478125 
L 521.804313 22.318125 
" clip-path="url(#ped264aa621)" style="fill: none; stroke-dasharray: 2.96,1.28; stroke-dashoffset: 0; stroke: #444444; stroke-opacity: 0.7; stroke-width: 0.8"/>
     </g>
     <g id="line2d_8">
      <g>
       <use xlink:href="#md6119ea8a2" x="521.804313" y="529.478125" style="fill: #aaaaaa; stroke: #aaaaaa; stroke-width: 0.8"/>
      </g>
     </g>
     <g id="text_4">
      <!-- 0.6 -->
      <g style="fill: #aaaaaa" transform="translate(513.85275 544.076562) scale(0.1 -0.1)">
       <defs>
        <path id="DejaVuSans-36" d="M 2113 2584 
Q 1688 2584 1439 2293 
Q 1191 2003 1191 1497 
Q 1191 994 1439 701 
Q 1688 409 2113 409 
Q 2538 409 2786 701 
Q 3034 994 3034 1497 
Q 3034 2003 2786 2293 
Q 2538 2584 2113 2584 
z
M 3366 4563 
L 3366 3988 
Q 3128 4100 2886 4159 
Q 2644 4219 2406 4219 
Q 1781 4219 1451 3797 
Q 1122 3375 1075 2522 
Q 1259 2794 1537 2939 
Q 1816 3084 2150 3084 
Q 2853 3084 3261 2657 
Q 3669 2231 3669 1497 
Q 3669 778 3244 343 
Q 2819 -91 2113 -91 
Q 1303 -91 875 529 
Q 447 1150 447 2328 
Q 447 3434 972 4092 
Q 1497 4750 2381 4750 
Q 2619 4750 2861 4703 
Q 3103 4656 3366 4563 
z
" transform="scale(0.015625)"/>
       </defs>
       <use xlink:href="#DejaVuSans-30"/>
       <use xlink:href="#DejaVuSans-2e" transform="translate(63.623047 0)"/>
       <use xlink:href="#DejaVuSans-36" transform="translate(95.410156 0)"/>
      </g>
     </g>
    </g>
    <g id="xtick_5">
     <g id="line2d_9">
      <path d="M 681.532313 529.478125 
L 681.532313 22.318125 
" clip-path="url(#ped264aa621)" style="fill: none; stroke-dasharray: 2.96,1.28; stroke-dashoffset: 0; stroke: #444444; stroke-opacity: 0.7; stroke-width: 0.8"/>
     </g>
     <g id="line2d_10">
      <g>
       <use xlink:href="#md6119ea8a2" x="681.532313" y="529.478125" style="fill: #aaaaaa; stroke: #aaaaaa; stroke-width: 0.8"/>
      </g>
     </g>
     <g id="text_5">
      <!-- 0.8 -->
      <g style="fill: #aaaaaa" transform="translate(673.58075 544.076562) scale(0.1 -0.1)">
       <defs>
        <path id="DejaVuSans-38" d="M 2034 2216 
Q 1584 2216 1326 1975 
Q 1069 1734 1069 1313 
Q 1069 891 1326 650 
Q 1584 409 2034 409 
Q 2484 409 2743 651 
Q 3003 894 3003 1313 
Q 3003 1734 2745 1975 
Q 2488 2216 2034 2216 
z
M 1403 2484 
Q 997 2584 770 2862 
Q 544 3141 544 3541 
Q 544 4100 942 4425 
Q 1341 4750 2034 4750 
Q 2731 4750 3128 4425 
Q 3525 4100 3525 3541 
Q 3525 3141 3298 2862 
Q 3072 2584 2669 2484 
Q 3125 2378 3379 2068 
Q 3634 1759 3634 1313 
Q 3634 634 3220 271 
Q 2806 -91 2034 -91 
Q 1263 -91 848 271 
Q 434 634 434 1313 
Q 434 1759 690 2068 
Q 947 2378 1403 2484 
z
M 1172 3481 
Q 1172 3119 1398 2916 
Q 1625 2713 2034 2713 
Q 2441 2713 2670 2916 
Q 2900 3119 2900 3481 
Q 2900 3844 2670 4047 
Q 2441 4250 2034 4250 
Q 1625 4250 1398 4047 
Q 1172 3844 1172 3481 
z
" transform="scale(0.015625)"/>
       </defs>
       <use xlink:href="#DejaVuSans-30"/>
       <use xlink:href="#DejaVuSans-2e" transform="translate(63.623047 0)"/>
       <use xlink:href="#DejaVuSans-38" transform="translate(95.410156 0)"/>
      </g>
     </g>
    </g>
    <g id="xtick_6">
     <g id="line2d_11">
      <path d="M 841.260313 529.478125 
L 841.260313 22.318125 
" clip-path="url(#ped264aa621)" style="fill: none; stroke-dasharray: 2.96,1.28; stroke-dashoffset: 0; stroke: #444444; stroke-opacity: 0.7; stroke-width: 0.8"/>
     </g>
     <g id="line2d_12">
      <g>
       <use xlink:href="#md6119ea8a2" x="841.260313" y="529.478125" style="fill: #aaaaaa; stroke: #aaaaaa; stroke-width: 0.8"/>
      </g>
     </g>
     <g id="text_6">
      <!-- 1.0 -->
      <g style="fill: #aaaaaa" transform="translate(833.30875 544.076562) scale(0.1 -0.1)">
       <defs>
        <path id="DejaVuSans-31" d="M 794 531 
L 1825 531 
L 1825 4091 
L 703 3866 
L 703 4441 
L 1819 4666 
L 2450 4666 
L 2450 531 
L 3481 531 
L 3481 0 
L 794 0 
L 794 531 
z
" transform="scale(0.015625)"/>
       </defs>
       <use xlink:href="#DejaVuSans-31"/>
       <use xlink:href="#DejaVuSans-2e" transform="translate(63.623047 0)"/>
       <use xlink:href="#DejaVuSans-30" transform="translate(95.410156 0)"/>
      </g>
     </g>
    </g>
    <g id="text_7">
     <!-- Position -->
     <g style="fill: #ffffff" transform="translate(422.47625 557.754687) scale(0.1 -0.1)">
      <defs>
       <path id="DejaVuSans-50" d="M 1259 4147 
L 1259 2394 
L 2053 2394 
Q 2494 2394 2734 2622 
Q 2975 2850 2975 3272 
Q 2975 3691 2734 3919 
Q 2494 4147 2053 4147 
L 1259 4147 
z
M 628 4666 
L 2053 4666 
Q 2838 4666 3239 4311 
Q 3641 3956 3641 3272 
Q 3641 2581 3239 2228 
Q 2838 1875 2053 1875 
L 1259 1875 
L 1259 0 
L 628 0 
L 628 4666 
z
" transform="scale(0.015625)"/>
       <path id="DejaVuSans-6f" d="M 1959 3097 
Q 1497 3097 1228 2736 
Q 959 2375 959 1747 
Q 959 1119 1226 758 
Q 1494 397 1959 397 
Q 2419 397 2687 759 
Q 2956 1122 2956 1747 
Q 2956 2369 2687 2733 
Q 2419 3097 1959 3097 
z
M 1959 3584 
Q 2709 3584 3137 3096 
Q 3566 2609 3566 1747 
Q 3566 888 3137 398 
Q 2709 -91 1959 -91 
Q 1206 -91 779 398 
Q 353 888 353 1747 
Q 353 2609 779 3096 
Q 1206 3584 1959 3584 
z
" transform="scale(0.015625)"/>
       <path id="DejaVuSans-73" d="M 2834 3397 
L 2834 2853 
Q 2591 2978 2328 3040 
Q 2066 3103 1784 3103 
Q 1356 3103 1142 2972 
Q 928 2841 928 2578 
Q 928 2378 1081 2264 
Q 1234 2150 1697 2047 
L 1894 2003 
Q 2506 1872 2764 1633 
Q 3022 1394 3022 966 
Q 3022 478 2636 193 
Q 2250 -91 1575 -91 
Q 1294 -91 989 -36 
Q 684 19 347 128 
L 347 722 
Q 666 556 975 473 
Q 1284 391 1588 391 
Q 1994 391 2212 530 
Q 2431 669 2431 922 
Q 2431 1156 2273 1281 
Q 2116 1406 1581 1522 
L 1381 1569 
Q 847 1681 609 1914 
Q 372 2147 372 2553 
Q 372 3047 722 3315 
Q 1072 3584 1716 3584 
Q 2034 3584 2315 3537 
Q 2597 3491 2834 3397 
z
" transform="scale(0.015625)"/>
       <path id="DejaVuSans-69" d="M 603 3500 
L 1178 3500 
L 1178 0 
L 603 0 
L 603 3500 
z
M 603 4863 
L 1178 4863 
L 1178 4134 
L 603 4134 
L 603 4863 
z
" transform="scale(0.015625)"/>
       <path id="DejaVuSans-74" d="M 1172 4494 
L 1172 3500 
L 2356 3500 
L 2356 3053 
L 1172 3053 
L 1172 1153 
Q 1172 725 1289 603 
Q 1406 481 1766 481 
L 2356 481 
L 2356 0 
L 1766 0 
Q 1100 0 847 248 
Q 594 497 594 1153 
L 594 3053 
L 172 3053 
L 172 3500 
L 594 3500 
L 594 4494 
L 1172 4494 
z
" transform="scale(0.015625)"/>
       <path id="DejaVuSans-6e" d="M 3513 2113 
L 3513 0 
L 2938 0 
L 2938 2094 
Q 2938 2591 2744 2837 
Q 2550 3084 2163 3084 
Q 1697 3084 1428 2787 
Q 1159 2491 1159 1978 
L 1159 0 
L 581 0 
L 581 3500 
L 1159 3500 
L 1159 2956 
Q 1366 3272 1645 3428 
Q 1925 3584 2291 3584 
Q 2894 3584 3203 3211 
Q 3513 2838 3513 2113 
z
" transform="scale(0.015625)"/>
      </defs>
      <use xlink:href="#DejaVuSans-50"/>
      <use xlink:href="#DejaVuSans-6f" transform="translate(56.677734 0)"/>
      <use xlink:href="#DejaVuSans-73" transform="translate(117.859375 0)"/>
      <use xlink:href="#DejaVuSans-69" transform="translate(169.958984 0)"/>
      <use xlink:href="#DejaVuSans-74" transform="translate(197.742188 0)"/>
      <use xlink:href="#DejaVuSans-69" transform="translate(236.951172 0)"/>
      <use xlink:href="#DejaVuSans-6f" transform="translate(264.734375 0)"/>
      <use xlink:href="#DejaVuSans-6e" transform="translate(325.916016 0)"/>
     </g>
    </g>
   </g>
   <g id="matplotlib.axis_2">
    <g id="ytick_1">
     <g id="line2d_13">
      <path d="M 42.620313 494.017118 
L 841.260313 494.017118 
" clip-path="url(#ped264aa621)" style="fill: none; stroke-dasharray: 2.96,1.28; stroke-dashoffset: 0; stroke: #444444; stroke-opacity: 0.7; stroke-width: 0.8"/>
     </g>
     <g id="line2d_14">
      <defs>
       <path id="m578df98fdf" d="M 0 0 
L -3.5 0 
" style="stroke: #aaaaaa; stroke-width: 0.8"/>
      </defs>
      <g>
       <use xlink:href="#m578df98fdf" x="42.620313" y="494.017118" style="fill: #aaaaaa; stroke: #aaaaaa; stroke-width: 0.8"/>
      </g>
     </g>
     <g id="text_8">
      <!-- −2 -->
      <g style="fill: #aaaaaa" transform="translate(20.878125 497.816337) scale(0.1 -0.1)">
       <defs>
        <path id="DejaVuSans-2212" d="M 678 2272 
L 4684 2272 
L 4684 1741 
L 678 1741 
L 678 2272 
z
" transform="scale(0.015625)"/>
       </defs>
       <use xlink:href="#DejaVuSans-2212"/>
       <use xlink:href="#DejaVuSans-32" transform="translate(83.789062 0)"/>
      </g>
     </g>
    </g>
    <g id="ytick_2">
     <g id="line2d_15">
      <path d="M 42.620313 415.404599 
L 841.260313 415.404599 
" clip-path="url(#ped264aa621)" style="fill: none; stroke-dasharray: 2.96,1.28; stroke-dashoffset: 0; stroke: #444444; stroke-opacity: 0.7; stroke-width: 0.8"/>
     </g>
     <g id="line2d_16">
      <g>
       <use xlink:href="#m578df98fdf" x="42.620313" y="415.404599" style="fill: #aaaaaa; stroke: #aaaaaa; stroke-width: 0.8"/>
      </g>
     </g>
     <g id="text_9">
      <!-- −1 -->
      <g style="fill: #aaaaaa" transform="translate(20.878125 419.203817) scale(0.1 -0.1)">
       <use xlink:href="#DejaVuSans-2212"/>
       <use xlink:href="#DejaVuSans-31" transform="translate(83.789062 0)"/>
      </g>
     </g>
    </g>
    <g id="ytick_3">
     <g id="line2d_17">
      <path d="M 42.620313 336.792079 
L 841.260313 336.792079 
" clip-path="url(#ped264aa621)" style="fill: none; stroke-dasharray: 2.96,1.28; stroke-dashoffset: 0; stroke: #444444; stroke-opacity: 0.7; stroke-width: 0.8"/>
     </g>
     <g id="line2d_18">
      <g>
       <use xlink:href="#m578df98fdf" x="42.620313" y="336.792079" style="fill: #aaaaaa; stroke: #aaaaaa; stroke-width: 0.8"/>
      </g>
     </g>
     <g id="text_10">
      <!-- 0 -->
      <g style="fill: #aaaaaa" transform="translate(29.257813 340.591298) scale(0.1 -0.1)">
       <use xlink:href="#DejaVuSans-30"/>
      </g>
     </g>
    </g>
    <g id="ytick_4">
     <g id="line2d_19">
      <path d="M 42.620313 258.179559 
L 841.260313 258.179559 
" clip-path="url(#ped264aa621)" style="fill: none; stroke-dasharray: 2.96,1.28; stroke-dashoffset: 0; stroke: #444444; stroke-opacity: 0.7; stroke-width: 0.8"/>
     </g>
     <g id="line2d_20">
      <g>
       <use xlink:href="#m578df98fdf" x="42.620313" y="258.179559" style="fill: #aaaaaa; stroke: #aaaaaa; stroke-width: 0.8"/>
      </g>
     </g>
     <g id="text_11">
      <!-- 1 -->
      <g style="fill: #aaaaaa" transform="translate(29.257813 261.978778) scale(0.1 -0.1)">
       <use xlink:href="#DejaVuSans-31"/>
      </g>
     </g>
    </g>
    <g id="ytick_5">
     <g id="line2d_21">
      <path d="M 42.620313 179.567039 
L 841.260313 179.567039 
" clip-path="url(#ped264aa621)" style="fill: none; stroke-dasharray: 2.96,1.28; stroke-dashoffset: 0; stroke: #444444; stroke-opacity: 0.7; stroke-width: 0.8"/>
     </g>
     <g id="line2d_22">
      <g>
       <use xlink:href="#m578df98fdf" x="42.620313" y="179.567039" style="fill: #aaaaaa; stroke: #aaaaaa; stroke-width: 0.8"/>
      </g>
     </g>
     <g id="text_12">
      <!-- 2 -->
      <g style="fill: #aaaaaa" transform="translate(29.257813 183.366258) scale(0.1 -0.1)">
       <use xlink:href="#DejaVuSans-32"/>
      </g>
     </g>
    </g>
    <g id="ytick_6">
     <g id="line2d_23">
      <path d="M 42.620313 100.954519 
L 841.260313 100.954519 
" clip-path="url(#ped264aa621)" style="fill: none; stroke-dasharray: 2.96,1.28; stroke-dashoffset: 0; stroke: #444444; stroke-opacity: 0.7; stroke-width: 0.8"/>
     </g>
     <g id="line2d_24">
      <g>
       <use xlink:href="#m578df98fdf" x="42.620313" y="100.954519" style="fill: #aaaaaa; stroke: #aaaaaa; stroke-width: 0.8"/>
      </g>
     </g>
     <g id="text_13">
      <!-- 3 -->
      <g style="fill: #aaaaaa" transform="translate(29.257813 104.753738) scale(0.1 -0.1)">
       <defs>
        <path id="DejaVuSans-33" d="M 2597 2516 
Q 3050 2419 3304 2112 
Q 3559 1806 3559 1356 
Q 3559 666 3084 287 
Q 2609 -91 1734 -91 
Q 1441 -91 1130 -33 
Q 819 25 488 141 
L 488 750 
Q 750 597 1062 519 
Q 1375 441 1716 441 
Q 2309 441 2620 675 
Q 2931 909 2931 1356 
Q 2931 1769 2642 2001 
Q 2353 2234 1838 2234 
L 1294 2234 
L 1294 2753 
L 1863 2753 
Q 2328 2753 2575 2939 
Q 2822 3125 2822 3475 
Q 2822 3834 2567 4026 
Q 2313 4219 1838 4219 
Q 1578 4219 1281 4162 
Q 984 4106 628 3988 
L 628 4550 
Q 988 4650 1302 4700 
Q 1616 4750 1894 4750 
Q 2613 4750 3031 4423 
Q 3450 4097 3450 3541 
Q 3450 3153 3228 2886 
Q 3006 2619 2597 2516 
z
" transform="scale(0.015625)"/>
       </defs>
       <use xlink:href="#DejaVuSans-33"/>
      </g>
     </g>
    </g>
    <g id="ytick_7">
     <g id="line2d_25">
      <path d="M 42.620313 22.341999 
L 841.260313 22.341999 
" clip-path="url(#ped264aa621)" style="fill: none; stroke-dasharray: 2.96,1.28; stroke-dashoffset: 0; stroke: #444444; stroke-opacity: 0.7; stroke-width: 0.8"/>
     </g>
     <g id="line2d_26">
      <g>
       <use xlink:href="#m578df98fdf" x="42.620313" y="22.341999" style="fill: #aaaaaa; stroke: #aaaaaa; stroke-width: 0.8"/>
      </g>
     </g>
     <g id="text_14">
      <!-- 4 -->
      <g style="fill: #aaaaaa" transform="translate(29.257813 26.141218) scale(0.1 -0.1)">
       <use xlink:href="#DejaVuSans-34"/>
      </g>
     </g>
    </g>
    <g id="text_15">
     <!-- Value -->
     <g style="fill: #ffffff" transform="translate(14.798438 289.629375) rotate(-90) scale(0.1 -0.1)">
      <defs>
       <path id="DejaVuSans-56" d="M 1831 0 
L 50 4666 
L 709 4666 
L 2188 738 
L 3669 4666 
L 4325 4666 
L 2547 0 
L 1831 0 
z
" transform="scale(0.015625)"/>
       <path id="DejaVuSans-61" d="M 2194 1759 
Q 1497 1759 1228 1600 
Q 959 1441 959 1056 
Q 959 750 1161 570 
Q 1363 391 1709 391 
Q 2188 391 2477 730 
Q 2766 1069 2766 1631 
L 2766 1759 
L 2194 1759 
z
M 3341 1997 
L 3341 0 
L 2766 0 
L 2766 531 
Q 2569 213 2275 61 
Q 1981 -91 1556 -91 
Q 1019 -91 701 211 
Q 384 513 384 1019 
Q 384 1609 779 1909 
Q 1175 2209 1959 2209 
L 2766 2209 
L 2766 2266 
Q 2766 2663 2505 2880 
Q 2244 3097 1772 3097 
Q 1472 3097 1187 3025 
Q 903 2953 641 2809 
L 641 3341 
Q 956 3463 1253 3523 
Q 1550 3584 1831 3584 
Q 2591 3584 2966 3190 
Q 3341 2797 3341 1997 
z
" transform="scale(0.015625)"/>
       <path id="DejaVuSans-6c" d="M 603 4863 
L 1178 4863 
L 1178 0 
L 603 0 
L 603 4863 
z
" transform="scale(0.015625)"/>
       <path id="DejaVuSans-75" d="M 544 1381 
L 544 3500 
L 1119 3500 
L 1119 1403 
Q 1119 906 1312 657 
Q 1506 409 1894 409 
Q 2359 409 2629 706 
Q 2900 1003 2900 1516 
L 2900 3500 
L 3475 3500 
L 3475 0 
L 2900 0 
L 2900 538 
Q 2691 219 2414 64 
Q 2138 -91 1772 -91 
Q 1169 -91 856 284 
Q 544 659 544 1381 
z
M 1991 3584 
L 1991 3584 
z
" transform="scale(0.015625)"/>
       <path id="DejaVuSans-65" d="M 3597 1894 
L 3597 1613 
L 953 1613 
Q 991 1019 1311 708 
Q 1631 397 2203 397 
Q 2534 397 2845 478 
Q 3156 559 3463 722 
L 3463 178 
Q 3153 47 2828 -22 
Q 2503 -91 2169 -91 
Q 1331 -91 842 396 
Q 353 884 353 1716 
Q 353 2575 817 3079 
Q 1281 3584 2069 3584 
Q 2775 3584 3186 3129 
Q 3597 2675 3597 1894 
z
M 3022 2063 
Q 3016 2534 2758 2815 
Q 2500 3097 2075 3097 
Q 1594 3097 1305 2825 
Q 1016 2553 972 2059 
L 3022 2063 
z
" transform="scale(0.015625)"/>
      </defs>
      <use xlink:href="#DejaVuSans-56"/>
      <use xlink:href="#DejaVuSans-61" transform="translate(60.658203 0)"/>
      <use xlink:href="#DejaVuSans-6c" transform="translate(121.9375 0)"/>
      <use xlink:href="#DejaVuSans-75" transform="translate(149.720703 0)"/>
      <use xlink:href="#DejaVuSans-65" transform="translate(213.099609 0)"/>
     </g>
    </g>
   </g>
   <g id="line2d_27">
    <path d="M 42.620313 336.792079 
L 47.962386 333.193709 
L 55.975496 327.468011 
L 63.988607 321.386635 
L 72.001717 314.992432 
L 80.014828 308.328256 
L 90.698975 299.096797 
L 101.383122 289.563145 
L 117.409343 274.918256 
L 144.11971 250.438159 
L 154.803858 240.917204 
L 165.488005 231.70352 
L 173.501115 225.056009 
L 181.514226 218.681328 
L 189.527336 212.622331 
L 197.540446 206.921869 
L 202.88252 203.34191 
L 208.224593 199.953043 
L 213.566667 196.767965 
L 218.908741 193.799374 
L 224.250814 191.059967 
L 229.592888 188.56244 
L 234.934961 186.319492 
L 240.277035 184.343818 
L 245.619108 182.648117 
L 250.961182 181.245086 
L 256.303256 180.147421 
L 261.645329 179.36782 
L 266.987403 178.91898 
L 272.329476 178.813598 
L 277.67155 179.064371 
L 283.013624 179.683034 
L 288.355697 180.623719 
L 293.697771 181.848735 
L 299.039844 183.34863 
L 304.381918 185.11395 
L 309.723991 187.135242 
L 315.066065 189.403055 
L 320.408139 191.907934 
L 325.750212 194.640427 
L 331.092286 197.591082 
L 336.434359 200.750445 
L 341.776433 204.109063 
L 347.118506 207.657484 
L 355.131617 213.315317 
L 363.144727 219.347034 
L 371.157838 225.720732 
L 379.170948 232.404507 
L 387.184058 239.366455 
L 395.197169 246.574673 
L 405.881316 256.513577 
L 416.565463 266.757954 
L 429.920647 279.877792 
L 451.288941 301.247889 
L 472.657236 322.554294 
L 486.01242 335.569639 
L 496.696567 345.694595 
L 507.380714 355.482232 
L 515.393824 362.556102 
L 523.406935 369.365789 
L 531.420045 375.879388 
L 539.433155 382.064998 
L 547.446266 387.890714 
L 552.788339 391.558829 
L 558.130413 395.043359 
L 563.472486 398.334852 
L 568.81456 401.423854 
L 574.156634 404.300913 
L 579.498707 406.956575 
L 584.840781 409.381389 
L 590.182854 411.565901 
L 595.524928 413.500658 
L 600.867001 415.176207 
L 606.209075 416.577746 
L 611.551149 417.697461 
L 616.893222 418.544821 
L 622.235296 419.129536 
L 627.577369 419.461317 
L 632.919443 419.549872 
L 638.261517 419.404912 
L 643.60359 419.036146 
L 648.945664 418.453283 
L 654.287737 417.666034 
L 659.629811 416.684107 
L 664.971884 415.517212 
L 670.313958 414.17506 
L 675.656032 412.667358 
L 683.669142 410.116643 
L 691.682252 407.248059 
L 699.695363 404.094378 
L 707.708473 400.688369 
L 715.721583 397.062801 
L 726.405731 391.943816 
L 737.089878 386.570439 
L 753.116098 378.203309 
L 785.16854 361.324859 
L 795.852687 355.940802 
L 806.536834 350.807252 
L 814.549945 347.168213 
L 822.563055 343.746547 
L 830.576165 340.575024 
L 838.589276 337.686415 
L 841.260313 336.792079 
L 841.260313 336.792079 
" clip-path="url(#ped264aa621)" style="fill: none; stroke: #ff9500; stroke-width: 2; stroke-linecap: square"/>
   </g>
   <g id="line2d_28">
    <path d="M 42.620313 494.017118 
L 47.962386 472.268151 
L 53.30446 451.18547 
L 58.646533 430.760042 
L 63.988607 410.982833 
L 69.33068 391.844807 
L 74.672754 373.336931 
L 80.014828 355.45017 
L 85.356901 338.175489 
L 90.698975 321.503855 
L 96.041048 305.426232 
L 101.383122 289.933588 
L 106.725195 275.016886 
L 112.067269 260.667092 
L 117.409343 246.875174 
L 122.751416 233.632094 
L 128.09349 220.928821 
L 133.435563 208.756318 
L 138.777637 197.105552 
L 144.11971 185.967489 
L 149.461784 175.333093 
L 154.803858 165.193331 
L 160.145931 155.539167 
L 165.488005 146.361569 
L 170.830078 137.6515 
L 176.172152 129.399928 
L 181.514226 121.597817 
L 186.856299 114.236133 
L 192.198373 107.305841 
L 197.540446 100.797908 
L 202.88252 94.703299 
L 208.224593 89.012979 
L 213.566667 83.717914 
L 218.908741 78.80907 
L 224.250814 74.277412 
L 229.592888 70.113906 
L 234.934961 66.309518 
L 240.277035 62.855212 
L 245.619108 59.741955 
L 250.961182 56.960712 
L 256.303256 54.50245 
L 261.645329 52.358132 
L 266.987403 50.518726 
L 272.329476 48.975196 
L 277.67155 47.718508 
L 283.013624 46.739629 
L 288.355697 46.029522 
L 293.697771 45.579155 
L 299.039844 45.379493 
L 304.381918 45.4215 
L 309.723991 45.696144 
L 315.066065 46.194389 
L 320.408139 46.9072 
L 325.750212 47.825545 
L 331.092286 48.940388 
L 336.434359 50.242694 
L 341.776433 51.72343 
L 347.118506 53.373561 
L 355.131617 56.146611 
L 363.144727 59.24998 
L 371.157838 62.653179 
L 379.170948 66.325716 
L 387.184058 70.2371 
L 395.197169 74.35684 
L 405.881316 80.121235 
L 416.565463 86.129558 
L 432.591684 95.441308 
L 440.604794 100.165788 
L 443.275831 102.537283 
L 451.288941 112.248541 
L 459.302052 122.308541 
L 467.315162 132.690603 
L 475.328272 143.368047 
L 486.01242 158.018011 
L 496.696567 173.082427 
L 507.380714 188.498056 
L 520.735898 208.165141 
L 536.762119 232.185673 
L 598.195965 324.774384 
L 611.551149 344.225491 
L 622.235296 359.4226 
L 632.919443 374.227843 
L 643.60359 388.577977 
L 651.6167 399.00387 
L 659.629811 409.111512 
L 667.642921 418.874223 
L 675.656032 428.265324 
L 683.669142 437.258135 
L 691.682252 445.825977 
L 699.695363 453.942168 
L 705.037436 459.088871 
L 710.37951 464.015078 
L 715.721583 468.712885 
L 721.063657 473.174385 
L 726.405731 477.391674 
L 731.747804 481.356846 
L 737.089878 485.061998 
L 742.431951 488.499223 
L 747.774025 491.660616 
L 753.116098 494.538273 
L 758.458172 497.124288 
L 763.800246 499.410756 
L 769.142319 501.389772 
L 774.484393 503.053431 
L 779.826466 504.393828 
L 785.16854 505.403058 
L 790.510614 506.073215 
L 795.852687 506.396395 
L 801.194761 506.364692 
L 806.536834 505.970202 
L 811.878908 505.205018 
L 817.220981 504.061237 
L 822.563055 502.530953 
L 827.905129 500.606261 
L 833.247202 498.279256 
L 838.589276 495.542032 
L 841.260313 494.017118 
L 841.260313 494.017118 
" clip-path="url(#ped264aa621)" style="fill: none; stroke: #00b9f1; stroke-width: 2; stroke-linecap: square"/>
   </g>
   <g id="patch_3">
    <path d="M 42.620313 529.478125 
L 42.620313 22.318125 
" style="fill: none; stroke: #444444; stroke-width: 0.8; stroke-linejoin: miter; stroke-linecap: square"/>
   </g>
   <g id="patch_4">
    <path d="M 841.260313 529.478125 
L 841.260313 22.318125 
" style="fill: none; stroke: #444444; stroke-width: 0.8; stroke-linejoin: miter; stroke-linecap: square"/>
   </g>
   <g id="patch_5">
    <path d="M 42.620313 529.478125 
L 841.260313 529.478125 
" style="fill: none; stroke: #444444; stroke-width: 0.8; stroke-linejoin: miter; stroke-linecap: square"/>
   </g>
   <g id="patch_6">
    <path d="M 42.620313 22.318125 
L 841.260313 22.318125 
" style="fill: none; stroke: #444444; stroke-width: 0.8; stroke-linejoin: miter; stroke-linecap: square"/>
   </g>
   <g id="text_16">
    <!-- Solver: ExampleSolver -->
    <g style="fill: #ffffff" transform="translate(374.371875 16.318125) scale(0.12 -0.12)">
     <defs>
      <path id="DejaVuSans-53" d="M 3425 4513 
L 3425 3897 
Q 3066 4069 2747 4153 
Q 2428 4238 2131 4238 
Q 1616 4238 1336 4038 
Q 1056 3838 1056 3469 
Q 1056 3159 1242 3001 
Q 1428 2844 1947 2747 
L 2328 2669 
Q 3034 2534 3370 2195 
Q 3706 1856 3706 1288 
Q 3706 609 3251 259 
Q 2797 -91 1919 -91 
Q 1588 -91 1214 -16 
Q 841 59 441 206 
L 441 856 
Q 825 641 1194 531 
Q 1563 422 1919 422 
Q 2459 422 2753 634 
Q 3047 847 3047 1241 
Q 3047 1584 2836 1778 
Q 2625 1972 2144 2069 
L 1759 2144 
Q 1053 2284 737 2584 
Q 422 2884 422 3419 
Q 422 4038 858 4394 
Q 1294 4750 2059 4750 
Q 2388 4750 2728 4690 
Q 3069 4631 3425 4513 
z
" transform="scale(0.015625)"/>
      <path id="DejaVuSans-76" d="M 191 3500 
L 800 3500 
L 1894 563 
L 2988 3500 
L 3597 3500 
L 2284 0 
L 1503 0 
L 191 3500 
z
" transform="scale(0.015625)"/>
      <path id="DejaVuSans-72" d="M 2631 2963 
Q 2534 3019 2420 3045 
Q 2306 3072 2169 3072 
Q 1681 3072 1420 2755 
Q 1159 2438 1159 1844 
L 1159 0 
L 581 0 
L 581 3500 
L 1159 3500 
L 1159 2956 
Q 1341 3275 1631 3429 
Q 1922 3584 2338 3584 
Q 2397 3584 2469 3576 
Q 2541 3569 2628 3553 
L 2631 2963 
z
" transform="scale(0.015625)"/>
      <path id="DejaVuSans-3a" d="M 750 794 
L 1409 794 
L 1409 0 
L 750 0 
L 750 794 
z
M 750 3309 
L 1409 3309 
L 1409 2516 
L 750 2516 
L 750 3309 
z
" transform="scale(0.015625)"/>
      <path id="DejaVuSans-20" transform="scale(0.015625)"/>
      <path id="DejaVuSans-45" d="M 628 4666 
L 3578 4666 
L 3578 4134 
L 1259 4134 
L 1259 2753 
L 3481 2753 
L 3481 2222 
L 1259 2222 
L 1259 531 
L 3634 531 
L 3634 0 
L 628 0 
L 628 4666 
z
" transform="scale(0.015625)"/>
      <path id="DejaVuSans-78" d="M 3513 3500 
L 2247 1797 
L 3578 0 
L 2900 0 
L 1881 1375 
L 863 0 
L 184 0 
L 1544 1831 
L 300 3500 
L 978 3500 
L 1906 2253 
L 2834 3500 
L 3513 3500 
z
" transform="scale(0.015625)"/>
      <path id="DejaVuSans-6d" d="M 3328 2828 
Q 3544 3216 3844 3400 
Q 4144 3584 4550 3584 
Q 5097 3584 5394 3201 
Q 5691 2819 5691 2113 
L 5691 0 
L 5113 0 
L 5113 2094 
Q 5113 2597 4934 2840 
Q 4756 3084 4391 3084 
Q 3944 3084 3684 2787 
Q 3425 2491 3425 1978 
L 3425 0 
L 2847 0 
L 2847 2094 
Q 2847 2600 2669 2842 
Q 2491 3084 2119 3084 
Q 1678 3084 1418 2786 
Q 1159 2488 1159 1978 
L 1159 0 
L 581 0 
L 581 3500 
L 1159 3500 
L 1159 2956 
Q 1356 3278 1631 3431 
Q 1906 3584 2284 3584 
Q 2666 3584 2933 3390 
Q 3200 3197 3328 2828 
z
" transform="scale(0.015625)"/>
      <path id="DejaVuSans-70" d="M 1159 525 
L 1159 -1331 
L 581 -1331 
L 581 3500 
L 1159 3500 
L 1159 2969 
Q 1341 3281 1617 3432 
Q 1894 3584 2278 3584 
Q 2916 3584 3314 3078 
Q 3713 2572 3713 1747 
Q 3713 922 3314 415 
Q 2916 -91 2278 -91 
Q 1894 -91 1617 61 
Q 1341 213 1159 525 
z
M 3116 1747 
Q 3116 2381 2855 2742 
Q 2594 3103 2138 3103 
Q 1681 3103 1420 2742 
Q 1159 2381 1159 1747 
Q 1159 1113 1420 752 
Q 1681 391 2138 391 
Q 2594 391 2855 752 
Q 3116 1113 3116 1747 
z
" transform="scale(0.015625)"/>
     </defs>
     <use xlink:href="#DejaVuSans-53"/>
     <use xlink:href="#DejaVuSans-6f" transform="translate(63.476562 0)"/>
     <use xlink:href="#DejaVuSans-6c" transform="translate(124.658203 0)"/>
     <use xlink:href="#DejaVuSans-76" transform="translate(152.441406 0)"/>
     <use xlink:href="#DejaVuSans-65" transform="translate(211.621094 0)"/>
     <use xlink:href="#DejaVuSans-72" transform="translate(273.144531 0)"/>
     <use xlink:href="#DejaVuSans-3a" transform="translate(312.507812 0)"/>
     <use xlink:href="#DejaVuSans-20" transform="translate(346.199219 0)"/>
     <use xlink:href="#DejaVuSans-45" transform="translate(377.986328 0)"/>
     <use xlink:href="#DejaVuSans-78" transform="translate(441.169922 0)"/>
     <use xlink:href="#DejaVuSans-61" transform="translate(500.349609 0)"/>
     <use xlink:href="#DejaVuSans-6d" transform="translate(561.628906 0)"/>
     <use xlink:href="#DejaVuSans-70" transform="translate(659.041016 0)"/>
     <use xlink:href="#DejaVuSans-6c" transform="translate(722.517578 0)"/>
     <use xlink:href="#DejaVuSans-65" transform="translate(750.300781 0)"/>
     <use xlink:href="#DejaVuSans-53" transform="translate(811.824219 0)"/>
     <use xlink:href="#DejaVuSans-6f" transform="translate(875.300781 0)"/>
     <use xlink:href="#DejaVuSans-6c" transform="translate(936.482422 0)"/>
     <use xlink:href="#DejaVuSans-76" transform="translate(964.265625 0)"/>
     <use xlink:href="#DejaVuSans-65" transform="translate(1023.445312 0)"/>
     <use xlink:href="#DejaVuSans-72" transform="translate(1084.96875 0)"/>
    </g>
   </g>
   <g id="PathCollection_1">
    <defs>
     <path id="mffb8a61cdf" d="M 0 3.872983 
C 1.027127 3.872983 2.012324 3.464901 2.738613 2.738613 
C 3.464901 2.012324 3.872983 1.027127 3.872983 0 
C 3.872983 -1.027127 3.464901 -2.012324 2.738613 -2.738613 
C 2.012324 -3.464901 1.027127 -3.872983 0 -3.872983 
C -1.027127 -3.872983 -2.012324 -3.464901 -2.738613 -2.738613 
C -3.464901 -2.012324 -3.872983 -1.027127 -3.872983 0 
C -3.872983 1.027127 -3.464901 2.012324 -2.738613 2.738613 
C -2.012324 3.464901 -1.027127 3.872983 0 3.872983 
z
" style="stroke: #ff9500"/>
    </defs>
    <g clip-path="url(#ped264aa621)">
     <use xlink:href="#mffb8a61cdf" x="42.620313" y="336.792079" style="fill: #ff9500; stroke: #ff9500"/>
     <use xlink:href="#mffb8a61cdf" x="282.212312" y="179.567039" style="fill: #ff9500; stroke: #ff9500"/>
     <use xlink:href="#mffb8a61cdf" x="601.668312" y="415.404599" style="fill: #ff9500; stroke: #ff9500"/>
     <use xlink:href="#mffb8a61cdf" x="841.260313" y="336.792079" style="fill: #ff9500; stroke: #ff9500"/>
    </g>
   </g>
   <g id="PathCollection_2">
    <defs>
     <path id="ma624b037d9" d="M 0 3.872983 
C 1.027127 3.872983 2.012324 3.464901 2.738613 2.738613 
C 3.464901 2.012324 3.872983 1.027127 3.872983 0 
C 3.872983 -1.027127 3.464901 -2.012324 2.738613 -2.738613 
C 2.012324 -3.464901 1.027127 -3.872983 0 -3.872983 
C -1.027127 -3.872983 -2.012324 -3.464901 -2.738613 -2.738613 
C -3.464901 -2.012324 -3.872983 -1.027127 -3.872983 0 
C -3.872983 1.027127 -3.464901 2.012324 -2.738613 2.738613 
C -2.012324 3.464901 -1.027127 3.872983 0 3.872983 
z
" style="stroke: #00b9f1"/>
    </defs>
    <g clip-path="url(#ped264aa621)">
     <use xlink:href="#ma624b037d9" x="42.620313" y="494.017118" style="fill: #00b9f1; stroke: #00b9f1"/>
     <use xlink:href="#ma624b037d9" x="441.940313" y="100.954519" style="fill: #00b9f1; stroke: #00b9f1"/>
     <use xlink:href="#ma624b037d9" x="841.260313" y="494.017118" style="fill: #00b9f1; stroke: #00b9f1"/>
    </g>
   </g>
   <g id="legend_1">
    <g id="patch_7">
     <path d="M 725.244688 59.674375 
L 834.260313 59.674375 
Q 836.260313 59.674375 836.260313 57.674375 
L 836.260313 29.318125 
Q 836.260313 27.318125 834.260313 27.318125 
L 725.244688 27.318125 
Q 723.244688 27.318125 723.244688 29.318125 
L 723.244688 57.674375 
Q 723.244688 59.674375 725.244688 59.674375 
z
" style="fill: #121212; opacity: 0.8; stroke: #444444; stroke-linejoin: miter"/>
    </g>
    <g id="line2d_29">
     <path d="M 727.244688 35.416562 
L 737.244688 35.416562 
L 747.244688 35.416562 
" style="fill: none; stroke: #ff9500; stroke-width: 2; stroke-linecap: square"/>
    </g>
    <g id="text_17">
     <!-- example.cubic -->
     <g style="fill: #ffffff" transform="translate(755.244688 38.916562) scale(0.1 -0.1)">
      <defs>
       <path id="DejaVuSans-63" d="M 3122 3366 
L 3122 2828 
Q 2878 2963 2633 3030 
Q 2388 3097 2138 3097 
Q 1578 3097 1268 2742 
Q 959 2388 959 1747 
Q 959 1106 1268 751 
Q 1578 397 2138 397 
Q 2388 397 2633 464 
Q 2878 531 3122 666 
L 3122 134 
Q 2881 22 2623 -34 
Q 2366 -91 2075 -91 
Q 1284 -91 818 406 
Q 353 903 353 1747 
Q 353 2603 823 3093 
Q 1294 3584 2113 3584 
Q 2378 3584 2631 3529 
Q 2884 3475 3122 3366 
z
" transform="scale(0.015625)"/>
       <path id="DejaVuSans-62" d="M 3116 1747 
Q 3116 2381 2855 2742 
Q 2594 3103 2138 3103 
Q 1681 3103 1420 2742 
Q 1159 2381 1159 1747 
Q 1159 1113 1420 752 
Q 1681 391 2138 391 
Q 2594 391 2855 752 
Q 3116 1113 3116 1747 
z
M 1159 2969 
Q 1341 3281 1617 3432 
Q 1894 3584 2278 3584 
Q 2916 3584 3314 3078 
Q 3713 2572 3713 1747 
Q 3713 922 3314 415 
Q 2916 -91 2278 -91 
Q 1894 -91 1617 61 
Q 1341 213 1159 525 
L 1159 0 
L 581 0 
L 581 4863 
L 1159 4863 
L 1159 2969 
z
" transform="scale(0.015625)"/>
      </defs>
      <use xlink:href="#DejaVuSans-65"/>
      <use xlink:href="#DejaVuSans-78" transform="translate(59.773438 0)"/>
      <use xlink:href="#DejaVuSans-61" transform="translate(118.953125 0)"/>
      <use xlink:href="#DejaVuSans-6d" transform="translate(180.232422 0)"/>
      <use xlink:href="#DejaVuSans-70" transform="translate(277.644531 0)"/>
      <use xlink:href="#DejaVuSans-6c" transform="translate(341.121094 0)"/>
      <use xlink:href="#DejaVuSans-65" transform="translate(368.904297 0)"/>
      <use xlink:href="#DejaVuSans-2e" transform="translate(430.427734 0)"/>
      <use xlink:href="#DejaVuSans-63" transform="translate(462.214844 0)"/>
      <use xlink:href="#DejaVuSans-75" transform="translate(517.195312 0)"/>
      <use xlink:href="#DejaVuSans-62" transform="translate(580.574219 0)"/>
      <use xlink:href="#DejaVuSans-69" transform="translate(644.050781 0)"/>
      <use xlink:href="#DejaVuSans-63" transform="translate(671.833984 0)"/>
     </g>
    </g>
    <g id="line2d_30">
     <path d="M 727.244688 50.094687 
L 737.244688 50.094687 
L 747.244688 50.094687 
" style="fill: none; stroke: #00b9f1; stroke-width: 2; stroke-linecap: square"/>
    </g>
    <g id="text_18">
     <!-- example.bezier -->
     <g style="fill: #ffffff" transform="translate(755.244688 53.594687) scale(0.1 -0.1)">
      <defs>
       <path id="DejaVuSans-7a" d="M 353 3500 
L 3084 3500 
L 3084 2975 
L 922 459 
L 3084 459 
L 3084 0 
L 275 0 
L 275 525 
L 2438 3041 
L 353 3041 
L 353 3500 
z
" transform="scale(0.015625)"/>
      </defs>
      <use xlink:href="#DejaVuSans-65"/>
      <use xlink:href="#DejaVuSans-78" transform="translate(59.773438 0)"/>
      <use xlink:href="#DejaVuSans-61" transform="translate(118.953125 0)"/>
      <use xlink:href="#DejaVuSans-6d" transform="translate(180.232422 0)"/>
      <use xlink:href="#DejaVuSans-70" transform="translate(277.644531 0)"/>
      <use xlink:href="#DejaVuSans-6c" transform="translate(341.121094 0)"/>
      <use xlink:href="#DejaVuSans-65" transform="translate(368.904297 0)"/>
      <use xlink:href="#DejaVuSans-2e" transform="translate(430.427734 0)"/>
      <use xlink:href="#DejaVuSans-62" transform="translate(462.214844 0)"/>
      <use xlink:href="#DejaVuSans-65" transform="translate(525.691406 0)"/>
      <use xlink:href="#DejaVuSans-7a" transform="translate(587.214844 0)"/>
      <use xlink:href="#DejaVuSans-69" transform="translate(639.705078 0)"/>
      <use xlink:href="#DejaVuSans-65" transform="translate(667.488281 0)"/>
      <use xlink:href="#DejaVuSans-72" transform="translate(729.011719 0)"/>
     </g>
    </g>
   </g>
  </g>
 </g>
 <defs>
  <clipPath id="ped264aa621">
   <rect x="42.620313" y="22.318125" width="798.64" height="507.16"/>
  </clipPath>
 </defs>
</svg>
