<?xml version="1.0" encoding="utf-8" standalone="no"?>
<!DOCTYPE svg PUBLIC "-//W3C//DTD SVG 1.1//EN"
  "http://www.w3.org/Graphics/SVG/1.1/DTD/svg11.dtd">
<svg xmlns:xlink="http://www.w3.org/1999/xlink" width="866.0425pt" height="207.034375pt" viewBox="0 0 866.0425 207.034375" xmlns="http://www.w3.org/2000/svg" version="1.1">
 <metadata>
  <rdf:RDF xmlns:dc="http://purl.org/dc/elements/1.1/" xmlns:cc="http://creativecommons.org/ns#" xmlns:rdf="http://www.w3.org/1999/02/22-rdf-syntax-ns#">
   <cc:Work>
    <dc:type rdf:resource="http://purl.org/dc/dcmitype/StillImage"/>
    <dc:date>2025-03-17T21:31:14.319985</dc:date>
    <dc:format>image/svg+xml</dc:format>
    <dc:creator>
     <cc:Agent>
      <dc:title>Matplotlib v3.10.1, https://matplotlib.org/</dc:title>
     </cc:Agent>
    </dc:creator>
   </cc:Work>
  </rdf:RDF>
 </metadata>
 <defs>
  <style type="text/css">*{stroke-linejoin: round; stroke-linecap: butt}</style>
 </defs>
 <g id="figure_1">
  <g id="patch_1">
   <path d="M 0 207.034375 
L 866.0425 207.034375 
L 866.0425 0 
L 0 0 
z
" style="fill: #121212"/>
  </g>
  <g id="axes_1">
   <g id="patch_2">
    <path d="M 52.160938 169.478125 
L 850.890938 169.478125 
L 850.890938 22.318125 
L 52.160938 22.318125 
z
" style="fill: #121212"/>
   </g>
   <g id="matplotlib.axis_1">
    <g id="xtick_1">
     <g id="line2d_1">
      <path d="M 52.160938 169.478125 
L 52.160938 22.318125 
" clip-path="url(#pedc5e31075)" style="fill: none; stroke-dasharray: 2.96,1.28; stroke-dashoffset: 0; stroke: #444444; stroke-opacity: 0.7; stroke-width: 0.8"/>
     </g>
     <g id="line2d_2">
      <defs>
       <path id="m457e49e627" d="M 0 0 
L 0 3.5 
" style="stroke: #aaaaaa; stroke-width: 0.8"/>
      </defs>
      <g>
       <use xlink:href="#m457e49e627" x="52.160938" y="169.478125" style="fill: #aaaaaa; stroke: #aaaaaa; stroke-width: 0.8"/>
      </g>
     </g>
     <g id="text_1">
      <!-- 0.0 -->
      <g style="fill: #aaaaaa" transform="translate(44.209375 184.076563) scale(0.1 -0.1)">
       <defs>
        <path id="DejaVuSans-30" d="M 2034 4250 
Q 1547 4250 1301 3770 
Q 1056 3291 1056 2328 
Q 1056 1369 1301 889 
Q 1547 409 2034 409 
Q 2525 409 2770 889 
Q 3016 1369 3016 2328 
Q 3016 3291 2770 3770 
Q 2525 4250 2034 4250 
z
M 2034 4750 
Q 2819 4750 3233 4129 
Q 3647 3509 3647 2328 
Q 3647 1150 3233 529 
Q 2819 -91 2034 -91 
Q 1250 -91 836 529 
Q 422 1150 422 2328 
Q 422 3509 836 4129 
Q 1250 4750 2034 4750 
z
" transform="scale(0.015625)"/>
        <path id="DejaVuSans-2e" d="M 684 794 
L 1344 794 
L 1344 0 
L 684 0 
L 684 794 
z
" transform="scale(0.015625)"/>
       </defs>
       <use xlink:href="#DejaVuSans-30"/>
       <use xlink:href="#DejaVuSans-2e" transform="translate(63.623047 0)"/>
       <use xlink:href="#DejaVuSans-30" transform="translate(95.410156 0)"/>
      </g>
     </g>
    </g>
    <g id="xtick_2">
     <g id="line2d_3">
      <path d="M 211.906938 169.478125 
L 211.906938 22.318125 
" clip-path="url(#pedc5e31075)" style="fill: none; stroke-dasharray: 2.96,1.28; stroke-dashoffset: 0; stroke: #444444; stroke-opacity: 0.7; stroke-width: 0.8"/>
     </g>
     <g id="line2d_4">
      <g>
       <use xlink:href="#m457e49e627" x="211.906938" y="169.478125" style="fill: #aaaaaa; stroke: #aaaaaa; stroke-width: 0.8"/>
      </g>
     </g>
     <g id="text_2">
      <!-- 0.2 -->
      <g style="fill: #aaaaaa" transform="translate(203.955375 184.076563) scale(0.1 -0.1)">
       <defs>
        <path id="DejaVuSans-32" d="M 1228 531 
L 3431 531 
L 3431 0 
L 469 0 
L 469 531 
Q 828 903 1448 1529 
Q 2069 2156 2228 2338 
Q 2531 2678 2651 2914 
Q 2772 3150 2772 3378 
Q 2772 3750 2511 3984 
Q 2250 4219 1831 4219 
Q 1534 4219 1204 4116 
Q 875 4013 500 3803 
L 500 4441 
Q 881 4594 1212 4672 
Q 1544 4750 1819 4750 
Q 2544 4750 2975 4387 
Q 3406 4025 3406 3419 
Q 3406 3131 3298 2873 
Q 3191 2616 2906 2266 
Q 2828 2175 2409 1742 
Q 1991 1309 1228 531 
z
" transform="scale(0.015625)"/>
       </defs>
       <use xlink:href="#DejaVuSans-30"/>
       <use xlink:href="#DejaVuSans-2e" transform="translate(63.623047 0)"/>
       <use xlink:href="#DejaVuSans-32" transform="translate(95.410156 0)"/>
      </g>
     </g>
    </g>
    <g id="xtick_3">
     <g id="line2d_5">
      <path d="M 371.652938 169.478125 
L 371.652938 22.318125 
" clip-path="url(#pedc5e31075)" style="fill: none; stroke-dasharray: 2.96,1.28; stroke-dashoffset: 0; stroke: #444444; stroke-opacity: 0.7; stroke-width: 0.8"/>
     </g>
     <g id="line2d_6">
      <g>
       <use xlink:href="#m457e49e627" x="371.652938" y="169.478125" style="fill: #aaaaaa; stroke: #aaaaaa; stroke-width: 0.8"/>
      </g>
     </g>
     <g id="text_3">
      <!-- 0.4 -->
      <g style="fill: #aaaaaa" transform="translate(363.701375 184.076563) scale(0.1 -0.1)">
       <defs>
        <path id="DejaVuSans-34" d="M 2419 4116 
L 825 1625 
L 2419 1625 
L 2419 4116 
z
M 2253 4666 
L 3047 4666 
L 3047 1625 
L 3713 1625 
L 3713 1100 
L 3047 1100 
L 3047 0 
L 2419 0 
L 2419 1100 
L 313 1100 
L 313 1709 
L 2253 4666 
z
" transform="scale(0.015625)"/>
       </defs>
       <use xlink:href="#DejaVuSans-30"/>
       <use xlink:href="#DejaVuSans-2e" transform="translate(63.623047 0)"/>
       <use xlink:href="#DejaVuSans-34" transform="translate(95.410156 0)"/>
      </g>
     </g>
    </g>
    <g id="xtick_4">
     <g id="line2d_7">
      <path d="M 531.398938 169.478125 
L 531.398938 22.318125 
" clip-path="url(#pedc5e31075)" style="fill: none; stroke-dasharray: 2.96,1.28; stroke-dashoffset: 0; stroke: #444444; stroke-opacity: 0.7; stroke-width: 0.8"/>
     </g>
     <g id="line2d_8">
      <g>
       <use xlink:href="#m457e49e627" x="531.398938" y="169.478125" style="fill: #aaaaaa; stroke: #aaaaaa; stroke-width: 0.8"/>
      </g>
     </g>
     <g id="text_4">
      <!-- 0.6 -->
      <g style="fill: #aaaaaa" transform="translate(523.447375 184.076563) scale(0.1 -0.1)">
       <defs>
        <path id="DejaVuSans-36" d="M 2113 2584 
Q 1688 2584 1439 2293 
Q 1191 2003 1191 1497 
Q 1191 994 1439 701 
Q 1688 409 2113 409 
Q 2538 409 2786 701 
Q 3034 994 3034 1497 
Q 3034 2003 2786 2293 
Q 2538 2584 2113 2584 
z
M 3366 4563 
L 3366 3988 
Q 3128 4100 2886 4159 
Q 2644 4219 2406 4219 
Q 1781 4219 1451 3797 
Q 1122 3375 1075 2522 
Q 1259 2794 1537 2939 
Q 1816 3084 2150 3084 
Q 2853 3084 3261 2657 
Q 3669 2231 3669 1497 
Q 3669 778 3244 343 
Q 2819 -91 2113 -91 
Q 1303 -91 875 529 
Q 447 1150 447 2328 
Q 447 3434 972 4092 
Q 1497 4750 2381 4750 
Q 2619 4750 2861 4703 
Q 3103 4656 3366 4563 
z
" transform="scale(0.015625)"/>
       </defs>
       <use xlink:href="#DejaVuSans-30"/>
       <use xlink:href="#DejaVuSans-2e" transform="translate(63.623047 0)"/>
       <use xlink:href="#DejaVuSans-36" transform="translate(95.410156 0)"/>
      </g>
     </g>
    </g>
    <g id="xtick_5">
     <g id="line2d_9">
      <path d="M 691.144938 169.478125 
L 691.144938 22.318125 
" clip-path="url(#pedc5e31075)" style="fill: none; stroke-dasharray: 2.96,1.28; stroke-dashoffset: 0; stroke: #444444; stroke-opacity: 0.7; stroke-width: 0.8"/>
     </g>
     <g id="line2d_10">
      <g>
       <use xlink:href="#m457e49e627" x="691.144938" y="169.478125" style="fill: #aaaaaa; stroke: #aaaaaa; stroke-width: 0.8"/>
      </g>
     </g>
     <g id="text_5">
      <!-- 0.8 -->
      <g style="fill: #aaaaaa" transform="translate(683.193375 184.076563) scale(0.1 -0.1)">
       <defs>
        <path id="DejaVuSans-38" d="M 2034 2216 
Q 1584 2216 1326 1975 
Q 1069 1734 1069 1313 
Q 1069 891 1326 650 
Q 1584 409 2034 409 
Q 2484 409 2743 651 
Q 3003 894 3003 1313 
Q 3003 1734 2745 1975 
Q 2488 2216 2034 2216 
z
M 1403 2484 
Q 997 2584 770 2862 
Q 544 3141 544 3541 
Q 544 4100 942 4425 
Q 1341 4750 2034 4750 
Q 2731 4750 3128 4425 
Q 3525 4100 3525 3541 
Q 3525 3141 3298 2862 
Q 3072 2584 2669 2484 
Q 3125 2378 3379 2068 
Q 3634 1759 3634 1313 
Q 3634 634 3220 271 
Q 2806 -91 2034 -91 
Q 1263 -91 848 271 
Q 434 634 434 1313 
Q 434 1759 690 2068 
Q 947 2378 1403 2484 
z
M 1172 3481 
Q 1172 3119 1398 2916 
Q 1625 2713 2034 2713 
Q 2441 2713 2670 2916 
Q 2900 3119 2900 3481 
Q 2900 3844 2670 4047 
Q 2441 4250 2034 4250 
Q 1625 4250 1398 4047 
Q 1172 3844 1172 3481 
z
" transform="scale(0.015625)"/>
       </defs>
       <use xlink:href="#DejaVuSans-30"/>
       <use xlink:href="#DejaVuSans-2e" transform="translate(63.623047 0)"/>
       <use xlink:href="#DejaVuSans-38" transform="translate(95.410156 0)"/>
      </g>
     </g>
    </g>
    <g id="xtick_6">
     <g id="line2d_11">
      <path d="M 850.890938 169.478125 
L 850.890938 22.318125 
" clip-path="url(#pedc5e31075)" style="fill: none; stroke-dasharray: 2.96,1.28; stroke-dashoffset: 0; stroke: #444444; stroke-opacity: 0.7; stroke-width: 0.8"/>
     </g>
     <g id="line2d_12">
      <g>
       <use xlink:href="#m457e49e627" x="850.890938" y="169.478125" style="fill: #aaaaaa; stroke: #aaaaaa; stroke-width: 0.8"/>
      </g>
     </g>
     <g id="text_6">
      <!-- 1.0 -->
      <g style="fill: #aaaaaa" transform="translate(842.939375 184.076563) scale(0.1 -0.1)">
       <defs>
        <path id="DejaVuSans-31" d="M 794 531 
L 1825 531 
L 1825 4091 
L 703 3866 
L 703 4441 
L 1819 4666 
L 2450 4666 
L 2450 531 
L 3481 531 
L 3481 0 
L 794 0 
L 794 531 
z
" transform="scale(0.015625)"/>
       </defs>
       <use xlink:href="#DejaVuSans-31"/>
       <use xlink:href="#DejaVuSans-2e" transform="translate(63.623047 0)"/>
       <use xlink:href="#DejaVuSans-30" transform="translate(95.410156 0)"/>
      </g>
     </g>
    </g>
    <g id="text_7">
     <!-- Position -->
     <g style="fill: #ffffff" transform="translate(432.061875 197.754688) scale(0.1 -0.1)">
      <defs>
       <path id="DejaVuSans-50" d="M 1259 4147 
L 1259 2394 
L 2053 2394 
Q 2494 2394 2734 2622 
Q 2975 2850 2975 3272 
Q 2975 3691 2734 3919 
Q 2494 4147 2053 4147 
L 1259 4147 
z
M 628 4666 
L 2053 4666 
Q 2838 4666 3239 4311 
Q 3641 3956 3641 3272 
Q 3641 2581 3239 2228 
Q 2838 1875 2053 1875 
L 1259 1875 
L 1259 0 
L 628 0 
L 628 4666 
z
" transform="scale(0.015625)"/>
       <path id="DejaVuSans-6f" d="M 1959 3097 
Q 1497 3097 1228 2736 
Q 959 2375 959 1747 
Q 959 1119 1226 758 
Q 1494 397 1959 397 
Q 2419 397 2687 759 
Q 2956 1122 2956 1747 
Q 2956 2369 2687 2733 
Q 2419 3097 1959 3097 
z
M 1959 3584 
Q 2709 3584 3137 3096 
Q 3566 2609 3566 1747 
Q 3566 888 3137 398 
Q 2709 -91 1959 -91 
Q 1206 -91 779 398 
Q 353 888 353 1747 
Q 353 2609 779 3096 
Q 1206 3584 1959 3584 
z
" transform="scale(0.015625)"/>
       <path id="DejaVuSans-73" d="M 2834 3397 
L 2834 2853 
Q 2591 2978 2328 3040 
Q 2066 3103 1784 3103 
Q 1356 3103 1142 2972 
Q 928 2841 928 2578 
Q 928 2378 1081 2264 
Q 1234 2150 1697 2047 
L 1894 2003 
Q 2506 1872 2764 1633 
Q 3022 1394 3022 966 
Q 3022 478 2636 193 
Q 2250 -91 1575 -91 
Q 1294 -91 989 -36 
Q 684 19 347 128 
L 347 722 
Q 666 556 975 473 
Q 1284 391 1588 391 
Q 1994 391 2212 530 
Q 2431 669 2431 922 
Q 2431 1156 2273 1281 
Q 2116 1406 1581 1522 
L 1381 1569 
Q 847 1681 609 1914 
Q 372 2147 372 2553 
Q 372 3047 722 3315 
Q 1072 3584 1716 3584 
Q 2034 3584 2315 3537 
Q 2597 3491 2834 3397 
z
" transform="scale(0.015625)"/>
       <path id="DejaVuSans-69" d="M 603 3500 
L 1178 3500 
L 1178 0 
L 603 0 
L 603 3500 
z
M 603 4863 
L 1178 4863 
L 1178 4134 
L 603 4134 
L 603 4863 
z
" transform="scale(0.015625)"/>
       <path id="DejaVuSans-74" d="M 1172 4494 
L 1172 3500 
L 2356 3500 
L 2356 3053 
L 1172 3053 
L 1172 1153 
Q 1172 725 1289 603 
Q 1406 481 1766 481 
L 2356 481 
L 2356 0 
L 1766 0 
Q 1100 0 847 248 
Q 594 497 594 1153 
L 594 3053 
L 172 3053 
L 172 3500 
L 594 3500 
L 594 4494 
L 1172 4494 
z
" transform="scale(0.015625)"/>
       <path id="DejaVuSans-6e" d="M 3513 2113 
L 3513 0 
L 2938 0 
L 2938 2094 
Q 2938 2591 2744 2837 
Q 2550 3084 2163 3084 
Q 1697 3084 1428 2787 
Q 1159 2491 1159 1978 
L 1159 0 
L 581 0 
L 581 3500 
L 1159 3500 
L 1159 2956 
Q 1366 3272 1645 3428 
Q 1925 3584 2291 3584 
Q 2894 3584 3203 3211 
Q 3513 2838 3513 2113 
z
" transform="scale(0.015625)"/>
      </defs>
      <use xlink:href="#DejaVuSans-50"/>
      <use xlink:href="#DejaVuSans-6f" transform="translate(56.677734 0)"/>
      <use xlink:href="#DejaVuSans-73" transform="translate(117.859375 0)"/>
      <use xlink:href="#DejaVuSans-69" transform="translate(169.958984 0)"/>
      <use xlink:href="#DejaVuSans-74" transform="translate(197.742188 0)"/>
      <use xlink:href="#DejaVuSans-69" transform="translate(236.951172 0)"/>
      <use xlink:href="#DejaVuSans-6f" transform="translate(264.734375 0)"/>
      <use xlink:href="#DejaVuSans-6e" transform="translate(325.916016 0)"/>
     </g>
    </g>
   </g>
   <g id="matplotlib.axis_2">
    <g id="ytick_1">
     <g id="line2d_13">
      <path d="M 52.160938 156.631872 
L 850.890938 156.631872 
" clip-path="url(#pedc5e31075)" style="fill: none; stroke-dasharray: 2.96,1.28; stroke-dashoffset: 0; stroke: #444444; stroke-opacity: 0.7; stroke-width: 0.8"/>
     </g>
     <g id="line2d_14">
      <defs>
       <path id="me378a2226f" d="M 0 0 
L -3.5 0 
" style="stroke: #aaaaaa; stroke-width: 0.8"/>
      </defs>
      <g>
       <use xlink:href="#me378a2226f" x="52.160938" y="156.631872" style="fill: #aaaaaa; stroke: #aaaaaa; stroke-width: 0.8"/>
      </g>
     </g>
     <g id="text_8">
      <!-- −2.5 -->
      <g style="fill: #aaaaaa" transform="translate(20.878125 160.431091) scale(0.1 -0.1)">
       <defs>
        <path id="DejaVuSans-2212" d="M 678 2272 
L 4684 2272 
L 4684 1741 
L 678 1741 
L 678 2272 
z
" transform="scale(0.015625)"/>
        <path id="DejaVuSans-35" d="M 691 4666 
L 3169 4666 
L 3169 4134 
L 1269 4134 
L 1269 2991 
Q 1406 3038 1543 3061 
Q 1681 3084 1819 3084 
Q 2600 3084 3056 2656 
Q 3513 2228 3513 1497 
Q 3513 744 3044 326 
Q 2575 -91 1722 -91 
Q 1428 -91 1123 -41 
Q 819 9 494 109 
L 494 744 
Q 775 591 1075 516 
Q 1375 441 1709 441 
Q 2250 441 2565 725 
Q 2881 1009 2881 1497 
Q 2881 1984 2565 2268 
Q 2250 2553 1709 2553 
Q 1456 2553 1204 2497 
Q 953 2441 691 2322 
L 691 4666 
z
" transform="scale(0.015625)"/>
       </defs>
       <use xlink:href="#DejaVuSans-2212"/>
       <use xlink:href="#DejaVuSans-32" transform="translate(83.789062 0)"/>
       <use xlink:href="#DejaVuSans-2e" transform="translate(147.412109 0)"/>
       <use xlink:href="#DejaVuSans-35" transform="translate(179.199219 0)"/>
      </g>
     </g>
    </g>
    <g id="ytick_2">
     <g id="line2d_15">
      <path d="M 52.160938 132.997676 
L 850.890938 132.997676 
" clip-path="url(#pedc5e31075)" style="fill: none; stroke-dasharray: 2.96,1.28; stroke-dashoffset: 0; stroke: #444444; stroke-opacity: 0.7; stroke-width: 0.8"/>
     </g>
     <g id="line2d_16">
      <g>
       <use xlink:href="#me378a2226f" x="52.160938" y="132.997676" style="fill: #aaaaaa; stroke: #aaaaaa; stroke-width: 0.8"/>
      </g>
     </g>
     <g id="text_9">
      <!-- 0.0 -->
      <g style="fill: #aaaaaa" transform="translate(29.257812 136.796895) scale(0.1 -0.1)">
       <use xlink:href="#DejaVuSans-30"/>
       <use xlink:href="#DejaVuSans-2e" transform="translate(63.623047 0)"/>
       <use xlink:href="#DejaVuSans-30" transform="translate(95.410156 0)"/>
      </g>
     </g>
    </g>
    <g id="ytick_3">
     <g id="line2d_17">
      <path d="M 52.160938 109.363481 
L 850.890938 109.363481 
" clip-path="url(#pedc5e31075)" style="fill: none; stroke-dasharray: 2.96,1.28; stroke-dashoffset: 0; stroke: #444444; stroke-opacity: 0.7; stroke-width: 0.8"/>
     </g>
     <g id="line2d_18">
      <g>
       <use xlink:href="#me378a2226f" x="52.160938" y="109.363481" style="fill: #aaaaaa; stroke: #aaaaaa; stroke-width: 0.8"/>
      </g>
     </g>
     <g id="text_10">
      <!-- 2.5 -->
      <g style="fill: #aaaaaa" transform="translate(29.257812 113.1627) scale(0.1 -0.1)">
       <use xlink:href="#DejaVuSans-32"/>
       <use xlink:href="#DejaVuSans-2e" transform="translate(63.623047 0)"/>
       <use xlink:href="#DejaVuSans-35" transform="translate(95.410156 0)"/>
      </g>
     </g>
    </g>
    <g id="ytick_4">
     <g id="line2d_19">
      <path d="M 52.160938 85.729285 
L 850.890938 85.729285 
" clip-path="url(#pedc5e31075)" style="fill: none; stroke-dasharray: 2.96,1.28; stroke-dashoffset: 0; stroke: #444444; stroke-opacity: 0.7; stroke-width: 0.8"/>
     </g>
     <g id="line2d_20">
      <g>
       <use xlink:href="#me378a2226f" x="52.160938" y="85.729285" style="fill: #aaaaaa; stroke: #aaaaaa; stroke-width: 0.8"/>
      </g>
     </g>
     <g id="text_11">
      <!-- 5.0 -->
      <g style="fill: #aaaaaa" transform="translate(29.257812 89.528504) scale(0.1 -0.1)">
       <use xlink:href="#DejaVuSans-35"/>
       <use xlink:href="#DejaVuSans-2e" transform="translate(63.623047 0)"/>
       <use xlink:href="#DejaVuSans-30" transform="translate(95.410156 0)"/>
      </g>
     </g>
    </g>
    <g id="ytick_5">
     <g id="line2d_21">
      <path d="M 52.160938 62.09509 
L 850.890938 62.09509 
" clip-path="url(#pedc5e31075)" style="fill: none; stroke-dasharray: 2.96,1.28; stroke-dashoffset: 0; stroke: #444444; stroke-opacity: 0.7; stroke-width: 0.8"/>
     </g>
     <g id="line2d_22">
      <g>
       <use xlink:href="#me378a2226f" x="52.160938" y="62.09509" style="fill: #aaaaaa; stroke: #aaaaaa; stroke-width: 0.8"/>
      </g>
     </g>
     <g id="text_12">
      <!-- 7.5 -->
      <g style="fill: #aaaaaa" transform="translate(29.257812 65.894308) scale(0.1 -0.1)">
       <defs>
        <path id="DejaVuSans-37" d="M 525 4666 
L 3525 4666 
L 3525 4397 
L 1831 0 
L 1172 0 
L 2766 4134 
L 525 4134 
L 525 4666 
z
" transform="scale(0.015625)"/>
       </defs>
       <use xlink:href="#DejaVuSans-37"/>
       <use xlink:href="#DejaVuSans-2e" transform="translate(63.623047 0)"/>
       <use xlink:href="#DejaVuSans-35" transform="translate(95.410156 0)"/>
      </g>
     </g>
    </g>
    <g id="ytick_6">
     <g id="line2d_23">
      <path d="M 52.160938 38.460894 
L 850.890938 38.460894 
" clip-path="url(#pedc5e31075)" style="fill: none; stroke-dasharray: 2.96,1.28; stroke-dashoffset: 0; stroke: #444444; stroke-opacity: 0.7; stroke-width: 0.8"/>
     </g>
     <g id="line2d_24">
      <g>
       <use xlink:href="#me378a2226f" x="52.160938" y="38.460894" style="fill: #aaaaaa; stroke: #aaaaaa; stroke-width: 0.8"/>
      </g>
     </g>
     <g id="text_13">
      <!-- 10.0 -->
      <g style="fill: #aaaaaa" transform="translate(22.895313 42.260113) scale(0.1 -0.1)">
       <use xlink:href="#DejaVuSans-31"/>
       <use xlink:href="#DejaVuSans-30" transform="translate(63.623047 0)"/>
       <use xlink:href="#DejaVuSans-2e" transform="translate(127.246094 0)"/>
       <use xlink:href="#DejaVuSans-30" transform="translate(159.033203 0)"/>
      </g>
     </g>
    </g>
    <g id="text_14">
     <!-- Value -->
     <g style="fill: #ffffff" transform="translate(14.798438 109.629375) rotate(-90) scale(0.1 -0.1)">
      <defs>
       <path id="DejaVuSans-56" d="M 1831 0 
L 50 4666 
L 709 4666 
L 2188 738 
L 3669 4666 
L 4325 4666 
L 2547 0 
L 1831 0 
z
" transform="scale(0.015625)"/>
       <path id="DejaVuSans-61" d="M 2194 1759 
Q 1497 1759 1228 1600 
Q 959 1441 959 1056 
Q 959 750 1161 570 
Q 1363 391 1709 391 
Q 2188 391 2477 730 
Q 2766 1069 2766 1631 
L 2766 1759 
L 2194 1759 
z
M 3341 1997 
L 3341 0 
L 2766 0 
L 2766 531 
Q 2569 213 2275 61 
Q 1981 -91 1556 -91 
Q 1019 -91 701 211 
Q 384 513 384 1019 
Q 384 1609 779 1909 
Q 1175 2209 1959 2209 
L 2766 2209 
L 2766 2266 
Q 2766 2663 2505 2880 
Q 2244 3097 1772 3097 
Q 1472 3097 1187 3025 
Q 903 2953 641 2809 
L 641 3341 
Q 956 3463 1253 3523 
Q 1550 3584 1831 3584 
Q 2591 3584 2966 3190 
Q 3341 2797 3341 1997 
z
" transform="scale(0.015625)"/>
       <path id="DejaVuSans-6c" d="M 603 4863 
L 1178 4863 
L 1178 0 
L 603 0 
L 603 4863 
z
" transform="scale(0.015625)"/>
       <path id="DejaVuSans-75" d="M 544 1381 
L 544 3500 
L 1119 3500 
L 1119 1403 
Q 1119 906 1312 657 
Q 1506 409 1894 409 
Q 2359 409 2629 706 
Q 2900 1003 2900 1516 
L 2900 3500 
L 3475 3500 
L 3475 0 
L 2900 0 
L 2900 538 
Q 2691 219 2414 64 
Q 2138 -91 1772 -91 
Q 1169 -91 856 284 
Q 544 659 544 1381 
z
M 1991 3584 
L 1991 3584 
z
" transform="scale(0.015625)"/>
       <path id="DejaVuSans-65" d="M 3597 1894 
L 3597 1613 
L 953 1613 
Q 991 1019 1311 708 
Q 1631 397 2203 397 
Q 2534 397 2845 478 
Q 3156 559 3463 722 
L 3463 178 
Q 3153 47 2828 -22 
Q 2503 -91 2169 -91 
Q 1331 -91 842 396 
Q 353 884 353 1716 
Q 353 2575 817 3079 
Q 1281 3584 2069 3584 
Q 2775 3584 3186 3129 
Q 3597 2675 3597 1894 
z
M 3022 2063 
Q 3016 2534 2758 2815 
Q 2500 3097 2075 3097 
Q 1594 3097 1305 2825 
Q 1016 2553 972 2059 
L 3022 2063 
z
" transform="scale(0.015625)"/>
      </defs>
      <use xlink:href="#DejaVuSans-56"/>
      <use xlink:href="#DejaVuSans-61" transform="translate(60.658203 0)"/>
      <use xlink:href="#DejaVuSans-6c" transform="translate(121.9375 0)"/>
      <use xlink:href="#DejaVuSans-75" transform="translate(149.720703 0)"/>
      <use xlink:href="#DejaVuSans-65" transform="translate(213.099609 0)"/>
     </g>
    </g>
   </g>
   <g id="line2d_25">
    <path d="M 52.160938 132.997676 
L 450.725607 85.824012 
L 452.326268 85.824012 
L 850.890938 132.997676 
L 850.890938 132.997676 
" clip-path="url(#pedc5e31075)" style="fill: none; stroke: #ff9500; stroke-width: 2; stroke-linecap: square"/>
   </g>
   <g id="line2d_26">
    <path d="M 52.160938 132.997676 
L 72.969535 130.413154 
L 95.378793 127.388813 
L 120.989374 123.689193 
L 151.40194 119.058092 
L 263.448232 101.759135 
L 287.458152 98.407266 
L 308.266749 95.712241 
L 327.474685 93.434064 
L 345.08196 91.550164 
L 362.689234 89.886848 
L 378.695847 88.586608 
L 394.702461 87.507015 
L 410.709074 86.666328 
L 425.115026 86.129068 
L 439.520978 85.813426 
L 453.926929 85.732692 
L 468.332881 85.893194 
L 482.738833 86.284188 
L 497.144785 86.892362 
L 513.151398 87.806638 
L 529.158012 88.954343 
L 545.164625 90.317216 
L 562.771899 92.043102 
L 581.979835 94.16906 
L 601.187771 96.518088 
L 621.996368 99.277998 
L 646.006288 102.689396 
L 674.818192 107.020796 
L 718.036048 113.782284 
L 770.857871 122.007157 
L 799.669775 126.257371 
L 823.679695 129.572491 
L 844.488292 132.227912 
L 850.890938 132.997676 
L 850.890938 132.997676 
" clip-path="url(#pedc5e31075)" style="fill: none; stroke: #00b9f1; stroke-width: 2; stroke-linecap: square"/>
   </g>
   <g id="line2d_27">
    <path d="M 52.160938 132.997676 
L 63.365567 132.888143 
L 74.570196 132.567893 
L 87.375487 131.959944 
L 100.180777 131.111833 
L 112.986068 130.04226 
L 127.39202 128.597556 
L 141.797972 126.922853 
L 157.804585 124.824702 
L 175.411859 122.270326 
L 194.619795 119.244759 
L 217.029054 115.48174 
L 250.642942 109.576612 
L 293.860797 102.013887 
L 316.270056 98.322193 
L 335.477992 95.3834 
L 351.484605 93.141631 
L 367.491218 91.127204 
L 381.89717 89.538781 
L 396.303122 88.190712 
L 409.108412 87.215728 
L 421.913703 86.470387 
L 433.118332 86.021292 
L 444.322962 85.77486 
L 455.527591 85.743428 
L 466.73222 85.929655 
L 477.936849 86.322124 
L 490.74214 87.007133 
L 503.54743 87.926459 
L 516.352721 89.061404 
L 530.758673 90.572667 
L 545.164625 92.306534 
L 561.171238 94.461749 
L 578.778513 97.06835 
L 597.986449 100.138289 
L 621.996368 104.214217 
L 663.613563 111.563033 
L 695.626789 117.11937 
L 718.036048 120.784988 
L 737.243984 123.692884 
L 753.250597 125.90288 
L 769.25721 127.880056 
L 783.663162 129.430269 
L 796.468453 130.603561 
L 809.273743 131.56474 
L 822.079034 132.295107 
L 833.283663 132.730142 
L 844.488292 132.961618 
L 850.890938 132.997676 
L 850.890938 132.997676 
" clip-path="url(#pedc5e31075)" style="fill: none; stroke: #fb02fe; stroke-width: 2; stroke-linecap: square"/>
   </g>
   <g id="line2d_28">
    <path d="M 52.160938 132.997676 
L 68.167551 130.836 
L 87.375487 128.480456 
L 114.586729 125.401502 
L 154.603262 120.871073 
L 173.811198 118.461886 
L 189.817811 116.237297 
L 204.223763 114.014924 
L 217.029054 111.828557 
L 229.834344 109.412508 
L 241.038974 107.086535 
L 252.243603 104.541473 
L 258.646248 102.902093 
L 265.048893 101.056162 
L 273.0522 98.487299 
L 281.055507 95.662655 
L 289.058813 92.619428 
L 298.662781 88.731398 
L 309.86741 83.950991 
L 327.474685 76.142894 
L 348.283282 66.928365 
L 359.487911 62.187877 
L 369.091879 58.348411 
L 377.095186 55.201269 
L 383.497831 52.427793 
L 393.101799 47.984635 
L 409.108412 40.506573 
L 415.511058 37.728471 
L 421.913703 35.194864 
L 426.715687 33.504321 
L 431.517671 32.031833 
L 436.319655 30.811915 
L 441.121639 29.879078 
L 445.923623 29.267833 
L 449.124946 29.056043 
L 452.326268 29.012694 
L 455.527591 29.141515 
L 458.728913 29.433718 
L 463.530897 30.155995 
L 468.332881 31.188361 
L 473.134865 32.496304 
L 477.936849 34.045311 
L 482.738833 35.800871 
L 489.141479 38.403271 
L 497.144785 41.961745 
L 511.550737 48.739153 
L 521.154705 53.139783 
L 527.55735 55.859342 
L 553.167931 66.237507 
L 567.573883 72.565407 
L 597.986449 86.02601 
L 609.191078 90.704045 
L 618.795046 94.469512 
L 626.798352 97.386052 
L 634.801659 100.061691 
L 641.204304 102.003756 
L 647.60695 103.748792 
L 655.610256 105.660457 
L 666.814885 108.109004 
L 678.019515 110.347341 
L 690.824805 112.673754 
L 703.630096 114.781703 
L 718.036048 116.929267 
L 734.042661 119.087388 
L 753.250597 121.439953 
L 780.461839 124.517085 
L 820.478372 129.049949 
L 839.686308 131.462467 
L 850.890938 132.997676 
L 850.890938 132.997676 
" clip-path="url(#pedc5e31075)" style="fill: none; stroke: #01ff66; stroke-width: 2; stroke-linecap: square"/>
   </g>
   <g id="line2d_29">
    <path d="M 52.160938 132.997676 
L 61.764905 131.164142 
L 71.368873 129.106553 
L 82.573503 126.488627 
L 98.580116 122.491336 
L 128.992681 114.816831 
L 141.797972 111.858271 
L 151.40194 109.850898 
L 161.005907 108.079632 
L 169.009214 106.819506 
L 177.012521 105.786114 
L 185.015827 105.007986 
L 191.418473 104.588449 
L 197.821118 104.36515 
L 204.223763 104.352698 
L 210.626408 104.565701 
L 215.428392 104.908342 
L 220.230376 105.47516 
L 225.03236 106.25446 
L 229.834344 107.230836 
L 234.636328 108.38888 
L 241.038974 110.188904 
L 247.441619 112.247983 
L 253.844264 114.529594 
L 261.847571 117.63891 
L 271.451539 121.653307 
L 284.256829 127.284064 
L 303.464765 135.732939 
L 313.068733 139.691551 
L 321.07204 142.734711 
L 327.474685 144.950524 
L 333.87733 146.932361 
L 340.279976 148.6437 
L 345.08196 149.727721 
L 349.883944 150.623637 
L 354.685927 151.316041 
L 359.487911 151.789525 
L 364.289895 152.028683 
L 369.091879 152.018107 
L 373.893863 151.736492 
L 378.695847 151.140847 
L 383.497831 150.242554 
L 388.299815 149.062412 
L 393.101799 147.621219 
L 397.903783 145.939777 
L 402.705767 144.038885 
L 407.507751 141.939342 
L 413.910396 138.866891 
L 420.313042 135.527563 
L 428.316348 131.05322 
L 437.920316 125.370847 
L 471.534204 105.121784 
L 479.537511 100.751982 
L 485.940156 97.519808 
L 492.342801 94.575419 
L 497.144785 92.585644 
L 501.946769 90.806281 
L 506.748753 89.258128 
L 511.550737 87.961986 
L 516.352721 86.938655 
L 521.154705 86.208934 
L 525.956689 85.793623 
L 529.158012 85.701692 
L 532.359334 85.764681 
L 535.560657 85.981791 
L 540.362641 86.583002 
L 545.164625 87.497066 
L 549.966609 88.703952 
L 554.768593 90.183631 
L 559.570577 91.916075 
L 564.372561 93.881253 
L 569.174545 96.059136 
L 575.57719 99.259236 
L 581.979835 102.754394 
L 588.382481 106.497133 
L 596.385787 111.451388 
L 605.989755 117.678647 
L 636.40232 137.667092 
L 644.405627 142.550018 
L 650.808272 146.218574 
L 657.210917 149.624332 
L 663.613563 152.719815 
L 668.415547 154.809249 
L 673.217531 156.677419 
L 678.019515 158.304295 
L 682.821499 159.669846 
L 687.623483 160.754045 
L 692.425467 161.541508 
L 697.227451 162.110716 
L 702.029434 162.502723 
L 708.43208 162.764402 
L 714.834725 162.746209 
L 721.23737 162.468232 
L 727.640016 161.950556 
L 734.042661 161.213269 
L 740.445306 160.276456 
L 748.448613 158.855458 
L 756.451919 157.193318 
L 766.055887 154.93568 
L 777.260517 152.024733 
L 791.666469 148.009414 
L 818.877711 140.350936 
L 830.08234 137.459323 
L 839.686308 135.224784 
L 847.689615 133.586497 
L 850.890938 132.997676 
L 850.890938 132.997676 
" clip-path="url(#pedc5e31075)" style="fill: none; stroke: #fffd01; stroke-width: 2; stroke-linecap: square"/>
   </g>
   <g id="patch_3">
    <path d="M 52.160938 169.478125 
L 52.160938 22.318125 
" style="fill: none; stroke: #444444; stroke-width: 0.8; stroke-linejoin: miter; stroke-linecap: square"/>
   </g>
   <g id="patch_4">
    <path d="M 850.890938 169.478125 
L 850.890938 22.318125 
" style="fill: none; stroke: #444444; stroke-width: 0.8; stroke-linejoin: miter; stroke-linecap: square"/>
   </g>
   <g id="patch_5">
    <path d="M 52.160938 169.478125 
L 850.890938 169.478125 
" style="fill: none; stroke: #444444; stroke-width: 0.8; stroke-linejoin: miter; stroke-linecap: square"/>
   </g>
   <g id="patch_6">
    <path d="M 52.160938 22.318125 
L 850.890938 22.318125 
" style="fill: none; stroke: #444444; stroke-width: 0.8; stroke-linejoin: miter; stroke-linecap: square"/>
   </g>
   <g id="text_15">
    <!-- Solver: GoesToEleven -->
    <g style="fill: #ffffff" transform="translate(387.196563 16.318125) scale(0.12 -0.12)">
     <defs>
      <path id="DejaVuSans-53" d="M 3425 4513 
L 3425 3897 
Q 3066 4069 2747 4153 
Q 2428 4238 2131 4238 
Q 1616 4238 1336 4038 
Q 1056 3838 1056 3469 
Q 1056 3159 1242 3001 
Q 1428 2844 1947 2747 
L 2328 2669 
Q 3034 2534 3370 2195 
Q 3706 1856 3706 1288 
Q 3706 609 3251 259 
Q 2797 -91 1919 -91 
Q 1588 -91 1214 -16 
Q 841 59 441 206 
L 441 856 
Q 825 641 1194 531 
Q 1563 422 1919 422 
Q 2459 422 2753 634 
Q 3047 847 3047 1241 
Q 3047 1584 2836 1778 
Q 2625 1972 2144 2069 
L 1759 2144 
Q 1053 2284 737 2584 
Q 422 2884 422 3419 
Q 422 4038 858 4394 
Q 1294 4750 2059 4750 
Q 2388 4750 2728 4690 
Q 3069 4631 3425 4513 
z
" transform="scale(0.015625)"/>
      <path id="DejaVuSans-76" d="M 191 3500 
L 800 3500 
L 1894 563 
L 2988 3500 
L 3597 3500 
L 2284 0 
L 1503 0 
L 191 3500 
z
" transform="scale(0.015625)"/>
      <path id="DejaVuSans-72" d="M 2631 2963 
Q 2534 3019 2420 3045 
Q 2306 3072 2169 3072 
Q 1681 3072 1420 2755 
Q 1159 2438 1159 1844 
L 1159 0 
L 581 0 
L 581 3500 
L 1159 3500 
L 1159 2956 
Q 1341 3275 1631 3429 
Q 1922 3584 2338 3584 
Q 2397 3584 2469 3576 
Q 2541 3569 2628 3553 
L 2631 2963 
z
" transform="scale(0.015625)"/>
      <path id="DejaVuSans-3a" d="M 750 794 
L 1409 794 
L 1409 0 
L 750 0 
L 750 794 
z
M 750 3309 
L 1409 3309 
L 1409 2516 
L 750 2516 
L 750 3309 
z
" transform="scale(0.015625)"/>
      <path id="DejaVuSans-20" transform="scale(0.015625)"/>
      <path id="DejaVuSans-47" d="M 3809 666 
L 3809 1919 
L 2778 1919 
L 2778 2438 
L 4434 2438 
L 4434 434 
Q 4069 175 3628 42 
Q 3188 -91 2688 -91 
Q 1594 -91 976 548 
Q 359 1188 359 2328 
Q 359 3472 976 4111 
Q 1594 4750 2688 4750 
Q 3144 4750 3555 4637 
Q 3966 4525 4313 4306 
L 4313 3634 
Q 3963 3931 3569 4081 
Q 3175 4231 2741 4231 
Q 1884 4231 1454 3753 
Q 1025 3275 1025 2328 
Q 1025 1384 1454 906 
Q 1884 428 2741 428 
Q 3075 428 3337 486 
Q 3600 544 3809 666 
z
" transform="scale(0.015625)"/>
      <path id="DejaVuSans-54" d="M -19 4666 
L 3928 4666 
L 3928 4134 
L 2272 4134 
L 2272 0 
L 1638 0 
L 1638 4134 
L -19 4134 
L -19 4666 
z
" transform="scale(0.015625)"/>
      <path id="DejaVuSans-45" d="M 628 4666 
L 3578 4666 
L 3578 4134 
L 1259 4134 
L 1259 2753 
L 3481 2753 
L 3481 2222 
L 1259 2222 
L 1259 531 
L 3634 531 
L 3634 0 
L 628 0 
L 628 4666 
z
" transform="scale(0.015625)"/>
     </defs>
     <use xlink:href="#DejaVuSans-53"/>
     <use xlink:href="#DejaVuSans-6f" transform="translate(63.476562 0)"/>
     <use xlink:href="#DejaVuSans-6c" transform="translate(124.658203 0)"/>
     <use xlink:href="#DejaVuSans-76" transform="translate(152.441406 0)"/>
     <use xlink:href="#DejaVuSans-65" transform="translate(211.621094 0)"/>
     <use xlink:href="#DejaVuSans-72" transform="translate(273.144531 0)"/>
     <use xlink:href="#DejaVuSans-3a" transform="translate(312.507812 0)"/>
     <use xlink:href="#DejaVuSans-20" transform="translate(346.199219 0)"/>
     <use xlink:href="#DejaVuSans-47" transform="translate(377.986328 0)"/>
     <use xlink:href="#DejaVuSans-6f" transform="translate(455.476562 0)"/>
     <use xlink:href="#DejaVuSans-65" transform="translate(516.658203 0)"/>
     <use xlink:href="#DejaVuSans-73" transform="translate(578.181641 0)"/>
     <use xlink:href="#DejaVuSans-54" transform="translate(630.28125 0)"/>
     <use xlink:href="#DejaVuSans-6f" transform="translate(674.365234 0)"/>
     <use xlink:href="#DejaVuSans-45" transform="translate(735.546875 0)"/>
     <use xlink:href="#DejaVuSans-6c" transform="translate(798.730469 0)"/>
     <use xlink:href="#DejaVuSans-65" transform="translate(826.513672 0)"/>
     <use xlink:href="#DejaVuSans-76" transform="translate(888.037109 0)"/>
     <use xlink:href="#DejaVuSans-65" transform="translate(947.216797 0)"/>
     <use xlink:href="#DejaVuSans-6e" transform="translate(1008.740234 0)"/>
    </g>
   </g>
   <g id="PathCollection_1">
    <defs>
     <path id="m93722da537" d="M 0 3.872983 
C 1.027127 3.872983 2.012324 3.464901 2.738613 2.738613 
C 3.464901 2.012324 3.872983 1.027127 3.872983 0 
C 3.872983 -1.027127 3.464901 -2.012324 2.738613 -2.738613 
C 2.012324 -3.464901 1.027127 -3.872983 0 -3.872983 
C -1.027127 -3.872983 -2.012324 -3.464901 -2.738613 -2.738613 
C -3.464901 -2.012324 -3.872983 -1.027127 -3.872983 0 
C -3.872983 1.027127 -3.464901 2.012324 -2.738613 2.738613 
C -2.012324 3.464901 -1.027127 3.872983 0 3.872983 
z
" style="stroke: #ff9500"/>
    </defs>
    <g clip-path="url(#pedc5e31075)">
     <use xlink:href="#m93722da537" x="52.160938" y="132.997676" style="fill: #ff9500; stroke: #ff9500"/>
     <use xlink:href="#m93722da537" x="451.525937" y="85.729285" style="fill: #ff9500; stroke: #ff9500"/>
     <use xlink:href="#m93722da537" x="850.890938" y="132.997676" style="fill: #ff9500; stroke: #ff9500"/>
    </g>
   </g>
   <g id="PathCollection_2">
    <defs>
     <path id="mc28dbbcb19" d="M 0 3.872983 
C 1.027127 3.872983 2.012324 3.464901 2.738613 2.738613 
C 3.464901 2.012324 3.872983 1.027127 3.872983 0 
C 3.872983 -1.027127 3.464901 -2.012324 2.738613 -2.738613 
C 2.012324 -3.464901 1.027127 -3.872983 0 -3.872983 
C -1.027127 -3.872983 -2.012324 -3.464901 -2.738613 -2.738613 
C -3.464901 -2.012324 -3.872983 -1.027127 -3.872983 0 
C -3.872983 1.027127 -3.464901 2.012324 -2.738613 2.738613 
C -2.012324 3.464901 -1.027127 3.872983 0 3.872983 
z
" style="stroke: #00b9f1"/>
    </defs>
    <g clip-path="url(#pedc5e31075)">
     <use xlink:href="#mc28dbbcb19" x="52.160938" y="132.997676" style="fill: #00b9f1; stroke: #00b9f1"/>
     <use xlink:href="#mc28dbbcb19" x="451.525937" y="85.729285" style="fill: #00b9f1; stroke: #00b9f1"/>
     <use xlink:href="#mc28dbbcb19" x="850.890938" y="132.997676" style="fill: #00b9f1; stroke: #00b9f1"/>
    </g>
   </g>
   <g id="PathCollection_3">
    <defs>
     <path id="m22b88ec9cf" d="M 0 3.872983 
C 1.027127 3.872983 2.012324 3.464901 2.738613 2.738613 
C 3.464901 2.012324 3.872983 1.027127 3.872983 0 
C 3.872983 -1.027127 3.464901 -2.012324 2.738613 -2.738613 
C 2.012324 -3.464901 1.027127 -3.872983 0 -3.872983 
C -1.027127 -3.872983 -2.012324 -3.464901 -2.738613 -2.738613 
C -3.464901 -2.012324 -3.872983 -1.027127 -3.872983 0 
C -3.872983 1.027127 -3.464901 2.012324 -2.738613 2.738613 
C -2.012324 3.464901 -1.027127 3.872983 0 3.872983 
z
" style="stroke: #fb02fe"/>
    </defs>
    <g clip-path="url(#pedc5e31075)">
     <use xlink:href="#m22b88ec9cf" x="52.160938" y="132.997676" style="fill: #fb02fe; stroke: #fb02fe"/>
     <use xlink:href="#m22b88ec9cf" x="451.525937" y="85.729285" style="fill: #fb02fe; stroke: #fb02fe"/>
     <use xlink:href="#m22b88ec9cf" x="850.890938" y="132.997676" style="fill: #fb02fe; stroke: #fb02fe"/>
    </g>
   </g>
   <g id="PathCollection_4">
    <defs>
     <path id="mf19992b3b1" d="M 0 3.872983 
C 1.027127 3.872983 2.012324 3.464901 2.738613 2.738613 
C 3.464901 2.012324 3.872983 1.027127 3.872983 0 
C 3.872983 -1.027127 3.464901 -2.012324 2.738613 -2.738613 
C 2.012324 -3.464901 1.027127 -3.872983 0 -3.872983 
C -1.027127 -3.872983 -2.012324 -3.464901 -2.738613 -2.738613 
C -3.464901 -2.012324 -3.872983 -1.027127 -3.872983 0 
C -3.872983 1.027127 -3.464901 2.012324 -2.738613 2.738613 
C -2.012324 3.464901 -1.027127 3.872983 0 3.872983 
z
" style="stroke: #01ff66"/>
    </defs>
    <g clip-path="url(#pedc5e31075)">
     <use xlink:href="#mf19992b3b1" x="52.160938" y="132.997676" style="fill: #01ff66; stroke: #01ff66"/>
     <use xlink:href="#mf19992b3b1" x="251.843437" y="104.636642" style="fill: #01ff66; stroke: #01ff66"/>
     <use xlink:href="#mf19992b3b1" x="371.652938" y="57.368251" style="fill: #01ff66; stroke: #01ff66"/>
     <use xlink:href="#mf19992b3b1" x="451.525937" y="29.007216" style="fill: #01ff66; stroke: #01ff66"/>
     <use xlink:href="#mf19992b3b1" x="531.398937" y="57.368251" style="fill: #01ff66; stroke: #01ff66"/>
     <use xlink:href="#mf19992b3b1" x="651.208438" y="104.636642" style="fill: #01ff66; stroke: #01ff66"/>
     <use xlink:href="#mf19992b3b1" x="850.890938" y="132.997676" style="fill: #01ff66; stroke: #01ff66"/>
    </g>
   </g>
   <g id="PathCollection_5">
    <defs>
     <path id="m3bb19dea1f" d="M 0 3.872983 
C 1.027127 3.872983 2.012324 3.464901 2.738613 2.738613 
C 3.464901 2.012324 3.872983 1.027127 3.872983 0 
C 3.872983 -1.027127 3.464901 -2.012324 2.738613 -2.738613 
C 2.012324 -3.464901 1.027127 -3.872983 0 -3.872983 
C -1.027127 -3.872983 -2.012324 -3.464901 -2.738613 -2.738613 
C -3.464901 -2.012324 -3.872983 -1.027127 -3.872983 0 
C -3.872983 1.027127 -3.464901 2.012324 -2.738613 2.738613 
C -2.012324 3.464901 -1.027127 3.872983 0 3.872983 
z
" style="stroke: #fffd01"/>
    </defs>
    <g clip-path="url(#pedc5e31075)">
     <use xlink:href="#m3bb19dea1f" x="52.160938" y="132.997676" style="fill: #fffd01; stroke: #fffd01"/>
     <use xlink:href="#m3bb19dea1f" x="211.906938" y="104.636642" style="fill: #fffd01; stroke: #fffd01"/>
     <use xlink:href="#m3bb19dea1f" x="371.652938" y="151.905033" style="fill: #fffd01; stroke: #fffd01"/>
     <use xlink:href="#m3bb19dea1f" x="531.398937" y="85.729285" style="fill: #fffd01; stroke: #fffd01"/>
     <use xlink:href="#m3bb19dea1f" x="691.144938" y="161.358711" style="fill: #fffd01; stroke: #fffd01"/>
     <use xlink:href="#m3bb19dea1f" x="850.890938" y="132.997676" style="fill: #fffd01; stroke: #fffd01"/>
    </g>
   </g>
   <g id="legend_1">
    <g id="patch_7">
     <path d="M 715.578438 103.70875 
L 843.890938 103.70875 
Q 845.890938 103.70875 845.890938 101.70875 
L 845.890938 29.318125 
Q 845.890938 27.318125 843.890938 27.318125 
L 715.578438 27.318125 
Q 713.578438 27.318125 713.578438 29.318125 
L 713.578438 101.70875 
Q 713.578438 103.70875 715.578438 103.70875 
z
" style="fill: #121212; opacity: 0.8; stroke: #444444; stroke-linejoin: miter"/>
    </g>
    <g id="line2d_30">
     <path d="M 717.578438 35.416562 
L 727.578438 35.416562 
L 737.578438 35.416562 
" style="fill: none; stroke: #ff9500; stroke-width: 2; stroke-linecap: square"/>
    </g>
    <g id="text_16">
     <!-- methods.linear -->
     <g style="fill: #ffffff" transform="translate(745.578438 38.916562) scale(0.1 -0.1)">
      <defs>
       <path id="DejaVuSans-6d" d="M 3328 2828 
Q 3544 3216 3844 3400 
Q 4144 3584 4550 3584 
Q 5097 3584 5394 3201 
Q 5691 2819 5691 2113 
L 5691 0 
L 5113 0 
L 5113 2094 
Q 5113 2597 4934 2840 
Q 4756 3084 4391 3084 
Q 3944 3084 3684 2787 
Q 3425 2491 3425 1978 
L 3425 0 
L 2847 0 
L 2847 2094 
Q 2847 2600 2669 2842 
Q 2491 3084 2119 3084 
Q 1678 3084 1418 2786 
Q 1159 2488 1159 1978 
L 1159 0 
L 581 0 
L 581 3500 
L 1159 3500 
L 1159 2956 
Q 1356 3278 1631 3431 
Q 1906 3584 2284 3584 
Q 2666 3584 2933 3390 
Q 3200 3197 3328 2828 
z
" transform="scale(0.015625)"/>
       <path id="DejaVuSans-68" d="M 3513 2113 
L 3513 0 
L 2938 0 
L 2938 2094 
Q 2938 2591 2744 2837 
Q 2550 3084 2163 3084 
Q 1697 3084 1428 2787 
Q 1159 2491 1159 1978 
L 1159 0 
L 581 0 
L 581 4863 
L 1159 4863 
L 1159 2956 
Q 1366 3272 1645 3428 
Q 1925 3584 2291 3584 
Q 2894 3584 3203 3211 
Q 3513 2838 3513 2113 
z
" transform="scale(0.015625)"/>
       <path id="DejaVuSans-64" d="M 2906 2969 
L 2906 4863 
L 3481 4863 
L 3481 0 
L 2906 0 
L 2906 525 
Q 2725 213 2448 61 
Q 2172 -91 1784 -91 
Q 1150 -91 751 415 
Q 353 922 353 1747 
Q 353 2572 751 3078 
Q 1150 3584 1784 3584 
Q 2172 3584 2448 3432 
Q 2725 3281 2906 2969 
z
M 947 1747 
Q 947 1113 1208 752 
Q 1469 391 1925 391 
Q 2381 391 2643 752 
Q 2906 1113 2906 1747 
Q 2906 2381 2643 2742 
Q 2381 3103 1925 3103 
Q 1469 3103 1208 2742 
Q 947 2381 947 1747 
z
" transform="scale(0.015625)"/>
      </defs>
      <use xlink:href="#DejaVuSans-6d"/>
      <use xlink:href="#DejaVuSans-65" transform="translate(97.412109 0)"/>
      <use xlink:href="#DejaVuSans-74" transform="translate(158.935547 0)"/>
      <use xlink:href="#DejaVuSans-68" transform="translate(198.144531 0)"/>
      <use xlink:href="#DejaVuSans-6f" transform="translate(261.523438 0)"/>
      <use xlink:href="#DejaVuSans-64" transform="translate(322.705078 0)"/>
      <use xlink:href="#DejaVuSans-73" transform="translate(386.181641 0)"/>
      <use xlink:href="#DejaVuSans-2e" transform="translate(438.28125 0)"/>
      <use xlink:href="#DejaVuSans-6c" transform="translate(470.068359 0)"/>
      <use xlink:href="#DejaVuSans-69" transform="translate(497.851562 0)"/>
      <use xlink:href="#DejaVuSans-6e" transform="translate(525.634766 0)"/>
      <use xlink:href="#DejaVuSans-65" transform="translate(589.013672 0)"/>
      <use xlink:href="#DejaVuSans-61" transform="translate(650.537109 0)"/>
      <use xlink:href="#DejaVuSans-72" transform="translate(711.816406 0)"/>
     </g>
    </g>
    <g id="line2d_31">
     <path d="M 717.578438 50.094687 
L 727.578438 50.094687 
L 737.578438 50.094687 
" style="fill: none; stroke: #00b9f1; stroke-width: 2; stroke-linecap: square"/>
    </g>
    <g id="text_17">
     <!-- methods.cubic -->
     <g style="fill: #ffffff" transform="translate(745.578438 53.594687) scale(0.1 -0.1)">
      <defs>
       <path id="DejaVuSans-63" d="M 3122 3366 
L 3122 2828 
Q 2878 2963 2633 3030 
Q 2388 3097 2138 3097 
Q 1578 3097 1268 2742 
Q 959 2388 959 1747 
Q 959 1106 1268 751 
Q 1578 397 2138 397 
Q 2388 397 2633 464 
Q 2878 531 3122 666 
L 3122 134 
Q 2881 22 2623 -34 
Q 2366 -91 2075 -91 
Q 1284 -91 818 406 
Q 353 903 353 1747 
Q 353 2603 823 3093 
Q 1294 3584 2113 3584 
Q 2378 3584 2631 3529 
Q 2884 3475 3122 3366 
z
" transform="scale(0.015625)"/>
       <path id="DejaVuSans-62" d="M 3116 1747 
Q 3116 2381 2855 2742 
Q 2594 3103 2138 3103 
Q 1681 3103 1420 2742 
Q 1159 2381 1159 1747 
Q 1159 1113 1420 752 
Q 1681 391 2138 391 
Q 2594 391 2855 752 
Q 3116 1113 3116 1747 
z
M 1159 2969 
Q 1341 3281 1617 3432 
Q 1894 3584 2278 3584 
Q 2916 3584 3314 3078 
Q 3713 2572 3713 1747 
Q 3713 922 3314 415 
Q 2916 -91 2278 -91 
Q 1894 -91 1617 61 
Q 1341 213 1159 525 
L 1159 0 
L 581 0 
L 581 4863 
L 1159 4863 
L 1159 2969 
z
" transform="scale(0.015625)"/>
      </defs>
      <use xlink:href="#DejaVuSans-6d"/>
      <use xlink:href="#DejaVuSans-65" transform="translate(97.412109 0)"/>
      <use xlink:href="#DejaVuSans-74" transform="translate(158.935547 0)"/>
      <use xlink:href="#DejaVuSans-68" transform="translate(198.144531 0)"/>
      <use xlink:href="#DejaVuSans-6f" transform="translate(261.523438 0)"/>
      <use xlink:href="#DejaVuSans-64" transform="translate(322.705078 0)"/>
      <use xlink:href="#DejaVuSans-73" transform="translate(386.181641 0)"/>
      <use xlink:href="#DejaVuSans-2e" transform="translate(438.28125 0)"/>
      <use xlink:href="#DejaVuSans-63" transform="translate(470.068359 0)"/>
      <use xlink:href="#DejaVuSans-75" transform="translate(525.048828 0)"/>
      <use xlink:href="#DejaVuSans-62" transform="translate(588.427734 0)"/>
      <use xlink:href="#DejaVuSans-69" transform="translate(651.904297 0)"/>
      <use xlink:href="#DejaVuSans-63" transform="translate(679.6875 0)"/>
     </g>
    </g>
    <g id="line2d_32">
     <path d="M 717.578438 64.772812 
L 727.578438 64.772812 
L 737.578438 64.772812 
" style="fill: none; stroke: #fb02fe; stroke-width: 2; stroke-linecap: square"/>
    </g>
    <g id="text_18">
     <!-- methods.hermite -->
     <g style="fill: #ffffff" transform="translate(745.578438 68.272812) scale(0.1 -0.1)">
      <use xlink:href="#DejaVuSans-6d"/>
      <use xlink:href="#DejaVuSans-65" transform="translate(97.412109 0)"/>
      <use xlink:href="#DejaVuSans-74" transform="translate(158.935547 0)"/>
      <use xlink:href="#DejaVuSans-68" transform="translate(198.144531 0)"/>
      <use xlink:href="#DejaVuSans-6f" transform="translate(261.523438 0)"/>
      <use xlink:href="#DejaVuSans-64" transform="translate(322.705078 0)"/>
      <use xlink:href="#DejaVuSans-73" transform="translate(386.181641 0)"/>
      <use xlink:href="#DejaVuSans-2e" transform="translate(438.28125 0)"/>
      <use xlink:href="#DejaVuSans-68" transform="translate(470.068359 0)"/>
      <use xlink:href="#DejaVuSans-65" transform="translate(533.447266 0)"/>
      <use xlink:href="#DejaVuSans-72" transform="translate(594.970703 0)"/>
      <use xlink:href="#DejaVuSans-6d" transform="translate(634.333984 0)"/>
      <use xlink:href="#DejaVuSans-69" transform="translate(731.746094 0)"/>
      <use xlink:href="#DejaVuSans-74" transform="translate(759.529297 0)"/>
      <use xlink:href="#DejaVuSans-65" transform="translate(798.738281 0)"/>
     </g>
    </g>
    <g id="line2d_33">
     <path d="M 717.578438 79.450938 
L 727.578438 79.450938 
L 737.578438 79.450938 
" style="fill: none; stroke: #01ff66; stroke-width: 2; stroke-linecap: square"/>
    </g>
    <g id="text_19">
     <!-- methods.eleven -->
     <g style="fill: #ffffff" transform="translate(745.578438 82.950938) scale(0.1 -0.1)">
      <use xlink:href="#DejaVuSans-6d"/>
      <use xlink:href="#DejaVuSans-65" transform="translate(97.412109 0)"/>
      <use xlink:href="#DejaVuSans-74" transform="translate(158.935547 0)"/>
      <use xlink:href="#DejaVuSans-68" transform="translate(198.144531 0)"/>
      <use xlink:href="#DejaVuSans-6f" transform="translate(261.523438 0)"/>
      <use xlink:href="#DejaVuSans-64" transform="translate(322.705078 0)"/>
      <use xlink:href="#DejaVuSans-73" transform="translate(386.181641 0)"/>
      <use xlink:href="#DejaVuSans-2e" transform="translate(438.28125 0)"/>
      <use xlink:href="#DejaVuSans-65" transform="translate(470.068359 0)"/>
      <use xlink:href="#DejaVuSans-6c" transform="translate(531.591797 0)"/>
      <use xlink:href="#DejaVuSans-65" transform="translate(559.375 0)"/>
      <use xlink:href="#DejaVuSans-76" transform="translate(620.898438 0)"/>
      <use xlink:href="#DejaVuSans-65" transform="translate(680.078125 0)"/>
      <use xlink:href="#DejaVuSans-6e" transform="translate(741.601562 0)"/>
     </g>
    </g>
    <g id="line2d_34">
     <path d="M 717.578438 94.129063 
L 727.578438 94.129063 
L 737.578438 94.129063 
" style="fill: none; stroke: #fffd01; stroke-width: 2; stroke-linecap: square"/>
    </g>
    <g id="text_20">
     <!-- showcase.beautiful -->
     <g style="fill: #ffffff" transform="translate(745.578438 97.629063) scale(0.1 -0.1)">
      <defs>
       <path id="DejaVuSans-77" d="M 269 3500 
L 844 3500 
L 1563 769 
L 2278 3500 
L 2956 3500 
L 3675 769 
L 4391 3500 
L 4966 3500 
L 4050 0 
L 3372 0 
L 2619 2869 
L 1863 0 
L 1184 0 
L 269 3500 
z
" transform="scale(0.015625)"/>
       <path id="DejaVuSans-66" d="M 2375 4863 
L 2375 4384 
L 1825 4384 
Q 1516 4384 1395 4259 
Q 1275 4134 1275 3809 
L 1275 3500 
L 2222 3500 
L 2222 3053 
L 1275 3053 
L 1275 0 
L 697 0 
L 697 3053 
L 147 3053 
L 147 3500 
L 697 3500 
L 697 3744 
Q 697 4328 969 4595 
Q 1241 4863 1831 4863 
L 2375 4863 
z
" transform="scale(0.015625)"/>
      </defs>
      <use xlink:href="#DejaVuSans-73"/>
      <use xlink:href="#DejaVuSans-68" transform="translate(52.099609 0)"/>
      <use xlink:href="#DejaVuSans-6f" transform="translate(115.478516 0)"/>
      <use xlink:href="#DejaVuSans-77" transform="translate(176.660156 0)"/>
      <use xlink:href="#DejaVuSans-63" transform="translate(258.447266 0)"/>
      <use xlink:href="#DejaVuSans-61" transform="translate(313.427734 0)"/>
      <use xlink:href="#DejaVuSans-73" transform="translate(374.707031 0)"/>
      <use xlink:href="#DejaVuSans-65" transform="translate(426.806641 0)"/>
      <use xlink:href="#DejaVuSans-2e" transform="translate(488.330078 0)"/>
      <use xlink:href="#DejaVuSans-62" transform="translate(520.117188 0)"/>
      <use xlink:href="#DejaVuSans-65" transform="translate(583.59375 0)"/>
      <use xlink:href="#DejaVuSans-61" transform="translate(645.117188 0)"/>
      <use xlink:href="#DejaVuSans-75" transform="translate(706.396484 0)"/>
      <use xlink:href="#DejaVuSans-74" transform="translate(769.775391 0)"/>
      <use xlink:href="#DejaVuSans-69" transform="translate(808.984375 0)"/>
      <use xlink:href="#DejaVuSans-66" transform="translate(836.767578 0)"/>
      <use xlink:href="#DejaVuSans-75" transform="translate(871.972656 0)"/>
      <use xlink:href="#DejaVuSans-6c" transform="translate(935.351562 0)"/>
     </g>
    </g>
   </g>
  </g>
 </g>
 <defs>
  <clipPath id="pedc5e31075">
   <rect x="52.160938" y="22.318125" width="798.73" height="147.16"/>
  </clipPath>
 </defs>
</svg>
