<?xml version="1.0" encoding="utf-8" standalone="no"?>
<!DOCTYPE svg PUBLIC "-//W3C//DTD SVG 1.1//EN"
  "http://www.w3.org/Graphics/SVG/1.1/DTD/svg11.dtd">
<svg xmlns:xlink="http://www.w3.org/1999/xlink" width="843.842835pt" height="101.534173pt" viewBox="0 0 843.842835 101.534173" xmlns="http://www.w3.org/2000/svg" version="1.1">
 <metadata>
  <rdf:RDF xmlns:dc="http://purl.org/dc/elements/1.1/" xmlns:cc="http://creativecommons.org/ns#" xmlns:rdf="http://www.w3.org/1999/02/22-rdf-syntax-ns#">
   <cc:Work>
    <dc:type rdf:resource="http://purl.org/dc/dcmitype/StillImage"/>
    <dc:date>2025-03-15T14:05:28.308183</dc:date>
    <dc:format>image/svg+xml</dc:format>
    <dc:creator>
     <cc:Agent>
      <dc:title>Matplotlib v3.10.1, https://matplotlib.org/</dc:title>
     </cc:Agent>
    </dc:creator>
   </cc:Work>
  </rdf:RDF>
 </metadata>
 <defs>
  <style type="text/css">*{stroke-linejoin: round; stroke-linecap: butt}</style>
 </defs>
 <g id="figure_1">
  <g id="patch_1">
   <path d="M 0 101.534173 
L 843.842835 101.534173 
L 843.842835 0 
L 0 0 
z
" style="fill: #121212"/>
  </g>
  <g id="axes_1">
   <g id="patch_2">
    <path d="M 43.53018 94.137691 
L 825.559573 94.137691 
L 825.559573 4.738261 
L 43.53018 4.738261 
z
" style="fill: #121212"/>
   </g>
   <g id="matplotlib.axis_1">
    <g id="xtick_1">
     <g id="line2d_1">
      <path d="M 43.53018 94.137691 
L 43.53018 4.738261 
" clip-path="url(#p28e45751d3)" style="fill: none; stroke-dasharray: 2.96,1.28; stroke-dashoffset: 0; stroke: #444444; stroke-opacity: 0.7; stroke-width: 0.8"/>
     </g>
     <g id="line2d_2">
      <defs>
       <path id="ma5bc714010" d="M 0 0 
L 0 3.5 
" style="stroke: #aaaaaa; stroke-width: 0.8"/>
      </defs>
      <g>
       <use xlink:href="#ma5bc714010" x="43.53018" y="94.137691" style="fill: #aaaaaa; stroke: #aaaaaa; stroke-width: 0.8"/>
      </g>
     </g>
     <g id="text_1">
      <!-- 0.0 -->
      <g style="fill: #aaaaaa" transform="translate(35.578617 108.736128) scale(0.1 -0.1)">
       <defs>
        <path id="DejaVuSans-30" d="M 2034 4250 
Q 1547 4250 1301 3770 
Q 1056 3291 1056 2328 
Q 1056 1369 1301 889 
Q 1547 409 2034 409 
Q 2525 409 2770 889 
Q 3016 1369 3016 2328 
Q 3016 3291 2770 3770 
Q 2525 4250 2034 4250 
z
M 2034 4750 
Q 2819 4750 3233 4129 
Q 3647 3509 3647 2328 
Q 3647 1150 3233 529 
Q 2819 -91 2034 -91 
Q 1250 -91 836 529 
Q 422 1150 422 2328 
Q 422 3509 836 4129 
Q 1250 4750 2034 4750 
z
" transform="scale(0.015625)"/>
        <path id="DejaVuSans-2e" d="M 684 794 
L 1344 794 
L 1344 0 
L 684 0 
L 684 794 
z
" transform="scale(0.015625)"/>
       </defs>
       <use xlink:href="#DejaVuSans-30"/>
       <use xlink:href="#DejaVuSans-2e" transform="translate(63.623047 0)"/>
       <use xlink:href="#DejaVuSans-30" transform="translate(95.410156 0)"/>
      </g>
     </g>
    </g>
    <g id="xtick_2">
     <g id="line2d_3">
      <path d="M 199.936058 94.137691 
L 199.936058 4.738261 
" clip-path="url(#p28e45751d3)" style="fill: none; stroke-dasharray: 2.96,1.28; stroke-dashoffset: 0; stroke: #444444; stroke-opacity: 0.7; stroke-width: 0.8"/>
     </g>
     <g id="line2d_4">
      <g>
       <use xlink:href="#ma5bc714010" x="199.936058" y="94.137691" style="fill: #aaaaaa; stroke: #aaaaaa; stroke-width: 0.8"/>
      </g>
     </g>
     <g id="text_2">
      <!-- 0.2 -->
      <g style="fill: #aaaaaa" transform="translate(191.984496 108.736128) scale(0.1 -0.1)">
       <defs>
        <path id="DejaVuSans-32" d="M 1228 531 
L 3431 531 
L 3431 0 
L 469 0 
L 469 531 
Q 828 903 1448 1529 
Q 2069 2156 2228 2338 
Q 2531 2678 2651 2914 
Q 2772 3150 2772 3378 
Q 2772 3750 2511 3984 
Q 2250 4219 1831 4219 
Q 1534 4219 1204 4116 
Q 875 4013 500 3803 
L 500 4441 
Q 881 4594 1212 4672 
Q 1544 4750 1819 4750 
Q 2544 4750 2975 4387 
Q 3406 4025 3406 3419 
Q 3406 3131 3298 2873 
Q 3191 2616 2906 2266 
Q 2828 2175 2409 1742 
Q 1991 1309 1228 531 
z
" transform="scale(0.015625)"/>
       </defs>
       <use xlink:href="#DejaVuSans-30"/>
       <use xlink:href="#DejaVuSans-2e" transform="translate(63.623047 0)"/>
       <use xlink:href="#DejaVuSans-32" transform="translate(95.410156 0)"/>
      </g>
     </g>
    </g>
    <g id="xtick_3">
     <g id="line2d_5">
      <path d="M 356.341937 94.137691 
L 356.341937 4.738261 
" clip-path="url(#p28e45751d3)" style="fill: none; stroke-dasharray: 2.96,1.28; stroke-dashoffset: 0; stroke: #444444; stroke-opacity: 0.7; stroke-width: 0.8"/>
     </g>
     <g id="line2d_6">
      <g>
       <use xlink:href="#ma5bc714010" x="356.341937" y="94.137691" style="fill: #aaaaaa; stroke: #aaaaaa; stroke-width: 0.8"/>
      </g>
     </g>
     <g id="text_3">
      <!-- 0.4 -->
      <g style="fill: #aaaaaa" transform="translate(348.390375 108.736128) scale(0.1 -0.1)">
       <defs>
        <path id="DejaVuSans-34" d="M 2419 4116 
L 825 1625 
L 2419 1625 
L 2419 4116 
z
M 2253 4666 
L 3047 4666 
L 3047 1625 
L 3713 1625 
L 3713 1100 
L 3047 1100 
L 3047 0 
L 2419 0 
L 2419 1100 
L 313 1100 
L 313 1709 
L 2253 4666 
z
" transform="scale(0.015625)"/>
       </defs>
       <use xlink:href="#DejaVuSans-30"/>
       <use xlink:href="#DejaVuSans-2e" transform="translate(63.623047 0)"/>
       <use xlink:href="#DejaVuSans-34" transform="translate(95.410156 0)"/>
      </g>
     </g>
    </g>
    <g id="xtick_4">
     <g id="line2d_7">
      <path d="M 512.747816 94.137691 
L 512.747816 4.738261 
" clip-path="url(#p28e45751d3)" style="fill: none; stroke-dasharray: 2.96,1.28; stroke-dashoffset: 0; stroke: #444444; stroke-opacity: 0.7; stroke-width: 0.8"/>
     </g>
     <g id="line2d_8">
      <g>
       <use xlink:href="#ma5bc714010" x="512.747816" y="94.137691" style="fill: #aaaaaa; stroke: #aaaaaa; stroke-width: 0.8"/>
      </g>
     </g>
     <g id="text_4">
      <!-- 0.6 -->
      <g style="fill: #aaaaaa" transform="translate(504.796253 108.736128) scale(0.1 -0.1)">
       <defs>
        <path id="DejaVuSans-36" d="M 2113 2584 
Q 1688 2584 1439 2293 
Q 1191 2003 1191 1497 
Q 1191 994 1439 701 
Q 1688 409 2113 409 
Q 2538 409 2786 701 
Q 3034 994 3034 1497 
Q 3034 2003 2786 2293 
Q 2538 2584 2113 2584 
z
M 3366 4563 
L 3366 3988 
Q 3128 4100 2886 4159 
Q 2644 4219 2406 4219 
Q 1781 4219 1451 3797 
Q 1122 3375 1075 2522 
Q 1259 2794 1537 2939 
Q 1816 3084 2150 3084 
Q 2853 3084 3261 2657 
Q 3669 2231 3669 1497 
Q 3669 778 3244 343 
Q 2819 -91 2113 -91 
Q 1303 -91 875 529 
Q 447 1150 447 2328 
Q 447 3434 972 4092 
Q 1497 4750 2381 4750 
Q 2619 4750 2861 4703 
Q 3103 4656 3366 4563 
z
" transform="scale(0.015625)"/>
       </defs>
       <use xlink:href="#DejaVuSans-30"/>
       <use xlink:href="#DejaVuSans-2e" transform="translate(63.623047 0)"/>
       <use xlink:href="#DejaVuSans-36" transform="translate(95.410156 0)"/>
      </g>
     </g>
    </g>
    <g id="xtick_5">
     <g id="line2d_9">
      <path d="M 669.153694 94.137691 
L 669.153694 4.738261 
" clip-path="url(#p28e45751d3)" style="fill: none; stroke-dasharray: 2.96,1.28; stroke-dashoffset: 0; stroke: #444444; stroke-opacity: 0.7; stroke-width: 0.8"/>
     </g>
     <g id="line2d_10">
      <g>
       <use xlink:href="#ma5bc714010" x="669.153694" y="94.137691" style="fill: #aaaaaa; stroke: #aaaaaa; stroke-width: 0.8"/>
      </g>
     </g>
     <g id="text_5">
      <!-- 0.8 -->
      <g style="fill: #aaaaaa" transform="translate(661.202132 108.736128) scale(0.1 -0.1)">
       <defs>
        <path id="DejaVuSans-38" d="M 2034 2216 
Q 1584 2216 1326 1975 
Q 1069 1734 1069 1313 
Q 1069 891 1326 650 
Q 1584 409 2034 409 
Q 2484 409 2743 651 
Q 3003 894 3003 1313 
Q 3003 1734 2745 1975 
Q 2488 2216 2034 2216 
z
M 1403 2484 
Q 997 2584 770 2862 
Q 544 3141 544 3541 
Q 544 4100 942 4425 
Q 1341 4750 2034 4750 
Q 2731 4750 3128 4425 
Q 3525 4100 3525 3541 
Q 3525 3141 3298 2862 
Q 3072 2584 2669 2484 
Q 3125 2378 3379 2068 
Q 3634 1759 3634 1313 
Q 3634 634 3220 271 
Q 2806 -91 2034 -91 
Q 1263 -91 848 271 
Q 434 634 434 1313 
Q 434 1759 690 2068 
Q 947 2378 1403 2484 
z
M 1172 3481 
Q 1172 3119 1398 2916 
Q 1625 2713 2034 2713 
Q 2441 2713 2670 2916 
Q 2900 3119 2900 3481 
Q 2900 3844 2670 4047 
Q 2441 4250 2034 4250 
Q 1625 4250 1398 4047 
Q 1172 3844 1172 3481 
z
" transform="scale(0.015625)"/>
       </defs>
       <use xlink:href="#DejaVuSans-30"/>
       <use xlink:href="#DejaVuSans-2e" transform="translate(63.623047 0)"/>
       <use xlink:href="#DejaVuSans-38" transform="translate(95.410156 0)"/>
      </g>
     </g>
    </g>
    <g id="xtick_6">
     <g id="line2d_11">
      <path d="M 825.559573 94.137691 
L 825.559573 4.738261 
" clip-path="url(#p28e45751d3)" style="fill: none; stroke-dasharray: 2.96,1.28; stroke-dashoffset: 0; stroke: #444444; stroke-opacity: 0.7; stroke-width: 0.8"/>
     </g>
     <g id="line2d_12">
      <g>
       <use xlink:href="#ma5bc714010" x="825.559573" y="94.137691" style="fill: #aaaaaa; stroke: #aaaaaa; stroke-width: 0.8"/>
      </g>
     </g>
     <g id="text_6">
      <!-- 1.0 -->
      <g style="fill: #aaaaaa" transform="translate(817.608011 108.736128) scale(0.1 -0.1)">
       <defs>
        <path id="DejaVuSans-31" d="M 794 531 
L 1825 531 
L 1825 4091 
L 703 3866 
L 703 4441 
L 1819 4666 
L 2450 4666 
L 2450 531 
L 3481 531 
L 3481 0 
L 794 0 
L 794 531 
z
" transform="scale(0.015625)"/>
       </defs>
       <use xlink:href="#DejaVuSans-31"/>
       <use xlink:href="#DejaVuSans-2e" transform="translate(63.623047 0)"/>
       <use xlink:href="#DejaVuSans-30" transform="translate(95.410156 0)"/>
      </g>
     </g>
    </g>
    <g id="text_7">
     <!-- Position -->
     <g style="fill: #ffffff" transform="translate(415.080814 122.414253) scale(0.1 -0.1)">
      <defs>
       <path id="DejaVuSans-50" d="M 1259 4147 
L 1259 2394 
L 2053 2394 
Q 2494 2394 2734 2622 
Q 2975 2850 2975 3272 
Q 2975 3691 2734 3919 
Q 2494 4147 2053 4147 
L 1259 4147 
z
M 628 4666 
L 2053 4666 
Q 2838 4666 3239 4311 
Q 3641 3956 3641 3272 
Q 3641 2581 3239 2228 
Q 2838 1875 2053 1875 
L 1259 1875 
L 1259 0 
L 628 0 
L 628 4666 
z
" transform="scale(0.015625)"/>
       <path id="DejaVuSans-6f" d="M 1959 3097 
Q 1497 3097 1228 2736 
Q 959 2375 959 1747 
Q 959 1119 1226 758 
Q 1494 397 1959 397 
Q 2419 397 2687 759 
Q 2956 1122 2956 1747 
Q 2956 2369 2687 2733 
Q 2419 3097 1959 3097 
z
M 1959 3584 
Q 2709 3584 3137 3096 
Q 3566 2609 3566 1747 
Q 3566 888 3137 398 
Q 2709 -91 1959 -91 
Q 1206 -91 779 398 
Q 353 888 353 1747 
Q 353 2609 779 3096 
Q 1206 3584 1959 3584 
z
" transform="scale(0.015625)"/>
       <path id="DejaVuSans-73" d="M 2834 3397 
L 2834 2853 
Q 2591 2978 2328 3040 
Q 2066 3103 1784 3103 
Q 1356 3103 1142 2972 
Q 928 2841 928 2578 
Q 928 2378 1081 2264 
Q 1234 2150 1697 2047 
L 1894 2003 
Q 2506 1872 2764 1633 
Q 3022 1394 3022 966 
Q 3022 478 2636 193 
Q 2250 -91 1575 -91 
Q 1294 -91 989 -36 
Q 684 19 347 128 
L 347 722 
Q 666 556 975 473 
Q 1284 391 1588 391 
Q 1994 391 2212 530 
Q 2431 669 2431 922 
Q 2431 1156 2273 1281 
Q 2116 1406 1581 1522 
L 1381 1569 
Q 847 1681 609 1914 
Q 372 2147 372 2553 
Q 372 3047 722 3315 
Q 1072 3584 1716 3584 
Q 2034 3584 2315 3537 
Q 2597 3491 2834 3397 
z
" transform="scale(0.015625)"/>
       <path id="DejaVuSans-69" d="M 603 3500 
L 1178 3500 
L 1178 0 
L 603 0 
L 603 3500 
z
M 603 4863 
L 1178 4863 
L 1178 4134 
L 603 4134 
L 603 4863 
z
" transform="scale(0.015625)"/>
       <path id="DejaVuSans-74" d="M 1172 4494 
L 1172 3500 
L 2356 3500 
L 2356 3053 
L 1172 3053 
L 1172 1153 
Q 1172 725 1289 603 
Q 1406 481 1766 481 
L 2356 481 
L 2356 0 
L 1766 0 
Q 1100 0 847 248 
Q 594 497 594 1153 
L 594 3053 
L 172 3053 
L 172 3500 
L 594 3500 
L 594 4494 
L 1172 4494 
z
" transform="scale(0.015625)"/>
       <path id="DejaVuSans-6e" d="M 3513 2113 
L 3513 0 
L 2938 0 
L 2938 2094 
Q 2938 2591 2744 2837 
Q 2550 3084 2163 3084 
Q 1697 3084 1428 2787 
Q 1159 2491 1159 1978 
L 1159 0 
L 581 0 
L 581 3500 
L 1159 3500 
L 1159 2956 
Q 1366 3272 1645 3428 
Q 1925 3584 2291 3584 
Q 2894 3584 3203 3211 
Q 3513 2838 3513 2113 
z
" transform="scale(0.015625)"/>
      </defs>
      <use xlink:href="#DejaVuSans-50"/>
      <use xlink:href="#DejaVuSans-6f" transform="translate(56.677734 0)"/>
      <use xlink:href="#DejaVuSans-73" transform="translate(117.859375 0)"/>
      <use xlink:href="#DejaVuSans-69" transform="translate(169.958984 0)"/>
      <use xlink:href="#DejaVuSans-74" transform="translate(197.742188 0)"/>
      <use xlink:href="#DejaVuSans-69" transform="translate(236.951172 0)"/>
      <use xlink:href="#DejaVuSans-6f" transform="translate(264.734375 0)"/>
      <use xlink:href="#DejaVuSans-6e" transform="translate(325.916016 0)"/>
     </g>
    </g>
   </g>
   <g id="matplotlib.axis_2">
    <g id="ytick_1">
     <g id="line2d_13">
      <path d="M 43.53018 90.07408 
L 825.559573 90.07408 
" clip-path="url(#p28e45751d3)" style="fill: none; stroke-dasharray: 2.96,1.28; stroke-dashoffset: 0; stroke: #444444; stroke-opacity: 0.7; stroke-width: 0.8"/>
     </g>
     <g id="line2d_14">
      <defs>
       <path id="m3c66448519" d="M 0 0 
L -3.5 0 
" style="stroke: #aaaaaa; stroke-width: 0.8"/>
      </defs>
      <g>
       <use xlink:href="#m3c66448519" x="43.53018" y="90.07408" style="fill: #aaaaaa; stroke: #aaaaaa; stroke-width: 0.8"/>
      </g>
     </g>
     <g id="text_8">
      <!-- 0 -->
      <g style="fill: #aaaaaa" transform="translate(30.16768 93.873299) scale(0.1 -0.1)">
       <use xlink:href="#DejaVuSans-30"/>
      </g>
     </g>
    </g>
    <g id="ytick_2">
     <g id="line2d_15">
      <path d="M 43.53018 53.132167 
L 825.559573 53.132167 
" clip-path="url(#p28e45751d3)" style="fill: none; stroke-dasharray: 2.96,1.28; stroke-dashoffset: 0; stroke: #444444; stroke-opacity: 0.7; stroke-width: 0.8"/>
     </g>
     <g id="line2d_16">
      <g>
       <use xlink:href="#m3c66448519" x="43.53018" y="53.132167" style="fill: #aaaaaa; stroke: #aaaaaa; stroke-width: 0.8"/>
      </g>
     </g>
     <g id="text_9">
      <!-- 5 -->
      <g style="fill: #aaaaaa" transform="translate(30.16768 56.931386) scale(0.1 -0.1)">
       <defs>
        <path id="DejaVuSans-35" d="M 691 4666 
L 3169 4666 
L 3169 4134 
L 1269 4134 
L 1269 2991 
Q 1406 3038 1543 3061 
Q 1681 3084 1819 3084 
Q 2600 3084 3056 2656 
Q 3513 2228 3513 1497 
Q 3513 744 3044 326 
Q 2575 -91 1722 -91 
Q 1428 -91 1123 -41 
Q 819 9 494 109 
L 494 744 
Q 775 591 1075 516 
Q 1375 441 1709 441 
Q 2250 441 2565 725 
Q 2881 1009 2881 1497 
Q 2881 1984 2565 2268 
Q 2250 2553 1709 2553 
Q 1456 2553 1204 2497 
Q 953 2441 691 2322 
L 691 4666 
z
" transform="scale(0.015625)"/>
       </defs>
       <use xlink:href="#DejaVuSans-35"/>
      </g>
     </g>
    </g>
    <g id="ytick_3">
     <g id="line2d_17">
      <path d="M 43.53018 16.190254 
L 825.559573 16.190254 
" clip-path="url(#p28e45751d3)" style="fill: none; stroke-dasharray: 2.96,1.28; stroke-dashoffset: 0; stroke: #444444; stroke-opacity: 0.7; stroke-width: 0.8"/>
     </g>
     <g id="line2d_18">
      <g>
       <use xlink:href="#m3c66448519" x="43.53018" y="16.190254" style="fill: #aaaaaa; stroke: #aaaaaa; stroke-width: 0.8"/>
      </g>
     </g>
     <g id="text_10">
      <!-- 10 -->
      <g style="fill: #aaaaaa" transform="translate(23.80518 19.989473) scale(0.1 -0.1)">
       <use xlink:href="#DejaVuSans-31"/>
       <use xlink:href="#DejaVuSans-30" transform="translate(63.623047 0)"/>
      </g>
     </g>
    </g>
    <g id="text_11">
     <!-- Value -->
     <g style="fill: #ffffff" transform="translate(17.725492 63.169226) rotate(-90) scale(0.1 -0.1)">
      <defs>
       <path id="DejaVuSans-56" d="M 1831 0 
L 50 4666 
L 709 4666 
L 2188 738 
L 3669 4666 
L 4325 4666 
L 2547 0 
L 1831 0 
z
" transform="scale(0.015625)"/>
       <path id="DejaVuSans-61" d="M 2194 1759 
Q 1497 1759 1228 1600 
Q 959 1441 959 1056 
Q 959 750 1161 570 
Q 1363 391 1709 391 
Q 2188 391 2477 730 
Q 2766 1069 2766 1631 
L 2766 1759 
L 2194 1759 
z
M 3341 1997 
L 3341 0 
L 2766 0 
L 2766 531 
Q 2569 213 2275 61 
Q 1981 -91 1556 -91 
Q 1019 -91 701 211 
Q 384 513 384 1019 
Q 384 1609 779 1909 
Q 1175 2209 1959 2209 
L 2766 2209 
L 2766 2266 
Q 2766 2663 2505 2880 
Q 2244 3097 1772 3097 
Q 1472 3097 1187 3025 
Q 903 2953 641 2809 
L 641 3341 
Q 956 3463 1253 3523 
Q 1550 3584 1831 3584 
Q 2591 3584 2966 3190 
Q 3341 2797 3341 1997 
z
" transform="scale(0.015625)"/>
       <path id="DejaVuSans-6c" d="M 603 4863 
L 1178 4863 
L 1178 0 
L 603 0 
L 603 4863 
z
" transform="scale(0.015625)"/>
       <path id="DejaVuSans-75" d="M 544 1381 
L 544 3500 
L 1119 3500 
L 1119 1403 
Q 1119 906 1312 657 
Q 1506 409 1894 409 
Q 2359 409 2629 706 
Q 2900 1003 2900 1516 
L 2900 3500 
L 3475 3500 
L 3475 0 
L 2900 0 
L 2900 538 
Q 2691 219 2414 64 
Q 2138 -91 1772 -91 
Q 1169 -91 856 284 
Q 544 659 544 1381 
z
M 1991 3584 
L 1991 3584 
z
" transform="scale(0.015625)"/>
       <path id="DejaVuSans-65" d="M 3597 1894 
L 3597 1613 
L 953 1613 
Q 991 1019 1311 708 
Q 1631 397 2203 397 
Q 2534 397 2845 478 
Q 3156 559 3463 722 
L 3463 178 
Q 3153 47 2828 -22 
Q 2503 -91 2169 -91 
Q 1331 -91 842 396 
Q 353 884 353 1716 
Q 353 2575 817 3079 
Q 1281 3584 2069 3584 
Q 2775 3584 3186 3129 
Q 3597 2675 3597 1894 
z
M 3022 2063 
Q 3016 2534 2758 2815 
Q 2500 3097 2075 3097 
Q 1594 3097 1305 2825 
Q 1016 2553 972 2059 
L 3022 2063 
z
" transform="scale(0.015625)"/>
      </defs>
      <use xlink:href="#DejaVuSans-56"/>
      <use xlink:href="#DejaVuSans-61" transform="translate(60.658203 0)"/>
      <use xlink:href="#DejaVuSans-6c" transform="translate(121.9375 0)"/>
      <use xlink:href="#DejaVuSans-75" transform="translate(149.720703 0)"/>
      <use xlink:href="#DejaVuSans-65" transform="translate(213.099609 0)"/>
     </g>
    </g>
   </g>
   <g id="line2d_19">
    <path d="M 43.53018 90.07408 
L 51.429466 89.327779 
L 59.328753 88.581478 
L 67.22804 87.835177 
L 75.127327 87.088875 
L 83.026614 86.342574 
L 90.9259 85.596273 
L 98.825187 84.849971 
L 106.724474 84.10367 
L 114.623761 83.357369 
L 122.523048 82.611068 
L 130.422334 81.864766 
L 138.321621 81.118465 
L 146.220908 80.372164 
L 154.120195 79.625863 
L 162.019482 78.879561 
L 169.918768 78.13326 
L 177.818055 77.386959 
L 185.717342 76.640657 
L 193.616629 75.894356 
L 201.515916 75.148055 
L 209.415202 74.401754 
L 217.314489 73.655452 
L 225.213776 72.909151 
L 233.113063 72.16285 
L 241.01235 71.416549 
L 248.911636 70.670247 
L 256.810923 69.923946 
L 264.71021 69.177645 
L 272.609497 68.431343 
L 280.508784 67.685042 
L 288.408071 66.938741 
L 296.307357 66.19244 
L 304.206644 65.446138 
L 312.105931 64.699837 
L 320.005218 63.953536 
L 327.904505 63.207235 
L 335.803791 62.460933 
L 343.703078 61.714632 
L 351.602365 60.968331 
L 359.501652 60.222029 
L 367.400939 59.475728 
L 375.300225 58.729427 
L 383.199512 57.983126 
L 391.098799 57.236824 
L 398.998086 56.490523 
L 406.897373 55.744222 
L 414.796659 54.997921 
L 422.695946 54.251619 
L 430.595233 53.505318 
L 438.49452 53.505318 
L 446.393807 54.251619 
L 454.293093 54.997921 
L 462.19238 55.744222 
L 470.091667 56.490523 
L 477.990954 57.236824 
L 485.890241 57.983126 
L 493.789527 58.729427 
L 501.688814 59.475728 
L 509.588101 60.222029 
L 517.487388 60.968331 
L 525.386675 61.714632 
L 533.285961 62.460933 
L 541.185248 63.207235 
L 549.084535 63.953536 
L 556.983822 64.699837 
L 564.883109 65.446138 
L 572.782395 66.19244 
L 580.681682 66.938741 
L 588.580969 67.685042 
L 596.480256 68.431343 
L 604.379543 69.177645 
L 612.27883 69.923946 
L 620.178116 70.670247 
L 628.077403 71.416549 
L 635.97669 72.16285 
L 643.875977 72.909151 
L 651.775264 73.655452 
L 659.67455 74.401754 
L 667.573837 75.148055 
L 675.473124 75.894356 
L 683.372411 76.640657 
L 691.271698 77.386959 
L 699.170984 78.13326 
L 707.070271 78.879561 
L 714.969558 79.625863 
L 722.868845 80.372164 
L 730.768132 81.118465 
L 738.667418 81.864766 
L 746.566705 82.611068 
L 754.465992 83.357369 
L 762.365279 84.10367 
L 770.264566 84.849971 
L 778.163852 85.596273 
L 786.063139 86.342574 
L 793.962426 87.088875 
L 801.861713 87.835177 
L 809.761 88.581478 
L 817.660286 89.327779 
L 825.559573 90.07408 
" clip-path="url(#p28e45751d3)" style="fill: none; stroke: #ff9500; stroke-width: 2; stroke-linecap: square"/>
   </g>
   <g id="line2d_20">
    <path d="M 43.53018 90.07408 
L 51.429466 89.313007 
L 59.328753 88.523607 
L 67.22804 87.707709 
L 75.127327 86.86714 
L 83.026614 86.003727 
L 90.9259 85.119298 
L 98.825187 84.21568 
L 106.724474 83.294701 
L 114.623761 82.358189 
L 122.523048 81.40797 
L 130.422334 80.445873 
L 138.321621 79.473724 
L 146.220908 78.493352 
L 154.120195 77.506583 
L 162.019482 76.515246 
L 169.918768 75.521167 
L 177.818055 74.526175 
L 185.717342 73.532097 
L 193.616629 72.54076 
L 201.515916 71.553991 
L 209.415202 70.573619 
L 217.314489 69.60147 
L 225.213776 68.639373 
L 233.113063 67.689154 
L 241.01235 66.752641 
L 248.911636 65.831663 
L 256.810923 64.928045 
L 264.71021 64.043616 
L 272.609497 63.180203 
L 280.508784 62.339634 
L 288.408071 61.523735 
L 296.307357 60.734336 
L 304.206644 59.973262 
L 312.105931 59.242342 
L 320.005218 58.543404 
L 327.904505 57.878273 
L 335.803791 57.248779 
L 343.703078 56.656749 
L 351.602365 56.104009 
L 359.501652 55.592388 
L 367.400939 55.123713 
L 375.300225 54.699811 
L 383.199512 54.322511 
L 391.098799 53.993639 
L 398.998086 53.715023 
L 406.897373 53.48849 
L 414.796659 53.315868 
L 422.695946 53.198985 
L 430.595233 53.139668 
L 438.49452 53.139668 
L 446.393807 53.198985 
L 454.293093 53.315868 
L 462.19238 53.48849 
L 470.091667 53.715023 
L 477.990954 53.993639 
L 485.890241 54.322511 
L 493.789527 54.699811 
L 501.688814 55.123713 
L 509.588101 55.592388 
L 517.487388 56.104009 
L 525.386675 56.656749 
L 533.285961 57.248779 
L 541.185248 57.878273 
L 549.084535 58.543404 
L 556.983822 59.242342 
L 564.883109 59.973262 
L 572.782395 60.734336 
L 580.681682 61.523735 
L 588.580969 62.339634 
L 596.480256 63.180203 
L 604.379543 64.043616 
L 612.27883 64.928045 
L 620.178116 65.831663 
L 628.077403 66.752641 
L 635.97669 67.689154 
L 643.875977 68.639373 
L 651.775264 69.60147 
L 659.67455 70.573619 
L 667.573837 71.553991 
L 675.473124 72.54076 
L 683.372411 73.532097 
L 691.271698 74.526175 
L 699.170984 75.521167 
L 707.070271 76.515246 
L 714.969558 77.506583 
L 722.868845 78.493352 
L 730.768132 79.473724 
L 738.667418 80.445873 
L 746.566705 81.40797 
L 754.465992 82.358189 
L 762.365279 83.294701 
L 770.264566 84.21568 
L 778.163852 85.119298 
L 786.063139 86.003727 
L 793.962426 86.86714 
L 801.861713 87.707709 
L 809.761 88.523607 
L 817.660286 89.313007 
L 825.559573 90.07408 
" clip-path="url(#p28e45751d3)" style="fill: none; stroke: #00b9f1; stroke-width: 2; stroke-linecap: square"/>
   </g>
   <g id="line2d_21">
    <path d="M 43.53018 90.07408 
L 51.429466 90.029459 
L 59.328753 89.898032 
L 67.22804 89.683454 
L 75.127327 89.389381 
L 83.026614 89.019466 
L 90.9259 88.577366 
L 98.825187 88.066735 
L 106.724474 87.491228 
L 114.623761 86.8545 
L 122.523048 86.160206 
L 130.422334 85.412001 
L 138.321621 84.61354 
L 146.220908 83.768478 
L 154.120195 82.88047 
L 162.019482 81.953171 
L 169.918768 80.990236 
L 177.818055 79.99532 
L 185.717342 78.972078 
L 193.616629 77.924165 
L 201.515916 76.855235 
L 209.415202 75.768945 
L 217.314489 74.668948 
L 225.213776 73.5589 
L 233.113063 72.442456 
L 241.01235 71.32327 
L 248.911636 70.204999 
L 256.810923 69.091296 
L 264.71021 67.985817 
L 272.609497 66.892216 
L 280.508784 65.814149 
L 288.408071 64.755271 
L 296.307357 63.719236 
L 304.206644 62.7097 
L 312.105931 61.730318 
L 320.005218 60.784744 
L 327.904505 59.876634 
L 335.803791 59.009642 
L 343.703078 58.187424 
L 351.602365 57.413634 
L 359.501652 56.691928 
L 367.400939 56.02596 
L 375.300225 55.419385 
L 383.199512 54.875859 
L 391.098799 54.399037 
L 398.998086 53.992573 
L 406.897373 53.660122 
L 414.796659 53.405339 
L 422.695946 53.23188 
L 430.595233 53.143399 
L 438.49452 53.143399 
L 446.393807 53.23188 
L 454.293093 53.405339 
L 462.19238 53.660122 
L 470.091667 53.992573 
L 477.990954 54.399037 
L 485.890241 54.875859 
L 493.789527 55.419385 
L 501.688814 56.02596 
L 509.588101 56.691928 
L 517.487388 57.413634 
L 525.386675 58.187424 
L 533.285961 59.009642 
L 541.185248 59.876634 
L 549.084535 60.784744 
L 556.983822 61.730318 
L 564.883109 62.7097 
L 572.782395 63.719236 
L 580.681682 64.755271 
L 588.580969 65.814149 
L 596.480256 66.892216 
L 604.379543 67.985817 
L 612.27883 69.091296 
L 620.178116 70.204999 
L 628.077403 71.32327 
L 635.97669 72.442456 
L 643.875977 73.5589 
L 651.775264 74.668948 
L 659.67455 75.768945 
L 667.573837 76.855235 
L 675.473124 77.924165 
L 683.372411 78.972078 
L 691.271698 79.99532 
L 699.170984 80.990236 
L 707.070271 81.953171 
L 714.969558 82.88047 
L 722.868845 83.768478 
L 730.768132 84.61354 
L 738.667418 85.412001 
L 746.566705 86.160206 
L 754.465992 86.8545 
L 762.365279 87.491228 
L 770.264566 88.066735 
L 778.163852 88.577366 
L 786.063139 89.019466 
L 793.962426 89.389381 
L 801.861713 89.683454 
L 809.761 89.898032 
L 817.660286 90.029459 
L 825.559573 90.07408 
" clip-path="url(#p28e45751d3)" style="fill: none; stroke: #fb02fe; stroke-width: 2; stroke-linecap: square"/>
   </g>
   <g id="line2d_22">
    <path d="M 43.53018 90.07408 
L 51.429466 89.201667 
L 59.328753 88.371651 
L 67.22804 87.578186 
L 75.127327 86.815422 
L 83.026614 86.077512 
L 90.9259 85.358608 
L 98.825187 84.652861 
L 106.724474 83.954425 
L 114.623761 83.257451 
L 122.523048 82.556091 
L 130.422334 81.844496 
L 138.321621 81.11682 
L 146.220908 80.367214 
L 154.120195 79.589831 
L 162.019482 78.778821 
L 169.918768 77.928337 
L 177.818055 77.032532 
L 185.717342 76.085557 
L 193.616629 75.081565 
L 201.515916 74.014706 
L 209.415202 72.879135 
L 217.314489 71.669001 
L 225.213776 70.378458 
L 233.113063 69.001657 
L 241.01235 67.527065 
L 248.911636 65.833004 
L 256.810923 63.894736 
L 264.71021 61.742043 
L 272.609497 59.404706 
L 280.508784 56.912506 
L 288.408071 54.295224 
L 296.307357 51.582642 
L 304.206644 48.804541 
L 312.105931 45.990703 
L 320.005218 43.170908 
L 327.904505 40.374939 
L 335.803791 37.632575 
L 343.703078 34.9736 
L 351.602365 32.427793 
L 359.501652 29.981759 
L 367.400939 27.297937 
L 375.300225 24.401213 
L 383.199512 21.419511 
L 391.098799 18.480754 
L 398.998086 15.712868 
L 406.897373 13.243777 
L 414.796659 11.201404 
L 422.695946 9.713675 
L 430.595233 8.908514 
L 438.49452 8.908514 
L 446.393807 9.713675 
L 454.293093 11.201404 
L 462.19238 13.243777 
L 470.091667 15.712868 
L 477.990954 18.480754 
L 485.890241 21.419511 
L 493.789527 24.401213 
L 501.688814 27.297937 
L 509.588101 29.981759 
L 517.487388 32.427793 
L 525.386675 34.9736 
L 533.285961 37.632575 
L 541.185248 40.374939 
L 549.084535 43.170908 
L 556.983822 45.990703 
L 564.883109 48.804541 
L 572.782395 51.582642 
L 580.681682 54.295224 
L 588.580969 56.912506 
L 596.480256 59.404706 
L 604.379543 61.742043 
L 612.27883 63.894736 
L 620.178116 65.833004 
L 628.077403 67.527065 
L 635.97669 69.001657 
L 643.875977 70.378458 
L 651.775264 71.669001 
L 659.67455 72.879135 
L 667.573837 74.014706 
L 675.473124 75.081565 
L 683.372411 76.085557 
L 691.271698 77.032532 
L 699.170984 77.928337 
L 707.070271 78.778821 
L 714.969558 79.589831 
L 722.868845 80.367214 
L 730.768132 81.11682 
L 738.667418 81.844496 
L 746.566705 82.556091 
L 754.465992 83.257451 
L 762.365279 83.954425 
L 770.264566 84.652861 
L 778.163852 85.358608 
L 786.063139 86.077512 
L 793.962426 86.815422 
L 801.861713 87.578186 
L 809.761 88.371651 
L 817.660286 89.201667 
L 825.559573 90.07408 
" clip-path="url(#p28e45751d3)" style="fill: none; stroke: #01ff66; stroke-width: 2; stroke-linecap: square"/>
   </g>
   <g id="patch_3">
    <path d="M 43.53018 94.137691 
L 43.53018 4.738261 
" style="fill: none; stroke: #444444; stroke-width: 0.8; stroke-linejoin: miter; stroke-linecap: square"/>
   </g>
   <g id="patch_4">
    <path d="M 825.559573 94.137691 
L 825.559573 4.738261 
" style="fill: none; stroke: #444444; stroke-width: 0.8; stroke-linejoin: miter; stroke-linecap: square"/>
   </g>
   <g id="patch_5">
    <path d="M 43.53018 94.137691 
L 825.559573 94.137691 
" style="fill: none; stroke: #444444; stroke-width: 0.8; stroke-linejoin: miter; stroke-linecap: square"/>
   </g>
   <g id="patch_6">
    <path d="M 43.53018 4.738261 
L 825.559573 4.738261 
" style="fill: none; stroke: #444444; stroke-width: 0.8; stroke-linejoin: miter; stroke-linecap: square"/>
   </g>
   <g id="text_12">
    <!-- Solver: GoesToEleven -->
    <g style="fill: #ffffff" transform="translate(370.215501 -1.261739) scale(0.12 -0.12)">
     <defs>
      <path id="DejaVuSans-53" d="M 3425 4513 
L 3425 3897 
Q 3066 4069 2747 4153 
Q 2428 4238 2131 4238 
Q 1616 4238 1336 4038 
Q 1056 3838 1056 3469 
Q 1056 3159 1242 3001 
Q 1428 2844 1947 2747 
L 2328 2669 
Q 3034 2534 3370 2195 
Q 3706 1856 3706 1288 
Q 3706 609 3251 259 
Q 2797 -91 1919 -91 
Q 1588 -91 1214 -16 
Q 841 59 441 206 
L 441 856 
Q 825 641 1194 531 
Q 1563 422 1919 422 
Q 2459 422 2753 634 
Q 3047 847 3047 1241 
Q 3047 1584 2836 1778 
Q 2625 1972 2144 2069 
L 1759 2144 
Q 1053 2284 737 2584 
Q 422 2884 422 3419 
Q 422 4038 858 4394 
Q 1294 4750 2059 4750 
Q 2388 4750 2728 4690 
Q 3069 4631 3425 4513 
z
" transform="scale(0.015625)"/>
      <path id="DejaVuSans-76" d="M 191 3500 
L 800 3500 
L 1894 563 
L 2988 3500 
L 3597 3500 
L 2284 0 
L 1503 0 
L 191 3500 
z
" transform="scale(0.015625)"/>
      <path id="DejaVuSans-72" d="M 2631 2963 
Q 2534 3019 2420 3045 
Q 2306 3072 2169 3072 
Q 1681 3072 1420 2755 
Q 1159 2438 1159 1844 
L 1159 0 
L 581 0 
L 581 3500 
L 1159 3500 
L 1159 2956 
Q 1341 3275 1631 3429 
Q 1922 3584 2338 3584 
Q 2397 3584 2469 3576 
Q 2541 3569 2628 3553 
L 2631 2963 
z
" transform="scale(0.015625)"/>
      <path id="DejaVuSans-3a" d="M 750 794 
L 1409 794 
L 1409 0 
L 750 0 
L 750 794 
z
M 750 3309 
L 1409 3309 
L 1409 2516 
L 750 2516 
L 750 3309 
z
" transform="scale(0.015625)"/>
      <path id="DejaVuSans-20" transform="scale(0.015625)"/>
      <path id="DejaVuSans-47" d="M 3809 666 
L 3809 1919 
L 2778 1919 
L 2778 2438 
L 4434 2438 
L 4434 434 
Q 4069 175 3628 42 
Q 3188 -91 2688 -91 
Q 1594 -91 976 548 
Q 359 1188 359 2328 
Q 359 3472 976 4111 
Q 1594 4750 2688 4750 
Q 3144 4750 3555 4637 
Q 3966 4525 4313 4306 
L 4313 3634 
Q 3963 3931 3569 4081 
Q 3175 4231 2741 4231 
Q 1884 4231 1454 3753 
Q 1025 3275 1025 2328 
Q 1025 1384 1454 906 
Q 1884 428 2741 428 
Q 3075 428 3337 486 
Q 3600 544 3809 666 
z
" transform="scale(0.015625)"/>
      <path id="DejaVuSans-54" d="M -19 4666 
L 3928 4666 
L 3928 4134 
L 2272 4134 
L 2272 0 
L 1638 0 
L 1638 4134 
L -19 4134 
L -19 4666 
z
" transform="scale(0.015625)"/>
      <path id="DejaVuSans-45" d="M 628 4666 
L 3578 4666 
L 3578 4134 
L 1259 4134 
L 1259 2753 
L 3481 2753 
L 3481 2222 
L 1259 2222 
L 1259 531 
L 3634 531 
L 3634 0 
L 628 0 
L 628 4666 
z
" transform="scale(0.015625)"/>
     </defs>
     <use xlink:href="#DejaVuSans-53"/>
     <use xlink:href="#DejaVuSans-6f" transform="translate(63.476562 0)"/>
     <use xlink:href="#DejaVuSans-6c" transform="translate(124.658203 0)"/>
     <use xlink:href="#DejaVuSans-76" transform="translate(152.441406 0)"/>
     <use xlink:href="#DejaVuSans-65" transform="translate(211.621094 0)"/>
     <use xlink:href="#DejaVuSans-72" transform="translate(273.144531 0)"/>
     <use xlink:href="#DejaVuSans-3a" transform="translate(312.507812 0)"/>
     <use xlink:href="#DejaVuSans-20" transform="translate(346.199219 0)"/>
     <use xlink:href="#DejaVuSans-47" transform="translate(377.986328 0)"/>
     <use xlink:href="#DejaVuSans-6f" transform="translate(455.476562 0)"/>
     <use xlink:href="#DejaVuSans-65" transform="translate(516.658203 0)"/>
     <use xlink:href="#DejaVuSans-73" transform="translate(578.181641 0)"/>
     <use xlink:href="#DejaVuSans-54" transform="translate(630.28125 0)"/>
     <use xlink:href="#DejaVuSans-6f" transform="translate(674.365234 0)"/>
     <use xlink:href="#DejaVuSans-45" transform="translate(735.546875 0)"/>
     <use xlink:href="#DejaVuSans-6c" transform="translate(798.730469 0)"/>
     <use xlink:href="#DejaVuSans-65" transform="translate(826.513672 0)"/>
     <use xlink:href="#DejaVuSans-76" transform="translate(888.037109 0)"/>
     <use xlink:href="#DejaVuSans-65" transform="translate(947.216797 0)"/>
     <use xlink:href="#DejaVuSans-6e" transform="translate(1008.740234 0)"/>
    </g>
   </g>
   <g id="PathCollection_1">
    <defs>
     <path id="md52d0577dc" d="M 0 3.872983 
C 1.027127 3.872983 2.012324 3.464901 2.738613 2.738613 
C 3.464901 2.012324 3.872983 1.027127 3.872983 0 
C 3.872983 -1.027127 3.464901 -2.012324 2.738613 -2.738613 
C 2.012324 -3.464901 1.027127 -3.872983 0 -3.872983 
C -1.027127 -3.872983 -2.012324 -3.464901 -2.738613 -2.738613 
C -3.464901 -2.012324 -3.872983 -1.027127 -3.872983 0 
C -3.872983 1.027127 -3.464901 2.012324 -2.738613 2.738613 
C -2.012324 3.464901 -1.027127 3.872983 0 3.872983 
z
" style="stroke: #ff9500"/>
    </defs>
    <g clip-path="url(#p28e45751d3)">
     <use xlink:href="#md52d0577dc" x="43.53018" y="90.07408" style="fill: #ff9500; stroke: #ff9500"/>
     <use xlink:href="#md52d0577dc" x="434.544876" y="53.132167" style="fill: #ff9500; stroke: #ff9500"/>
     <use xlink:href="#md52d0577dc" x="825.559573" y="90.07408" style="fill: #ff9500; stroke: #ff9500"/>
    </g>
   </g>
   <g id="PathCollection_2">
    <defs>
     <path id="m05a094d6c4" d="M 0 3.872983 
C 1.027127 3.872983 2.012324 3.464901 2.738613 2.738613 
C 3.464901 2.012324 3.872983 1.027127 3.872983 0 
C 3.872983 -1.027127 3.464901 -2.012324 2.738613 -2.738613 
C 2.012324 -3.464901 1.027127 -3.872983 0 -3.872983 
C -1.027127 -3.872983 -2.012324 -3.464901 -2.738613 -2.738613 
C -3.464901 -2.012324 -3.872983 -1.027127 -3.872983 0 
C -3.872983 1.027127 -3.464901 2.012324 -2.738613 2.738613 
C -2.012324 3.464901 -1.027127 3.872983 0 3.872983 
z
" style="stroke: #00b9f1"/>
    </defs>
    <g clip-path="url(#p28e45751d3)">
     <use xlink:href="#m05a094d6c4" x="43.53018" y="90.07408" style="fill: #00b9f1; stroke: #00b9f1"/>
     <use xlink:href="#m05a094d6c4" x="434.544876" y="53.132167" style="fill: #00b9f1; stroke: #00b9f1"/>
     <use xlink:href="#m05a094d6c4" x="825.559573" y="90.07408" style="fill: #00b9f1; stroke: #00b9f1"/>
    </g>
   </g>
   <g id="PathCollection_3">
    <defs>
     <path id="m80242790cc" d="M 0 3.872983 
C 1.027127 3.872983 2.012324 3.464901 2.738613 2.738613 
C 3.464901 2.012324 3.872983 1.027127 3.872983 0 
C 3.872983 -1.027127 3.464901 -2.012324 2.738613 -2.738613 
C 2.012324 -3.464901 1.027127 -3.872983 0 -3.872983 
C -1.027127 -3.872983 -2.012324 -3.464901 -2.738613 -2.738613 
C -3.464901 -2.012324 -3.872983 -1.027127 -3.872983 0 
C -3.872983 1.027127 -3.464901 2.012324 -2.738613 2.738613 
C -2.012324 3.464901 -1.027127 3.872983 0 3.872983 
z
" style="stroke: #fb02fe"/>
    </defs>
    <g clip-path="url(#p28e45751d3)">
     <use xlink:href="#m80242790cc" x="43.53018" y="90.07408" style="fill: #fb02fe; stroke: #fb02fe"/>
     <use xlink:href="#m80242790cc" x="434.544876" y="53.132167" style="fill: #fb02fe; stroke: #fb02fe"/>
     <use xlink:href="#m80242790cc" x="825.559573" y="90.07408" style="fill: #fb02fe; stroke: #fb02fe"/>
    </g>
   </g>
   <g id="PathCollection_4">
    <defs>
     <path id="m660df4e084" d="M 0 3.872983 
C 1.027127 3.872983 2.012324 3.464901 2.738613 2.738613 
C 3.464901 2.012324 3.872983 1.027127 3.872983 0 
C 3.872983 -1.027127 3.464901 -2.012324 2.738613 -2.738613 
C 2.012324 -3.464901 1.027127 -3.872983 0 -3.872983 
C -1.027127 -3.872983 -2.012324 -3.464901 -2.738613 -2.738613 
C -3.464901 -2.012324 -3.872983 -1.027127 -3.872983 0 
C -3.872983 1.027127 -3.464901 2.012324 -2.738613 2.738613 
C -2.012324 3.464901 -1.027127 3.872983 0 3.872983 
z
" style="stroke: #01ff66"/>
    </defs>
    <g clip-path="url(#p28e45751d3)">
     <use xlink:href="#m660df4e084" x="43.53018" y="90.07408" style="fill: #01ff66; stroke: #01ff66"/>
     <use xlink:href="#m660df4e084" x="239.037528" y="67.908933" style="fill: #01ff66; stroke: #01ff66"/>
     <use xlink:href="#m660df4e084" x="356.341937" y="30.96702" style="fill: #01ff66; stroke: #01ff66"/>
     <use xlink:href="#m660df4e084" x="434.544876" y="8.801872" style="fill: #01ff66; stroke: #01ff66"/>
     <use xlink:href="#m660df4e084" x="512.747816" y="30.96702" style="fill: #01ff66; stroke: #01ff66"/>
     <use xlink:href="#m660df4e084" x="630.052225" y="67.908933" style="fill: #01ff66; stroke: #01ff66"/>
     <use xlink:href="#m660df4e084" x="825.559573" y="90.07408" style="fill: #01ff66; stroke: #01ff66"/>
    </g>
   </g>
   <g id="legend_1">
    <g id="patch_7">
     <path d="M 700.534573 71.450761 
L 818.559573 71.450761 
Q 820.559573 71.450761 820.559573 69.450761 
L 820.559573 11.738261 
Q 820.559573 9.738261 818.559573 9.738261 
L 700.534573 9.738261 
Q 698.534573 9.738261 698.534573 11.738261 
L 698.534573 69.450761 
Q 698.534573 71.450761 700.534573 71.450761 
z
" style="fill: #121212; opacity: 0.8; stroke: #444444; stroke-linejoin: miter"/>
    </g>
    <g id="line2d_23">
     <path d="M 702.534573 17.836699 
L 712.534573 17.836699 
L 722.534573 17.836699 
" style="fill: none; stroke: #ff9500; stroke-width: 2; stroke-linecap: square"/>
    </g>
    <g id="text_13">
     <!-- methods.linear -->
     <g style="fill: #ffffff" transform="translate(730.534573 21.336699) scale(0.1 -0.1)">
      <defs>
       <path id="DejaVuSans-6d" d="M 3328 2828 
Q 3544 3216 3844 3400 
Q 4144 3584 4550 3584 
Q 5097 3584 5394 3201 
Q 5691 2819 5691 2113 
L 5691 0 
L 5113 0 
L 5113 2094 
Q 5113 2597 4934 2840 
Q 4756 3084 4391 3084 
Q 3944 3084 3684 2787 
Q 3425 2491 3425 1978 
L 3425 0 
L 2847 0 
L 2847 2094 
Q 2847 2600 2669 2842 
Q 2491 3084 2119 3084 
Q 1678 3084 1418 2786 
Q 1159 2488 1159 1978 
L 1159 0 
L 581 0 
L 581 3500 
L 1159 3500 
L 1159 2956 
Q 1356 3278 1631 3431 
Q 1906 3584 2284 3584 
Q 2666 3584 2933 3390 
Q 3200 3197 3328 2828 
z
" transform="scale(0.015625)"/>
       <path id="DejaVuSans-68" d="M 3513 2113 
L 3513 0 
L 2938 0 
L 2938 2094 
Q 2938 2591 2744 2837 
Q 2550 3084 2163 3084 
Q 1697 3084 1428 2787 
Q 1159 2491 1159 1978 
L 1159 0 
L 581 0 
L 581 4863 
L 1159 4863 
L 1159 2956 
Q 1366 3272 1645 3428 
Q 1925 3584 2291 3584 
Q 2894 3584 3203 3211 
Q 3513 2838 3513 2113 
z
" transform="scale(0.015625)"/>
       <path id="DejaVuSans-64" d="M 2906 2969 
L 2906 4863 
L 3481 4863 
L 3481 0 
L 2906 0 
L 2906 525 
Q 2725 213 2448 61 
Q 2172 -91 1784 -91 
Q 1150 -91 751 415 
Q 353 922 353 1747 
Q 353 2572 751 3078 
Q 1150 3584 1784 3584 
Q 2172 3584 2448 3432 
Q 2725 3281 2906 2969 
z
M 947 1747 
Q 947 1113 1208 752 
Q 1469 391 1925 391 
Q 2381 391 2643 752 
Q 2906 1113 2906 1747 
Q 2906 2381 2643 2742 
Q 2381 3103 1925 3103 
Q 1469 3103 1208 2742 
Q 947 2381 947 1747 
z
" transform="scale(0.015625)"/>
      </defs>
      <use xlink:href="#DejaVuSans-6d"/>
      <use xlink:href="#DejaVuSans-65" transform="translate(97.412109 0)"/>
      <use xlink:href="#DejaVuSans-74" transform="translate(158.935547 0)"/>
      <use xlink:href="#DejaVuSans-68" transform="translate(198.144531 0)"/>
      <use xlink:href="#DejaVuSans-6f" transform="translate(261.523438 0)"/>
      <use xlink:href="#DejaVuSans-64" transform="translate(322.705078 0)"/>
      <use xlink:href="#DejaVuSans-73" transform="translate(386.181641 0)"/>
      <use xlink:href="#DejaVuSans-2e" transform="translate(438.28125 0)"/>
      <use xlink:href="#DejaVuSans-6c" transform="translate(470.068359 0)"/>
      <use xlink:href="#DejaVuSans-69" transform="translate(497.851562 0)"/>
      <use xlink:href="#DejaVuSans-6e" transform="translate(525.634766 0)"/>
      <use xlink:href="#DejaVuSans-65" transform="translate(589.013672 0)"/>
      <use xlink:href="#DejaVuSans-61" transform="translate(650.537109 0)"/>
      <use xlink:href="#DejaVuSans-72" transform="translate(711.816406 0)"/>
     </g>
    </g>
    <g id="line2d_24">
     <path d="M 702.534573 32.514824 
L 712.534573 32.514824 
L 722.534573 32.514824 
" style="fill: none; stroke: #00b9f1; stroke-width: 2; stroke-linecap: square"/>
    </g>
    <g id="text_14">
     <!-- methods.cubic -->
     <g style="fill: #ffffff" transform="translate(730.534573 36.014824) scale(0.1 -0.1)">
      <defs>
       <path id="DejaVuSans-63" d="M 3122 3366 
L 3122 2828 
Q 2878 2963 2633 3030 
Q 2388 3097 2138 3097 
Q 1578 3097 1268 2742 
Q 959 2388 959 1747 
Q 959 1106 1268 751 
Q 1578 397 2138 397 
Q 2388 397 2633 464 
Q 2878 531 3122 666 
L 3122 134 
Q 2881 22 2623 -34 
Q 2366 -91 2075 -91 
Q 1284 -91 818 406 
Q 353 903 353 1747 
Q 353 2603 823 3093 
Q 1294 3584 2113 3584 
Q 2378 3584 2631 3529 
Q 2884 3475 3122 3366 
z
" transform="scale(0.015625)"/>
       <path id="DejaVuSans-62" d="M 3116 1747 
Q 3116 2381 2855 2742 
Q 2594 3103 2138 3103 
Q 1681 3103 1420 2742 
Q 1159 2381 1159 1747 
Q 1159 1113 1420 752 
Q 1681 391 2138 391 
Q 2594 391 2855 752 
Q 3116 1113 3116 1747 
z
M 1159 2969 
Q 1341 3281 1617 3432 
Q 1894 3584 2278 3584 
Q 2916 3584 3314 3078 
Q 3713 2572 3713 1747 
Q 3713 922 3314 415 
Q 2916 -91 2278 -91 
Q 1894 -91 1617 61 
Q 1341 213 1159 525 
L 1159 0 
L 581 0 
L 581 4863 
L 1159 4863 
L 1159 2969 
z
" transform="scale(0.015625)"/>
      </defs>
      <use xlink:href="#DejaVuSans-6d"/>
      <use xlink:href="#DejaVuSans-65" transform="translate(97.412109 0)"/>
      <use xlink:href="#DejaVuSans-74" transform="translate(158.935547 0)"/>
      <use xlink:href="#DejaVuSans-68" transform="translate(198.144531 0)"/>
      <use xlink:href="#DejaVuSans-6f" transform="translate(261.523438 0)"/>
      <use xlink:href="#DejaVuSans-64" transform="translate(322.705078 0)"/>
      <use xlink:href="#DejaVuSans-73" transform="translate(386.181641 0)"/>
      <use xlink:href="#DejaVuSans-2e" transform="translate(438.28125 0)"/>
      <use xlink:href="#DejaVuSans-63" transform="translate(470.068359 0)"/>
      <use xlink:href="#DejaVuSans-75" transform="translate(525.048828 0)"/>
      <use xlink:href="#DejaVuSans-62" transform="translate(588.427734 0)"/>
      <use xlink:href="#DejaVuSans-69" transform="translate(651.904297 0)"/>
      <use xlink:href="#DejaVuSans-63" transform="translate(679.6875 0)"/>
     </g>
    </g>
    <g id="line2d_25">
     <path d="M 702.534573 47.192949 
L 712.534573 47.192949 
L 722.534573 47.192949 
" style="fill: none; stroke: #fb02fe; stroke-width: 2; stroke-linecap: square"/>
    </g>
    <g id="text_15">
     <!-- methods.hermite -->
     <g style="fill: #ffffff" transform="translate(730.534573 50.692949) scale(0.1 -0.1)">
      <use xlink:href="#DejaVuSans-6d"/>
      <use xlink:href="#DejaVuSans-65" transform="translate(97.412109 0)"/>
      <use xlink:href="#DejaVuSans-74" transform="translate(158.935547 0)"/>
      <use xlink:href="#DejaVuSans-68" transform="translate(198.144531 0)"/>
      <use xlink:href="#DejaVuSans-6f" transform="translate(261.523438 0)"/>
      <use xlink:href="#DejaVuSans-64" transform="translate(322.705078 0)"/>
      <use xlink:href="#DejaVuSans-73" transform="translate(386.181641 0)"/>
      <use xlink:href="#DejaVuSans-2e" transform="translate(438.28125 0)"/>
      <use xlink:href="#DejaVuSans-68" transform="translate(470.068359 0)"/>
      <use xlink:href="#DejaVuSans-65" transform="translate(533.447266 0)"/>
      <use xlink:href="#DejaVuSans-72" transform="translate(594.970703 0)"/>
      <use xlink:href="#DejaVuSans-6d" transform="translate(634.333984 0)"/>
      <use xlink:href="#DejaVuSans-69" transform="translate(731.746094 0)"/>
      <use xlink:href="#DejaVuSans-74" transform="translate(759.529297 0)"/>
      <use xlink:href="#DejaVuSans-65" transform="translate(798.738281 0)"/>
     </g>
    </g>
    <g id="line2d_26">
     <path d="M 702.534573 61.871074 
L 712.534573 61.871074 
L 722.534573 61.871074 
" style="fill: none; stroke: #01ff66; stroke-width: 2; stroke-linecap: square"/>
    </g>
    <g id="text_16">
     <!-- methods.eleven -->
     <g style="fill: #ffffff" transform="translate(730.534573 65.371074) scale(0.1 -0.1)">
      <use xlink:href="#DejaVuSans-6d"/>
      <use xlink:href="#DejaVuSans-65" transform="translate(97.412109 0)"/>
      <use xlink:href="#DejaVuSans-74" transform="translate(158.935547 0)"/>
      <use xlink:href="#DejaVuSans-68" transform="translate(198.144531 0)"/>
      <use xlink:href="#DejaVuSans-6f" transform="translate(261.523438 0)"/>
      <use xlink:href="#DejaVuSans-64" transform="translate(322.705078 0)"/>
      <use xlink:href="#DejaVuSans-73" transform="translate(386.181641 0)"/>
      <use xlink:href="#DejaVuSans-2e" transform="translate(438.28125 0)"/>
      <use xlink:href="#DejaVuSans-65" transform="translate(470.068359 0)"/>
      <use xlink:href="#DejaVuSans-6c" transform="translate(531.591797 0)"/>
      <use xlink:href="#DejaVuSans-65" transform="translate(559.375 0)"/>
      <use xlink:href="#DejaVuSans-76" transform="translate(620.898438 0)"/>
      <use xlink:href="#DejaVuSans-65" transform="translate(680.078125 0)"/>
      <use xlink:href="#DejaVuSans-6e" transform="translate(741.601562 0)"/>
     </g>
    </g>
   </g>
  </g>
 </g>
 <defs>
  <clipPath id="p28e45751d3">
   <rect x="43.53018" y="4.738261" width="782.029394" height="89.399429"/>
  </clipPath>
 </defs>
</svg>
