<?xml version="1.0" encoding="utf-8" standalone="no"?>
<!DOCTYPE svg PUBLIC "-//W3C//DTD SVG 1.1//EN"
  "http://www.w3.org/Graphics/SVG/1.1/DTD/svg11.dtd">
<svg xmlns:xlink="http://www.w3.org/1999/xlink" width="856.501875pt" height="567.034375pt" viewBox="0 0 856.501875 567.034375" xmlns="http://www.w3.org/2000/svg" version="1.1">
 <metadata>
  <rdf:RDF xmlns:dc="http://purl.org/dc/elements/1.1/" xmlns:cc="http://creativecommons.org/ns#" xmlns:rdf="http://www.w3.org/1999/02/22-rdf-syntax-ns#">
   <cc:Work>
    <dc:type rdf:resource="http://purl.org/dc/dcmitype/StillImage"/>
    <dc:date>2025-03-17T20:37:17.786165</dc:date>
    <dc:format>image/svg+xml</dc:format>
    <dc:creator>
     <cc:Agent>
      <dc:title>Matplotlib v3.10.1, https://matplotlib.org/</dc:title>
     </cc:Agent>
    </dc:creator>
   </cc:Work>
  </rdf:RDF>
 </metadata>
 <defs>
  <style type="text/css">*{stroke-linejoin: round; stroke-linecap: butt}</style>
 </defs>
 <g id="figure_1">
  <g id="patch_1">
   <path d="M 0 567.034375 
L 856.501875 567.034375 
L 856.501875 0 
L 0 0 
z
" style="fill: #121212"/>
  </g>
  <g id="axes_1">
   <g id="patch_2">
    <path d="M 42.620313 529.478125 
L 841.350313 529.478125 
L 841.350313 22.318125 
L 42.620313 22.318125 
z
" style="fill: #121212"/>
   </g>
   <g id="matplotlib.axis_1">
    <g id="xtick_1">
     <g id="line2d_1">
      <path d="M 42.620313 529.478125 
L 42.620313 22.318125 
" clip-path="url(#p80fc655f7c)" style="fill: none; stroke-dasharray: 2.96,1.28; stroke-dashoffset: 0; stroke: #444444; stroke-opacity: 0.7; stroke-width: 0.8"/>
     </g>
     <g id="line2d_2">
      <defs>
       <path id="m4962d5e14e" d="M 0 0 
L 0 3.5 
" style="stroke: #aaaaaa; stroke-width: 0.8"/>
      </defs>
      <g>
       <use xlink:href="#m4962d5e14e" x="42.620313" y="529.478125" style="fill: #aaaaaa; stroke: #aaaaaa; stroke-width: 0.8"/>
      </g>
     </g>
     <g id="text_1">
      <!-- 0.0 -->
      <g style="fill: #aaaaaa" transform="translate(34.66875 544.076562) scale(0.1 -0.1)">
       <defs>
        <path id="DejaVuSans-30" d="M 2034 4250 
Q 1547 4250 1301 3770 
Q 1056 3291 1056 2328 
Q 1056 1369 1301 889 
Q 1547 409 2034 409 
Q 2525 409 2770 889 
Q 3016 1369 3016 2328 
Q 3016 3291 2770 3770 
Q 2525 4250 2034 4250 
z
M 2034 4750 
Q 2819 4750 3233 4129 
Q 3647 3509 3647 2328 
Q 3647 1150 3233 529 
Q 2819 -91 2034 -91 
Q 1250 -91 836 529 
Q 422 1150 422 2328 
Q 422 3509 836 4129 
Q 1250 4750 2034 4750 
z
" transform="scale(0.015625)"/>
        <path id="DejaVuSans-2e" d="M 684 794 
L 1344 794 
L 1344 0 
L 684 0 
L 684 794 
z
" transform="scale(0.015625)"/>
       </defs>
       <use xlink:href="#DejaVuSans-30"/>
       <use xlink:href="#DejaVuSans-2e" transform="translate(63.623047 0)"/>
       <use xlink:href="#DejaVuSans-30" transform="translate(95.410156 0)"/>
      </g>
     </g>
    </g>
    <g id="xtick_2">
     <g id="line2d_3">
      <path d="M 202.366313 529.478125 
L 202.366313 22.318125 
" clip-path="url(#p80fc655f7c)" style="fill: none; stroke-dasharray: 2.96,1.28; stroke-dashoffset: 0; stroke: #444444; stroke-opacity: 0.7; stroke-width: 0.8"/>
     </g>
     <g id="line2d_4">
      <g>
       <use xlink:href="#m4962d5e14e" x="202.366313" y="529.478125" style="fill: #aaaaaa; stroke: #aaaaaa; stroke-width: 0.8"/>
      </g>
     </g>
     <g id="text_2">
      <!-- 0.2 -->
      <g style="fill: #aaaaaa" transform="translate(194.41475 544.076562) scale(0.1 -0.1)">
       <defs>
        <path id="DejaVuSans-32" d="M 1228 531 
L 3431 531 
L 3431 0 
L 469 0 
L 469 531 
Q 828 903 1448 1529 
Q 2069 2156 2228 2338 
Q 2531 2678 2651 2914 
Q 2772 3150 2772 3378 
Q 2772 3750 2511 3984 
Q 2250 4219 1831 4219 
Q 1534 4219 1204 4116 
Q 875 4013 500 3803 
L 500 4441 
Q 881 4594 1212 4672 
Q 1544 4750 1819 4750 
Q 2544 4750 2975 4387 
Q 3406 4025 3406 3419 
Q 3406 3131 3298 2873 
Q 3191 2616 2906 2266 
Q 2828 2175 2409 1742 
Q 1991 1309 1228 531 
z
" transform="scale(0.015625)"/>
       </defs>
       <use xlink:href="#DejaVuSans-30"/>
       <use xlink:href="#DejaVuSans-2e" transform="translate(63.623047 0)"/>
       <use xlink:href="#DejaVuSans-32" transform="translate(95.410156 0)"/>
      </g>
     </g>
    </g>
    <g id="xtick_3">
     <g id="line2d_5">
      <path d="M 362.112313 529.478125 
L 362.112313 22.318125 
" clip-path="url(#p80fc655f7c)" style="fill: none; stroke-dasharray: 2.96,1.28; stroke-dashoffset: 0; stroke: #444444; stroke-opacity: 0.7; stroke-width: 0.8"/>
     </g>
     <g id="line2d_6">
      <g>
       <use xlink:href="#m4962d5e14e" x="362.112313" y="529.478125" style="fill: #aaaaaa; stroke: #aaaaaa; stroke-width: 0.8"/>
      </g>
     </g>
     <g id="text_3">
      <!-- 0.4 -->
      <g style="fill: #aaaaaa" transform="translate(354.16075 544.076562) scale(0.1 -0.1)">
       <defs>
        <path id="DejaVuSans-34" d="M 2419 4116 
L 825 1625 
L 2419 1625 
L 2419 4116 
z
M 2253 4666 
L 3047 4666 
L 3047 1625 
L 3713 1625 
L 3713 1100 
L 3047 1100 
L 3047 0 
L 2419 0 
L 2419 1100 
L 313 1100 
L 313 1709 
L 2253 4666 
z
" transform="scale(0.015625)"/>
       </defs>
       <use xlink:href="#DejaVuSans-30"/>
       <use xlink:href="#DejaVuSans-2e" transform="translate(63.623047 0)"/>
       <use xlink:href="#DejaVuSans-34" transform="translate(95.410156 0)"/>
      </g>
     </g>
    </g>
    <g id="xtick_4">
     <g id="line2d_7">
      <path d="M 521.858313 529.478125 
L 521.858313 22.318125 
" clip-path="url(#p80fc655f7c)" style="fill: none; stroke-dasharray: 2.96,1.28; stroke-dashoffset: 0; stroke: #444444; stroke-opacity: 0.7; stroke-width: 0.8"/>
     </g>
     <g id="line2d_8">
      <g>
       <use xlink:href="#m4962d5e14e" x="521.858313" y="529.478125" style="fill: #aaaaaa; stroke: #aaaaaa; stroke-width: 0.8"/>
      </g>
     </g>
     <g id="text_4">
      <!-- 0.6 -->
      <g style="fill: #aaaaaa" transform="translate(513.90675 544.076562) scale(0.1 -0.1)">
       <defs>
        <path id="DejaVuSans-36" d="M 2113 2584 
Q 1688 2584 1439 2293 
Q 1191 2003 1191 1497 
Q 1191 994 1439 701 
Q 1688 409 2113 409 
Q 2538 409 2786 701 
Q 3034 994 3034 1497 
Q 3034 2003 2786 2293 
Q 2538 2584 2113 2584 
z
M 3366 4563 
L 3366 3988 
Q 3128 4100 2886 4159 
Q 2644 4219 2406 4219 
Q 1781 4219 1451 3797 
Q 1122 3375 1075 2522 
Q 1259 2794 1537 2939 
Q 1816 3084 2150 3084 
Q 2853 3084 3261 2657 
Q 3669 2231 3669 1497 
Q 3669 778 3244 343 
Q 2819 -91 2113 -91 
Q 1303 -91 875 529 
Q 447 1150 447 2328 
Q 447 3434 972 4092 
Q 1497 4750 2381 4750 
Q 2619 4750 2861 4703 
Q 3103 4656 3366 4563 
z
" transform="scale(0.015625)"/>
       </defs>
       <use xlink:href="#DejaVuSans-30"/>
       <use xlink:href="#DejaVuSans-2e" transform="translate(63.623047 0)"/>
       <use xlink:href="#DejaVuSans-36" transform="translate(95.410156 0)"/>
      </g>
     </g>
    </g>
    <g id="xtick_5">
     <g id="line2d_9">
      <path d="M 681.604313 529.478125 
L 681.604313 22.318125 
" clip-path="url(#p80fc655f7c)" style="fill: none; stroke-dasharray: 2.96,1.28; stroke-dashoffset: 0; stroke: #444444; stroke-opacity: 0.7; stroke-width: 0.8"/>
     </g>
     <g id="line2d_10">
      <g>
       <use xlink:href="#m4962d5e14e" x="681.604313" y="529.478125" style="fill: #aaaaaa; stroke: #aaaaaa; stroke-width: 0.8"/>
      </g>
     </g>
     <g id="text_5">
      <!-- 0.8 -->
      <g style="fill: #aaaaaa" transform="translate(673.65275 544.076562) scale(0.1 -0.1)">
       <defs>
        <path id="DejaVuSans-38" d="M 2034 2216 
Q 1584 2216 1326 1975 
Q 1069 1734 1069 1313 
Q 1069 891 1326 650 
Q 1584 409 2034 409 
Q 2484 409 2743 651 
Q 3003 894 3003 1313 
Q 3003 1734 2745 1975 
Q 2488 2216 2034 2216 
z
M 1403 2484 
Q 997 2584 770 2862 
Q 544 3141 544 3541 
Q 544 4100 942 4425 
Q 1341 4750 2034 4750 
Q 2731 4750 3128 4425 
Q 3525 4100 3525 3541 
Q 3525 3141 3298 2862 
Q 3072 2584 2669 2484 
Q 3125 2378 3379 2068 
Q 3634 1759 3634 1313 
Q 3634 634 3220 271 
Q 2806 -91 2034 -91 
Q 1263 -91 848 271 
Q 434 634 434 1313 
Q 434 1759 690 2068 
Q 947 2378 1403 2484 
z
M 1172 3481 
Q 1172 3119 1398 2916 
Q 1625 2713 2034 2713 
Q 2441 2713 2670 2916 
Q 2900 3119 2900 3481 
Q 2900 3844 2670 4047 
Q 2441 4250 2034 4250 
Q 1625 4250 1398 4047 
Q 1172 3844 1172 3481 
z
" transform="scale(0.015625)"/>
       </defs>
       <use xlink:href="#DejaVuSans-30"/>
       <use xlink:href="#DejaVuSans-2e" transform="translate(63.623047 0)"/>
       <use xlink:href="#DejaVuSans-38" transform="translate(95.410156 0)"/>
      </g>
     </g>
    </g>
    <g id="xtick_6">
     <g id="line2d_11">
      <path d="M 841.350313 529.478125 
L 841.350313 22.318125 
" clip-path="url(#p80fc655f7c)" style="fill: none; stroke-dasharray: 2.96,1.28; stroke-dashoffset: 0; stroke: #444444; stroke-opacity: 0.7; stroke-width: 0.8"/>
     </g>
     <g id="line2d_12">
      <g>
       <use xlink:href="#m4962d5e14e" x="841.350313" y="529.478125" style="fill: #aaaaaa; stroke: #aaaaaa; stroke-width: 0.8"/>
      </g>
     </g>
     <g id="text_6">
      <!-- 1.0 -->
      <g style="fill: #aaaaaa" transform="translate(833.39875 544.076562) scale(0.1 -0.1)">
       <defs>
        <path id="DejaVuSans-31" d="M 794 531 
L 1825 531 
L 1825 4091 
L 703 3866 
L 703 4441 
L 1819 4666 
L 2450 4666 
L 2450 531 
L 3481 531 
L 3481 0 
L 794 0 
L 794 531 
z
" transform="scale(0.015625)"/>
       </defs>
       <use xlink:href="#DejaVuSans-31"/>
       <use xlink:href="#DejaVuSans-2e" transform="translate(63.623047 0)"/>
       <use xlink:href="#DejaVuSans-30" transform="translate(95.410156 0)"/>
      </g>
     </g>
    </g>
    <g id="text_7">
     <!-- Position -->
     <g style="fill: #ffffff" transform="translate(422.52125 557.754687) scale(0.1 -0.1)">
      <defs>
       <path id="DejaVuSans-50" d="M 1259 4147 
L 1259 2394 
L 2053 2394 
Q 2494 2394 2734 2622 
Q 2975 2850 2975 3272 
Q 2975 3691 2734 3919 
Q 2494 4147 2053 4147 
L 1259 4147 
z
M 628 4666 
L 2053 4666 
Q 2838 4666 3239 4311 
Q 3641 3956 3641 3272 
Q 3641 2581 3239 2228 
Q 2838 1875 2053 1875 
L 1259 1875 
L 1259 0 
L 628 0 
L 628 4666 
z
" transform="scale(0.015625)"/>
       <path id="DejaVuSans-6f" d="M 1959 3097 
Q 1497 3097 1228 2736 
Q 959 2375 959 1747 
Q 959 1119 1226 758 
Q 1494 397 1959 397 
Q 2419 397 2687 759 
Q 2956 1122 2956 1747 
Q 2956 2369 2687 2733 
Q 2419 3097 1959 3097 
z
M 1959 3584 
Q 2709 3584 3137 3096 
Q 3566 2609 3566 1747 
Q 3566 888 3137 398 
Q 2709 -91 1959 -91 
Q 1206 -91 779 398 
Q 353 888 353 1747 
Q 353 2609 779 3096 
Q 1206 3584 1959 3584 
z
" transform="scale(0.015625)"/>
       <path id="DejaVuSans-73" d="M 2834 3397 
L 2834 2853 
Q 2591 2978 2328 3040 
Q 2066 3103 1784 3103 
Q 1356 3103 1142 2972 
Q 928 2841 928 2578 
Q 928 2378 1081 2264 
Q 1234 2150 1697 2047 
L 1894 2003 
Q 2506 1872 2764 1633 
Q 3022 1394 3022 966 
Q 3022 478 2636 193 
Q 2250 -91 1575 -91 
Q 1294 -91 989 -36 
Q 684 19 347 128 
L 347 722 
Q 666 556 975 473 
Q 1284 391 1588 391 
Q 1994 391 2212 530 
Q 2431 669 2431 922 
Q 2431 1156 2273 1281 
Q 2116 1406 1581 1522 
L 1381 1569 
Q 847 1681 609 1914 
Q 372 2147 372 2553 
Q 372 3047 722 3315 
Q 1072 3584 1716 3584 
Q 2034 3584 2315 3537 
Q 2597 3491 2834 3397 
z
" transform="scale(0.015625)"/>
       <path id="DejaVuSans-69" d="M 603 3500 
L 1178 3500 
L 1178 0 
L 603 0 
L 603 3500 
z
M 603 4863 
L 1178 4863 
L 1178 4134 
L 603 4134 
L 603 4863 
z
" transform="scale(0.015625)"/>
       <path id="DejaVuSans-74" d="M 1172 4494 
L 1172 3500 
L 2356 3500 
L 2356 3053 
L 1172 3053 
L 1172 1153 
Q 1172 725 1289 603 
Q 1406 481 1766 481 
L 2356 481 
L 2356 0 
L 1766 0 
Q 1100 0 847 248 
Q 594 497 594 1153 
L 594 3053 
L 172 3053 
L 172 3500 
L 594 3500 
L 594 4494 
L 1172 4494 
z
" transform="scale(0.015625)"/>
       <path id="DejaVuSans-6e" d="M 3513 2113 
L 3513 0 
L 2938 0 
L 2938 2094 
Q 2938 2591 2744 2837 
Q 2550 3084 2163 3084 
Q 1697 3084 1428 2787 
Q 1159 2491 1159 1978 
L 1159 0 
L 581 0 
L 581 3500 
L 1159 3500 
L 1159 2956 
Q 1366 3272 1645 3428 
Q 1925 3584 2291 3584 
Q 2894 3584 3203 3211 
Q 3513 2838 3513 2113 
z
" transform="scale(0.015625)"/>
      </defs>
      <use xlink:href="#DejaVuSans-50"/>
      <use xlink:href="#DejaVuSans-6f" transform="translate(56.677734 0)"/>
      <use xlink:href="#DejaVuSans-73" transform="translate(117.859375 0)"/>
      <use xlink:href="#DejaVuSans-69" transform="translate(169.958984 0)"/>
      <use xlink:href="#DejaVuSans-74" transform="translate(197.742188 0)"/>
      <use xlink:href="#DejaVuSans-69" transform="translate(236.951172 0)"/>
      <use xlink:href="#DejaVuSans-6f" transform="translate(264.734375 0)"/>
      <use xlink:href="#DejaVuSans-6e" transform="translate(325.916016 0)"/>
     </g>
    </g>
   </g>
   <g id="matplotlib.axis_2">
    <g id="ytick_1">
     <g id="line2d_13">
      <path d="M 42.620313 468.91568 
L 841.350313 468.91568 
" clip-path="url(#p80fc655f7c)" style="fill: none; stroke-dasharray: 2.96,1.28; stroke-dashoffset: 0; stroke: #444444; stroke-opacity: 0.7; stroke-width: 0.8"/>
     </g>
     <g id="line2d_14">
      <defs>
       <path id="m3ebb81b9a1" d="M 0 0 
L -3.5 0 
" style="stroke: #aaaaaa; stroke-width: 0.8"/>
      </defs>
      <g>
       <use xlink:href="#m3ebb81b9a1" x="42.620313" y="468.91568" style="fill: #aaaaaa; stroke: #aaaaaa; stroke-width: 0.8"/>
      </g>
     </g>
     <g id="text_8">
      <!-- −2 -->
      <g style="fill: #aaaaaa" transform="translate(20.878125 472.714899) scale(0.1 -0.1)">
       <defs>
        <path id="DejaVuSans-2212" d="M 678 2272 
L 4684 2272 
L 4684 1741 
L 678 1741 
L 678 2272 
z
" transform="scale(0.015625)"/>
       </defs>
       <use xlink:href="#DejaVuSans-2212"/>
       <use xlink:href="#DejaVuSans-32" transform="translate(83.789062 0)"/>
      </g>
     </g>
    </g>
    <g id="ytick_2">
     <g id="line2d_15">
      <path d="M 42.620313 403.754937 
L 841.350313 403.754937 
" clip-path="url(#p80fc655f7c)" style="fill: none; stroke-dasharray: 2.96,1.28; stroke-dashoffset: 0; stroke: #444444; stroke-opacity: 0.7; stroke-width: 0.8"/>
     </g>
     <g id="line2d_16">
      <g>
       <use xlink:href="#m3ebb81b9a1" x="42.620313" y="403.754937" style="fill: #aaaaaa; stroke: #aaaaaa; stroke-width: 0.8"/>
      </g>
     </g>
     <g id="text_9">
      <!-- 0 -->
      <g style="fill: #aaaaaa" transform="translate(29.257813 407.554156) scale(0.1 -0.1)">
       <use xlink:href="#DejaVuSans-30"/>
      </g>
     </g>
    </g>
    <g id="ytick_3">
     <g id="line2d_17">
      <path d="M 42.620313 338.594195 
L 841.350313 338.594195 
" clip-path="url(#p80fc655f7c)" style="fill: none; stroke-dasharray: 2.96,1.28; stroke-dashoffset: 0; stroke: #444444; stroke-opacity: 0.7; stroke-width: 0.8"/>
     </g>
     <g id="line2d_18">
      <g>
       <use xlink:href="#m3ebb81b9a1" x="42.620313" y="338.594195" style="fill: #aaaaaa; stroke: #aaaaaa; stroke-width: 0.8"/>
      </g>
     </g>
     <g id="text_10">
      <!-- 2 -->
      <g style="fill: #aaaaaa" transform="translate(29.257813 342.393413) scale(0.1 -0.1)">
       <use xlink:href="#DejaVuSans-32"/>
      </g>
     </g>
    </g>
    <g id="ytick_4">
     <g id="line2d_19">
      <path d="M 42.620313 273.433452 
L 841.350313 273.433452 
" clip-path="url(#p80fc655f7c)" style="fill: none; stroke-dasharray: 2.96,1.28; stroke-dashoffset: 0; stroke: #444444; stroke-opacity: 0.7; stroke-width: 0.8"/>
     </g>
     <g id="line2d_20">
      <g>
       <use xlink:href="#m3ebb81b9a1" x="42.620313" y="273.433452" style="fill: #aaaaaa; stroke: #aaaaaa; stroke-width: 0.8"/>
      </g>
     </g>
     <g id="text_11">
      <!-- 4 -->
      <g style="fill: #aaaaaa" transform="translate(29.257813 277.232671) scale(0.1 -0.1)">
       <use xlink:href="#DejaVuSans-34"/>
      </g>
     </g>
    </g>
    <g id="ytick_5">
     <g id="line2d_21">
      <path d="M 42.620313 208.272709 
L 841.350313 208.272709 
" clip-path="url(#p80fc655f7c)" style="fill: none; stroke-dasharray: 2.96,1.28; stroke-dashoffset: 0; stroke: #444444; stroke-opacity: 0.7; stroke-width: 0.8"/>
     </g>
     <g id="line2d_22">
      <g>
       <use xlink:href="#m3ebb81b9a1" x="42.620313" y="208.272709" style="fill: #aaaaaa; stroke: #aaaaaa; stroke-width: 0.8"/>
      </g>
     </g>
     <g id="text_12">
      <!-- 6 -->
      <g style="fill: #aaaaaa" transform="translate(29.257813 212.071928) scale(0.1 -0.1)">
       <use xlink:href="#DejaVuSans-36"/>
      </g>
     </g>
    </g>
    <g id="ytick_6">
     <g id="line2d_23">
      <path d="M 42.620313 143.111966 
L 841.350313 143.111966 
" clip-path="url(#p80fc655f7c)" style="fill: none; stroke-dasharray: 2.96,1.28; stroke-dashoffset: 0; stroke: #444444; stroke-opacity: 0.7; stroke-width: 0.8"/>
     </g>
     <g id="line2d_24">
      <g>
       <use xlink:href="#m3ebb81b9a1" x="42.620313" y="143.111966" style="fill: #aaaaaa; stroke: #aaaaaa; stroke-width: 0.8"/>
      </g>
     </g>
     <g id="text_13">
      <!-- 8 -->
      <g style="fill: #aaaaaa" transform="translate(29.257813 146.911185) scale(0.1 -0.1)">
       <use xlink:href="#DejaVuSans-38"/>
      </g>
     </g>
    </g>
    <g id="ytick_7">
     <g id="line2d_25">
      <path d="M 42.620313 77.951224 
L 841.350313 77.951224 
" clip-path="url(#p80fc655f7c)" style="fill: none; stroke-dasharray: 2.96,1.28; stroke-dashoffset: 0; stroke: #444444; stroke-opacity: 0.7; stroke-width: 0.8"/>
     </g>
     <g id="line2d_26">
      <g>
       <use xlink:href="#m3ebb81b9a1" x="42.620313" y="77.951224" style="fill: #aaaaaa; stroke: #aaaaaa; stroke-width: 0.8"/>
      </g>
     </g>
     <g id="text_14">
      <!-- 10 -->
      <g style="fill: #aaaaaa" transform="translate(22.895313 81.750442) scale(0.1 -0.1)">
       <use xlink:href="#DejaVuSans-31"/>
       <use xlink:href="#DejaVuSans-30" transform="translate(63.623047 0)"/>
      </g>
     </g>
    </g>
    <g id="text_15">
     <!-- Value -->
     <g style="fill: #ffffff" transform="translate(14.798438 289.629375) rotate(-90) scale(0.1 -0.1)">
      <defs>
       <path id="DejaVuSans-56" d="M 1831 0 
L 50 4666 
L 709 4666 
L 2188 738 
L 3669 4666 
L 4325 4666 
L 2547 0 
L 1831 0 
z
" transform="scale(0.015625)"/>
       <path id="DejaVuSans-61" d="M 2194 1759 
Q 1497 1759 1228 1600 
Q 959 1441 959 1056 
Q 959 750 1161 570 
Q 1363 391 1709 391 
Q 2188 391 2477 730 
Q 2766 1069 2766 1631 
L 2766 1759 
L 2194 1759 
z
M 3341 1997 
L 3341 0 
L 2766 0 
L 2766 531 
Q 2569 213 2275 61 
Q 1981 -91 1556 -91 
Q 1019 -91 701 211 
Q 384 513 384 1019 
Q 384 1609 779 1909 
Q 1175 2209 1959 2209 
L 2766 2209 
L 2766 2266 
Q 2766 2663 2505 2880 
Q 2244 3097 1772 3097 
Q 1472 3097 1187 3025 
Q 903 2953 641 2809 
L 641 3341 
Q 956 3463 1253 3523 
Q 1550 3584 1831 3584 
Q 2591 3584 2966 3190 
Q 3341 2797 3341 1997 
z
" transform="scale(0.015625)"/>
       <path id="DejaVuSans-6c" d="M 603 4863 
L 1178 4863 
L 1178 0 
L 603 0 
L 603 4863 
z
" transform="scale(0.015625)"/>
       <path id="DejaVuSans-75" d="M 544 1381 
L 544 3500 
L 1119 3500 
L 1119 1403 
Q 1119 906 1312 657 
Q 1506 409 1894 409 
Q 2359 409 2629 706 
Q 2900 1003 2900 1516 
L 2900 3500 
L 3475 3500 
L 3475 0 
L 2900 0 
L 2900 538 
Q 2691 219 2414 64 
Q 2138 -91 1772 -91 
Q 1169 -91 856 284 
Q 544 659 544 1381 
z
M 1991 3584 
L 1991 3584 
z
" transform="scale(0.015625)"/>
       <path id="DejaVuSans-65" d="M 3597 1894 
L 3597 1613 
L 953 1613 
Q 991 1019 1311 708 
Q 1631 397 2203 397 
Q 2534 397 2845 478 
Q 3156 559 3463 722 
L 3463 178 
Q 3153 47 2828 -22 
Q 2503 -91 2169 -91 
Q 1331 -91 842 396 
Q 353 884 353 1716 
Q 353 2575 817 3079 
Q 1281 3584 2069 3584 
Q 2775 3584 3186 3129 
Q 3597 2675 3597 1894 
z
M 3022 2063 
Q 3016 2534 2758 2815 
Q 2500 3097 2075 3097 
Q 1594 3097 1305 2825 
Q 1016 2553 972 2059 
L 3022 2063 
z
" transform="scale(0.015625)"/>
      </defs>
      <use xlink:href="#DejaVuSans-56"/>
      <use xlink:href="#DejaVuSans-61" transform="translate(60.658203 0)"/>
      <use xlink:href="#DejaVuSans-6c" transform="translate(121.9375 0)"/>
      <use xlink:href="#DejaVuSans-75" transform="translate(149.720703 0)"/>
      <use xlink:href="#DejaVuSans-65" transform="translate(213.099609 0)"/>
     </g>
    </g>
   </g>
   <g id="line2d_27">
    <path d="M 42.620313 403.754937 
L 441.184982 241.179537 
L 442.785643 241.179537 
L 841.350313 403.754937 
L 841.350313 403.754937 
" clip-path="url(#p80fc655f7c)" style="fill: none; stroke: #ff9500; stroke-width: 2; stroke-linecap: square"/>
   </g>
   <g id="line2d_28">
    <path d="M 42.620313 403.754937 
L 53.824942 399.059915 
L 65.029571 394.130022 
L 77.834862 388.235954 
L 90.640152 382.095532 
L 105.046104 374.933204 
L 121.052717 366.713007 
L 140.260653 356.570489 
L 165.871234 342.753452 
L 213.891074 316.781375 
L 233.09901 306.675357 
L 249.105623 298.497114 
L 263.511575 291.381513 
L 276.316866 285.289757 
L 289.122156 279.451069 
L 300.326785 274.57514 
L 311.531415 269.93922 
L 322.736044 265.564894 
L 332.340012 262.040042 
L 341.94398 258.736834 
L 351.547948 255.668862 
L 361.151916 252.849719 
L 370.755884 250.293 
L 378.75919 248.372669 
L 386.762497 246.651883 
L 394.765803 245.138507 
L 402.76911 243.840408 
L 410.772417 242.765452 
L 418.775723 241.921506 
L 426.77903 241.316436 
L 434.782337 240.958109 
L 442.785643 240.854388 
L 450.78895 241.009657 
L 458.792256 241.417962 
L 466.795563 242.071437 
L 474.79887 242.962214 
L 482.802176 244.082428 
L 490.805483 245.424211 
L 498.808789 246.979699 
L 506.812096 248.741024 
L 514.815403 250.700319 
L 524.419371 253.30172 
L 534.023339 256.163278 
L 543.627306 259.2714 
L 553.231274 262.612493 
L 562.835242 266.172964 
L 574.039872 270.585982 
L 585.244501 275.25751 
L 596.44913 280.165964 
L 609.254421 286.038048 
L 622.059711 292.159172 
L 636.465663 299.302997 
L 652.472276 307.506623 
L 670.079551 316.781375 
L 694.089471 329.704876 
L 750.112617 359.979018 
L 767.719892 369.204506 
L 783.726505 377.347928 
L 798.132457 384.425015 
L 810.937747 390.47683 
L 823.743038 396.270208 
L 834.947667 401.102085 
L 841.350313 403.754937 
L 841.350313 403.754937 
" clip-path="url(#p80fc655f7c)" style="fill: none; stroke: #00b9f1; stroke-width: 2; stroke-linecap: square"/>
   </g>
   <g id="line2d_29">
    <path d="M 42.620313 403.754937 
L 49.022958 403.630669 
L 55.425603 403.263235 
L 61.828248 402.660691 
L 68.230894 401.83109 
L 74.633539 400.78249 
L 81.036184 399.522944 
L 87.43883 398.060508 
L 93.841475 396.403237 
L 101.844781 394.069934 
L 109.848088 391.46052 
L 117.851395 388.590729 
L 125.854701 385.476293 
L 133.858008 382.132944 
L 141.861315 378.576417 
L 151.465282 374.049339 
L 161.06925 369.265125 
L 170.673218 364.25096 
L 181.877848 358.146738 
L 194.683138 350.887924 
L 209.08909 342.438521 
L 226.696365 331.833422 
L 279.518188 299.7973 
L 293.92414 291.422943 
L 306.729431 284.252232 
L 317.93406 278.241621 
L 327.538028 273.319965 
L 337.141996 268.639587 
L 346.745964 264.227673 
L 354.74927 260.775769 
L 362.752577 257.54491 
L 370.755884 254.55083 
L 378.75919 251.80926 
L 386.762497 249.335935 
L 393.165142 247.560983 
L 399.567787 245.975832 
L 405.970433 244.588536 
L 412.373078 243.40715 
L 418.775723 242.439731 
L 425.178369 241.694332 
L 431.581014 241.17901 
L 437.983659 240.901819 
L 444.386304 240.870674 
L 450.78895 241.087073 
L 457.191595 241.543617 
L 463.59424 242.232252 
L 469.996886 243.144921 
L 476.399531 244.27357 
L 482.802176 245.610144 
L 489.204822 247.146587 
L 495.607467 248.874844 
L 503.610773 251.292632 
L 511.61408 253.981811 
L 519.617387 256.926648 
L 527.620693 260.11141 
L 535.624 263.520364 
L 545.227968 267.88489 
L 554.831936 272.522412 
L 564.435904 277.405743 
L 575.640533 283.377369 
L 586.845162 289.603394 
L 599.650453 296.97498 
L 615.657066 306.479261 
L 638.066325 320.100666 
L 670.079551 339.570513 
L 686.086164 349.03326 
L 698.891455 356.358025 
L 710.096084 362.53317 
L 721.300713 368.444665 
L 730.904681 373.269093 
L 740.508649 377.840914 
L 750.112617 382.132944 
L 758.115924 385.476293 
L 766.11923 388.590729 
L 774.122537 391.46052 
L 782.125844 394.069934 
L 790.12915 396.403237 
L 796.531795 398.060508 
L 802.934441 399.522944 
L 809.337086 400.78249 
L 815.739731 401.83109 
L 822.142377 402.660691 
L 828.545022 403.263235 
L 834.947667 403.630669 
L 841.350313 403.754937 
L 841.350313 403.754937 
" clip-path="url(#p80fc655f7c)" style="fill: none; stroke: #fb02fe; stroke-width: 2; stroke-linecap: square"/>
   </g>
   <g id="line2d_30">
    <path d="M 42.620313 403.754937 
L 52.22428 399.197445 
L 61.828248 394.89792 
L 73.032878 390.149818 
L 85.838168 384.992259 
L 103.445443 378.186464 
L 133.858008 366.483611 
L 146.663298 361.300543 
L 157.867928 356.521312 
L 167.471896 352.188559 
L 177.075864 347.591798 
L 185.07917 343.528108 
L 193.082477 339.2257 
L 201.085783 334.6594 
L 209.08909 329.804037 
L 217.092397 324.634437 
L 223.495042 320.255592 
L 229.897687 315.646636 
L 236.300333 310.794683 
L 242.702978 305.685843 
L 247.504962 301.517773 
L 252.306946 296.940064 
L 257.10893 291.980404 
L 261.910914 286.666484 
L 266.712898 281.025994 
L 271.514882 275.086622 
L 277.917527 266.750393 
L 284.320172 257.997681 
L 290.722818 248.89412 
L 298.726124 237.12128 
L 308.330092 222.586115 
L 340.343319 173.678236 
L 348.346625 162.003662 
L 354.74927 153.001537 
L 361.151916 144.370547 
L 365.9539 137.91179 
L 370.755884 130.953225 
L 375.557868 123.596402 
L 381.960513 113.373363 
L 397.967126 87.493454 
L 402.76911 80.126466 
L 407.571094 73.154152 
L 412.373078 66.69545 
L 415.574401 62.733724 
L 418.775723 59.088375 
L 421.977046 55.794643 
L 425.178369 52.887769 
L 428.379691 50.402996 
L 431.581014 48.375564 
L 433.181675 47.544364 
L 434.782337 46.840715 
L 436.382998 46.269023 
L 437.983659 45.833691 
L 439.584321 45.539126 
L 441.184982 45.389733 
L 442.785643 45.389733 
L 444.386304 45.539126 
L 445.986966 45.833691 
L 447.587627 46.269023 
L 449.188288 46.840715 
L 450.78895 47.544364 
L 453.990272 49.32991 
L 457.191595 51.590417 
L 460.392918 54.290646 
L 463.59424 57.395354 
L 466.795563 60.8693 
L 469.996886 64.677243 
L 473.198208 68.78394 
L 478.000192 75.427062 
L 482.802176 82.54415 
L 489.204822 92.565306 
L 498.808789 108.163734 
L 506.812096 121.076182 
L 513.214741 130.953225 
L 518.016725 137.91179 
L 522.818709 144.370547 
L 529.221355 153.001537 
L 535.624 162.003662 
L 543.627306 173.678236 
L 553.231274 188.137324 
L 569.237888 212.751435 
L 582.043178 232.316079 
L 591.647146 246.571102 
L 599.650453 257.997681 
L 606.053098 266.750393 
L 612.455743 275.086622 
L 617.257727 281.025994 
L 622.059711 286.666484 
L 626.861695 291.980404 
L 631.663679 296.940064 
L 636.465663 301.517773 
L 641.267647 305.685843 
L 647.670292 310.794683 
L 654.072938 315.646636 
L 660.475583 320.255592 
L 666.878228 324.634437 
L 674.881535 329.804037 
L 682.884842 334.6594 
L 690.888148 339.2257 
L 698.891455 343.528108 
L 706.894761 347.591798 
L 716.498729 352.188559 
L 726.102697 356.521312 
L 737.307327 361.300543 
L 750.112617 366.483611 
L 766.11923 372.695114 
L 801.333779 386.26 
L 814.13907 391.480659 
L 825.343699 396.305117 
L 834.947667 400.685798 
L 841.350313 403.754937 
L 841.350313 403.754937 
" clip-path="url(#p80fc655f7c)" style="fill: none; stroke: #01ff66; stroke-width: 2; stroke-linecap: square"/>
   </g>
   <g id="line2d_31">
    <path d="M 42.620313 403.754937 
L 47.422296 400.702608 
L 52.22428 397.435997 
L 58.626926 392.783902 
L 65.029571 387.838966 
L 73.032878 381.322689 
L 82.636846 373.141459 
L 97.042797 360.483768 
L 111.448749 347.872803 
L 121.052717 339.774642 
L 129.056024 333.359317 
L 135.458669 328.51591 
L 141.861315 323.983803 
L 146.663298 320.819299 
L 151.465282 317.879458 
L 156.267266 315.185522 
L 161.06925 312.758728 
L 165.871234 310.620315 
L 170.673218 308.791525 
L 175.475202 307.293594 
L 178.676525 306.489274 
L 181.877848 305.847735 
L 185.07917 305.375272 
L 188.280493 305.078177 
L 191.481816 304.962743 
L 194.683138 305.035263 
L 197.884461 305.302031 
L 201.085783 305.769339 
L 204.287106 306.47095 
L 207.488429 307.51669 
L 210.689751 308.903622 
L 213.891074 310.616013 
L 217.092397 312.638129 
L 220.293719 314.954239 
L 223.495042 317.54861 
L 226.696365 320.405508 
L 229.897687 323.509201 
L 233.09901 326.843957 
L 237.900994 332.244916 
L 242.702978 338.077268 
L 247.504962 344.287916 
L 252.306946 350.82376 
L 258.709591 359.952305 
L 266.712898 371.85149 
L 279.518188 391.439679 
L 290.722818 408.445813 
L 297.125463 417.833635 
L 303.528108 426.824151 
L 308.330092 433.230593 
L 313.132076 439.289655 
L 317.93406 444.948239 
L 322.736044 450.153246 
L 325.937367 453.345043 
L 329.138689 456.295918 
L 332.340012 458.99014 
L 335.541335 461.411974 
L 338.742657 463.545689 
L 341.94398 465.375551 
L 345.145302 466.885827 
L 348.346625 468.060786 
L 351.547948 468.884694 
L 354.74927 469.341818 
L 357.950593 469.416425 
L 361.151916 469.092783 
L 362.752577 468.77492 
L 364.353238 468.334833 
L 365.9539 467.77089 
L 369.155222 466.282055 
L 372.356545 464.329653 
L 375.557868 461.934923 
L 378.75919 459.119106 
L 381.960513 455.90344 
L 385.161836 452.309164 
L 388.363158 448.357518 
L 391.564481 444.069741 
L 394.765803 439.467073 
L 397.967126 434.570752 
L 402.76911 426.722133 
L 407.571094 418.332266 
L 412.373078 409.472836 
L 418.775723 397.053723 
L 425.178369 384.097178 
L 434.782337 364.026363 
L 452.389611 326.985312 
L 458.792256 313.994903 
L 465.194902 301.529024 
L 469.996886 292.626053 
L 474.79887 284.18539 
L 479.600854 276.278717 
L 482.802176 271.339661 
L 486.003499 266.691033 
L 489.204822 262.354072 
L 492.406144 258.350016 
L 495.607467 254.700105 
L 498.808789 251.425579 
L 502.010112 248.547676 
L 505.211435 246.087636 
L 508.412757 244.066698 
L 511.61408 242.506101 
L 513.214741 241.905068 
L 514.815403 241.427085 
L 516.416064 241.074807 
L 518.016725 240.850889 
L 519.617387 240.757986 
L 521.218048 240.798752 
L 522.818709 240.975066 
L 524.419371 241.284168 
L 526.020032 241.723295 
L 527.620693 242.289891 
L 529.221355 242.981398 
L 532.422677 244.728921 
L 535.624 246.945412 
L 538.825323 249.610419 
L 542.026645 252.703489 
L 545.227968 256.204169 
L 548.42929 260.092006 
L 551.630613 264.346549 
L 554.831936 268.947344 
L 558.033258 273.873939 
L 561.234581 279.105881 
L 566.036565 287.48158 
L 570.838549 296.429264 
L 575.640533 305.879905 
L 580.442517 315.764477 
L 586.845162 329.4996 
L 594.848469 347.331494 
L 606.053098 372.961053 
L 618.858389 402.179213 
L 626.861695 419.847223 
L 633.264341 433.392242 
L 638.066325 443.09982 
L 642.868308 452.343969 
L 647.670292 461.055661 
L 652.472276 469.165869 
L 655.673599 474.204429 
L 658.874922 478.924531 
L 662.076244 483.305722 
L 665.277567 487.327551 
L 668.47889 490.969564 
L 671.680212 494.211308 
L 674.881535 497.032332 
L 678.082858 499.412182 
L 681.28418 501.330406 
L 684.485503 502.849575 
L 687.686826 504.087698 
L 690.888148 505.054405 
L 694.089471 505.758347 
L 697.290793 506.208179 
L 700.492116 506.412553 
L 703.693439 506.380123 
L 706.894761 506.119541 
L 710.096084 505.63946 
L 713.297407 504.948534 
L 716.498729 504.055415 
L 719.700052 502.968756 
L 722.901375 501.697212 
L 726.102697 500.249433 
L 730.904681 497.766257 
L 735.706665 494.935229 
L 740.508649 491.785552 
L 745.310633 488.346432 
L 750.112617 484.647072 
L 754.914601 480.716676 
L 761.317246 475.167234 
L 767.719892 469.328205 
L 775.723198 461.727643 
L 788.528489 449.18803 
L 802.934441 435.130613 
L 810.937747 427.621269 
L 817.340393 421.885066 
L 823.743038 416.464987 
L 828.545022 412.649028 
L 833.347006 409.07903 
L 838.14899 405.784199 
L 841.350313 403.754937 
L 841.350313 403.754937 
" clip-path="url(#p80fc655f7c)" style="fill: none; stroke: #fffd01; stroke-width: 2; stroke-linecap: square"/>
   </g>
   <g id="patch_3">
    <path d="M 42.620313 529.478125 
L 42.620313 22.318125 
" style="fill: none; stroke: #444444; stroke-width: 0.8; stroke-linejoin: miter; stroke-linecap: square"/>
   </g>
   <g id="patch_4">
    <path d="M 841.350313 529.478125 
L 841.350313 22.318125 
" style="fill: none; stroke: #444444; stroke-width: 0.8; stroke-linejoin: miter; stroke-linecap: square"/>
   </g>
   <g id="patch_5">
    <path d="M 42.620313 529.478125 
L 841.350313 529.478125 
" style="fill: none; stroke: #444444; stroke-width: 0.8; stroke-linejoin: miter; stroke-linecap: square"/>
   </g>
   <g id="patch_6">
    <path d="M 42.620313 22.318125 
L 841.350313 22.318125 
" style="fill: none; stroke: #444444; stroke-width: 0.8; stroke-linejoin: miter; stroke-linecap: square"/>
   </g>
   <g id="text_16">
    <!-- Solver: GoesToEleven -->
    <g style="fill: #ffffff" transform="translate(377.655938 16.318125) scale(0.12 -0.12)">
     <defs>
      <path id="DejaVuSans-53" d="M 3425 4513 
L 3425 3897 
Q 3066 4069 2747 4153 
Q 2428 4238 2131 4238 
Q 1616 4238 1336 4038 
Q 1056 3838 1056 3469 
Q 1056 3159 1242 3001 
Q 1428 2844 1947 2747 
L 2328 2669 
Q 3034 2534 3370 2195 
Q 3706 1856 3706 1288 
Q 3706 609 3251 259 
Q 2797 -91 1919 -91 
Q 1588 -91 1214 -16 
Q 841 59 441 206 
L 441 856 
Q 825 641 1194 531 
Q 1563 422 1919 422 
Q 2459 422 2753 634 
Q 3047 847 3047 1241 
Q 3047 1584 2836 1778 
Q 2625 1972 2144 2069 
L 1759 2144 
Q 1053 2284 737 2584 
Q 422 2884 422 3419 
Q 422 4038 858 4394 
Q 1294 4750 2059 4750 
Q 2388 4750 2728 4690 
Q 3069 4631 3425 4513 
z
" transform="scale(0.015625)"/>
      <path id="DejaVuSans-76" d="M 191 3500 
L 800 3500 
L 1894 563 
L 2988 3500 
L 3597 3500 
L 2284 0 
L 1503 0 
L 191 3500 
z
" transform="scale(0.015625)"/>
      <path id="DejaVuSans-72" d="M 2631 2963 
Q 2534 3019 2420 3045 
Q 2306 3072 2169 3072 
Q 1681 3072 1420 2755 
Q 1159 2438 1159 1844 
L 1159 0 
L 581 0 
L 581 3500 
L 1159 3500 
L 1159 2956 
Q 1341 3275 1631 3429 
Q 1922 3584 2338 3584 
Q 2397 3584 2469 3576 
Q 2541 3569 2628 3553 
L 2631 2963 
z
" transform="scale(0.015625)"/>
      <path id="DejaVuSans-3a" d="M 750 794 
L 1409 794 
L 1409 0 
L 750 0 
L 750 794 
z
M 750 3309 
L 1409 3309 
L 1409 2516 
L 750 2516 
L 750 3309 
z
" transform="scale(0.015625)"/>
      <path id="DejaVuSans-20" transform="scale(0.015625)"/>
      <path id="DejaVuSans-47" d="M 3809 666 
L 3809 1919 
L 2778 1919 
L 2778 2438 
L 4434 2438 
L 4434 434 
Q 4069 175 3628 42 
Q 3188 -91 2688 -91 
Q 1594 -91 976 548 
Q 359 1188 359 2328 
Q 359 3472 976 4111 
Q 1594 4750 2688 4750 
Q 3144 4750 3555 4637 
Q 3966 4525 4313 4306 
L 4313 3634 
Q 3963 3931 3569 4081 
Q 3175 4231 2741 4231 
Q 1884 4231 1454 3753 
Q 1025 3275 1025 2328 
Q 1025 1384 1454 906 
Q 1884 428 2741 428 
Q 3075 428 3337 486 
Q 3600 544 3809 666 
z
" transform="scale(0.015625)"/>
      <path id="DejaVuSans-54" d="M -19 4666 
L 3928 4666 
L 3928 4134 
L 2272 4134 
L 2272 0 
L 1638 0 
L 1638 4134 
L -19 4134 
L -19 4666 
z
" transform="scale(0.015625)"/>
      <path id="DejaVuSans-45" d="M 628 4666 
L 3578 4666 
L 3578 4134 
L 1259 4134 
L 1259 2753 
L 3481 2753 
L 3481 2222 
L 1259 2222 
L 1259 531 
L 3634 531 
L 3634 0 
L 628 0 
L 628 4666 
z
" transform="scale(0.015625)"/>
     </defs>
     <use xlink:href="#DejaVuSans-53"/>
     <use xlink:href="#DejaVuSans-6f" transform="translate(63.476562 0)"/>
     <use xlink:href="#DejaVuSans-6c" transform="translate(124.658203 0)"/>
     <use xlink:href="#DejaVuSans-76" transform="translate(152.441406 0)"/>
     <use xlink:href="#DejaVuSans-65" transform="translate(211.621094 0)"/>
     <use xlink:href="#DejaVuSans-72" transform="translate(273.144531 0)"/>
     <use xlink:href="#DejaVuSans-3a" transform="translate(312.507812 0)"/>
     <use xlink:href="#DejaVuSans-20" transform="translate(346.199219 0)"/>
     <use xlink:href="#DejaVuSans-47" transform="translate(377.986328 0)"/>
     <use xlink:href="#DejaVuSans-6f" transform="translate(455.476562 0)"/>
     <use xlink:href="#DejaVuSans-65" transform="translate(516.658203 0)"/>
     <use xlink:href="#DejaVuSans-73" transform="translate(578.181641 0)"/>
     <use xlink:href="#DejaVuSans-54" transform="translate(630.28125 0)"/>
     <use xlink:href="#DejaVuSans-6f" transform="translate(674.365234 0)"/>
     <use xlink:href="#DejaVuSans-45" transform="translate(735.546875 0)"/>
     <use xlink:href="#DejaVuSans-6c" transform="translate(798.730469 0)"/>
     <use xlink:href="#DejaVuSans-65" transform="translate(826.513672 0)"/>
     <use xlink:href="#DejaVuSans-76" transform="translate(888.037109 0)"/>
     <use xlink:href="#DejaVuSans-65" transform="translate(947.216797 0)"/>
     <use xlink:href="#DejaVuSans-6e" transform="translate(1008.740234 0)"/>
    </g>
   </g>
   <g id="PathCollection_1">
    <defs>
     <path id="m5882bbe728" d="M 0 3.872983 
C 1.027127 3.872983 2.012324 3.464901 2.738613 2.738613 
C 3.464901 2.012324 3.872983 1.027127 3.872983 0 
C 3.872983 -1.027127 3.464901 -2.012324 2.738613 -2.738613 
C 2.012324 -3.464901 1.027127 -3.872983 0 -3.872983 
C -1.027127 -3.872983 -2.012324 -3.464901 -2.738613 -2.738613 
C -3.464901 -2.012324 -3.872983 -1.027127 -3.872983 0 
C -3.872983 1.027127 -3.464901 2.012324 -2.738613 2.738613 
C -2.012324 3.464901 -1.027127 3.872983 0 3.872983 
z
" style="stroke: #ff9500"/>
    </defs>
    <g clip-path="url(#p80fc655f7c)">
     <use xlink:href="#m5882bbe728" x="42.620313" y="403.754937" style="fill: #ff9500; stroke: #ff9500"/>
     <use xlink:href="#m5882bbe728" x="441.985313" y="240.85308" style="fill: #ff9500; stroke: #ff9500"/>
     <use xlink:href="#m5882bbe728" x="841.350313" y="403.754937" style="fill: #ff9500; stroke: #ff9500"/>
    </g>
   </g>
   <g id="PathCollection_2">
    <defs>
     <path id="m6263231534" d="M 0 3.872983 
C 1.027127 3.872983 2.012324 3.464901 2.738613 2.738613 
C 3.464901 2.012324 3.872983 1.027127 3.872983 0 
C 3.872983 -1.027127 3.464901 -2.012324 2.738613 -2.738613 
C 2.012324 -3.464901 1.027127 -3.872983 0 -3.872983 
C -1.027127 -3.872983 -2.012324 -3.464901 -2.738613 -2.738613 
C -3.464901 -2.012324 -3.872983 -1.027127 -3.872983 0 
C -3.872983 1.027127 -3.464901 2.012324 -2.738613 2.738613 
C -2.012324 3.464901 -1.027127 3.872983 0 3.872983 
z
" style="stroke: #00b9f1"/>
    </defs>
    <g clip-path="url(#p80fc655f7c)">
     <use xlink:href="#m6263231534" x="42.620313" y="403.754937" style="fill: #00b9f1; stroke: #00b9f1"/>
     <use xlink:href="#m6263231534" x="441.985313" y="240.85308" style="fill: #00b9f1; stroke: #00b9f1"/>
     <use xlink:href="#m6263231534" x="841.350313" y="403.754937" style="fill: #00b9f1; stroke: #00b9f1"/>
    </g>
   </g>
   <g id="PathCollection_3">
    <defs>
     <path id="m78056acaad" d="M 0 3.872983 
C 1.027127 3.872983 2.012324 3.464901 2.738613 2.738613 
C 3.464901 2.012324 3.872983 1.027127 3.872983 0 
C 3.872983 -1.027127 3.464901 -2.012324 2.738613 -2.738613 
C 2.012324 -3.464901 1.027127 -3.872983 0 -3.872983 
C -1.027127 -3.872983 -2.012324 -3.464901 -2.738613 -2.738613 
C -3.464901 -2.012324 -3.872983 -1.027127 -3.872983 0 
C -3.872983 1.027127 -3.464901 2.012324 -2.738613 2.738613 
C -2.012324 3.464901 -1.027127 3.872983 0 3.872983 
z
" style="stroke: #fb02fe"/>
    </defs>
    <g clip-path="url(#p80fc655f7c)">
     <use xlink:href="#m78056acaad" x="42.620313" y="403.754937" style="fill: #fb02fe; stroke: #fb02fe"/>
     <use xlink:href="#m78056acaad" x="441.985313" y="240.85308" style="fill: #fb02fe; stroke: #fb02fe"/>
     <use xlink:href="#m78056acaad" x="841.350313" y="403.754937" style="fill: #fb02fe; stroke: #fb02fe"/>
    </g>
   </g>
   <g id="PathCollection_4">
    <defs>
     <path id="m402b1c5167" d="M 0 3.872983 
C 1.027127 3.872983 2.012324 3.464901 2.738613 2.738613 
C 3.464901 2.012324 3.872983 1.027127 3.872983 0 
C 3.872983 -1.027127 3.464901 -2.012324 2.738613 -2.738613 
C 2.012324 -3.464901 1.027127 -3.872983 0 -3.872983 
C -1.027127 -3.872983 -2.012324 -3.464901 -2.738613 -2.738613 
C -3.464901 -2.012324 -3.872983 -1.027127 -3.872983 0 
C -3.872983 1.027127 -3.464901 2.012324 -2.738613 2.738613 
C -2.012324 3.464901 -1.027127 3.872983 0 3.872983 
z
" style="stroke: #01ff66"/>
    </defs>
    <g clip-path="url(#p80fc655f7c)">
     <use xlink:href="#m402b1c5167" x="42.620313" y="403.754937" style="fill: #01ff66; stroke: #01ff66"/>
     <use xlink:href="#m402b1c5167" x="242.302813" y="306.013823" style="fill: #01ff66; stroke: #01ff66"/>
     <use xlink:href="#m402b1c5167" x="362.112313" y="143.111966" style="fill: #01ff66; stroke: #01ff66"/>
     <use xlink:href="#m402b1c5167" x="441.985313" y="45.370852" style="fill: #01ff66; stroke: #01ff66"/>
     <use xlink:href="#m402b1c5167" x="521.858313" y="143.111966" style="fill: #01ff66; stroke: #01ff66"/>
     <use xlink:href="#m402b1c5167" x="641.667813" y="306.013823" style="fill: #01ff66; stroke: #01ff66"/>
     <use xlink:href="#m402b1c5167" x="841.350313" y="403.754937" style="fill: #01ff66; stroke: #01ff66"/>
    </g>
   </g>
   <g id="PathCollection_5">
    <defs>
     <path id="m370cd39eb2" d="M 0 3.872983 
C 1.027127 3.872983 2.012324 3.464901 2.738613 2.738613 
C 3.464901 2.012324 3.872983 1.027127 3.872983 0 
C 3.872983 -1.027127 3.464901 -2.012324 2.738613 -2.738613 
C 2.012324 -3.464901 1.027127 -3.872983 0 -3.872983 
C -1.027127 -3.872983 -2.012324 -3.464901 -2.738613 -2.738613 
C -3.464901 -2.012324 -3.872983 -1.027127 -3.872983 0 
C -3.872983 1.027127 -3.464901 2.012324 -2.738613 2.738613 
C -2.012324 3.464901 -1.027127 3.872983 0 3.872983 
z
" style="stroke: #fffd01"/>
    </defs>
    <g clip-path="url(#p80fc655f7c)">
     <use xlink:href="#m370cd39eb2" x="42.620313" y="403.754937" style="fill: #fffd01; stroke: #fffd01"/>
     <use xlink:href="#m370cd39eb2" x="202.366313" y="306.013823" style="fill: #fffd01; stroke: #fffd01"/>
     <use xlink:href="#m370cd39eb2" x="362.112313" y="468.91568" style="fill: #fffd01; stroke: #fffd01"/>
     <use xlink:href="#m370cd39eb2" x="521.858313" y="240.85308" style="fill: #fffd01; stroke: #fffd01"/>
     <use xlink:href="#m370cd39eb2" x="681.604313" y="501.496051" style="fill: #fffd01; stroke: #fffd01"/>
     <use xlink:href="#m370cd39eb2" x="841.350313" y="403.754937" style="fill: #fffd01; stroke: #fffd01"/>
    </g>
   </g>
   <g id="legend_1">
    <g id="patch_7">
     <path d="M 706.037813 103.70875 
L 834.350313 103.70875 
Q 836.350313 103.70875 836.350313 101.70875 
L 836.350313 29.318125 
Q 836.350313 27.318125 834.350313 27.318125 
L 706.037813 27.318125 
Q 704.037813 27.318125 704.037813 29.318125 
L 704.037813 101.70875 
Q 704.037813 103.70875 706.037813 103.70875 
z
" style="fill: #121212; opacity: 0.8; stroke: #444444; stroke-linejoin: miter"/>
    </g>
    <g id="line2d_32">
     <path d="M 708.037813 35.416562 
L 718.037813 35.416562 
L 728.037813 35.416562 
" style="fill: none; stroke: #ff9500; stroke-width: 2; stroke-linecap: square"/>
    </g>
    <g id="text_17">
     <!-- methods.linear -->
     <g style="fill: #ffffff" transform="translate(736.037813 38.916562) scale(0.1 -0.1)">
      <defs>
       <path id="DejaVuSans-6d" d="M 3328 2828 
Q 3544 3216 3844 3400 
Q 4144 3584 4550 3584 
Q 5097 3584 5394 3201 
Q 5691 2819 5691 2113 
L 5691 0 
L 5113 0 
L 5113 2094 
Q 5113 2597 4934 2840 
Q 4756 3084 4391 3084 
Q 3944 3084 3684 2787 
Q 3425 2491 3425 1978 
L 3425 0 
L 2847 0 
L 2847 2094 
Q 2847 2600 2669 2842 
Q 2491 3084 2119 3084 
Q 1678 3084 1418 2786 
Q 1159 2488 1159 1978 
L 1159 0 
L 581 0 
L 581 3500 
L 1159 3500 
L 1159 2956 
Q 1356 3278 1631 3431 
Q 1906 3584 2284 3584 
Q 2666 3584 2933 3390 
Q 3200 3197 3328 2828 
z
" transform="scale(0.015625)"/>
       <path id="DejaVuSans-68" d="M 3513 2113 
L 3513 0 
L 2938 0 
L 2938 2094 
Q 2938 2591 2744 2837 
Q 2550 3084 2163 3084 
Q 1697 3084 1428 2787 
Q 1159 2491 1159 1978 
L 1159 0 
L 581 0 
L 581 4863 
L 1159 4863 
L 1159 2956 
Q 1366 3272 1645 3428 
Q 1925 3584 2291 3584 
Q 2894 3584 3203 3211 
Q 3513 2838 3513 2113 
z
" transform="scale(0.015625)"/>
       <path id="DejaVuSans-64" d="M 2906 2969 
L 2906 4863 
L 3481 4863 
L 3481 0 
L 2906 0 
L 2906 525 
Q 2725 213 2448 61 
Q 2172 -91 1784 -91 
Q 1150 -91 751 415 
Q 353 922 353 1747 
Q 353 2572 751 3078 
Q 1150 3584 1784 3584 
Q 2172 3584 2448 3432 
Q 2725 3281 2906 2969 
z
M 947 1747 
Q 947 1113 1208 752 
Q 1469 391 1925 391 
Q 2381 391 2643 752 
Q 2906 1113 2906 1747 
Q 2906 2381 2643 2742 
Q 2381 3103 1925 3103 
Q 1469 3103 1208 2742 
Q 947 2381 947 1747 
z
" transform="scale(0.015625)"/>
      </defs>
      <use xlink:href="#DejaVuSans-6d"/>
      <use xlink:href="#DejaVuSans-65" transform="translate(97.412109 0)"/>
      <use xlink:href="#DejaVuSans-74" transform="translate(158.935547 0)"/>
      <use xlink:href="#DejaVuSans-68" transform="translate(198.144531 0)"/>
      <use xlink:href="#DejaVuSans-6f" transform="translate(261.523438 0)"/>
      <use xlink:href="#DejaVuSans-64" transform="translate(322.705078 0)"/>
      <use xlink:href="#DejaVuSans-73" transform="translate(386.181641 0)"/>
      <use xlink:href="#DejaVuSans-2e" transform="translate(438.28125 0)"/>
      <use xlink:href="#DejaVuSans-6c" transform="translate(470.068359 0)"/>
      <use xlink:href="#DejaVuSans-69" transform="translate(497.851562 0)"/>
      <use xlink:href="#DejaVuSans-6e" transform="translate(525.634766 0)"/>
      <use xlink:href="#DejaVuSans-65" transform="translate(589.013672 0)"/>
      <use xlink:href="#DejaVuSans-61" transform="translate(650.537109 0)"/>
      <use xlink:href="#DejaVuSans-72" transform="translate(711.816406 0)"/>
     </g>
    </g>
    <g id="line2d_33">
     <path d="M 708.037813 50.094687 
L 718.037813 50.094687 
L 728.037813 50.094687 
" style="fill: none; stroke: #00b9f1; stroke-width: 2; stroke-linecap: square"/>
    </g>
    <g id="text_18">
     <!-- methods.cubic -->
     <g style="fill: #ffffff" transform="translate(736.037813 53.594687) scale(0.1 -0.1)">
      <defs>
       <path id="DejaVuSans-63" d="M 3122 3366 
L 3122 2828 
Q 2878 2963 2633 3030 
Q 2388 3097 2138 3097 
Q 1578 3097 1268 2742 
Q 959 2388 959 1747 
Q 959 1106 1268 751 
Q 1578 397 2138 397 
Q 2388 397 2633 464 
Q 2878 531 3122 666 
L 3122 134 
Q 2881 22 2623 -34 
Q 2366 -91 2075 -91 
Q 1284 -91 818 406 
Q 353 903 353 1747 
Q 353 2603 823 3093 
Q 1294 3584 2113 3584 
Q 2378 3584 2631 3529 
Q 2884 3475 3122 3366 
z
" transform="scale(0.015625)"/>
       <path id="DejaVuSans-62" d="M 3116 1747 
Q 3116 2381 2855 2742 
Q 2594 3103 2138 3103 
Q 1681 3103 1420 2742 
Q 1159 2381 1159 1747 
Q 1159 1113 1420 752 
Q 1681 391 2138 391 
Q 2594 391 2855 752 
Q 3116 1113 3116 1747 
z
M 1159 2969 
Q 1341 3281 1617 3432 
Q 1894 3584 2278 3584 
Q 2916 3584 3314 3078 
Q 3713 2572 3713 1747 
Q 3713 922 3314 415 
Q 2916 -91 2278 -91 
Q 1894 -91 1617 61 
Q 1341 213 1159 525 
L 1159 0 
L 581 0 
L 581 4863 
L 1159 4863 
L 1159 2969 
z
" transform="scale(0.015625)"/>
      </defs>
      <use xlink:href="#DejaVuSans-6d"/>
      <use xlink:href="#DejaVuSans-65" transform="translate(97.412109 0)"/>
      <use xlink:href="#DejaVuSans-74" transform="translate(158.935547 0)"/>
      <use xlink:href="#DejaVuSans-68" transform="translate(198.144531 0)"/>
      <use xlink:href="#DejaVuSans-6f" transform="translate(261.523438 0)"/>
      <use xlink:href="#DejaVuSans-64" transform="translate(322.705078 0)"/>
      <use xlink:href="#DejaVuSans-73" transform="translate(386.181641 0)"/>
      <use xlink:href="#DejaVuSans-2e" transform="translate(438.28125 0)"/>
      <use xlink:href="#DejaVuSans-63" transform="translate(470.068359 0)"/>
      <use xlink:href="#DejaVuSans-75" transform="translate(525.048828 0)"/>
      <use xlink:href="#DejaVuSans-62" transform="translate(588.427734 0)"/>
      <use xlink:href="#DejaVuSans-69" transform="translate(651.904297 0)"/>
      <use xlink:href="#DejaVuSans-63" transform="translate(679.6875 0)"/>
     </g>
    </g>
    <g id="line2d_34">
     <path d="M 708.037813 64.772812 
L 718.037813 64.772812 
L 728.037813 64.772812 
" style="fill: none; stroke: #fb02fe; stroke-width: 2; stroke-linecap: square"/>
    </g>
    <g id="text_19">
     <!-- methods.hermite -->
     <g style="fill: #ffffff" transform="translate(736.037813 68.272812) scale(0.1 -0.1)">
      <use xlink:href="#DejaVuSans-6d"/>
      <use xlink:href="#DejaVuSans-65" transform="translate(97.412109 0)"/>
      <use xlink:href="#DejaVuSans-74" transform="translate(158.935547 0)"/>
      <use xlink:href="#DejaVuSans-68" transform="translate(198.144531 0)"/>
      <use xlink:href="#DejaVuSans-6f" transform="translate(261.523438 0)"/>
      <use xlink:href="#DejaVuSans-64" transform="translate(322.705078 0)"/>
      <use xlink:href="#DejaVuSans-73" transform="translate(386.181641 0)"/>
      <use xlink:href="#DejaVuSans-2e" transform="translate(438.28125 0)"/>
      <use xlink:href="#DejaVuSans-68" transform="translate(470.068359 0)"/>
      <use xlink:href="#DejaVuSans-65" transform="translate(533.447266 0)"/>
      <use xlink:href="#DejaVuSans-72" transform="translate(594.970703 0)"/>
      <use xlink:href="#DejaVuSans-6d" transform="translate(634.333984 0)"/>
      <use xlink:href="#DejaVuSans-69" transform="translate(731.746094 0)"/>
      <use xlink:href="#DejaVuSans-74" transform="translate(759.529297 0)"/>
      <use xlink:href="#DejaVuSans-65" transform="translate(798.738281 0)"/>
     </g>
    </g>
    <g id="line2d_35">
     <path d="M 708.037813 79.450937 
L 718.037813 79.450937 
L 728.037813 79.450937 
" style="fill: none; stroke: #01ff66; stroke-width: 2; stroke-linecap: square"/>
    </g>
    <g id="text_20">
     <!-- methods.eleven -->
     <g style="fill: #ffffff" transform="translate(736.037813 82.950937) scale(0.1 -0.1)">
      <use xlink:href="#DejaVuSans-6d"/>
      <use xlink:href="#DejaVuSans-65" transform="translate(97.412109 0)"/>
      <use xlink:href="#DejaVuSans-74" transform="translate(158.935547 0)"/>
      <use xlink:href="#DejaVuSans-68" transform="translate(198.144531 0)"/>
      <use xlink:href="#DejaVuSans-6f" transform="translate(261.523438 0)"/>
      <use xlink:href="#DejaVuSans-64" transform="translate(322.705078 0)"/>
      <use xlink:href="#DejaVuSans-73" transform="translate(386.181641 0)"/>
      <use xlink:href="#DejaVuSans-2e" transform="translate(438.28125 0)"/>
      <use xlink:href="#DejaVuSans-65" transform="translate(470.068359 0)"/>
      <use xlink:href="#DejaVuSans-6c" transform="translate(531.591797 0)"/>
      <use xlink:href="#DejaVuSans-65" transform="translate(559.375 0)"/>
      <use xlink:href="#DejaVuSans-76" transform="translate(620.898438 0)"/>
      <use xlink:href="#DejaVuSans-65" transform="translate(680.078125 0)"/>
      <use xlink:href="#DejaVuSans-6e" transform="translate(741.601562 0)"/>
     </g>
    </g>
    <g id="line2d_36">
     <path d="M 708.037813 94.129062 
L 718.037813 94.129062 
L 728.037813 94.129062 
" style="fill: none; stroke: #fffd01; stroke-width: 2; stroke-linecap: square"/>
    </g>
    <g id="text_21">
     <!-- showcase.beautiful -->
     <g style="fill: #ffffff" transform="translate(736.037813 97.629062) scale(0.1 -0.1)">
      <defs>
       <path id="DejaVuSans-77" d="M 269 3500 
L 844 3500 
L 1563 769 
L 2278 3500 
L 2956 3500 
L 3675 769 
L 4391 3500 
L 4966 3500 
L 4050 0 
L 3372 0 
L 2619 2869 
L 1863 0 
L 1184 0 
L 269 3500 
z
" transform="scale(0.015625)"/>
       <path id="DejaVuSans-66" d="M 2375 4863 
L 2375 4384 
L 1825 4384 
Q 1516 4384 1395 4259 
Q 1275 4134 1275 3809 
L 1275 3500 
L 2222 3500 
L 2222 3053 
L 1275 3053 
L 1275 0 
L 697 0 
L 697 3053 
L 147 3053 
L 147 3500 
L 697 3500 
L 697 3744 
Q 697 4328 969 4595 
Q 1241 4863 1831 4863 
L 2375 4863 
z
" transform="scale(0.015625)"/>
      </defs>
      <use xlink:href="#DejaVuSans-73"/>
      <use xlink:href="#DejaVuSans-68" transform="translate(52.099609 0)"/>
      <use xlink:href="#DejaVuSans-6f" transform="translate(115.478516 0)"/>
      <use xlink:href="#DejaVuSans-77" transform="translate(176.660156 0)"/>
      <use xlink:href="#DejaVuSans-63" transform="translate(258.447266 0)"/>
      <use xlink:href="#DejaVuSans-61" transform="translate(313.427734 0)"/>
      <use xlink:href="#DejaVuSans-73" transform="translate(374.707031 0)"/>
      <use xlink:href="#DejaVuSans-65" transform="translate(426.806641 0)"/>
      <use xlink:href="#DejaVuSans-2e" transform="translate(488.330078 0)"/>
      <use xlink:href="#DejaVuSans-62" transform="translate(520.117188 0)"/>
      <use xlink:href="#DejaVuSans-65" transform="translate(583.59375 0)"/>
      <use xlink:href="#DejaVuSans-61" transform="translate(645.117188 0)"/>
      <use xlink:href="#DejaVuSans-75" transform="translate(706.396484 0)"/>
      <use xlink:href="#DejaVuSans-74" transform="translate(769.775391 0)"/>
      <use xlink:href="#DejaVuSans-69" transform="translate(808.984375 0)"/>
      <use xlink:href="#DejaVuSans-66" transform="translate(836.767578 0)"/>
      <use xlink:href="#DejaVuSans-75" transform="translate(871.972656 0)"/>
      <use xlink:href="#DejaVuSans-6c" transform="translate(935.351562 0)"/>
     </g>
    </g>
   </g>
  </g>
 </g>
 <defs>
  <clipPath id="p80fc655f7c">
   <rect x="42.620313" y="22.318125" width="798.73" height="507.16"/>
  </clipPath>
 </defs>
</svg>
