<?xml version="1.0" encoding="utf-8" standalone="no"?>
<!DOCTYPE svg PUBLIC "-//W3C//DTD SVG 1.1//EN"
  "http://www.w3.org/Graphics/SVG/1.1/DTD/svg11.dtd">
<svg xmlns:xlink="http://www.w3.org/1999/xlink" width="856.411875pt" height="567.27625pt" viewBox="0 0 856.411875 567.27625" xmlns="http://www.w3.org/2000/svg" version="1.1">
 <metadata>
  <rdf:RDF xmlns:dc="http://purl.org/dc/elements/1.1/" xmlns:cc="http://creativecommons.org/ns#" xmlns:rdf="http://www.w3.org/1999/02/22-rdf-syntax-ns#">
   <cc:Work>
    <dc:type rdf:resource="http://purl.org/dc/dcmitype/StillImage"/>
    <dc:date>2025-03-17T20:37:17.424271</dc:date>
    <dc:format>image/svg+xml</dc:format>
    <dc:creator>
     <cc:Agent>
      <dc:title>Matplotlib v3.10.1, https://matplotlib.org/</dc:title>
     </cc:Agent>
    </dc:creator>
   </cc:Work>
  </rdf:RDF>
 </metadata>
 <defs>
  <style type="text/css">*{stroke-linejoin: round; stroke-linecap: butt}</style>
 </defs>
 <g id="figure_1">
  <g id="patch_1">
   <path d="M 0 567.27625 
L 856.411875 567.27625 
L 856.411875 0 
L 0 0 
z
" style="fill: #121212"/>
  </g>
  <g id="axes_1">
   <g id="patch_2">
    <path d="M 42.620313 246.678254 
L 841.260313 246.678254 
L 841.260313 24.48 
L 42.620313 24.48 
z
" style="fill: #121212"/>
   </g>
   <g id="matplotlib.axis_1">
    <g id="xtick_1">
     <g id="line2d_1">
      <path d="M 42.620313 246.678254 
L 42.620313 24.48 
" clip-path="url(#pe5959a446e)" style="fill: none; stroke-dasharray: 2.96,1.28; stroke-dashoffset: 0; stroke: #444444; stroke-opacity: 0.7; stroke-width: 0.8"/>
     </g>
     <g id="line2d_2">
      <defs>
       <path id="mb658c00362" d="M 0 0 
L 0 3.5 
" style="stroke: #aaaaaa; stroke-width: 0.8"/>
      </defs>
      <g>
       <use xlink:href="#mb658c00362" x="42.620313" y="246.678254" style="fill: #aaaaaa; stroke: #aaaaaa; stroke-width: 0.8"/>
      </g>
     </g>
     <g id="text_1">
      <!-- 0.0 -->
      <g style="fill: #aaaaaa" transform="translate(34.66875 261.276691) scale(0.1 -0.1)">
       <defs>
        <path id="DejaVuSans-30" d="M 2034 4250 
Q 1547 4250 1301 3770 
Q 1056 3291 1056 2328 
Q 1056 1369 1301 889 
Q 1547 409 2034 409 
Q 2525 409 2770 889 
Q 3016 1369 3016 2328 
Q 3016 3291 2770 3770 
Q 2525 4250 2034 4250 
z
M 2034 4750 
Q 2819 4750 3233 4129 
Q 3647 3509 3647 2328 
Q 3647 1150 3233 529 
Q 2819 -91 2034 -91 
Q 1250 -91 836 529 
Q 422 1150 422 2328 
Q 422 3509 836 4129 
Q 1250 4750 2034 4750 
z
" transform="scale(0.015625)"/>
        <path id="DejaVuSans-2e" d="M 684 794 
L 1344 794 
L 1344 0 
L 684 0 
L 684 794 
z
" transform="scale(0.015625)"/>
       </defs>
       <use xlink:href="#DejaVuSans-30"/>
       <use xlink:href="#DejaVuSans-2e" transform="translate(63.623047 0)"/>
       <use xlink:href="#DejaVuSans-30" transform="translate(95.410156 0)"/>
      </g>
     </g>
    </g>
    <g id="xtick_2">
     <g id="line2d_3">
      <path d="M 202.348313 246.678254 
L 202.348313 24.48 
" clip-path="url(#pe5959a446e)" style="fill: none; stroke-dasharray: 2.96,1.28; stroke-dashoffset: 0; stroke: #444444; stroke-opacity: 0.7; stroke-width: 0.8"/>
     </g>
     <g id="line2d_4">
      <g>
       <use xlink:href="#mb658c00362" x="202.348313" y="246.678254" style="fill: #aaaaaa; stroke: #aaaaaa; stroke-width: 0.8"/>
      </g>
     </g>
     <g id="text_2">
      <!-- 0.2 -->
      <g style="fill: #aaaaaa" transform="translate(194.39675 261.276691) scale(0.1 -0.1)">
       <defs>
        <path id="DejaVuSans-32" d="M 1228 531 
L 3431 531 
L 3431 0 
L 469 0 
L 469 531 
Q 828 903 1448 1529 
Q 2069 2156 2228 2338 
Q 2531 2678 2651 2914 
Q 2772 3150 2772 3378 
Q 2772 3750 2511 3984 
Q 2250 4219 1831 4219 
Q 1534 4219 1204 4116 
Q 875 4013 500 3803 
L 500 4441 
Q 881 4594 1212 4672 
Q 1544 4750 1819 4750 
Q 2544 4750 2975 4387 
Q 3406 4025 3406 3419 
Q 3406 3131 3298 2873 
Q 3191 2616 2906 2266 
Q 2828 2175 2409 1742 
Q 1991 1309 1228 531 
z
" transform="scale(0.015625)"/>
       </defs>
       <use xlink:href="#DejaVuSans-30"/>
       <use xlink:href="#DejaVuSans-2e" transform="translate(63.623047 0)"/>
       <use xlink:href="#DejaVuSans-32" transform="translate(95.410156 0)"/>
      </g>
     </g>
    </g>
    <g id="xtick_3">
     <g id="line2d_5">
      <path d="M 362.076313 246.678254 
L 362.076313 24.48 
" clip-path="url(#pe5959a446e)" style="fill: none; stroke-dasharray: 2.96,1.28; stroke-dashoffset: 0; stroke: #444444; stroke-opacity: 0.7; stroke-width: 0.8"/>
     </g>
     <g id="line2d_6">
      <g>
       <use xlink:href="#mb658c00362" x="362.076313" y="246.678254" style="fill: #aaaaaa; stroke: #aaaaaa; stroke-width: 0.8"/>
      </g>
     </g>
     <g id="text_3">
      <!-- 0.4 -->
      <g style="fill: #aaaaaa" transform="translate(354.12475 261.276691) scale(0.1 -0.1)">
       <defs>
        <path id="DejaVuSans-34" d="M 2419 4116 
L 825 1625 
L 2419 1625 
L 2419 4116 
z
M 2253 4666 
L 3047 4666 
L 3047 1625 
L 3713 1625 
L 3713 1100 
L 3047 1100 
L 3047 0 
L 2419 0 
L 2419 1100 
L 313 1100 
L 313 1709 
L 2253 4666 
z
" transform="scale(0.015625)"/>
       </defs>
       <use xlink:href="#DejaVuSans-30"/>
       <use xlink:href="#DejaVuSans-2e" transform="translate(63.623047 0)"/>
       <use xlink:href="#DejaVuSans-34" transform="translate(95.410156 0)"/>
      </g>
     </g>
    </g>
    <g id="xtick_4">
     <g id="line2d_7">
      <path d="M 521.804313 246.678254 
L 521.804313 24.48 
" clip-path="url(#pe5959a446e)" style="fill: none; stroke-dasharray: 2.96,1.28; stroke-dashoffset: 0; stroke: #444444; stroke-opacity: 0.7; stroke-width: 0.8"/>
     </g>
     <g id="line2d_8">
      <g>
       <use xlink:href="#mb658c00362" x="521.804313" y="246.678254" style="fill: #aaaaaa; stroke: #aaaaaa; stroke-width: 0.8"/>
      </g>
     </g>
     <g id="text_4">
      <!-- 0.6 -->
      <g style="fill: #aaaaaa" transform="translate(513.85275 261.276691) scale(0.1 -0.1)">
       <defs>
        <path id="DejaVuSans-36" d="M 2113 2584 
Q 1688 2584 1439 2293 
Q 1191 2003 1191 1497 
Q 1191 994 1439 701 
Q 1688 409 2113 409 
Q 2538 409 2786 701 
Q 3034 994 3034 1497 
Q 3034 2003 2786 2293 
Q 2538 2584 2113 2584 
z
M 3366 4563 
L 3366 3988 
Q 3128 4100 2886 4159 
Q 2644 4219 2406 4219 
Q 1781 4219 1451 3797 
Q 1122 3375 1075 2522 
Q 1259 2794 1537 2939 
Q 1816 3084 2150 3084 
Q 2853 3084 3261 2657 
Q 3669 2231 3669 1497 
Q 3669 778 3244 343 
Q 2819 -91 2113 -91 
Q 1303 -91 875 529 
Q 447 1150 447 2328 
Q 447 3434 972 4092 
Q 1497 4750 2381 4750 
Q 2619 4750 2861 4703 
Q 3103 4656 3366 4563 
z
" transform="scale(0.015625)"/>
       </defs>
       <use xlink:href="#DejaVuSans-30"/>
       <use xlink:href="#DejaVuSans-2e" transform="translate(63.623047 0)"/>
       <use xlink:href="#DejaVuSans-36" transform="translate(95.410156 0)"/>
      </g>
     </g>
    </g>
    <g id="xtick_5">
     <g id="line2d_9">
      <path d="M 681.532313 246.678254 
L 681.532313 24.48 
" clip-path="url(#pe5959a446e)" style="fill: none; stroke-dasharray: 2.96,1.28; stroke-dashoffset: 0; stroke: #444444; stroke-opacity: 0.7; stroke-width: 0.8"/>
     </g>
     <g id="line2d_10">
      <g>
       <use xlink:href="#mb658c00362" x="681.532313" y="246.678254" style="fill: #aaaaaa; stroke: #aaaaaa; stroke-width: 0.8"/>
      </g>
     </g>
     <g id="text_5">
      <!-- 0.8 -->
      <g style="fill: #aaaaaa" transform="translate(673.58075 261.276691) scale(0.1 -0.1)">
       <defs>
        <path id="DejaVuSans-38" d="M 2034 2216 
Q 1584 2216 1326 1975 
Q 1069 1734 1069 1313 
Q 1069 891 1326 650 
Q 1584 409 2034 409 
Q 2484 409 2743 651 
Q 3003 894 3003 1313 
Q 3003 1734 2745 1975 
Q 2488 2216 2034 2216 
z
M 1403 2484 
Q 997 2584 770 2862 
Q 544 3141 544 3541 
Q 544 4100 942 4425 
Q 1341 4750 2034 4750 
Q 2731 4750 3128 4425 
Q 3525 4100 3525 3541 
Q 3525 3141 3298 2862 
Q 3072 2584 2669 2484 
Q 3125 2378 3379 2068 
Q 3634 1759 3634 1313 
Q 3634 634 3220 271 
Q 2806 -91 2034 -91 
Q 1263 -91 848 271 
Q 434 634 434 1313 
Q 434 1759 690 2068 
Q 947 2378 1403 2484 
z
M 1172 3481 
Q 1172 3119 1398 2916 
Q 1625 2713 2034 2713 
Q 2441 2713 2670 2916 
Q 2900 3119 2900 3481 
Q 2900 3844 2670 4047 
Q 2441 4250 2034 4250 
Q 1625 4250 1398 4047 
Q 1172 3844 1172 3481 
z
" transform="scale(0.015625)"/>
       </defs>
       <use xlink:href="#DejaVuSans-30"/>
       <use xlink:href="#DejaVuSans-2e" transform="translate(63.623047 0)"/>
       <use xlink:href="#DejaVuSans-38" transform="translate(95.410156 0)"/>
      </g>
     </g>
    </g>
    <g id="xtick_6">
     <g id="line2d_11">
      <path d="M 841.260313 246.678254 
L 841.260313 24.48 
" clip-path="url(#pe5959a446e)" style="fill: none; stroke-dasharray: 2.96,1.28; stroke-dashoffset: 0; stroke: #444444; stroke-opacity: 0.7; stroke-width: 0.8"/>
     </g>
     <g id="line2d_12">
      <g>
       <use xlink:href="#mb658c00362" x="841.260313" y="246.678254" style="fill: #aaaaaa; stroke: #aaaaaa; stroke-width: 0.8"/>
      </g>
     </g>
     <g id="text_6">
      <!-- 1.0 -->
      <g style="fill: #aaaaaa" transform="translate(833.30875 261.276691) scale(0.1 -0.1)">
       <defs>
        <path id="DejaVuSans-31" d="M 794 531 
L 1825 531 
L 1825 4091 
L 703 3866 
L 703 4441 
L 1819 4666 
L 2450 4666 
L 2450 531 
L 3481 531 
L 3481 0 
L 794 0 
L 794 531 
z
" transform="scale(0.015625)"/>
       </defs>
       <use xlink:href="#DejaVuSans-31"/>
       <use xlink:href="#DejaVuSans-2e" transform="translate(63.623047 0)"/>
       <use xlink:href="#DejaVuSans-30" transform="translate(95.410156 0)"/>
      </g>
     </g>
    </g>
    <g id="text_7">
     <!-- Position -->
     <g style="fill: #ffffff" transform="translate(422.47625 274.954816) scale(0.1 -0.1)">
      <defs>
       <path id="DejaVuSans-50" d="M 1259 4147 
L 1259 2394 
L 2053 2394 
Q 2494 2394 2734 2622 
Q 2975 2850 2975 3272 
Q 2975 3691 2734 3919 
Q 2494 4147 2053 4147 
L 1259 4147 
z
M 628 4666 
L 2053 4666 
Q 2838 4666 3239 4311 
Q 3641 3956 3641 3272 
Q 3641 2581 3239 2228 
Q 2838 1875 2053 1875 
L 1259 1875 
L 1259 0 
L 628 0 
L 628 4666 
z
" transform="scale(0.015625)"/>
       <path id="DejaVuSans-6f" d="M 1959 3097 
Q 1497 3097 1228 2736 
Q 959 2375 959 1747 
Q 959 1119 1226 758 
Q 1494 397 1959 397 
Q 2419 397 2687 759 
Q 2956 1122 2956 1747 
Q 2956 2369 2687 2733 
Q 2419 3097 1959 3097 
z
M 1959 3584 
Q 2709 3584 3137 3096 
Q 3566 2609 3566 1747 
Q 3566 888 3137 398 
Q 2709 -91 1959 -91 
Q 1206 -91 779 398 
Q 353 888 353 1747 
Q 353 2609 779 3096 
Q 1206 3584 1959 3584 
z
" transform="scale(0.015625)"/>
       <path id="DejaVuSans-73" d="M 2834 3397 
L 2834 2853 
Q 2591 2978 2328 3040 
Q 2066 3103 1784 3103 
Q 1356 3103 1142 2972 
Q 928 2841 928 2578 
Q 928 2378 1081 2264 
Q 1234 2150 1697 2047 
L 1894 2003 
Q 2506 1872 2764 1633 
Q 3022 1394 3022 966 
Q 3022 478 2636 193 
Q 2250 -91 1575 -91 
Q 1294 -91 989 -36 
Q 684 19 347 128 
L 347 722 
Q 666 556 975 473 
Q 1284 391 1588 391 
Q 1994 391 2212 530 
Q 2431 669 2431 922 
Q 2431 1156 2273 1281 
Q 2116 1406 1581 1522 
L 1381 1569 
Q 847 1681 609 1914 
Q 372 2147 372 2553 
Q 372 3047 722 3315 
Q 1072 3584 1716 3584 
Q 2034 3584 2315 3537 
Q 2597 3491 2834 3397 
z
" transform="scale(0.015625)"/>
       <path id="DejaVuSans-69" d="M 603 3500 
L 1178 3500 
L 1178 0 
L 603 0 
L 603 3500 
z
M 603 4863 
L 1178 4863 
L 1178 4134 
L 603 4134 
L 603 4863 
z
" transform="scale(0.015625)"/>
       <path id="DejaVuSans-74" d="M 1172 4494 
L 1172 3500 
L 2356 3500 
L 2356 3053 
L 1172 3053 
L 1172 1153 
Q 1172 725 1289 603 
Q 1406 481 1766 481 
L 2356 481 
L 2356 0 
L 1766 0 
Q 1100 0 847 248 
Q 594 497 594 1153 
L 594 3053 
L 172 3053 
L 172 3500 
L 594 3500 
L 594 4494 
L 1172 4494 
z
" transform="scale(0.015625)"/>
       <path id="DejaVuSans-6e" d="M 3513 2113 
L 3513 0 
L 2938 0 
L 2938 2094 
Q 2938 2591 2744 2837 
Q 2550 3084 2163 3084 
Q 1697 3084 1428 2787 
Q 1159 2491 1159 1978 
L 1159 0 
L 581 0 
L 581 3500 
L 1159 3500 
L 1159 2956 
Q 1366 3272 1645 3428 
Q 1925 3584 2291 3584 
Q 2894 3584 3203 3211 
Q 3513 2838 3513 2113 
z
" transform="scale(0.015625)"/>
      </defs>
      <use xlink:href="#DejaVuSans-50"/>
      <use xlink:href="#DejaVuSans-6f" transform="translate(56.677734 0)"/>
      <use xlink:href="#DejaVuSans-73" transform="translate(117.859375 0)"/>
      <use xlink:href="#DejaVuSans-69" transform="translate(169.958984 0)"/>
      <use xlink:href="#DejaVuSans-74" transform="translate(197.742188 0)"/>
      <use xlink:href="#DejaVuSans-69" transform="translate(236.951172 0)"/>
      <use xlink:href="#DejaVuSans-6f" transform="translate(264.734375 0)"/>
      <use xlink:href="#DejaVuSans-6e" transform="translate(325.916016 0)"/>
     </g>
    </g>
   </g>
   <g id="matplotlib.axis_2">
    <g id="ytick_1">
     <g id="line2d_13">
      <path d="M 42.620313 215.518672 
L 841.260313 215.518672 
" clip-path="url(#pe5959a446e)" style="fill: none; stroke-dasharray: 2.96,1.28; stroke-dashoffset: 0; stroke: #444444; stroke-opacity: 0.7; stroke-width: 0.8"/>
     </g>
     <g id="line2d_14">
      <defs>
       <path id="m3dfea141cb" d="M 0 0 
L -3.5 0 
" style="stroke: #aaaaaa; stroke-width: 0.8"/>
      </defs>
      <g>
       <use xlink:href="#m3dfea141cb" x="42.620313" y="215.518672" style="fill: #aaaaaa; stroke: #aaaaaa; stroke-width: 0.8"/>
      </g>
     </g>
     <g id="text_8">
      <!-- −2 -->
      <g style="fill: #aaaaaa" transform="translate(20.878125 219.317891) scale(0.1 -0.1)">
       <defs>
        <path id="DejaVuSans-2212" d="M 678 2272 
L 4684 2272 
L 4684 1741 
L 678 1741 
L 678 2272 
z
" transform="scale(0.015625)"/>
       </defs>
       <use xlink:href="#DejaVuSans-2212"/>
       <use xlink:href="#DejaVuSans-32" transform="translate(83.789062 0)"/>
      </g>
     </g>
    </g>
    <g id="ytick_2">
     <g id="line2d_15">
      <path d="M 42.620313 175.548899 
L 841.260313 175.548899 
" clip-path="url(#pe5959a446e)" style="fill: none; stroke-dasharray: 2.96,1.28; stroke-dashoffset: 0; stroke: #444444; stroke-opacity: 0.7; stroke-width: 0.8"/>
     </g>
     <g id="line2d_16">
      <g>
       <use xlink:href="#m3dfea141cb" x="42.620313" y="175.548899" style="fill: #aaaaaa; stroke: #aaaaaa; stroke-width: 0.8"/>
      </g>
     </g>
     <g id="text_9">
      <!-- −1 -->
      <g style="fill: #aaaaaa" transform="translate(20.878125 179.348118) scale(0.1 -0.1)">
       <use xlink:href="#DejaVuSans-2212"/>
       <use xlink:href="#DejaVuSans-31" transform="translate(83.789062 0)"/>
      </g>
     </g>
    </g>
    <g id="ytick_3">
     <g id="line2d_17">
      <path d="M 42.620313 135.579127 
L 841.260313 135.579127 
" clip-path="url(#pe5959a446e)" style="fill: none; stroke-dasharray: 2.96,1.28; stroke-dashoffset: 0; stroke: #444444; stroke-opacity: 0.7; stroke-width: 0.8"/>
     </g>
     <g id="line2d_18">
      <g>
       <use xlink:href="#m3dfea141cb" x="42.620313" y="135.579127" style="fill: #aaaaaa; stroke: #aaaaaa; stroke-width: 0.8"/>
      </g>
     </g>
     <g id="text_10">
      <!-- 0 -->
      <g style="fill: #aaaaaa" transform="translate(29.257813 139.378346) scale(0.1 -0.1)">
       <use xlink:href="#DejaVuSans-30"/>
      </g>
     </g>
    </g>
    <g id="ytick_4">
     <g id="line2d_19">
      <path d="M 42.620313 95.609354 
L 841.260313 95.609354 
" clip-path="url(#pe5959a446e)" style="fill: none; stroke-dasharray: 2.96,1.28; stroke-dashoffset: 0; stroke: #444444; stroke-opacity: 0.7; stroke-width: 0.8"/>
     </g>
     <g id="line2d_20">
      <g>
       <use xlink:href="#m3dfea141cb" x="42.620313" y="95.609354" style="fill: #aaaaaa; stroke: #aaaaaa; stroke-width: 0.8"/>
      </g>
     </g>
     <g id="text_11">
      <!-- 1 -->
      <g style="fill: #aaaaaa" transform="translate(29.257813 99.408573) scale(0.1 -0.1)">
       <use xlink:href="#DejaVuSans-31"/>
      </g>
     </g>
    </g>
    <g id="ytick_5">
     <g id="line2d_21">
      <path d="M 42.620313 55.639582 
L 841.260313 55.639582 
" clip-path="url(#pe5959a446e)" style="fill: none; stroke-dasharray: 2.96,1.28; stroke-dashoffset: 0; stroke: #444444; stroke-opacity: 0.7; stroke-width: 0.8"/>
     </g>
     <g id="line2d_22">
      <g>
       <use xlink:href="#m3dfea141cb" x="42.620313" y="55.639582" style="fill: #aaaaaa; stroke: #aaaaaa; stroke-width: 0.8"/>
      </g>
     </g>
     <g id="text_12">
      <!-- 2 -->
      <g style="fill: #aaaaaa" transform="translate(29.257813 59.438801) scale(0.1 -0.1)">
       <use xlink:href="#DejaVuSans-32"/>
      </g>
     </g>
    </g>
    <g id="text_13">
     <!-- Value -->
     <g style="fill: #ffffff" transform="translate(14.798438 149.310377) rotate(-90) scale(0.1 -0.1)">
      <defs>
       <path id="DejaVuSans-56" d="M 1831 0 
L 50 4666 
L 709 4666 
L 2188 738 
L 3669 4666 
L 4325 4666 
L 2547 0 
L 1831 0 
z
" transform="scale(0.015625)"/>
       <path id="DejaVuSans-61" d="M 2194 1759 
Q 1497 1759 1228 1600 
Q 959 1441 959 1056 
Q 959 750 1161 570 
Q 1363 391 1709 391 
Q 2188 391 2477 730 
Q 2766 1069 2766 1631 
L 2766 1759 
L 2194 1759 
z
M 3341 1997 
L 3341 0 
L 2766 0 
L 2766 531 
Q 2569 213 2275 61 
Q 1981 -91 1556 -91 
Q 1019 -91 701 211 
Q 384 513 384 1019 
Q 384 1609 779 1909 
Q 1175 2209 1959 2209 
L 2766 2209 
L 2766 2266 
Q 2766 2663 2505 2880 
Q 2244 3097 1772 3097 
Q 1472 3097 1187 3025 
Q 903 2953 641 2809 
L 641 3341 
Q 956 3463 1253 3523 
Q 1550 3584 1831 3584 
Q 2591 3584 2966 3190 
Q 3341 2797 3341 1997 
z
" transform="scale(0.015625)"/>
       <path id="DejaVuSans-6c" d="M 603 4863 
L 1178 4863 
L 1178 0 
L 603 0 
L 603 4863 
z
" transform="scale(0.015625)"/>
       <path id="DejaVuSans-75" d="M 544 1381 
L 544 3500 
L 1119 3500 
L 1119 1403 
Q 1119 906 1312 657 
Q 1506 409 1894 409 
Q 2359 409 2629 706 
Q 2900 1003 2900 1516 
L 2900 3500 
L 3475 3500 
L 3475 0 
L 2900 0 
L 2900 538 
Q 2691 219 2414 64 
Q 2138 -91 1772 -91 
Q 1169 -91 856 284 
Q 544 659 544 1381 
z
M 1991 3584 
L 1991 3584 
z
" transform="scale(0.015625)"/>
       <path id="DejaVuSans-65" d="M 3597 1894 
L 3597 1613 
L 953 1613 
Q 991 1019 1311 708 
Q 1631 397 2203 397 
Q 2534 397 2845 478 
Q 3156 559 3463 722 
L 3463 178 
Q 3153 47 2828 -22 
Q 2503 -91 2169 -91 
Q 1331 -91 842 396 
Q 353 884 353 1716 
Q 353 2575 817 3079 
Q 1281 3584 2069 3584 
Q 2775 3584 3186 3129 
Q 3597 2675 3597 1894 
z
M 3022 2063 
Q 3016 2534 2758 2815 
Q 2500 3097 2075 3097 
Q 1594 3097 1305 2825 
Q 1016 2553 972 2059 
L 3022 2063 
z
" transform="scale(0.015625)"/>
      </defs>
      <use xlink:href="#DejaVuSans-56"/>
      <use xlink:href="#DejaVuSans-61" transform="translate(60.658203 0)"/>
      <use xlink:href="#DejaVuSans-6c" transform="translate(121.9375 0)"/>
      <use xlink:href="#DejaVuSans-75" transform="translate(149.720703 0)"/>
      <use xlink:href="#DejaVuSans-65" transform="translate(213.099609 0)"/>
     </g>
    </g>
   </g>
   <g id="line2d_23">
    <path d="M 42.620313 135.579127 
L 47.962386 132.812737 
L 55.975496 128.33898 
L 63.988607 123.522149 
L 72.001717 118.413921 
L 80.014828 113.065971 
L 90.698975 105.651791 
L 106.725195 94.171656 
L 128.09349 78.838014 
L 138.777637 71.435317 
L 146.790747 66.09933 
L 154.803858 61.005935 
L 162.816968 56.206808 
L 170.830078 51.753625 
L 176.172152 49.002547 
L 181.514226 46.443501 
L 186.856299 44.091798 
L 192.198373 41.962751 
L 197.540446 40.071669 
L 202.88252 38.433866 
L 208.224593 37.064652 
L 213.566667 35.979339 
L 218.908741 35.193238 
L 224.250814 34.721662 
L 229.592888 34.579921 
L 234.934961 34.783326 
L 240.277035 35.347191 
L 245.619108 36.239475 
L 253.632219 37.865366 
L 261.645329 39.794856 
L 269.65844 42.015025 
L 277.67155 44.512955 
L 285.68466 47.275726 
L 293.697771 50.290419 
L 301.710881 53.544115 
L 309.723991 57.023895 
L 317.737102 60.71684 
L 325.750212 64.610031 
L 336.434359 70.090117 
L 347.118506 75.872605 
L 357.802654 81.926873 
L 368.486801 88.222296 
L 381.841985 96.38405 
L 395.197169 104.814951 
L 411.223389 115.203094 
L 432.591684 129.344232 
L 475.328272 157.703065 
L 491.354493 168.048144 
L 504.709677 176.430001 
L 518.064861 184.530747 
L 528.749008 190.768753 
L 539.433155 196.757946 
L 550.117302 202.467705 
L 560.80145 207.867405 
L 568.81456 211.695283 
L 576.82767 215.318608 
L 584.840781 218.724463 
L 592.853891 221.899927 
L 600.867001 224.832081 
L 608.880112 227.508007 
L 616.893222 229.914785 
L 624.906333 232.039497 
L 632.919443 233.869222 
L 640.932553 235.391043 
L 646.274627 236.139009 
L 651.6167 236.520731 
L 656.958774 236.549649 
L 662.300848 236.241076 
L 667.642921 235.610324 
L 672.984995 234.672703 
L 678.327068 233.443525 
L 683.669142 231.938103 
L 689.011216 230.171747 
L 694.353289 228.159768 
L 699.695363 225.917479 
L 705.037436 223.460191 
L 710.37951 220.803215 
L 715.721583 217.961863 
L 723.734694 213.387623 
L 731.747804 208.484665 
L 739.760915 203.304664 
L 750.445062 196.056358 
L 761.129209 188.529893 
L 803.865797 158.092282 
L 811.878908 152.744333 
L 819.892018 147.636105 
L 827.905129 142.819274 
L 835.918239 138.345516 
L 841.260313 135.579127 
L 841.260313 135.579127 
" clip-path="url(#pe5959a446e)" style="fill: none; stroke: #ff9500; stroke-width: 2; stroke-linecap: square"/>
   </g>
   <g id="line2d_24">
    <path d="M 42.620313 135.579127 
L 240.277035 56.441651 
L 242.948072 55.906938 
L 640.932553 215.251315 
L 643.60359 214.716603 
L 841.260313 135.579127 
L 841.260313 135.579127 
" clip-path="url(#pe5959a446e)" style="fill: none; stroke: #00b9f1; stroke-width: 2; stroke-linecap: square"/>
   </g>
   <g id="line2d_25">
    <path d="M 42.620313 135.579127 
L 50.633423 143.808196 
L 58.646533 151.65389 
L 66.659644 159.119118 
L 74.672754 166.206785 
L 82.685864 172.919799 
L 90.698975 179.261066 
L 98.712085 185.233493 
L 106.725195 190.839987 
L 114.738306 196.083455 
L 122.751416 200.966803 
L 130.764527 205.492938 
L 138.777637 209.664767 
L 146.790747 213.485197 
L 154.803858 216.957134 
L 162.816968 220.083486 
L 170.830078 222.86716 
L 178.843189 225.311061 
L 186.856299 227.418097 
L 194.869409 229.191174 
L 202.88252 230.6332 
L 210.89563 231.747081 
L 218.908741 232.535724 
L 226.921851 233.002036 
L 234.934961 233.148923 
L 242.948072 232.979293 
L 250.961182 232.496052 
L 258.974292 231.702107 
L 266.987403 230.600364 
L 275.000513 229.193731 
L 283.013624 227.485115 
L 291.026734 225.477421 
L 299.039844 223.173557 
L 307.052955 220.57643 
L 315.066065 217.688947 
L 323.079175 214.514014 
L 331.092286 211.054538 
L 339.105396 207.313426 
L 347.118506 203.293584 
L 355.131617 198.99792 
L 363.144727 194.42934 
L 371.157838 189.590752 
L 379.170948 184.485061 
L 387.184058 179.115175 
L 395.197169 173.484 
L 403.210279 167.594443 
L 411.223389 161.449412 
L 419.2365 155.051812 
L 427.24961 148.404551 
L 435.262721 141.510536 
L 451.288941 127.482932 
L 456.631015 123.144505 
L 461.973088 119.011204 
L 467.315162 115.079585 
L 472.657236 111.346202 
L 477.999309 107.80761 
L 483.341383 104.460364 
L 488.683456 101.301019 
L 494.02553 98.326129 
L 499.367603 95.532251 
L 504.709677 92.915938 
L 510.051751 90.473746 
L 515.393824 88.20223 
L 520.735898 86.097944 
L 526.077971 84.157443 
L 531.420045 82.377282 
L 539.433155 80.000143 
L 547.446266 77.964391 
L 555.459376 76.258398 
L 563.472486 74.870539 
L 571.485597 73.789184 
L 579.498707 73.002708 
L 587.511818 72.499482 
L 595.524928 72.267881 
L 603.538038 72.296276 
L 611.551149 72.57304 
L 619.564259 73.086547 
L 627.577369 73.825169 
L 635.59048 74.777279 
L 643.60359 75.931249 
L 651.6167 77.275454 
L 659.629811 78.798264 
L 670.313958 81.086414 
L 680.998105 83.643855 
L 691.682252 86.443027 
L 702.366399 89.456368 
L 715.721583 93.482234 
L 729.076767 97.745847 
L 745.102988 103.100217 
L 766.471282 110.490581 
L 806.536834 124.403228 
L 822.563055 129.726376 
L 835.918239 133.954103 
L 841.260313 135.579127 
L 841.260313 135.579127 
" clip-path="url(#pe5959a446e)" style="fill: none; stroke: #fb02fe; stroke-width: 2; stroke-linecap: square"/>
   </g>
   <g id="patch_3">
    <path d="M 42.620313 246.678254 
L 42.620313 24.48 
" style="fill: none; stroke: #444444; stroke-width: 0.8; stroke-linejoin: miter; stroke-linecap: square"/>
   </g>
   <g id="patch_4">
    <path d="M 841.260313 246.678254 
L 841.260313 24.48 
" style="fill: none; stroke: #444444; stroke-width: 0.8; stroke-linejoin: miter; stroke-linecap: square"/>
   </g>
   <g id="patch_5">
    <path d="M 42.620313 246.678254 
L 841.260313 246.678254 
" style="fill: none; stroke: #444444; stroke-width: 0.8; stroke-linejoin: miter; stroke-linecap: square"/>
   </g>
   <g id="patch_6">
    <path d="M 42.620313 24.48 
L 841.260313 24.48 
" style="fill: none; stroke: #444444; stroke-width: 0.8; stroke-linejoin: miter; stroke-linecap: square"/>
   </g>
   <g id="text_14">
    <!-- Spline: position -->
    <g style="fill: #ffffff" transform="translate(395.800313 18.48) scale(0.12 -0.12)">
     <defs>
      <path id="DejaVuSans-53" d="M 3425 4513 
L 3425 3897 
Q 3066 4069 2747 4153 
Q 2428 4238 2131 4238 
Q 1616 4238 1336 4038 
Q 1056 3838 1056 3469 
Q 1056 3159 1242 3001 
Q 1428 2844 1947 2747 
L 2328 2669 
Q 3034 2534 3370 2195 
Q 3706 1856 3706 1288 
Q 3706 609 3251 259 
Q 2797 -91 1919 -91 
Q 1588 -91 1214 -16 
Q 841 59 441 206 
L 441 856 
Q 825 641 1194 531 
Q 1563 422 1919 422 
Q 2459 422 2753 634 
Q 3047 847 3047 1241 
Q 3047 1584 2836 1778 
Q 2625 1972 2144 2069 
L 1759 2144 
Q 1053 2284 737 2584 
Q 422 2884 422 3419 
Q 422 4038 858 4394 
Q 1294 4750 2059 4750 
Q 2388 4750 2728 4690 
Q 3069 4631 3425 4513 
z
" transform="scale(0.015625)"/>
      <path id="DejaVuSans-70" d="M 1159 525 
L 1159 -1331 
L 581 -1331 
L 581 3500 
L 1159 3500 
L 1159 2969 
Q 1341 3281 1617 3432 
Q 1894 3584 2278 3584 
Q 2916 3584 3314 3078 
Q 3713 2572 3713 1747 
Q 3713 922 3314 415 
Q 2916 -91 2278 -91 
Q 1894 -91 1617 61 
Q 1341 213 1159 525 
z
M 3116 1747 
Q 3116 2381 2855 2742 
Q 2594 3103 2138 3103 
Q 1681 3103 1420 2742 
Q 1159 2381 1159 1747 
Q 1159 1113 1420 752 
Q 1681 391 2138 391 
Q 2594 391 2855 752 
Q 3116 1113 3116 1747 
z
" transform="scale(0.015625)"/>
      <path id="DejaVuSans-3a" d="M 750 794 
L 1409 794 
L 1409 0 
L 750 0 
L 750 794 
z
M 750 3309 
L 1409 3309 
L 1409 2516 
L 750 2516 
L 750 3309 
z
" transform="scale(0.015625)"/>
      <path id="DejaVuSans-20" transform="scale(0.015625)"/>
     </defs>
     <use xlink:href="#DejaVuSans-53"/>
     <use xlink:href="#DejaVuSans-70" transform="translate(63.476562 0)"/>
     <use xlink:href="#DejaVuSans-6c" transform="translate(126.953125 0)"/>
     <use xlink:href="#DejaVuSans-69" transform="translate(154.736328 0)"/>
     <use xlink:href="#DejaVuSans-6e" transform="translate(182.519531 0)"/>
     <use xlink:href="#DejaVuSans-65" transform="translate(245.898438 0)"/>
     <use xlink:href="#DejaVuSans-3a" transform="translate(307.421875 0)"/>
     <use xlink:href="#DejaVuSans-20" transform="translate(341.113281 0)"/>
     <use xlink:href="#DejaVuSans-70" transform="translate(372.900391 0)"/>
     <use xlink:href="#DejaVuSans-6f" transform="translate(436.376953 0)"/>
     <use xlink:href="#DejaVuSans-73" transform="translate(497.558594 0)"/>
     <use xlink:href="#DejaVuSans-69" transform="translate(549.658203 0)"/>
     <use xlink:href="#DejaVuSans-74" transform="translate(577.441406 0)"/>
     <use xlink:href="#DejaVuSans-69" transform="translate(616.650391 0)"/>
     <use xlink:href="#DejaVuSans-6f" transform="translate(644.433594 0)"/>
     <use xlink:href="#DejaVuSans-6e" transform="translate(705.615234 0)"/>
    </g>
   </g>
   <g id="PathCollection_1">
    <defs>
     <path id="md14c428880" d="M 0 3.872983 
C 1.027127 3.872983 2.012324 3.464901 2.738613 2.738613 
C 3.464901 2.012324 3.872983 1.027127 3.872983 0 
C 3.872983 -1.027127 3.464901 -2.012324 2.738613 -2.738613 
C 2.012324 -3.464901 1.027127 -3.872983 0 -3.872983 
C -1.027127 -3.872983 -2.012324 -3.464901 -2.738613 -2.738613 
C -3.464901 -2.012324 -3.872983 -1.027127 -3.872983 0 
C -3.872983 1.027127 -3.464901 2.012324 -2.738613 2.738613 
C -2.012324 3.464901 -1.027127 3.872983 0 3.872983 
z
" style="stroke: #ff9500"/>
    </defs>
    <g clip-path="url(#pe5959a446e)">
     <use xlink:href="#md14c428880" x="42.620313" y="135.579127" style="fill: #ff9500; stroke: #ff9500"/>
     <use xlink:href="#md14c428880" x="242.280313" y="35.654696" style="fill: #ff9500; stroke: #ff9500"/>
     <use xlink:href="#md14c428880" x="641.600312" y="235.503558" style="fill: #ff9500; stroke: #ff9500"/>
     <use xlink:href="#md14c428880" x="841.260313" y="135.579127" style="fill: #ff9500; stroke: #ff9500"/>
    </g>
   </g>
   <g id="PathCollection_2">
    <defs>
     <path id="ma8fca35a11" d="M 0 3.872983 
C 1.027127 3.872983 2.012324 3.464901 2.738613 2.738613 
C 3.464901 2.012324 3.872983 1.027127 3.872983 0 
C 3.872983 -1.027127 3.464901 -2.012324 2.738613 -2.738613 
C 2.012324 -3.464901 1.027127 -3.872983 0 -3.872983 
C -1.027127 -3.872983 -2.012324 -3.464901 -2.738613 -2.738613 
C -3.464901 -2.012324 -3.872983 -1.027127 -3.872983 0 
C -3.872983 1.027127 -3.464901 2.012324 -2.738613 2.738613 
C -2.012324 3.464901 -1.027127 3.872983 0 3.872983 
z
" style="stroke: #00b9f1"/>
    </defs>
    <g clip-path="url(#pe5959a446e)">
     <use xlink:href="#ma8fca35a11" x="42.620313" y="135.579127" style="fill: #00b9f1; stroke: #00b9f1"/>
     <use xlink:href="#ma8fca35a11" x="242.280313" y="55.639582" style="fill: #00b9f1; stroke: #00b9f1"/>
     <use xlink:href="#ma8fca35a11" x="441.940313" y="135.579127" style="fill: #00b9f1; stroke: #00b9f1"/>
     <use xlink:href="#ma8fca35a11" x="641.600312" y="215.518672" style="fill: #00b9f1; stroke: #00b9f1"/>
     <use xlink:href="#ma8fca35a11" x="841.260313" y="135.579127" style="fill: #00b9f1; stroke: #00b9f1"/>
    </g>
   </g>
   <g id="PathCollection_3">
    <defs>
     <path id="md5f34cb897" d="M 0 3.872983 
C 1.027127 3.872983 2.012324 3.464901 2.738613 2.738613 
C 3.464901 2.012324 3.872983 1.027127 3.872983 0 
C 3.872983 -1.027127 3.464901 -2.012324 2.738613 -2.738613 
C 2.012324 -3.464901 1.027127 -3.872983 0 -3.872983 
C -1.027127 -3.872983 -2.012324 -3.464901 -2.738613 -2.738613 
C -3.464901 -2.012324 -3.872983 -1.027127 -3.872983 0 
C -3.872983 1.027127 -3.464901 2.012324 -2.738613 2.738613 
C -2.012324 3.464901 -1.027127 3.872983 0 3.872983 
z
" style="stroke: #fb02fe"/>
    </defs>
    <g clip-path="url(#pe5959a446e)">
     <use xlink:href="#md5f34cb897" x="42.620313" y="135.579127" style="fill: #fb02fe; stroke: #fb02fe"/>
     <use xlink:href="#md5f34cb897" x="441.940313" y="135.579127" style="fill: #fb02fe; stroke: #fb02fe"/>
     <use xlink:href="#md5f34cb897" x="841.260313" y="135.579127" style="fill: #fb02fe; stroke: #fb02fe"/>
    </g>
   </g>
   <g id="legend_1">
    <g id="patch_7">
     <path d="M 771.468125 76.514375 
L 834.260313 76.514375 
Q 836.260313 76.514375 836.260313 74.514375 
L 836.260313 31.48 
Q 836.260313 29.48 834.260313 29.48 
L 771.468125 29.48 
Q 769.468125 29.48 769.468125 31.48 
L 769.468125 74.514375 
Q 769.468125 76.514375 771.468125 76.514375 
z
" style="fill: #121212; opacity: 0.8; stroke: #444444; stroke-linejoin: miter"/>
    </g>
    <g id="line2d_26">
     <path d="M 773.468125 37.578438 
L 783.468125 37.578438 
L 793.468125 37.578438 
" style="fill: none; stroke: #ff9500; stroke-width: 2; stroke-linecap: square"/>
    </g>
    <g id="text_15">
     <!-- cubic -->
     <g style="fill: #ffffff" transform="translate(801.468125 41.078438) scale(0.1 -0.1)">
      <defs>
       <path id="DejaVuSans-63" d="M 3122 3366 
L 3122 2828 
Q 2878 2963 2633 3030 
Q 2388 3097 2138 3097 
Q 1578 3097 1268 2742 
Q 959 2388 959 1747 
Q 959 1106 1268 751 
Q 1578 397 2138 397 
Q 2388 397 2633 464 
Q 2878 531 3122 666 
L 3122 134 
Q 2881 22 2623 -34 
Q 2366 -91 2075 -91 
Q 1284 -91 818 406 
Q 353 903 353 1747 
Q 353 2603 823 3093 
Q 1294 3584 2113 3584 
Q 2378 3584 2631 3529 
Q 2884 3475 3122 3366 
z
" transform="scale(0.015625)"/>
       <path id="DejaVuSans-62" d="M 3116 1747 
Q 3116 2381 2855 2742 
Q 2594 3103 2138 3103 
Q 1681 3103 1420 2742 
Q 1159 2381 1159 1747 
Q 1159 1113 1420 752 
Q 1681 391 2138 391 
Q 2594 391 2855 752 
Q 3116 1113 3116 1747 
z
M 1159 2969 
Q 1341 3281 1617 3432 
Q 1894 3584 2278 3584 
Q 2916 3584 3314 3078 
Q 3713 2572 3713 1747 
Q 3713 922 3314 415 
Q 2916 -91 2278 -91 
Q 1894 -91 1617 61 
Q 1341 213 1159 525 
L 1159 0 
L 581 0 
L 581 4863 
L 1159 4863 
L 1159 2969 
z
" transform="scale(0.015625)"/>
      </defs>
      <use xlink:href="#DejaVuSans-63"/>
      <use xlink:href="#DejaVuSans-75" transform="translate(54.980469 0)"/>
      <use xlink:href="#DejaVuSans-62" transform="translate(118.359375 0)"/>
      <use xlink:href="#DejaVuSans-69" transform="translate(181.835938 0)"/>
      <use xlink:href="#DejaVuSans-63" transform="translate(209.619141 0)"/>
     </g>
    </g>
    <g id="line2d_27">
     <path d="M 773.468125 52.256563 
L 783.468125 52.256563 
L 793.468125 52.256563 
" style="fill: none; stroke: #00b9f1; stroke-width: 2; stroke-linecap: square"/>
    </g>
    <g id="text_16">
     <!-- linear -->
     <g style="fill: #ffffff" transform="translate(801.468125 55.756563) scale(0.1 -0.1)">
      <defs>
       <path id="DejaVuSans-72" d="M 2631 2963 
Q 2534 3019 2420 3045 
Q 2306 3072 2169 3072 
Q 1681 3072 1420 2755 
Q 1159 2438 1159 1844 
L 1159 0 
L 581 0 
L 581 3500 
L 1159 3500 
L 1159 2956 
Q 1341 3275 1631 3429 
Q 1922 3584 2338 3584 
Q 2397 3584 2469 3576 
Q 2541 3569 2628 3553 
L 2631 2963 
z
" transform="scale(0.015625)"/>
      </defs>
      <use xlink:href="#DejaVuSans-6c"/>
      <use xlink:href="#DejaVuSans-69" transform="translate(27.783203 0)"/>
      <use xlink:href="#DejaVuSans-6e" transform="translate(55.566406 0)"/>
      <use xlink:href="#DejaVuSans-65" transform="translate(118.945312 0)"/>
      <use xlink:href="#DejaVuSans-61" transform="translate(180.46875 0)"/>
      <use xlink:href="#DejaVuSans-72" transform="translate(241.748047 0)"/>
     </g>
    </g>
    <g id="line2d_28">
     <path d="M 773.468125 66.934688 
L 783.468125 66.934688 
L 793.468125 66.934688 
" style="fill: none; stroke: #fb02fe; stroke-width: 2; stroke-linecap: square"/>
    </g>
    <g id="text_17">
     <!-- bezier -->
     <g style="fill: #ffffff" transform="translate(801.468125 70.434688) scale(0.1 -0.1)">
      <defs>
       <path id="DejaVuSans-7a" d="M 353 3500 
L 3084 3500 
L 3084 2975 
L 922 459 
L 3084 459 
L 3084 0 
L 275 0 
L 275 525 
L 2438 3041 
L 353 3041 
L 353 3500 
z
" transform="scale(0.015625)"/>
      </defs>
      <use xlink:href="#DejaVuSans-62"/>
      <use xlink:href="#DejaVuSans-65" transform="translate(63.476562 0)"/>
      <use xlink:href="#DejaVuSans-7a" transform="translate(125 0)"/>
      <use xlink:href="#DejaVuSans-69" transform="translate(177.490234 0)"/>
      <use xlink:href="#DejaVuSans-65" transform="translate(205.273438 0)"/>
      <use xlink:href="#DejaVuSans-72" transform="translate(266.796875 0)"/>
     </g>
    </g>
   </g>
  </g>
  <g id="axes_2">
   <g id="patch_8">
    <path d="M 42.620313 529.72 
L 841.260313 529.72 
L 841.260313 307.521746 
L 42.620313 307.521746 
z
" style="fill: #121212"/>
   </g>
   <g id="matplotlib.axis_3">
    <g id="xtick_7">
     <g id="line2d_29">
      <path d="M 42.620313 529.72 
L 42.620313 307.521746 
" clip-path="url(#p659673d0e7)" style="fill: none; stroke-dasharray: 2.96,1.28; stroke-dashoffset: 0; stroke: #444444; stroke-opacity: 0.7; stroke-width: 0.8"/>
     </g>
     <g id="line2d_30">
      <g>
       <use xlink:href="#mb658c00362" x="42.620313" y="529.72" style="fill: #aaaaaa; stroke: #aaaaaa; stroke-width: 0.8"/>
      </g>
     </g>
     <g id="text_18">
      <!-- 0.0 -->
      <g style="fill: #aaaaaa" transform="translate(34.66875 544.318437) scale(0.1 -0.1)">
       <use xlink:href="#DejaVuSans-30"/>
       <use xlink:href="#DejaVuSans-2e" transform="translate(63.623047 0)"/>
       <use xlink:href="#DejaVuSans-30" transform="translate(95.410156 0)"/>
      </g>
     </g>
    </g>
    <g id="xtick_8">
     <g id="line2d_31">
      <path d="M 202.348313 529.72 
L 202.348313 307.521746 
" clip-path="url(#p659673d0e7)" style="fill: none; stroke-dasharray: 2.96,1.28; stroke-dashoffset: 0; stroke: #444444; stroke-opacity: 0.7; stroke-width: 0.8"/>
     </g>
     <g id="line2d_32">
      <g>
       <use xlink:href="#mb658c00362" x="202.348313" y="529.72" style="fill: #aaaaaa; stroke: #aaaaaa; stroke-width: 0.8"/>
      </g>
     </g>
     <g id="text_19">
      <!-- 0.2 -->
      <g style="fill: #aaaaaa" transform="translate(194.39675 544.318437) scale(0.1 -0.1)">
       <use xlink:href="#DejaVuSans-30"/>
       <use xlink:href="#DejaVuSans-2e" transform="translate(63.623047 0)"/>
       <use xlink:href="#DejaVuSans-32" transform="translate(95.410156 0)"/>
      </g>
     </g>
    </g>
    <g id="xtick_9">
     <g id="line2d_33">
      <path d="M 362.076313 529.72 
L 362.076313 307.521746 
" clip-path="url(#p659673d0e7)" style="fill: none; stroke-dasharray: 2.96,1.28; stroke-dashoffset: 0; stroke: #444444; stroke-opacity: 0.7; stroke-width: 0.8"/>
     </g>
     <g id="line2d_34">
      <g>
       <use xlink:href="#mb658c00362" x="362.076313" y="529.72" style="fill: #aaaaaa; stroke: #aaaaaa; stroke-width: 0.8"/>
      </g>
     </g>
     <g id="text_20">
      <!-- 0.4 -->
      <g style="fill: #aaaaaa" transform="translate(354.12475 544.318437) scale(0.1 -0.1)">
       <use xlink:href="#DejaVuSans-30"/>
       <use xlink:href="#DejaVuSans-2e" transform="translate(63.623047 0)"/>
       <use xlink:href="#DejaVuSans-34" transform="translate(95.410156 0)"/>
      </g>
     </g>
    </g>
    <g id="xtick_10">
     <g id="line2d_35">
      <path d="M 521.804313 529.72 
L 521.804313 307.521746 
" clip-path="url(#p659673d0e7)" style="fill: none; stroke-dasharray: 2.96,1.28; stroke-dashoffset: 0; stroke: #444444; stroke-opacity: 0.7; stroke-width: 0.8"/>
     </g>
     <g id="line2d_36">
      <g>
       <use xlink:href="#mb658c00362" x="521.804313" y="529.72" style="fill: #aaaaaa; stroke: #aaaaaa; stroke-width: 0.8"/>
      </g>
     </g>
     <g id="text_21">
      <!-- 0.6 -->
      <g style="fill: #aaaaaa" transform="translate(513.85275 544.318437) scale(0.1 -0.1)">
       <use xlink:href="#DejaVuSans-30"/>
       <use xlink:href="#DejaVuSans-2e" transform="translate(63.623047 0)"/>
       <use xlink:href="#DejaVuSans-36" transform="translate(95.410156 0)"/>
      </g>
     </g>
    </g>
    <g id="xtick_11">
     <g id="line2d_37">
      <path d="M 681.532313 529.72 
L 681.532313 307.521746 
" clip-path="url(#p659673d0e7)" style="fill: none; stroke-dasharray: 2.96,1.28; stroke-dashoffset: 0; stroke: #444444; stroke-opacity: 0.7; stroke-width: 0.8"/>
     </g>
     <g id="line2d_38">
      <g>
       <use xlink:href="#mb658c00362" x="681.532313" y="529.72" style="fill: #aaaaaa; stroke: #aaaaaa; stroke-width: 0.8"/>
      </g>
     </g>
     <g id="text_22">
      <!-- 0.8 -->
      <g style="fill: #aaaaaa" transform="translate(673.58075 544.318437) scale(0.1 -0.1)">
       <use xlink:href="#DejaVuSans-30"/>
       <use xlink:href="#DejaVuSans-2e" transform="translate(63.623047 0)"/>
       <use xlink:href="#DejaVuSans-38" transform="translate(95.410156 0)"/>
      </g>
     </g>
    </g>
    <g id="xtick_12">
     <g id="line2d_39">
      <path d="M 841.260313 529.72 
L 841.260313 307.521746 
" clip-path="url(#p659673d0e7)" style="fill: none; stroke-dasharray: 2.96,1.28; stroke-dashoffset: 0; stroke: #444444; stroke-opacity: 0.7; stroke-width: 0.8"/>
     </g>
     <g id="line2d_40">
      <g>
       <use xlink:href="#mb658c00362" x="841.260313" y="529.72" style="fill: #aaaaaa; stroke: #aaaaaa; stroke-width: 0.8"/>
      </g>
     </g>
     <g id="text_23">
      <!-- 1.0 -->
      <g style="fill: #aaaaaa" transform="translate(833.30875 544.318437) scale(0.1 -0.1)">
       <use xlink:href="#DejaVuSans-31"/>
       <use xlink:href="#DejaVuSans-2e" transform="translate(63.623047 0)"/>
       <use xlink:href="#DejaVuSans-30" transform="translate(95.410156 0)"/>
      </g>
     </g>
    </g>
    <g id="text_24">
     <!-- Position -->
     <g style="fill: #ffffff" transform="translate(422.47625 557.996562) scale(0.1 -0.1)">
      <use xlink:href="#DejaVuSans-50"/>
      <use xlink:href="#DejaVuSans-6f" transform="translate(56.677734 0)"/>
      <use xlink:href="#DejaVuSans-73" transform="translate(117.859375 0)"/>
      <use xlink:href="#DejaVuSans-69" transform="translate(169.958984 0)"/>
      <use xlink:href="#DejaVuSans-74" transform="translate(197.742188 0)"/>
      <use xlink:href="#DejaVuSans-69" transform="translate(236.951172 0)"/>
      <use xlink:href="#DejaVuSans-6f" transform="translate(264.734375 0)"/>
      <use xlink:href="#DejaVuSans-6e" transform="translate(325.916016 0)"/>
     </g>
    </g>
   </g>
   <g id="matplotlib.axis_4">
    <g id="ytick_6">
     <g id="line2d_41">
      <path d="M 42.620313 519.620079 
L 841.260313 519.620079 
" clip-path="url(#p659673d0e7)" style="fill: none; stroke-dasharray: 2.96,1.28; stroke-dashoffset: 0; stroke: #444444; stroke-opacity: 0.7; stroke-width: 0.8"/>
     </g>
     <g id="line2d_42">
      <g>
       <use xlink:href="#m3dfea141cb" x="42.620313" y="519.620079" style="fill: #aaaaaa; stroke: #aaaaaa; stroke-width: 0.8"/>
      </g>
     </g>
     <g id="text_25">
      <!-- −3 -->
      <g style="fill: #aaaaaa" transform="translate(20.878125 523.419298) scale(0.1 -0.1)">
       <defs>
        <path id="DejaVuSans-33" d="M 2597 2516 
Q 3050 2419 3304 2112 
Q 3559 1806 3559 1356 
Q 3559 666 3084 287 
Q 2609 -91 1734 -91 
Q 1441 -91 1130 -33 
Q 819 25 488 141 
L 488 750 
Q 750 597 1062 519 
Q 1375 441 1716 441 
Q 2309 441 2620 675 
Q 2931 909 2931 1356 
Q 2931 1769 2642 2001 
Q 2353 2234 1838 2234 
L 1294 2234 
L 1294 2753 
L 1863 2753 
Q 2328 2753 2575 2939 
Q 2822 3125 2822 3475 
Q 2822 3834 2567 4026 
Q 2313 4219 1838 4219 
Q 1578 4219 1281 4162 
Q 984 4106 628 3988 
L 628 4550 
Q 988 4650 1302 4700 
Q 1616 4750 1894 4750 
Q 2613 4750 3031 4423 
Q 3450 4097 3450 3541 
Q 3450 3153 3228 2886 
Q 3006 2619 2597 2516 
z
" transform="scale(0.015625)"/>
       </defs>
       <use xlink:href="#DejaVuSans-2212"/>
       <use xlink:href="#DejaVuSans-33" transform="translate(83.789062 0)"/>
      </g>
     </g>
    </g>
    <g id="ytick_7">
     <g id="line2d_43">
      <path d="M 42.620313 482.892865 
L 841.260313 482.892865 
" clip-path="url(#p659673d0e7)" style="fill: none; stroke-dasharray: 2.96,1.28; stroke-dashoffset: 0; stroke: #444444; stroke-opacity: 0.7; stroke-width: 0.8"/>
     </g>
     <g id="line2d_44">
      <g>
       <use xlink:href="#m3dfea141cb" x="42.620313" y="482.892865" style="fill: #aaaaaa; stroke: #aaaaaa; stroke-width: 0.8"/>
      </g>
     </g>
     <g id="text_26">
      <!-- −2 -->
      <g style="fill: #aaaaaa" transform="translate(20.878125 486.692084) scale(0.1 -0.1)">
       <use xlink:href="#DejaVuSans-2212"/>
       <use xlink:href="#DejaVuSans-32" transform="translate(83.789062 0)"/>
      </g>
     </g>
    </g>
    <g id="ytick_8">
     <g id="line2d_45">
      <path d="M 42.620313 446.16565 
L 841.260313 446.16565 
" clip-path="url(#p659673d0e7)" style="fill: none; stroke-dasharray: 2.96,1.28; stroke-dashoffset: 0; stroke: #444444; stroke-opacity: 0.7; stroke-width: 0.8"/>
     </g>
     <g id="line2d_46">
      <g>
       <use xlink:href="#m3dfea141cb" x="42.620313" y="446.16565" style="fill: #aaaaaa; stroke: #aaaaaa; stroke-width: 0.8"/>
      </g>
     </g>
     <g id="text_27">
      <!-- −1 -->
      <g style="fill: #aaaaaa" transform="translate(20.878125 449.964869) scale(0.1 -0.1)">
       <use xlink:href="#DejaVuSans-2212"/>
       <use xlink:href="#DejaVuSans-31" transform="translate(83.789062 0)"/>
      </g>
     </g>
    </g>
    <g id="ytick_9">
     <g id="line2d_47">
      <path d="M 42.620313 409.438436 
L 841.260313 409.438436 
" clip-path="url(#p659673d0e7)" style="fill: none; stroke-dasharray: 2.96,1.28; stroke-dashoffset: 0; stroke: #444444; stroke-opacity: 0.7; stroke-width: 0.8"/>
     </g>
     <g id="line2d_48">
      <g>
       <use xlink:href="#m3dfea141cb" x="42.620313" y="409.438436" style="fill: #aaaaaa; stroke: #aaaaaa; stroke-width: 0.8"/>
      </g>
     </g>
     <g id="text_28">
      <!-- 0 -->
      <g style="fill: #aaaaaa" transform="translate(29.257813 413.237655) scale(0.1 -0.1)">
       <use xlink:href="#DejaVuSans-30"/>
      </g>
     </g>
    </g>
    <g id="ytick_10">
     <g id="line2d_49">
      <path d="M 42.620313 372.711221 
L 841.260313 372.711221 
" clip-path="url(#p659673d0e7)" style="fill: none; stroke-dasharray: 2.96,1.28; stroke-dashoffset: 0; stroke: #444444; stroke-opacity: 0.7; stroke-width: 0.8"/>
     </g>
     <g id="line2d_50">
      <g>
       <use xlink:href="#m3dfea141cb" x="42.620313" y="372.711221" style="fill: #aaaaaa; stroke: #aaaaaa; stroke-width: 0.8"/>
      </g>
     </g>
     <g id="text_29">
      <!-- 1 -->
      <g style="fill: #aaaaaa" transform="translate(29.257813 376.51044) scale(0.1 -0.1)">
       <use xlink:href="#DejaVuSans-31"/>
      </g>
     </g>
    </g>
    <g id="ytick_11">
     <g id="line2d_51">
      <path d="M 42.620313 335.984007 
L 841.260313 335.984007 
" clip-path="url(#p659673d0e7)" style="fill: none; stroke-dasharray: 2.96,1.28; stroke-dashoffset: 0; stroke: #444444; stroke-opacity: 0.7; stroke-width: 0.8"/>
     </g>
     <g id="line2d_52">
      <g>
       <use xlink:href="#m3dfea141cb" x="42.620313" y="335.984007" style="fill: #aaaaaa; stroke: #aaaaaa; stroke-width: 0.8"/>
      </g>
     </g>
     <g id="text_30">
      <!-- 2 -->
      <g style="fill: #aaaaaa" transform="translate(29.257813 339.783226) scale(0.1 -0.1)">
       <use xlink:href="#DejaVuSans-32"/>
      </g>
     </g>
    </g>
    <g id="text_31">
     <!-- Value -->
     <g style="fill: #ffffff" transform="translate(14.798438 432.352123) rotate(-90) scale(0.1 -0.1)">
      <use xlink:href="#DejaVuSans-56"/>
      <use xlink:href="#DejaVuSans-61" transform="translate(60.658203 0)"/>
      <use xlink:href="#DejaVuSans-6c" transform="translate(121.9375 0)"/>
      <use xlink:href="#DejaVuSans-75" transform="translate(149.720703 0)"/>
      <use xlink:href="#DejaVuSans-65" transform="translate(213.099609 0)"/>
     </g>
    </g>
   </g>
   <g id="line2d_53">
    <path d="M 42.620313 409.438436 
L 66.659644 392.176596 
L 80.014828 382.813918 
L 93.370011 373.744896 
L 104.054159 366.768467 
L 114.738306 360.093341 
L 122.751416 355.313171 
L 130.764527 350.748039 
L 138.777637 346.416083 
L 146.790747 342.334513 
L 154.803858 338.519545 
L 162.816968 334.986337 
L 170.830078 331.748925 
L 178.843189 328.820172 
L 186.856299 326.211713 
L 194.869409 323.933912 
L 202.88252 321.995818 
L 208.224593 320.896342 
L 213.566667 319.953238 
L 218.908741 319.168174 
L 224.250814 318.542535 
L 229.592888 318.077427 
L 234.934961 317.773671 
L 240.277035 317.631803 
L 245.619108 317.652074 
L 250.961182 317.834449 
L 256.303256 318.178604 
L 261.645329 318.683933 
L 266.987403 319.349543 
L 272.329476 320.174258 
L 277.67155 321.156622 
L 283.013624 322.2949 
L 288.355697 323.587081 
L 296.368807 325.808856 
L 304.381918 328.36289 
L 312.395028 331.239035 
L 320.408139 334.425865 
L 328.421249 337.910718 
L 336.434359 341.679748 
L 344.44747 345.717983 
L 352.46058 350.009377 
L 360.47369 354.536881 
L 368.486801 359.282509 
L 379.170948 365.91661 
L 389.855095 372.85803 
L 400.539242 380.057754 
L 413.894426 389.343052 
L 429.920647 400.768782 
L 472.657236 431.41193 
L 486.01242 440.640513 
L 496.696567 447.780361 
L 507.380714 454.649468 
L 518.064861 461.199328 
L 526.077971 465.874301 
L 534.091082 470.325056 
L 542.104192 474.53391 
L 550.117302 478.484141 
L 558.130413 482.160055 
L 566.143523 485.547047 
L 574.156634 488.631662 
L 582.169744 491.401644 
L 590.182854 493.845989 
L 598.195965 495.954983 
L 603.538038 497.170481 
L 608.880112 498.231036 
L 614.222185 499.134775 
L 619.564259 499.880102 
L 624.906333 500.465701 
L 630.248406 500.890537 
L 635.59048 501.15386 
L 640.932553 501.255205 
L 646.274627 501.194393 
L 651.6167 500.971532 
L 656.958774 500.587015 
L 662.300848 500.041521 
L 667.642921 499.336014 
L 672.984995 498.471739 
L 678.327068 497.450224 
L 683.669142 496.273271 
L 691.682252 494.221019 
L 699.695363 491.831927 
L 707.708473 489.115488 
L 715.721583 486.082495 
L 723.734694 482.744995 
L 731.747804 479.116251 
L 739.760915 475.210679 
L 747.774025 471.043794 
L 755.787135 466.632153 
L 763.800246 461.993283 
L 771.813356 457.145614 
L 782.497503 450.390654 
L 793.18165 443.346521 
L 806.536834 434.210646 
L 822.563055 422.896029 
L 841.260313 409.438436 
L 841.260313 409.438436 
" clip-path="url(#p659673d0e7)" style="fill: none; stroke: #ff9500; stroke-width: 2; stroke-linecap: square"/>
   </g>
   <g id="line2d_54">
    <path d="M 42.620313 519.620079 
L 47.962386 519.470723 
L 53.30446 519.030018 
L 58.646533 518.309014 
L 63.988607 517.318756 
L 69.33068 516.070294 
L 74.672754 514.574675 
L 80.014828 512.842946 
L 85.356901 510.886154 
L 90.698975 508.715349 
L 96.041048 506.341577 
L 101.383122 503.775886 
L 106.725195 501.029324 
L 114.738306 496.594513 
L 122.751416 491.814886 
L 130.764527 486.727726 
L 138.777637 481.370321 
L 146.790747 475.779957 
L 157.474894 468.0282 
L 170.830078 457.983962 
L 189.527336 443.569553 
L 210.89563 427.144789 
L 221.579777 419.16185 
L 232.263925 411.449716 
L 240.277035 405.896497 
L 248.290145 400.582606 
L 256.303256 395.545329 
L 264.316366 390.821951 
L 272.329476 386.449759 
L 277.67155 383.748479 
L 283.013624 381.230901 
L 288.355697 378.908073 
L 293.697771 376.791041 
L 299.039844 374.890853 
L 304.381918 373.218558 
L 312.395028 371.03456 
L 323.079175 368.345294 
L 333.763323 365.895048 
L 344.44747 363.683821 
L 355.131617 361.711613 
L 365.815764 359.978425 
L 376.499911 358.484256 
L 387.184058 357.229106 
L 397.868205 356.212975 
L 408.552353 355.435864 
L 419.2365 354.897772 
L 429.920647 354.598699 
L 440.604794 354.538645 
L 451.288941 354.717611 
L 461.973088 355.135596 
L 472.657236 355.7926 
L 483.341383 356.688623 
L 494.02553 357.823666 
L 504.709677 359.197728 
L 515.393824 360.810809 
L 526.077971 362.66291 
L 536.762119 364.75403 
L 547.446266 367.084169 
L 558.130413 369.653327 
L 568.81456 372.461505 
L 574.156634 374.011248 
L 579.498707 375.77546 
L 584.840781 377.746536 
L 590.182854 379.914476 
L 595.524928 382.269281 
L 600.867001 384.800948 
L 608.880112 388.908192 
L 616.893222 393.357125 
L 624.906333 398.113995 
L 632.919443 403.14505 
L 640.932553 408.416539 
L 651.6167 415.760861 
L 662.300848 423.392611 
L 675.656032 433.214614 
L 721.063657 466.929821 
L 731.747804 474.479746 
L 742.431951 481.717064 
L 750.445062 486.891777 
L 758.458172 491.811895 
L 766.471282 496.443665 
L 774.484393 500.753336 
L 782.497503 504.707156 
L 787.839577 507.128673 
L 793.18165 509.367032 
L 798.523724 511.412234 
L 803.865797 513.254276 
L 809.207871 514.883159 
L 814.549945 516.288882 
L 819.892018 517.461445 
L 825.234092 518.390847 
L 830.576165 519.067087 
L 835.918239 519.480164 
L 841.260313 519.620079 
L 841.260313 519.620079 
" clip-path="url(#p659673d0e7)" style="fill: none; stroke: #00b9f1; stroke-width: 2; stroke-linecap: square"/>
   </g>
   <g id="patch_9">
    <path d="M 42.620313 529.72 
L 42.620313 307.521746 
" style="fill: none; stroke: #444444; stroke-width: 0.8; stroke-linejoin: miter; stroke-linecap: square"/>
   </g>
   <g id="patch_10">
    <path d="M 841.260313 529.72 
L 841.260313 307.521746 
" style="fill: none; stroke: #444444; stroke-width: 0.8; stroke-linejoin: miter; stroke-linecap: square"/>
   </g>
   <g id="patch_11">
    <path d="M 42.620313 529.72 
L 841.260313 529.72 
" style="fill: none; stroke: #444444; stroke-width: 0.8; stroke-linejoin: miter; stroke-linecap: square"/>
   </g>
   <g id="patch_12">
    <path d="M 42.620313 307.521746 
L 841.260313 307.521746 
" style="fill: none; stroke: #444444; stroke-width: 0.8; stroke-linejoin: miter; stroke-linecap: square"/>
   </g>
   <g id="text_32">
    <!-- Spline: expressions -->
    <g style="fill: #ffffff" transform="translate(384.077813 301.521746) scale(0.12 -0.12)">
     <defs>
      <path id="DejaVuSans-78" d="M 3513 3500 
L 2247 1797 
L 3578 0 
L 2900 0 
L 1881 1375 
L 863 0 
L 184 0 
L 1544 1831 
L 300 3500 
L 978 3500 
L 1906 2253 
L 2834 3500 
L 3513 3500 
z
" transform="scale(0.015625)"/>
     </defs>
     <use xlink:href="#DejaVuSans-53"/>
     <use xlink:href="#DejaVuSans-70" transform="translate(63.476562 0)"/>
     <use xlink:href="#DejaVuSans-6c" transform="translate(126.953125 0)"/>
     <use xlink:href="#DejaVuSans-69" transform="translate(154.736328 0)"/>
     <use xlink:href="#DejaVuSans-6e" transform="translate(182.519531 0)"/>
     <use xlink:href="#DejaVuSans-65" transform="translate(245.898438 0)"/>
     <use xlink:href="#DejaVuSans-3a" transform="translate(307.421875 0)"/>
     <use xlink:href="#DejaVuSans-20" transform="translate(341.113281 0)"/>
     <use xlink:href="#DejaVuSans-65" transform="translate(372.900391 0)"/>
     <use xlink:href="#DejaVuSans-78" transform="translate(432.673828 0)"/>
     <use xlink:href="#DejaVuSans-70" transform="translate(491.853516 0)"/>
     <use xlink:href="#DejaVuSans-72" transform="translate(555.330078 0)"/>
     <use xlink:href="#DejaVuSans-65" transform="translate(594.193359 0)"/>
     <use xlink:href="#DejaVuSans-73" transform="translate(655.716797 0)"/>
     <use xlink:href="#DejaVuSans-73" transform="translate(707.816406 0)"/>
     <use xlink:href="#DejaVuSans-69" transform="translate(759.916016 0)"/>
     <use xlink:href="#DejaVuSans-6f" transform="translate(787.699219 0)"/>
     <use xlink:href="#DejaVuSans-6e" transform="translate(848.880859 0)"/>
     <use xlink:href="#DejaVuSans-73" transform="translate(912.259766 0)"/>
    </g>
   </g>
   <g id="PathCollection_4">
    <g clip-path="url(#p659673d0e7)">
     <use xlink:href="#md14c428880" x="42.620313" y="409.438436" style="fill: #ff9500; stroke: #ff9500"/>
    </g>
   </g>
   <g id="PathCollection_5">
    <g clip-path="url(#p659673d0e7)">
     <use xlink:href="#ma8fca35a11" x="42.620313" y="519.620079" style="fill: #00b9f1; stroke: #00b9f1"/>
     <use xlink:href="#ma8fca35a11" x="306.171513" y="372.711221" style="fill: #00b9f1; stroke: #00b9f1"/>
     <use xlink:href="#ma8fca35a11" x="569.722713" y="372.711221" style="fill: #00b9f1; stroke: #00b9f1"/>
     <use xlink:href="#ma8fca35a11" x="841.260313" y="519.620079" style="fill: #00b9f1; stroke: #00b9f1"/>
    </g>
   </g>
   <g id="legend_2">
    <g id="patch_13">
     <path d="M 763.241563 344.877996 
L 834.260313 344.877996 
Q 836.260313 344.877996 836.260313 342.877996 
L 836.260313 314.521746 
Q 836.260313 312.521746 834.260313 312.521746 
L 763.241563 312.521746 
Q 761.241563 312.521746 761.241563 314.521746 
L 761.241563 342.877996 
Q 761.241563 344.877996 763.241563 344.877996 
z
" style="fill: #121212; opacity: 0.8; stroke: #444444; stroke-linejoin: miter"/>
    </g>
    <g id="line2d_55">
     <path d="M 765.241563 320.620184 
L 775.241563 320.620184 
L 785.241563 320.620184 
" style="fill: none; stroke: #ff9500; stroke-width: 2; stroke-linecap: square"/>
    </g>
    <g id="text_33">
     <!-- sine -->
     <g style="fill: #ffffff" transform="translate(793.241563 324.120184) scale(0.1 -0.1)">
      <use xlink:href="#DejaVuSans-73"/>
      <use xlink:href="#DejaVuSans-69" transform="translate(52.099609 0)"/>
      <use xlink:href="#DejaVuSans-6e" transform="translate(79.882812 0)"/>
      <use xlink:href="#DejaVuSans-65" transform="translate(143.261719 0)"/>
     </g>
    </g>
    <g id="line2d_56">
     <path d="M 765.241563 335.298309 
L 775.241563 335.298309 
L 785.241563 335.298309 
" style="fill: none; stroke: #00b9f1; stroke-width: 2; stroke-linecap: square"/>
    </g>
    <g id="text_34">
     <!-- hermite -->
     <g style="fill: #ffffff" transform="translate(793.241563 338.798309) scale(0.1 -0.1)">
      <defs>
       <path id="DejaVuSans-68" d="M 3513 2113 
L 3513 0 
L 2938 0 
L 2938 2094 
Q 2938 2591 2744 2837 
Q 2550 3084 2163 3084 
Q 1697 3084 1428 2787 
Q 1159 2491 1159 1978 
L 1159 0 
L 581 0 
L 581 4863 
L 1159 4863 
L 1159 2956 
Q 1366 3272 1645 3428 
Q 1925 3584 2291 3584 
Q 2894 3584 3203 3211 
Q 3513 2838 3513 2113 
z
" transform="scale(0.015625)"/>
       <path id="DejaVuSans-6d" d="M 3328 2828 
Q 3544 3216 3844 3400 
Q 4144 3584 4550 3584 
Q 5097 3584 5394 3201 
Q 5691 2819 5691 2113 
L 5691 0 
L 5113 0 
L 5113 2094 
Q 5113 2597 4934 2840 
Q 4756 3084 4391 3084 
Q 3944 3084 3684 2787 
Q 3425 2491 3425 1978 
L 3425 0 
L 2847 0 
L 2847 2094 
Q 2847 2600 2669 2842 
Q 2491 3084 2119 3084 
Q 1678 3084 1418 2786 
Q 1159 2488 1159 1978 
L 1159 0 
L 581 0 
L 581 3500 
L 1159 3500 
L 1159 2956 
Q 1356 3278 1631 3431 
Q 1906 3584 2284 3584 
Q 2666 3584 2933 3390 
Q 3200 3197 3328 2828 
z
" transform="scale(0.015625)"/>
      </defs>
      <use xlink:href="#DejaVuSans-68"/>
      <use xlink:href="#DejaVuSans-65" transform="translate(63.378906 0)"/>
      <use xlink:href="#DejaVuSans-72" transform="translate(124.902344 0)"/>
      <use xlink:href="#DejaVuSans-6d" transform="translate(164.265625 0)"/>
      <use xlink:href="#DejaVuSans-69" transform="translate(261.677734 0)"/>
      <use xlink:href="#DejaVuSans-74" transform="translate(289.460938 0)"/>
      <use xlink:href="#DejaVuSans-65" transform="translate(328.669922 0)"/>
     </g>
    </g>
   </g>
  </g>
  <g id="text_35">
   <!-- Solver: VisualExamples -->
   <g style="fill: #ffffff" transform="translate(334.986562 19.3575) scale(0.16 -0.16)">
    <defs>
     <path id="DejaVuSans-76" d="M 191 3500 
L 800 3500 
L 1894 563 
L 2988 3500 
L 3597 3500 
L 2284 0 
L 1503 0 
L 191 3500 
z
" transform="scale(0.015625)"/>
     <path id="DejaVuSans-45" d="M 628 4666 
L 3578 4666 
L 3578 4134 
L 1259 4134 
L 1259 2753 
L 3481 2753 
L 3481 2222 
L 1259 2222 
L 1259 531 
L 3634 531 
L 3634 0 
L 628 0 
L 628 4666 
z
" transform="scale(0.015625)"/>
    </defs>
    <use xlink:href="#DejaVuSans-53"/>
    <use xlink:href="#DejaVuSans-6f" transform="translate(63.476562 0)"/>
    <use xlink:href="#DejaVuSans-6c" transform="translate(124.658203 0)"/>
    <use xlink:href="#DejaVuSans-76" transform="translate(152.441406 0)"/>
    <use xlink:href="#DejaVuSans-65" transform="translate(211.621094 0)"/>
    <use xlink:href="#DejaVuSans-72" transform="translate(273.144531 0)"/>
    <use xlink:href="#DejaVuSans-3a" transform="translate(312.507812 0)"/>
    <use xlink:href="#DejaVuSans-20" transform="translate(346.199219 0)"/>
    <use xlink:href="#DejaVuSans-56" transform="translate(377.986328 0)"/>
    <use xlink:href="#DejaVuSans-69" transform="translate(444.144531 0)"/>
    <use xlink:href="#DejaVuSans-73" transform="translate(471.927734 0)"/>
    <use xlink:href="#DejaVuSans-75" transform="translate(524.027344 0)"/>
    <use xlink:href="#DejaVuSans-61" transform="translate(587.40625 0)"/>
    <use xlink:href="#DejaVuSans-6c" transform="translate(648.685547 0)"/>
    <use xlink:href="#DejaVuSans-45" transform="translate(676.46875 0)"/>
    <use xlink:href="#DejaVuSans-78" transform="translate(739.652344 0)"/>
    <use xlink:href="#DejaVuSans-61" transform="translate(798.832031 0)"/>
    <use xlink:href="#DejaVuSans-6d" transform="translate(860.111328 0)"/>
    <use xlink:href="#DejaVuSans-70" transform="translate(957.523438 0)"/>
    <use xlink:href="#DejaVuSans-6c" transform="translate(1021 0)"/>
    <use xlink:href="#DejaVuSans-65" transform="translate(1048.783203 0)"/>
    <use xlink:href="#DejaVuSans-73" transform="translate(1110.306641 0)"/>
   </g>
  </g>
 </g>
 <defs>
  <clipPath id="pe5959a446e">
   <rect x="42.620313" y="24.48" width="798.64" height="222.198254"/>
  </clipPath>
  <clipPath id="p659673d0e7">
   <rect x="42.620313" y="307.521746" width="798.64" height="222.198254"/>
  </clipPath>
 </defs>
</svg>
