<?xml version="1.0" encoding="utf-8" standalone="no"?>
<!DOCTYPE svg PUBLIC "-//W3C//DTD SVG 1.1//EN"
  "http://www.w3.org/Graphics/SVG/1.1/DTD/svg11.dtd">
<svg xmlns:xlink="http://www.w3.org/1999/xlink" width="856.411875pt" height="567.034375pt" viewBox="0 0 856.411875 567.034375" xmlns="http://www.w3.org/2000/svg" version="1.1">
 <metadata>
  <rdf:RDF xmlns:dc="http://purl.org/dc/elements/1.1/" xmlns:cc="http://creativecommons.org/ns#" xmlns:rdf="http://www.w3.org/1999/02/22-rdf-syntax-ns#">
   <cc:Work>
    <dc:type rdf:resource="http://purl.org/dc/dcmitype/StillImage"/>
    <dc:date>2025-03-17T20:37:17.166546</dc:date>
    <dc:format>image/svg+xml</dc:format>
    <dc:creator>
     <cc:Agent>
      <dc:title>Matplotlib v3.10.1, https://matplotlib.org/</dc:title>
     </cc:Agent>
    </dc:creator>
   </cc:Work>
  </rdf:RDF>
 </metadata>
 <defs>
  <style type="text/css">*{stroke-linejoin: round; stroke-linecap: butt}</style>
 </defs>
 <g id="figure_1">
  <g id="patch_1">
   <path d="M 0 567.034375 
L 856.411875 567.034375 
L 856.411875 0 
L 0 0 
z
" style="fill: #222222"/>
  </g>
  <g id="axes_1">
   <g id="patch_2">
    <path d="M 42.620313 529.478125 
L 841.260313 529.478125 
L 841.260313 22.318125 
L 42.620313 22.318125 
z
" style="fill: #333333"/>
   </g>
   <g id="matplotlib.axis_1">
    <g id="xtick_1">
     <g id="line2d_1">
      <path d="M 42.620313 529.478125 
L 42.620313 22.318125 
" clip-path="url(#p393d386389)" style="fill: none; stroke-dasharray: 2.96,1.28; stroke-dashoffset: 0; stroke: #666666; stroke-opacity: 0.7; stroke-width: 0.8"/>
     </g>
     <g id="line2d_2">
      <defs>
       <path id="md4a67e518b" d="M 0 0 
L 0 3.5 
" style="stroke: #cccccc; stroke-width: 0.8"/>
      </defs>
      <g>
       <use xlink:href="#md4a67e518b" x="42.620313" y="529.478125" style="fill: #cccccc; stroke: #cccccc; stroke-width: 0.8"/>
      </g>
     </g>
     <g id="text_1">
      <!-- 0.0 -->
      <g style="fill: #cccccc" transform="translate(34.66875 544.076562) scale(0.1 -0.1)">
       <defs>
        <path id="DejaVuSans-30" d="M 2034 4250 
Q 1547 4250 1301 3770 
Q 1056 3291 1056 2328 
Q 1056 1369 1301 889 
Q 1547 409 2034 409 
Q 2525 409 2770 889 
Q 3016 1369 3016 2328 
Q 3016 3291 2770 3770 
Q 2525 4250 2034 4250 
z
M 2034 4750 
Q 2819 4750 3233 4129 
Q 3647 3509 3647 2328 
Q 3647 1150 3233 529 
Q 2819 -91 2034 -91 
Q 1250 -91 836 529 
Q 422 1150 422 2328 
Q 422 3509 836 4129 
Q 1250 4750 2034 4750 
z
" transform="scale(0.015625)"/>
        <path id="DejaVuSans-2e" d="M 684 794 
L 1344 794 
L 1344 0 
L 684 0 
L 684 794 
z
" transform="scale(0.015625)"/>
       </defs>
       <use xlink:href="#DejaVuSans-30"/>
       <use xlink:href="#DejaVuSans-2e" transform="translate(63.623047 0)"/>
       <use xlink:href="#DejaVuSans-30" transform="translate(95.410156 0)"/>
      </g>
     </g>
    </g>
    <g id="xtick_2">
     <g id="line2d_3">
      <path d="M 202.348313 529.478125 
L 202.348313 22.318125 
" clip-path="url(#p393d386389)" style="fill: none; stroke-dasharray: 2.96,1.28; stroke-dashoffset: 0; stroke: #666666; stroke-opacity: 0.7; stroke-width: 0.8"/>
     </g>
     <g id="line2d_4">
      <g>
       <use xlink:href="#md4a67e518b" x="202.348313" y="529.478125" style="fill: #cccccc; stroke: #cccccc; stroke-width: 0.8"/>
      </g>
     </g>
     <g id="text_2">
      <!-- 0.2 -->
      <g style="fill: #cccccc" transform="translate(194.39675 544.076562) scale(0.1 -0.1)">
       <defs>
        <path id="DejaVuSans-32" d="M 1228 531 
L 3431 531 
L 3431 0 
L 469 0 
L 469 531 
Q 828 903 1448 1529 
Q 2069 2156 2228 2338 
Q 2531 2678 2651 2914 
Q 2772 3150 2772 3378 
Q 2772 3750 2511 3984 
Q 2250 4219 1831 4219 
Q 1534 4219 1204 4116 
Q 875 4013 500 3803 
L 500 4441 
Q 881 4594 1212 4672 
Q 1544 4750 1819 4750 
Q 2544 4750 2975 4387 
Q 3406 4025 3406 3419 
Q 3406 3131 3298 2873 
Q 3191 2616 2906 2266 
Q 2828 2175 2409 1742 
Q 1991 1309 1228 531 
z
" transform="scale(0.015625)"/>
       </defs>
       <use xlink:href="#DejaVuSans-30"/>
       <use xlink:href="#DejaVuSans-2e" transform="translate(63.623047 0)"/>
       <use xlink:href="#DejaVuSans-32" transform="translate(95.410156 0)"/>
      </g>
     </g>
    </g>
    <g id="xtick_3">
     <g id="line2d_5">
      <path d="M 362.076313 529.478125 
L 362.076313 22.318125 
" clip-path="url(#p393d386389)" style="fill: none; stroke-dasharray: 2.96,1.28; stroke-dashoffset: 0; stroke: #666666; stroke-opacity: 0.7; stroke-width: 0.8"/>
     </g>
     <g id="line2d_6">
      <g>
       <use xlink:href="#md4a67e518b" x="362.076313" y="529.478125" style="fill: #cccccc; stroke: #cccccc; stroke-width: 0.8"/>
      </g>
     </g>
     <g id="text_3">
      <!-- 0.4 -->
      <g style="fill: #cccccc" transform="translate(354.12475 544.076562) scale(0.1 -0.1)">
       <defs>
        <path id="DejaVuSans-34" d="M 2419 4116 
L 825 1625 
L 2419 1625 
L 2419 4116 
z
M 2253 4666 
L 3047 4666 
L 3047 1625 
L 3713 1625 
L 3713 1100 
L 3047 1100 
L 3047 0 
L 2419 0 
L 2419 1100 
L 313 1100 
L 313 1709 
L 2253 4666 
z
" transform="scale(0.015625)"/>
       </defs>
       <use xlink:href="#DejaVuSans-30"/>
       <use xlink:href="#DejaVuSans-2e" transform="translate(63.623047 0)"/>
       <use xlink:href="#DejaVuSans-34" transform="translate(95.410156 0)"/>
      </g>
     </g>
    </g>
    <g id="xtick_4">
     <g id="line2d_7">
      <path d="M 521.804313 529.478125 
L 521.804313 22.318125 
" clip-path="url(#p393d386389)" style="fill: none; stroke-dasharray: 2.96,1.28; stroke-dashoffset: 0; stroke: #666666; stroke-opacity: 0.7; stroke-width: 0.8"/>
     </g>
     <g id="line2d_8">
      <g>
       <use xlink:href="#md4a67e518b" x="521.804313" y="529.478125" style="fill: #cccccc; stroke: #cccccc; stroke-width: 0.8"/>
      </g>
     </g>
     <g id="text_4">
      <!-- 0.6 -->
      <g style="fill: #cccccc" transform="translate(513.85275 544.076562) scale(0.1 -0.1)">
       <defs>
        <path id="DejaVuSans-36" d="M 2113 2584 
Q 1688 2584 1439 2293 
Q 1191 2003 1191 1497 
Q 1191 994 1439 701 
Q 1688 409 2113 409 
Q 2538 409 2786 701 
Q 3034 994 3034 1497 
Q 3034 2003 2786 2293 
Q 2538 2584 2113 2584 
z
M 3366 4563 
L 3366 3988 
Q 3128 4100 2886 4159 
Q 2644 4219 2406 4219 
Q 1781 4219 1451 3797 
Q 1122 3375 1075 2522 
Q 1259 2794 1537 2939 
Q 1816 3084 2150 3084 
Q 2853 3084 3261 2657 
Q 3669 2231 3669 1497 
Q 3669 778 3244 343 
Q 2819 -91 2113 -91 
Q 1303 -91 875 529 
Q 447 1150 447 2328 
Q 447 3434 972 4092 
Q 1497 4750 2381 4750 
Q 2619 4750 2861 4703 
Q 3103 4656 3366 4563 
z
" transform="scale(0.015625)"/>
       </defs>
       <use xlink:href="#DejaVuSans-30"/>
       <use xlink:href="#DejaVuSans-2e" transform="translate(63.623047 0)"/>
       <use xlink:href="#DejaVuSans-36" transform="translate(95.410156 0)"/>
      </g>
     </g>
    </g>
    <g id="xtick_5">
     <g id="line2d_9">
      <path d="M 681.532313 529.478125 
L 681.532313 22.318125 
" clip-path="url(#p393d386389)" style="fill: none; stroke-dasharray: 2.96,1.28; stroke-dashoffset: 0; stroke: #666666; stroke-opacity: 0.7; stroke-width: 0.8"/>
     </g>
     <g id="line2d_10">
      <g>
       <use xlink:href="#md4a67e518b" x="681.532313" y="529.478125" style="fill: #cccccc; stroke: #cccccc; stroke-width: 0.8"/>
      </g>
     </g>
     <g id="text_5">
      <!-- 0.8 -->
      <g style="fill: #cccccc" transform="translate(673.58075 544.076562) scale(0.1 -0.1)">
       <defs>
        <path id="DejaVuSans-38" d="M 2034 2216 
Q 1584 2216 1326 1975 
Q 1069 1734 1069 1313 
Q 1069 891 1326 650 
Q 1584 409 2034 409 
Q 2484 409 2743 651 
Q 3003 894 3003 1313 
Q 3003 1734 2745 1975 
Q 2488 2216 2034 2216 
z
M 1403 2484 
Q 997 2584 770 2862 
Q 544 3141 544 3541 
Q 544 4100 942 4425 
Q 1341 4750 2034 4750 
Q 2731 4750 3128 4425 
Q 3525 4100 3525 3541 
Q 3525 3141 3298 2862 
Q 3072 2584 2669 2484 
Q 3125 2378 3379 2068 
Q 3634 1759 3634 1313 
Q 3634 634 3220 271 
Q 2806 -91 2034 -91 
Q 1263 -91 848 271 
Q 434 634 434 1313 
Q 434 1759 690 2068 
Q 947 2378 1403 2484 
z
M 1172 3481 
Q 1172 3119 1398 2916 
Q 1625 2713 2034 2713 
Q 2441 2713 2670 2916 
Q 2900 3119 2900 3481 
Q 2900 3844 2670 4047 
Q 2441 4250 2034 4250 
Q 1625 4250 1398 4047 
Q 1172 3844 1172 3481 
z
" transform="scale(0.015625)"/>
       </defs>
       <use xlink:href="#DejaVuSans-30"/>
       <use xlink:href="#DejaVuSans-2e" transform="translate(63.623047 0)"/>
       <use xlink:href="#DejaVuSans-38" transform="translate(95.410156 0)"/>
      </g>
     </g>
    </g>
    <g id="xtick_6">
     <g id="line2d_11">
      <path d="M 841.260313 529.478125 
L 841.260313 22.318125 
" clip-path="url(#p393d386389)" style="fill: none; stroke-dasharray: 2.96,1.28; stroke-dashoffset: 0; stroke: #666666; stroke-opacity: 0.7; stroke-width: 0.8"/>
     </g>
     <g id="line2d_12">
      <g>
       <use xlink:href="#md4a67e518b" x="841.260313" y="529.478125" style="fill: #cccccc; stroke: #cccccc; stroke-width: 0.8"/>
      </g>
     </g>
     <g id="text_6">
      <!-- 1.0 -->
      <g style="fill: #cccccc" transform="translate(833.30875 544.076562) scale(0.1 -0.1)">
       <defs>
        <path id="DejaVuSans-31" d="M 794 531 
L 1825 531 
L 1825 4091 
L 703 3866 
L 703 4441 
L 1819 4666 
L 2450 4666 
L 2450 531 
L 3481 531 
L 3481 0 
L 794 0 
L 794 531 
z
" transform="scale(0.015625)"/>
       </defs>
       <use xlink:href="#DejaVuSans-31"/>
       <use xlink:href="#DejaVuSans-2e" transform="translate(63.623047 0)"/>
       <use xlink:href="#DejaVuSans-30" transform="translate(95.410156 0)"/>
      </g>
     </g>
    </g>
    <g id="text_7">
     <!-- Position -->
     <g style="fill: #e0e0e0" transform="translate(422.47625 557.754687) scale(0.1 -0.1)">
      <defs>
       <path id="DejaVuSans-50" d="M 1259 4147 
L 1259 2394 
L 2053 2394 
Q 2494 2394 2734 2622 
Q 2975 2850 2975 3272 
Q 2975 3691 2734 3919 
Q 2494 4147 2053 4147 
L 1259 4147 
z
M 628 4666 
L 2053 4666 
Q 2838 4666 3239 4311 
Q 3641 3956 3641 3272 
Q 3641 2581 3239 2228 
Q 2838 1875 2053 1875 
L 1259 1875 
L 1259 0 
L 628 0 
L 628 4666 
z
" transform="scale(0.015625)"/>
       <path id="DejaVuSans-6f" d="M 1959 3097 
Q 1497 3097 1228 2736 
Q 959 2375 959 1747 
Q 959 1119 1226 758 
Q 1494 397 1959 397 
Q 2419 397 2687 759 
Q 2956 1122 2956 1747 
Q 2956 2369 2687 2733 
Q 2419 3097 1959 3097 
z
M 1959 3584 
Q 2709 3584 3137 3096 
Q 3566 2609 3566 1747 
Q 3566 888 3137 398 
Q 2709 -91 1959 -91 
Q 1206 -91 779 398 
Q 353 888 353 1747 
Q 353 2609 779 3096 
Q 1206 3584 1959 3584 
z
" transform="scale(0.015625)"/>
       <path id="DejaVuSans-73" d="M 2834 3397 
L 2834 2853 
Q 2591 2978 2328 3040 
Q 2066 3103 1784 3103 
Q 1356 3103 1142 2972 
Q 928 2841 928 2578 
Q 928 2378 1081 2264 
Q 1234 2150 1697 2047 
L 1894 2003 
Q 2506 1872 2764 1633 
Q 3022 1394 3022 966 
Q 3022 478 2636 193 
Q 2250 -91 1575 -91 
Q 1294 -91 989 -36 
Q 684 19 347 128 
L 347 722 
Q 666 556 975 473 
Q 1284 391 1588 391 
Q 1994 391 2212 530 
Q 2431 669 2431 922 
Q 2431 1156 2273 1281 
Q 2116 1406 1581 1522 
L 1381 1569 
Q 847 1681 609 1914 
Q 372 2147 372 2553 
Q 372 3047 722 3315 
Q 1072 3584 1716 3584 
Q 2034 3584 2315 3537 
Q 2597 3491 2834 3397 
z
" transform="scale(0.015625)"/>
       <path id="DejaVuSans-69" d="M 603 3500 
L 1178 3500 
L 1178 0 
L 603 0 
L 603 3500 
z
M 603 4863 
L 1178 4863 
L 1178 4134 
L 603 4134 
L 603 4863 
z
" transform="scale(0.015625)"/>
       <path id="DejaVuSans-74" d="M 1172 4494 
L 1172 3500 
L 2356 3500 
L 2356 3053 
L 1172 3053 
L 1172 1153 
Q 1172 725 1289 603 
Q 1406 481 1766 481 
L 2356 481 
L 2356 0 
L 1766 0 
Q 1100 0 847 248 
Q 594 497 594 1153 
L 594 3053 
L 172 3053 
L 172 3500 
L 594 3500 
L 594 4494 
L 1172 4494 
z
" transform="scale(0.015625)"/>
       <path id="DejaVuSans-6e" d="M 3513 2113 
L 3513 0 
L 2938 0 
L 2938 2094 
Q 2938 2591 2744 2837 
Q 2550 3084 2163 3084 
Q 1697 3084 1428 2787 
Q 1159 2491 1159 1978 
L 1159 0 
L 581 0 
L 581 3500 
L 1159 3500 
L 1159 2956 
Q 1366 3272 1645 3428 
Q 1925 3584 2291 3584 
Q 2894 3584 3203 3211 
Q 3513 2838 3513 2113 
z
" transform="scale(0.015625)"/>
      </defs>
      <use xlink:href="#DejaVuSans-50"/>
      <use xlink:href="#DejaVuSans-6f" transform="translate(56.677734 0)"/>
      <use xlink:href="#DejaVuSans-73" transform="translate(117.859375 0)"/>
      <use xlink:href="#DejaVuSans-69" transform="translate(169.958984 0)"/>
      <use xlink:href="#DejaVuSans-74" transform="translate(197.742188 0)"/>
      <use xlink:href="#DejaVuSans-69" transform="translate(236.951172 0)"/>
      <use xlink:href="#DejaVuSans-6f" transform="translate(264.734375 0)"/>
      <use xlink:href="#DejaVuSans-6e" transform="translate(325.916016 0)"/>
     </g>
    </g>
   </g>
   <g id="matplotlib.axis_2">
    <g id="ytick_1">
     <g id="line2d_13">
      <path d="M 42.620313 506.425398 
L 841.260313 506.425398 
" clip-path="url(#p393d386389)" style="fill: none; stroke-dasharray: 2.96,1.28; stroke-dashoffset: 0; stroke: #666666; stroke-opacity: 0.7; stroke-width: 0.8"/>
     </g>
     <g id="line2d_14">
      <defs>
       <path id="m787b4efda5" d="M 0 0 
L -3.5 0 
" style="stroke: #cccccc; stroke-width: 0.8"/>
      </defs>
      <g>
       <use xlink:href="#m787b4efda5" x="42.620313" y="506.425398" style="fill: #cccccc; stroke: #cccccc; stroke-width: 0.8"/>
      </g>
     </g>
     <g id="text_8">
      <!-- −3 -->
      <g style="fill: #cccccc" transform="translate(20.878125 510.224616) scale(0.1 -0.1)">
       <defs>
        <path id="DejaVuSans-2212" d="M 678 2272 
L 4684 2272 
L 4684 1741 
L 678 1741 
L 678 2272 
z
" transform="scale(0.015625)"/>
        <path id="DejaVuSans-33" d="M 2597 2516 
Q 3050 2419 3304 2112 
Q 3559 1806 3559 1356 
Q 3559 666 3084 287 
Q 2609 -91 1734 -91 
Q 1441 -91 1130 -33 
Q 819 25 488 141 
L 488 750 
Q 750 597 1062 519 
Q 1375 441 1716 441 
Q 2309 441 2620 675 
Q 2931 909 2931 1356 
Q 2931 1769 2642 2001 
Q 2353 2234 1838 2234 
L 1294 2234 
L 1294 2753 
L 1863 2753 
Q 2328 2753 2575 2939 
Q 2822 3125 2822 3475 
Q 2822 3834 2567 4026 
Q 2313 4219 1838 4219 
Q 1578 4219 1281 4162 
Q 984 4106 628 3988 
L 628 4550 
Q 988 4650 1302 4700 
Q 1616 4750 1894 4750 
Q 2613 4750 3031 4423 
Q 3450 4097 3450 3541 
Q 3450 3153 3228 2886 
Q 3006 2619 2597 2516 
z
" transform="scale(0.015625)"/>
       </defs>
       <use xlink:href="#DejaVuSans-2212"/>
       <use xlink:href="#DejaVuSans-33" transform="translate(83.789062 0)"/>
      </g>
     </g>
    </g>
    <g id="ytick_2">
     <g id="line2d_15">
      <path d="M 42.620313 423.005143 
L 841.260313 423.005143 
" clip-path="url(#p393d386389)" style="fill: none; stroke-dasharray: 2.96,1.28; stroke-dashoffset: 0; stroke: #666666; stroke-opacity: 0.7; stroke-width: 0.8"/>
     </g>
     <g id="line2d_16">
      <g>
       <use xlink:href="#m787b4efda5" x="42.620313" y="423.005143" style="fill: #cccccc; stroke: #cccccc; stroke-width: 0.8"/>
      </g>
     </g>
     <g id="text_9">
      <!-- −2 -->
      <g style="fill: #cccccc" transform="translate(20.878125 426.804362) scale(0.1 -0.1)">
       <use xlink:href="#DejaVuSans-2212"/>
       <use xlink:href="#DejaVuSans-32" transform="translate(83.789062 0)"/>
      </g>
     </g>
    </g>
    <g id="ytick_3">
     <g id="line2d_17">
      <path d="M 42.620313 339.584889 
L 841.260313 339.584889 
" clip-path="url(#p393d386389)" style="fill: none; stroke-dasharray: 2.96,1.28; stroke-dashoffset: 0; stroke: #666666; stroke-opacity: 0.7; stroke-width: 0.8"/>
     </g>
     <g id="line2d_18">
      <g>
       <use xlink:href="#m787b4efda5" x="42.620313" y="339.584889" style="fill: #cccccc; stroke: #cccccc; stroke-width: 0.8"/>
      </g>
     </g>
     <g id="text_10">
      <!-- −1 -->
      <g style="fill: #cccccc" transform="translate(20.878125 343.384107) scale(0.1 -0.1)">
       <use xlink:href="#DejaVuSans-2212"/>
       <use xlink:href="#DejaVuSans-31" transform="translate(83.789062 0)"/>
      </g>
     </g>
    </g>
    <g id="ytick_4">
     <g id="line2d_19">
      <path d="M 42.620313 256.164634 
L 841.260313 256.164634 
" clip-path="url(#p393d386389)" style="fill: none; stroke-dasharray: 2.96,1.28; stroke-dashoffset: 0; stroke: #666666; stroke-opacity: 0.7; stroke-width: 0.8"/>
     </g>
     <g id="line2d_20">
      <g>
       <use xlink:href="#m787b4efda5" x="42.620313" y="256.164634" style="fill: #cccccc; stroke: #cccccc; stroke-width: 0.8"/>
      </g>
     </g>
     <g id="text_11">
      <!-- 0 -->
      <g style="fill: #cccccc" transform="translate(29.257813 259.963853) scale(0.1 -0.1)">
       <use xlink:href="#DejaVuSans-30"/>
      </g>
     </g>
    </g>
    <g id="ytick_5">
     <g id="line2d_21">
      <path d="M 42.620313 172.74438 
L 841.260313 172.74438 
" clip-path="url(#p393d386389)" style="fill: none; stroke-dasharray: 2.96,1.28; stroke-dashoffset: 0; stroke: #666666; stroke-opacity: 0.7; stroke-width: 0.8"/>
     </g>
     <g id="line2d_22">
      <g>
       <use xlink:href="#m787b4efda5" x="42.620313" y="172.74438" style="fill: #cccccc; stroke: #cccccc; stroke-width: 0.8"/>
      </g>
     </g>
     <g id="text_12">
      <!-- 1 -->
      <g style="fill: #cccccc" transform="translate(29.257813 176.543598) scale(0.1 -0.1)">
       <use xlink:href="#DejaVuSans-31"/>
      </g>
     </g>
    </g>
    <g id="ytick_6">
     <g id="line2d_23">
      <path d="M 42.620313 89.324125 
L 841.260313 89.324125 
" clip-path="url(#p393d386389)" style="fill: none; stroke-dasharray: 2.96,1.28; stroke-dashoffset: 0; stroke: #666666; stroke-opacity: 0.7; stroke-width: 0.8"/>
     </g>
     <g id="line2d_24">
      <g>
       <use xlink:href="#m787b4efda5" x="42.620313" y="89.324125" style="fill: #cccccc; stroke: #cccccc; stroke-width: 0.8"/>
      </g>
     </g>
     <g id="text_13">
      <!-- 2 -->
      <g style="fill: #cccccc" transform="translate(29.257813 93.123344) scale(0.1 -0.1)">
       <use xlink:href="#DejaVuSans-32"/>
      </g>
     </g>
    </g>
    <g id="text_14">
     <!-- Value -->
     <g style="fill: #e0e0e0" transform="translate(14.798438 289.629375) rotate(-90) scale(0.1 -0.1)">
      <defs>
       <path id="DejaVuSans-56" d="M 1831 0 
L 50 4666 
L 709 4666 
L 2188 738 
L 3669 4666 
L 4325 4666 
L 2547 0 
L 1831 0 
z
" transform="scale(0.015625)"/>
       <path id="DejaVuSans-61" d="M 2194 1759 
Q 1497 1759 1228 1600 
Q 959 1441 959 1056 
Q 959 750 1161 570 
Q 1363 391 1709 391 
Q 2188 391 2477 730 
Q 2766 1069 2766 1631 
L 2766 1759 
L 2194 1759 
z
M 3341 1997 
L 3341 0 
L 2766 0 
L 2766 531 
Q 2569 213 2275 61 
Q 1981 -91 1556 -91 
Q 1019 -91 701 211 
Q 384 513 384 1019 
Q 384 1609 779 1909 
Q 1175 2209 1959 2209 
L 2766 2209 
L 2766 2266 
Q 2766 2663 2505 2880 
Q 2244 3097 1772 3097 
Q 1472 3097 1187 3025 
Q 903 2953 641 2809 
L 641 3341 
Q 956 3463 1253 3523 
Q 1550 3584 1831 3584 
Q 2591 3584 2966 3190 
Q 3341 2797 3341 1997 
z
" transform="scale(0.015625)"/>
       <path id="DejaVuSans-6c" d="M 603 4863 
L 1178 4863 
L 1178 0 
L 603 0 
L 603 4863 
z
" transform="scale(0.015625)"/>
       <path id="DejaVuSans-75" d="M 544 1381 
L 544 3500 
L 1119 3500 
L 1119 1403 
Q 1119 906 1312 657 
Q 1506 409 1894 409 
Q 2359 409 2629 706 
Q 2900 1003 2900 1516 
L 2900 3500 
L 3475 3500 
L 3475 0 
L 2900 0 
L 2900 538 
Q 2691 219 2414 64 
Q 2138 -91 1772 -91 
Q 1169 -91 856 284 
Q 544 659 544 1381 
z
M 1991 3584 
L 1991 3584 
z
" transform="scale(0.015625)"/>
       <path id="DejaVuSans-65" d="M 3597 1894 
L 3597 1613 
L 953 1613 
Q 991 1019 1311 708 
Q 1631 397 2203 397 
Q 2534 397 2845 478 
Q 3156 559 3463 722 
L 3463 178 
Q 3153 47 2828 -22 
Q 2503 -91 2169 -91 
Q 1331 -91 842 396 
Q 353 884 353 1716 
Q 353 2575 817 3079 
Q 1281 3584 2069 3584 
Q 2775 3584 3186 3129 
Q 3597 2675 3597 1894 
z
M 3022 2063 
Q 3016 2534 2758 2815 
Q 2500 3097 2075 3097 
Q 1594 3097 1305 2825 
Q 1016 2553 972 2059 
L 3022 2063 
z
" transform="scale(0.015625)"/>
      </defs>
      <use xlink:href="#DejaVuSans-56"/>
      <use xlink:href="#DejaVuSans-61" transform="translate(60.658203 0)"/>
      <use xlink:href="#DejaVuSans-6c" transform="translate(121.9375 0)"/>
      <use xlink:href="#DejaVuSans-75" transform="translate(149.720703 0)"/>
      <use xlink:href="#DejaVuSans-65" transform="translate(213.099609 0)"/>
     </g>
    </g>
   </g>
   <g id="line2d_25">
    <path d="M 42.620313 256.164634 
L 47.962386 250.390948 
L 53.30446 244.251095 
L 58.646533 237.777032 
L 63.988607 231.000714 
L 69.33068 223.954098 
L 77.343791 212.94727 
L 85.356901 201.512026 
L 96.041048 185.785023 
L 114.738306 157.660423 
L 128.09349 137.741192 
L 136.1066 126.097233 
L 144.11971 114.81578 
L 152.132821 104.004685 
L 157.474894 97.111859 
L 162.816968 90.507973 
L 168.159042 84.224982 
L 173.501115 78.294842 
L 178.843189 72.749512 
L 184.185262 67.620946 
L 189.527336 62.941101 
L 194.869409 58.741934 
L 200.211483 55.055401 
L 202.88252 53.414358 
L 205.553557 51.913458 
L 208.224593 50.556694 
L 210.89563 49.348062 
L 213.566667 48.291555 
L 216.237704 47.391169 
L 218.908741 46.650898 
L 221.579777 46.074736 
L 224.250814 45.666678 
L 226.921851 45.430719 
L 229.592888 45.370852 
L 232.263925 45.491074 
L 234.934961 45.795377 
L 237.605998 46.287758 
L 240.277035 46.972209 
L 245.619108 48.834481 
L 250.961182 51.024993 
L 256.303256 53.501115 
L 261.645329 56.254858 
L 266.987403 59.278234 
L 272.329476 62.563252 
L 277.67155 66.101924 
L 283.013624 69.886262 
L 288.355697 73.908275 
L 293.697771 78.159974 
L 299.039844 82.633372 
L 304.381918 87.320477 
L 309.723991 92.213302 
L 317.737102 99.920787 
L 325.750212 108.046203 
L 333.763323 116.562584 
L 341.776433 125.442969 
L 349.789543 134.660395 
L 357.802654 144.187897 
L 365.815764 153.998513 
L 376.499911 167.47313 
L 387.184058 181.339214 
L 397.868205 195.53285 
L 411.223389 213.63815 
L 429.920647 239.439951 
L 472.657236 298.691118 
L 486.01242 316.796418 
L 499.367603 334.48978 
L 510.051751 348.263989 
L 520.735898 361.630754 
L 528.749008 371.349994 
L 536.762119 380.777133 
L 544.775229 389.885208 
L 552.788339 398.647254 
L 560.80145 407.03631 
L 568.81456 415.025411 
L 576.82767 422.587594 
L 582.169744 427.378558 
L 587.511818 431.959808 
L 592.853891 436.323355 
L 598.195965 440.46121 
L 603.538038 444.365384 
L 608.880112 448.027888 
L 614.222185 451.440732 
L 619.564259 454.595927 
L 624.906333 457.485485 
L 630.248406 460.101416 
L 635.59048 462.435732 
L 640.932553 464.480442 
L 643.60359 465.357059 
L 646.274627 466.041511 
L 648.945664 466.533891 
L 651.6167 466.838195 
L 654.287737 466.958416 
L 656.958774 466.89855 
L 659.629811 466.66259 
L 662.300848 466.254533 
L 664.971884 465.678371 
L 667.642921 464.938099 
L 670.313958 464.037713 
L 672.984995 462.981206 
L 675.656032 461.772574 
L 678.327068 460.41581 
L 680.998105 458.91491 
L 683.669142 457.273868 
L 689.011216 453.587334 
L 694.353289 449.388167 
L 699.695363 444.708322 
L 705.037436 439.579757 
L 710.37951 434.034426 
L 715.721583 428.104287 
L 721.063657 421.821296 
L 726.405731 415.217409 
L 731.747804 408.324583 
L 739.760915 397.513489 
L 747.774025 386.232035 
L 755.787135 374.588077 
L 766.471282 358.685313 
L 793.18165 318.625485 
L 801.194761 306.96455 
L 809.207871 295.660128 
L 817.220981 284.820073 
L 822.563055 277.904611 
L 827.905129 271.275426 
L 833.247202 264.964473 
L 838.589276 259.003709 
L 841.260313 256.164634 
L 841.260313 256.164634 
" clip-path="url(#p393d386389)" style="fill: none; stroke: #ff9500; stroke-width: 2; stroke-linecap: square"/>
   </g>
   <g id="line2d_26">
    <path d="M 42.620313 256.164634 
L 240.277035 90.99811 
L 242.948072 89.88212 
L 640.932553 422.447148 
L 643.60359 421.331158 
L 841.260313 256.164634 
L 841.260313 256.164634 
" clip-path="url(#p393d386389)" style="fill: none; stroke: #00b9f1; stroke-width: 2; stroke-linecap: square"/>
   </g>
   <g id="line2d_27">
    <path d="M 42.620313 256.164634 
L 47.962386 267.703673 
L 53.30446 278.886199 
L 58.646533 289.714009 
L 63.988607 300.1889 
L 69.33068 310.31267 
L 74.672754 320.087116 
L 80.014828 329.514037 
L 85.356901 338.595229 
L 90.698975 347.332491 
L 96.041048 355.727619 
L 101.383122 363.782412 
L 106.725195 371.498666 
L 112.067269 378.87818 
L 117.409343 385.922751 
L 122.751416 392.634176 
L 128.09349 399.014254 
L 133.435563 405.064781 
L 138.777637 410.787555 
L 144.11971 416.184373 
L 149.461784 421.257034 
L 154.803858 426.007335 
L 160.145931 430.437073 
L 165.488005 434.548046 
L 170.830078 438.342051 
L 176.172152 441.820887 
L 181.514226 444.986349 
L 186.856299 447.840237 
L 192.198373 450.384348 
L 197.540446 452.620478 
L 202.88252 454.550427 
L 208.224593 456.17599 
L 213.566667 457.498967 
L 218.908741 458.521154 
L 224.250814 459.244348 
L 229.592888 459.670348 
L 234.934961 459.800951 
L 240.277035 459.637955 
L 245.619108 459.183157 
L 250.961182 458.438354 
L 256.303256 457.405344 
L 261.645329 456.085926 
L 266.987403 454.481895 
L 272.329476 452.595051 
L 277.67155 450.427189 
L 283.013624 447.980109 
L 288.355697 445.255607 
L 293.697771 442.255481 
L 299.039844 438.981529 
L 304.381918 435.435548 
L 309.723991 431.619335 
L 315.066065 427.534689 
L 320.408139 423.183406 
L 325.750212 418.567285 
L 331.092286 413.688123 
L 336.434359 408.547717 
L 341.776433 403.147864 
L 347.118506 397.490364 
L 352.46058 391.577012 
L 357.802654 385.409607 
L 363.144727 378.989947 
L 368.486801 372.319827 
L 373.828874 365.401047 
L 381.841985 354.560571 
L 389.855095 343.170719 
L 397.868205 331.237558 
L 405.881316 318.767155 
L 413.894426 305.765576 
L 421.907537 292.238889 
L 429.920647 278.19316 
L 437.933757 263.634456 
L 448.617904 243.957319 
L 453.959978 234.685905 
L 459.302052 225.846202 
L 464.644125 217.43102 
L 469.986199 209.433168 
L 475.328272 201.845457 
L 480.670346 194.660696 
L 486.01242 187.871696 
L 491.354493 181.471265 
L 496.696567 175.452214 
L 502.03864 169.807352 
L 507.380714 164.52949 
L 512.722787 159.611437 
L 518.064861 155.046002 
L 523.406935 150.825997 
L 528.749008 146.94423 
L 534.091082 143.393512 
L 539.433155 140.166651 
L 544.775229 137.256459 
L 550.117302 134.655745 
L 555.459376 132.357318 
L 560.80145 130.353988 
L 566.143523 128.638566 
L 571.485597 127.203861 
L 576.82767 126.042682 
L 582.169744 125.147841 
L 587.511818 124.512145 
L 592.853891 124.128406 
L 598.195965 123.989433 
L 603.538038 124.088036 
L 608.880112 124.417025 
L 614.222185 124.969209 
L 619.564259 125.737399 
L 624.906333 126.714403 
L 630.248406 127.893033 
L 635.59048 129.266097 
L 640.932553 130.826406 
L 646.274627 132.566769 
L 651.6167 134.479997 
L 656.958774 136.558898 
L 664.971884 139.972161 
L 672.984995 143.717744 
L 680.998105 147.771383 
L 689.011216 152.10881 
L 697.024326 156.705757 
L 705.037436 161.537958 
L 713.050547 166.581147 
L 723.734694 173.591658 
L 734.418841 180.876595 
L 747.774025 190.281046 
L 763.800246 201.855568 
L 803.865797 230.945227 
L 817.220981 240.300995 
L 827.905129 247.533503 
L 838.589276 254.479602 
L 841.260313 256.164634 
L 841.260313 256.164634 
" clip-path="url(#p393d386389)" style="fill: none; stroke: #fb02fe; stroke-width: 2; stroke-linecap: square"/>
   </g>
   <g id="line2d_28">
    <path d="M 42.620313 256.164634 
L 63.988607 221.269682 
L 77.343791 199.898346 
L 88.027938 183.236998 
L 96.041048 171.072625 
L 104.054159 159.246321 
L 112.067269 147.805071 
L 120.080379 136.794331 
L 128.09349 126.257846 
L 136.1066 116.237478 
L 141.448674 109.863713 
L 146.790747 103.748329 
L 152.132821 97.902126 
L 157.474894 92.335429 
L 162.816968 87.05807 
L 168.159042 82.079369 
L 173.501115 77.408118 
L 178.843189 73.052568 
L 184.185262 69.020411 
L 189.527336 65.318768 
L 194.869409 61.954176 
L 200.211483 58.932578 
L 205.553557 56.259309 
L 210.89563 53.939093 
L 216.237704 51.976025 
L 221.579777 50.373573 
L 226.921851 49.134567 
L 232.263925 48.261195 
L 237.605998 47.755 
L 242.948072 47.616876 
L 248.290145 47.847066 
L 253.632219 48.445164 
L 258.974292 49.410115 
L 264.316366 50.740212 
L 269.65844 52.433108 
L 275.000513 54.485813 
L 280.342587 56.894702 
L 285.68466 59.655519 
L 291.026734 62.76339 
L 296.368807 66.212825 
L 301.710881 69.997733 
L 307.052955 74.111428 
L 312.395028 78.546647 
L 317.737102 83.295555 
L 323.079175 88.349766 
L 328.421249 93.700353 
L 333.763323 99.337868 
L 339.105396 105.252353 
L 344.44747 111.433363 
L 349.789543 117.869982 
L 355.131617 124.550842 
L 363.144727 135.004161 
L 371.157838 145.938847 
L 379.170948 157.311458 
L 387.184058 169.076811 
L 395.197169 181.188161 
L 405.881316 197.791506 
L 416.565463 214.807038 
L 432.591684 240.83977 
L 467.315162 297.52223 
L 477.999309 314.537762 
L 488.683456 331.141107 
L 496.696567 343.252457 
L 504.709677 355.01781 
L 512.722787 366.390421 
L 520.735898 377.325108 
L 528.749008 387.778427 
L 534.091082 394.459286 
L 539.433155 400.895905 
L 544.775229 407.076915 
L 550.117302 412.9914 
L 555.459376 418.628915 
L 560.80145 423.979502 
L 566.143523 429.033713 
L 571.485597 433.782621 
L 576.82767 438.21784 
L 582.169744 442.331535 
L 587.511818 446.116443 
L 592.853891 449.565878 
L 598.195965 452.673749 
L 603.538038 455.434567 
L 608.880112 457.843455 
L 614.222185 459.89616 
L 619.564259 461.589056 
L 624.906333 462.919154 
L 630.248406 463.884104 
L 635.59048 464.482202 
L 640.932553 464.712393 
L 646.274627 464.574268 
L 651.6167 464.068073 
L 656.958774 463.194702 
L 662.300848 461.955696 
L 667.642921 460.353244 
L 672.984995 458.390176 
L 678.327068 456.069959 
L 683.669142 453.396691 
L 689.011216 450.375092 
L 694.353289 447.010501 
L 699.695363 443.308857 
L 705.037436 439.2767 
L 710.37951 434.92115 
L 715.721583 430.249899 
L 721.063657 425.271198 
L 726.405731 419.993839 
L 731.747804 414.427142 
L 737.089878 408.58094 
L 742.431951 402.465555 
L 747.774025 396.09179 
L 753.116098 389.470901 
L 761.129209 379.101902 
L 769.142319 368.244476 
L 777.15543 356.941759 
L 785.16854 345.238657 
L 793.18165 333.181667 
L 803.865797 316.638157 
L 814.549945 299.667629 
L 827.905129 278.036752 
L 841.260313 256.164634 
L 841.260313 256.164634 
" clip-path="url(#p393d386389)" style="fill: none; stroke: #01ff66; stroke-width: 2; stroke-linecap: square"/>
   </g>
   <g id="line2d_29">
    <path d="M 42.620313 506.425398 
L 45.291349 506.340065 
L 47.962386 506.086157 
L 50.633423 505.666812 
L 53.30446 505.085164 
L 55.975496 504.344353 
L 58.646533 503.447512 
L 61.31757 502.397781 
L 63.988607 501.198294 
L 66.659644 499.85219 
L 69.33068 498.362603 
L 72.001717 496.732672 
L 74.672754 494.965532 
L 80.014828 491.032174 
L 85.356901 486.587622 
L 90.698975 481.656969 
L 96.041048 476.265309 
L 101.383122 470.437734 
L 106.725195 464.199338 
L 112.067269 457.575213 
L 117.409343 450.590452 
L 122.751416 443.27015 
L 128.09349 435.639398 
L 133.435563 427.723289 
L 141.448674 415.368975 
L 149.461784 402.513759 
L 157.474894 389.242328 
L 168.159042 371.04602 
L 181.514226 347.777645 
L 210.89563 296.381908 
L 221.579777 278.249884 
L 229.592888 265.04354 
L 237.605998 252.267874 
L 245.619108 240.007574 
L 250.961182 232.162177 
L 256.303256 224.608565 
L 261.645329 217.371831 
L 266.987403 210.477067 
L 272.329476 203.949367 
L 277.67155 197.813824 
L 283.013624 192.095531 
L 288.355697 186.81958 
L 293.697771 182.011066 
L 299.039844 177.69508 
L 304.381918 173.896717 
L 309.723991 170.54799 
L 317.737102 165.814109 
L 325.750212 161.385606 
L 333.763323 157.262483 
L 341.776433 153.444739 
L 349.789543 149.932373 
L 357.802654 146.725386 
L 365.815764 143.823778 
L 373.828874 141.227549 
L 381.841985 138.936699 
L 389.855095 136.951227 
L 397.868205 135.271134 
L 405.881316 133.896421 
L 413.894426 132.827086 
L 421.907537 132.06313 
L 429.920647 131.604552 
L 437.933757 131.451354 
L 445.946868 131.603535 
L 453.959978 132.061094 
L 461.973088 132.824032 
L 469.986199 133.892349 
L 477.999309 135.266045 
L 486.01242 136.945119 
L 494.02553 138.929573 
L 502.03864 141.219405 
L 510.051751 143.814617 
L 518.064861 146.715207 
L 526.077971 149.921176 
L 534.091082 153.432523 
L 542.104192 157.24925 
L 550.117302 161.371355 
L 558.130413 165.79884 
L 566.143523 170.531703 
L 571.485597 173.876921 
L 576.82767 177.640608 
L 582.169744 181.885514 
L 587.511818 186.588925 
L 592.853891 191.728127 
L 598.195965 197.280403 
L 603.538038 203.22304 
L 608.880112 209.533323 
L 614.222185 216.188537 
L 619.564259 223.165966 
L 624.906333 230.442898 
L 630.248406 237.996615 
L 638.261517 249.796478 
L 646.274627 262.09134 
L 654.287737 274.804538 
L 664.971884 292.273712 
L 678.327068 314.687529 
L 715.721583 377.963803 
L 726.405731 395.399176 
L 734.418841 408.079308 
L 742.431951 420.334491 
L 750.445062 432.088061 
L 755.787135 439.607243 
L 761.129209 446.8467 
L 766.471282 453.783716 
L 771.813356 460.395576 
L 777.15543 466.659566 
L 782.497503 472.552972 
L 787.839577 478.053077 
L 793.18165 483.137169 
L 798.523724 487.782531 
L 803.865797 491.966448 
L 809.207871 495.666207 
L 814.549945 498.859093 
L 817.220981 500.25836 
L 819.892018 501.52239 
L 822.563055 502.648344 
L 825.234092 503.633384 
L 827.905129 504.474668 
L 830.576165 505.169359 
L 833.247202 505.714617 
L 835.918239 506.107602 
L 838.589276 506.345476 
L 841.260313 506.425398 
L 841.260313 506.425398 
" clip-path="url(#p393d386389)" style="fill: none; stroke: #fffd01; stroke-width: 2; stroke-linecap: square"/>
   </g>
   <g id="patch_3">
    <path d="M 42.620313 529.478125 
L 42.620313 22.318125 
" style="fill: none; stroke: #666666; stroke-width: 0.8; stroke-linejoin: miter; stroke-linecap: square"/>
   </g>
   <g id="patch_4">
    <path d="M 841.260313 529.478125 
L 841.260313 22.318125 
" style="fill: none; stroke: #666666; stroke-width: 0.8; stroke-linejoin: miter; stroke-linecap: square"/>
   </g>
   <g id="patch_5">
    <path d="M 42.620313 529.478125 
L 841.260313 529.478125 
" style="fill: none; stroke: #666666; stroke-width: 0.8; stroke-linejoin: miter; stroke-linecap: square"/>
   </g>
   <g id="patch_6">
    <path d="M 42.620313 22.318125 
L 841.260313 22.318125 
" style="fill: none; stroke: #666666; stroke-width: 0.8; stroke-linejoin: miter; stroke-linecap: square"/>
   </g>
   <g id="text_15">
    <!-- Solver: VisualExamples -->
    <g style="fill: #e0e0e0" transform="translate(372.195 16.318125) scale(0.12 -0.12)">
     <defs>
      <path id="DejaVuSans-53" d="M 3425 4513 
L 3425 3897 
Q 3066 4069 2747 4153 
Q 2428 4238 2131 4238 
Q 1616 4238 1336 4038 
Q 1056 3838 1056 3469 
Q 1056 3159 1242 3001 
Q 1428 2844 1947 2747 
L 2328 2669 
Q 3034 2534 3370 2195 
Q 3706 1856 3706 1288 
Q 3706 609 3251 259 
Q 2797 -91 1919 -91 
Q 1588 -91 1214 -16 
Q 841 59 441 206 
L 441 856 
Q 825 641 1194 531 
Q 1563 422 1919 422 
Q 2459 422 2753 634 
Q 3047 847 3047 1241 
Q 3047 1584 2836 1778 
Q 2625 1972 2144 2069 
L 1759 2144 
Q 1053 2284 737 2584 
Q 422 2884 422 3419 
Q 422 4038 858 4394 
Q 1294 4750 2059 4750 
Q 2388 4750 2728 4690 
Q 3069 4631 3425 4513 
z
" transform="scale(0.015625)"/>
      <path id="DejaVuSans-76" d="M 191 3500 
L 800 3500 
L 1894 563 
L 2988 3500 
L 3597 3500 
L 2284 0 
L 1503 0 
L 191 3500 
z
" transform="scale(0.015625)"/>
      <path id="DejaVuSans-72" d="M 2631 2963 
Q 2534 3019 2420 3045 
Q 2306 3072 2169 3072 
Q 1681 3072 1420 2755 
Q 1159 2438 1159 1844 
L 1159 0 
L 581 0 
L 581 3500 
L 1159 3500 
L 1159 2956 
Q 1341 3275 1631 3429 
Q 1922 3584 2338 3584 
Q 2397 3584 2469 3576 
Q 2541 3569 2628 3553 
L 2631 2963 
z
" transform="scale(0.015625)"/>
      <path id="DejaVuSans-3a" d="M 750 794 
L 1409 794 
L 1409 0 
L 750 0 
L 750 794 
z
M 750 3309 
L 1409 3309 
L 1409 2516 
L 750 2516 
L 750 3309 
z
" transform="scale(0.015625)"/>
      <path id="DejaVuSans-20" transform="scale(0.015625)"/>
      <path id="DejaVuSans-45" d="M 628 4666 
L 3578 4666 
L 3578 4134 
L 1259 4134 
L 1259 2753 
L 3481 2753 
L 3481 2222 
L 1259 2222 
L 1259 531 
L 3634 531 
L 3634 0 
L 628 0 
L 628 4666 
z
" transform="scale(0.015625)"/>
      <path id="DejaVuSans-78" d="M 3513 3500 
L 2247 1797 
L 3578 0 
L 2900 0 
L 1881 1375 
L 863 0 
L 184 0 
L 1544 1831 
L 300 3500 
L 978 3500 
L 1906 2253 
L 2834 3500 
L 3513 3500 
z
" transform="scale(0.015625)"/>
      <path id="DejaVuSans-6d" d="M 3328 2828 
Q 3544 3216 3844 3400 
Q 4144 3584 4550 3584 
Q 5097 3584 5394 3201 
Q 5691 2819 5691 2113 
L 5691 0 
L 5113 0 
L 5113 2094 
Q 5113 2597 4934 2840 
Q 4756 3084 4391 3084 
Q 3944 3084 3684 2787 
Q 3425 2491 3425 1978 
L 3425 0 
L 2847 0 
L 2847 2094 
Q 2847 2600 2669 2842 
Q 2491 3084 2119 3084 
Q 1678 3084 1418 2786 
Q 1159 2488 1159 1978 
L 1159 0 
L 581 0 
L 581 3500 
L 1159 3500 
L 1159 2956 
Q 1356 3278 1631 3431 
Q 1906 3584 2284 3584 
Q 2666 3584 2933 3390 
Q 3200 3197 3328 2828 
z
" transform="scale(0.015625)"/>
      <path id="DejaVuSans-70" d="M 1159 525 
L 1159 -1331 
L 581 -1331 
L 581 3500 
L 1159 3500 
L 1159 2969 
Q 1341 3281 1617 3432 
Q 1894 3584 2278 3584 
Q 2916 3584 3314 3078 
Q 3713 2572 3713 1747 
Q 3713 922 3314 415 
Q 2916 -91 2278 -91 
Q 1894 -91 1617 61 
Q 1341 213 1159 525 
z
M 3116 1747 
Q 3116 2381 2855 2742 
Q 2594 3103 2138 3103 
Q 1681 3103 1420 2742 
Q 1159 2381 1159 1747 
Q 1159 1113 1420 752 
Q 1681 391 2138 391 
Q 2594 391 2855 752 
Q 3116 1113 3116 1747 
z
" transform="scale(0.015625)"/>
     </defs>
     <use xlink:href="#DejaVuSans-53"/>
     <use xlink:href="#DejaVuSans-6f" transform="translate(63.476562 0)"/>
     <use xlink:href="#DejaVuSans-6c" transform="translate(124.658203 0)"/>
     <use xlink:href="#DejaVuSans-76" transform="translate(152.441406 0)"/>
     <use xlink:href="#DejaVuSans-65" transform="translate(211.621094 0)"/>
     <use xlink:href="#DejaVuSans-72" transform="translate(273.144531 0)"/>
     <use xlink:href="#DejaVuSans-3a" transform="translate(312.507812 0)"/>
     <use xlink:href="#DejaVuSans-20" transform="translate(346.199219 0)"/>
     <use xlink:href="#DejaVuSans-56" transform="translate(377.986328 0)"/>
     <use xlink:href="#DejaVuSans-69" transform="translate(444.144531 0)"/>
     <use xlink:href="#DejaVuSans-73" transform="translate(471.927734 0)"/>
     <use xlink:href="#DejaVuSans-75" transform="translate(524.027344 0)"/>
     <use xlink:href="#DejaVuSans-61" transform="translate(587.40625 0)"/>
     <use xlink:href="#DejaVuSans-6c" transform="translate(648.685547 0)"/>
     <use xlink:href="#DejaVuSans-45" transform="translate(676.46875 0)"/>
     <use xlink:href="#DejaVuSans-78" transform="translate(739.652344 0)"/>
     <use xlink:href="#DejaVuSans-61" transform="translate(798.832031 0)"/>
     <use xlink:href="#DejaVuSans-6d" transform="translate(860.111328 0)"/>
     <use xlink:href="#DejaVuSans-70" transform="translate(957.523438 0)"/>
     <use xlink:href="#DejaVuSans-6c" transform="translate(1021 0)"/>
     <use xlink:href="#DejaVuSans-65" transform="translate(1048.783203 0)"/>
     <use xlink:href="#DejaVuSans-73" transform="translate(1110.306641 0)"/>
    </g>
   </g>
   <g id="PathCollection_1">
    <defs>
     <path id="m486f544e7e" d="M 0 3.872983 
C 1.027127 3.872983 2.012324 3.464901 2.738613 2.738613 
C 3.464901 2.012324 3.872983 1.027127 3.872983 0 
C 3.872983 -1.027127 3.464901 -2.012324 2.738613 -2.738613 
C 2.012324 -3.464901 1.027127 -3.872983 0 -3.872983 
C -1.027127 -3.872983 -2.012324 -3.464901 -2.738613 -2.738613 
C -3.464901 -2.012324 -3.872983 -1.027127 -3.872983 0 
C -3.872983 1.027127 -3.464901 2.012324 -2.738613 2.738613 
C -2.012324 3.464901 -1.027127 3.872983 0 3.872983 
z
" style="stroke: #ff9500"/>
    </defs>
    <g clip-path="url(#p393d386389)">
     <use xlink:href="#m486f544e7e" x="42.620313" y="256.164634" style="fill: #ff9500; stroke: #ff9500"/>
     <use xlink:href="#m486f544e7e" x="242.280313" y="47.613998" style="fill: #ff9500; stroke: #ff9500"/>
     <use xlink:href="#m486f544e7e" x="641.600312" y="464.71527" style="fill: #ff9500; stroke: #ff9500"/>
     <use xlink:href="#m486f544e7e" x="841.260313" y="256.164634" style="fill: #ff9500; stroke: #ff9500"/>
    </g>
   </g>
   <g id="PathCollection_2">
    <defs>
     <path id="m81187fd87d" d="M 0 3.872983 
C 1.027127 3.872983 2.012324 3.464901 2.738613 2.738613 
C 3.464901 2.012324 3.872983 1.027127 3.872983 0 
C 3.872983 -1.027127 3.464901 -2.012324 2.738613 -2.738613 
C 2.012324 -3.464901 1.027127 -3.872983 0 -3.872983 
C -1.027127 -3.872983 -2.012324 -3.464901 -2.738613 -2.738613 
C -3.464901 -2.012324 -3.872983 -1.027127 -3.872983 0 
C -3.872983 1.027127 -3.464901 2.012324 -2.738613 2.738613 
C -2.012324 3.464901 -1.027127 3.872983 0 3.872983 
z
" style="stroke: #00b9f1"/>
    </defs>
    <g clip-path="url(#p393d386389)">
     <use xlink:href="#m81187fd87d" x="42.620313" y="256.164634" style="fill: #00b9f1; stroke: #00b9f1"/>
     <use xlink:href="#m81187fd87d" x="242.280313" y="89.324125" style="fill: #00b9f1; stroke: #00b9f1"/>
     <use xlink:href="#m81187fd87d" x="441.940313" y="256.164634" style="fill: #00b9f1; stroke: #00b9f1"/>
     <use xlink:href="#m81187fd87d" x="641.600312" y="423.005143" style="fill: #00b9f1; stroke: #00b9f1"/>
     <use xlink:href="#m81187fd87d" x="841.260313" y="256.164634" style="fill: #00b9f1; stroke: #00b9f1"/>
    </g>
   </g>
   <g id="PathCollection_3">
    <defs>
     <path id="m441e2a27c4" d="M 0 3.872983 
C 1.027127 3.872983 2.012324 3.464901 2.738613 2.738613 
C 3.464901 2.012324 3.872983 1.027127 3.872983 0 
C 3.872983 -1.027127 3.464901 -2.012324 2.738613 -2.738613 
C 2.012324 -3.464901 1.027127 -3.872983 0 -3.872983 
C -1.027127 -3.872983 -2.012324 -3.464901 -2.738613 -2.738613 
C -3.464901 -2.012324 -3.872983 -1.027127 -3.872983 0 
C -3.872983 1.027127 -3.464901 2.012324 -2.738613 2.738613 
C -2.012324 3.464901 -1.027127 3.872983 0 3.872983 
z
" style="stroke: #fb02fe"/>
    </defs>
    <g clip-path="url(#p393d386389)">
     <use xlink:href="#m441e2a27c4" x="42.620313" y="256.164634" style="fill: #fb02fe; stroke: #fb02fe"/>
     <use xlink:href="#m441e2a27c4" x="441.940313" y="256.164634" style="fill: #fb02fe; stroke: #fb02fe"/>
     <use xlink:href="#m441e2a27c4" x="841.260313" y="256.164634" style="fill: #fb02fe; stroke: #fb02fe"/>
    </g>
   </g>
   <g id="PathCollection_4">
    <defs>
     <path id="m75bd9d53b8" d="M 0 3.872983 
C 1.027127 3.872983 2.012324 3.464901 2.738613 2.738613 
C 3.464901 2.012324 3.872983 1.027127 3.872983 0 
C 3.872983 -1.027127 3.464901 -2.012324 2.738613 -2.738613 
C 2.012324 -3.464901 1.027127 -3.872983 0 -3.872983 
C -1.027127 -3.872983 -2.012324 -3.464901 -2.738613 -2.738613 
C -3.464901 -2.012324 -3.872983 -1.027127 -3.872983 0 
C -3.872983 1.027127 -3.464901 2.012324 -2.738613 2.738613 
C -2.012324 3.464901 -1.027127 3.872983 0 3.872983 
z
" style="stroke: #01ff66"/>
    </defs>
    <g clip-path="url(#p393d386389)">
     <use xlink:href="#m75bd9d53b8" x="42.620313" y="256.164634" style="fill: #01ff66; stroke: #01ff66"/>
    </g>
   </g>
   <g id="PathCollection_5">
    <defs>
     <path id="m631c7e9b76" d="M 0 3.872983 
C 1.027127 3.872983 2.012324 3.464901 2.738613 2.738613 
C 3.464901 2.012324 3.872983 1.027127 3.872983 0 
C 3.872983 -1.027127 3.464901 -2.012324 2.738613 -2.738613 
C 2.012324 -3.464901 1.027127 -3.872983 0 -3.872983 
C -1.027127 -3.872983 -2.012324 -3.464901 -2.738613 -2.738613 
C -3.464901 -2.012324 -3.872983 -1.027127 -3.872983 0 
C -3.872983 1.027127 -3.464901 2.012324 -2.738613 2.738613 
C -2.012324 3.464901 -1.027127 3.872983 0 3.872983 
z
" style="stroke: #fffd01"/>
    </defs>
    <g clip-path="url(#p393d386389)">
     <use xlink:href="#m631c7e9b76" x="42.620313" y="506.425398" style="fill: #fffd01; stroke: #fffd01"/>
     <use xlink:href="#m631c7e9b76" x="306.171513" y="172.74438" style="fill: #fffd01; stroke: #fffd01"/>
     <use xlink:href="#m631c7e9b76" x="569.722713" y="172.74438" style="fill: #fffd01; stroke: #fffd01"/>
     <use xlink:href="#m631c7e9b76" x="841.260313" y="506.425398" style="fill: #fffd01; stroke: #fffd01"/>
    </g>
   </g>
   <g id="legend_1">
    <g id="patch_7">
     <path d="M 700.916563 103.70875 
L 834.260313 103.70875 
Q 836.260313 103.70875 836.260313 101.70875 
L 836.260313 29.318125 
Q 836.260313 27.318125 834.260313 27.318125 
L 700.916563 27.318125 
Q 698.916563 27.318125 698.916563 29.318125 
L 698.916563 101.70875 
Q 698.916563 103.70875 700.916563 103.70875 
z
" style="fill: #333333; opacity: 0.8; stroke: #666666; stroke-linejoin: miter"/>
    </g>
    <g id="line2d_30">
     <path d="M 702.916563 35.416562 
L 712.916563 35.416562 
L 722.916563 35.416562 
" style="fill: none; stroke: #ff9500; stroke-width: 2; stroke-linecap: square"/>
    </g>
    <g id="text_16">
     <!-- position.cubic -->
     <g style="fill: #e0e0e0" transform="translate(730.916563 38.916562) scale(0.1 -0.1)">
      <defs>
       <path id="DejaVuSans-63" d="M 3122 3366 
L 3122 2828 
Q 2878 2963 2633 3030 
Q 2388 3097 2138 3097 
Q 1578 3097 1268 2742 
Q 959 2388 959 1747 
Q 959 1106 1268 751 
Q 1578 397 2138 397 
Q 2388 397 2633 464 
Q 2878 531 3122 666 
L 3122 134 
Q 2881 22 2623 -34 
Q 2366 -91 2075 -91 
Q 1284 -91 818 406 
Q 353 903 353 1747 
Q 353 2603 823 3093 
Q 1294 3584 2113 3584 
Q 2378 3584 2631 3529 
Q 2884 3475 3122 3366 
z
" transform="scale(0.015625)"/>
       <path id="DejaVuSans-62" d="M 3116 1747 
Q 3116 2381 2855 2742 
Q 2594 3103 2138 3103 
Q 1681 3103 1420 2742 
Q 1159 2381 1159 1747 
Q 1159 1113 1420 752 
Q 1681 391 2138 391 
Q 2594 391 2855 752 
Q 3116 1113 3116 1747 
z
M 1159 2969 
Q 1341 3281 1617 3432 
Q 1894 3584 2278 3584 
Q 2916 3584 3314 3078 
Q 3713 2572 3713 1747 
Q 3713 922 3314 415 
Q 2916 -91 2278 -91 
Q 1894 -91 1617 61 
Q 1341 213 1159 525 
L 1159 0 
L 581 0 
L 581 4863 
L 1159 4863 
L 1159 2969 
z
" transform="scale(0.015625)"/>
      </defs>
      <use xlink:href="#DejaVuSans-70"/>
      <use xlink:href="#DejaVuSans-6f" transform="translate(63.476562 0)"/>
      <use xlink:href="#DejaVuSans-73" transform="translate(124.658203 0)"/>
      <use xlink:href="#DejaVuSans-69" transform="translate(176.757812 0)"/>
      <use xlink:href="#DejaVuSans-74" transform="translate(204.541016 0)"/>
      <use xlink:href="#DejaVuSans-69" transform="translate(243.75 0)"/>
      <use xlink:href="#DejaVuSans-6f" transform="translate(271.533203 0)"/>
      <use xlink:href="#DejaVuSans-6e" transform="translate(332.714844 0)"/>
      <use xlink:href="#DejaVuSans-2e" transform="translate(396.09375 0)"/>
      <use xlink:href="#DejaVuSans-63" transform="translate(427.880859 0)"/>
      <use xlink:href="#DejaVuSans-75" transform="translate(482.861328 0)"/>
      <use xlink:href="#DejaVuSans-62" transform="translate(546.240234 0)"/>
      <use xlink:href="#DejaVuSans-69" transform="translate(609.716797 0)"/>
      <use xlink:href="#DejaVuSans-63" transform="translate(637.5 0)"/>
     </g>
    </g>
    <g id="line2d_31">
     <path d="M 702.916563 50.094687 
L 712.916563 50.094687 
L 722.916563 50.094687 
" style="fill: none; stroke: #00b9f1; stroke-width: 2; stroke-linecap: square"/>
    </g>
    <g id="text_17">
     <!-- position.linear -->
     <g style="fill: #e0e0e0" transform="translate(730.916563 53.594687) scale(0.1 -0.1)">
      <use xlink:href="#DejaVuSans-70"/>
      <use xlink:href="#DejaVuSans-6f" transform="translate(63.476562 0)"/>
      <use xlink:href="#DejaVuSans-73" transform="translate(124.658203 0)"/>
      <use xlink:href="#DejaVuSans-69" transform="translate(176.757812 0)"/>
      <use xlink:href="#DejaVuSans-74" transform="translate(204.541016 0)"/>
      <use xlink:href="#DejaVuSans-69" transform="translate(243.75 0)"/>
      <use xlink:href="#DejaVuSans-6f" transform="translate(271.533203 0)"/>
      <use xlink:href="#DejaVuSans-6e" transform="translate(332.714844 0)"/>
      <use xlink:href="#DejaVuSans-2e" transform="translate(396.09375 0)"/>
      <use xlink:href="#DejaVuSans-6c" transform="translate(427.880859 0)"/>
      <use xlink:href="#DejaVuSans-69" transform="translate(455.664062 0)"/>
      <use xlink:href="#DejaVuSans-6e" transform="translate(483.447266 0)"/>
      <use xlink:href="#DejaVuSans-65" transform="translate(546.826172 0)"/>
      <use xlink:href="#DejaVuSans-61" transform="translate(608.349609 0)"/>
      <use xlink:href="#DejaVuSans-72" transform="translate(669.628906 0)"/>
     </g>
    </g>
    <g id="line2d_32">
     <path d="M 702.916563 64.772812 
L 712.916563 64.772812 
L 722.916563 64.772812 
" style="fill: none; stroke: #fb02fe; stroke-width: 2; stroke-linecap: square"/>
    </g>
    <g id="text_18">
     <!-- position.bezier -->
     <g style="fill: #e0e0e0" transform="translate(730.916563 68.272812) scale(0.1 -0.1)">
      <defs>
       <path id="DejaVuSans-7a" d="M 353 3500 
L 3084 3500 
L 3084 2975 
L 922 459 
L 3084 459 
L 3084 0 
L 275 0 
L 275 525 
L 2438 3041 
L 353 3041 
L 353 3500 
z
" transform="scale(0.015625)"/>
      </defs>
      <use xlink:href="#DejaVuSans-70"/>
      <use xlink:href="#DejaVuSans-6f" transform="translate(63.476562 0)"/>
      <use xlink:href="#DejaVuSans-73" transform="translate(124.658203 0)"/>
      <use xlink:href="#DejaVuSans-69" transform="translate(176.757812 0)"/>
      <use xlink:href="#DejaVuSans-74" transform="translate(204.541016 0)"/>
      <use xlink:href="#DejaVuSans-69" transform="translate(243.75 0)"/>
      <use xlink:href="#DejaVuSans-6f" transform="translate(271.533203 0)"/>
      <use xlink:href="#DejaVuSans-6e" transform="translate(332.714844 0)"/>
      <use xlink:href="#DejaVuSans-2e" transform="translate(396.09375 0)"/>
      <use xlink:href="#DejaVuSans-62" transform="translate(427.880859 0)"/>
      <use xlink:href="#DejaVuSans-65" transform="translate(491.357422 0)"/>
      <use xlink:href="#DejaVuSans-7a" transform="translate(552.880859 0)"/>
      <use xlink:href="#DejaVuSans-69" transform="translate(605.371094 0)"/>
      <use xlink:href="#DejaVuSans-65" transform="translate(633.154297 0)"/>
      <use xlink:href="#DejaVuSans-72" transform="translate(694.677734 0)"/>
     </g>
    </g>
    <g id="line2d_33">
     <path d="M 702.916563 79.450937 
L 712.916563 79.450937 
L 722.916563 79.450937 
" style="fill: none; stroke: #01ff66; stroke-width: 2; stroke-linecap: square"/>
    </g>
    <g id="text_19">
     <!-- expressions.sine -->
     <g style="fill: #e0e0e0" transform="translate(730.916563 82.950937) scale(0.1 -0.1)">
      <use xlink:href="#DejaVuSans-65"/>
      <use xlink:href="#DejaVuSans-78" transform="translate(59.773438 0)"/>
      <use xlink:href="#DejaVuSans-70" transform="translate(118.953125 0)"/>
      <use xlink:href="#DejaVuSans-72" transform="translate(182.429688 0)"/>
      <use xlink:href="#DejaVuSans-65" transform="translate(221.292969 0)"/>
      <use xlink:href="#DejaVuSans-73" transform="translate(282.816406 0)"/>
      <use xlink:href="#DejaVuSans-73" transform="translate(334.916016 0)"/>
      <use xlink:href="#DejaVuSans-69" transform="translate(387.015625 0)"/>
      <use xlink:href="#DejaVuSans-6f" transform="translate(414.798828 0)"/>
      <use xlink:href="#DejaVuSans-6e" transform="translate(475.980469 0)"/>
      <use xlink:href="#DejaVuSans-73" transform="translate(539.359375 0)"/>
      <use xlink:href="#DejaVuSans-2e" transform="translate(591.458984 0)"/>
      <use xlink:href="#DejaVuSans-73" transform="translate(623.246094 0)"/>
      <use xlink:href="#DejaVuSans-69" transform="translate(675.345703 0)"/>
      <use xlink:href="#DejaVuSans-6e" transform="translate(703.128906 0)"/>
      <use xlink:href="#DejaVuSans-65" transform="translate(766.507812 0)"/>
     </g>
    </g>
    <g id="line2d_34">
     <path d="M 702.916563 94.129062 
L 712.916563 94.129062 
L 722.916563 94.129062 
" style="fill: none; stroke: #fffd01; stroke-width: 2; stroke-linecap: square"/>
    </g>
    <g id="text_20">
     <!-- expressions.hermite -->
     <g style="fill: #e0e0e0" transform="translate(730.916563 97.629062) scale(0.1 -0.1)">
      <defs>
       <path id="DejaVuSans-68" d="M 3513 2113 
L 3513 0 
L 2938 0 
L 2938 2094 
Q 2938 2591 2744 2837 
Q 2550 3084 2163 3084 
Q 1697 3084 1428 2787 
Q 1159 2491 1159 1978 
L 1159 0 
L 581 0 
L 581 4863 
L 1159 4863 
L 1159 2956 
Q 1366 3272 1645 3428 
Q 1925 3584 2291 3584 
Q 2894 3584 3203 3211 
Q 3513 2838 3513 2113 
z
" transform="scale(0.015625)"/>
      </defs>
      <use xlink:href="#DejaVuSans-65"/>
      <use xlink:href="#DejaVuSans-78" transform="translate(59.773438 0)"/>
      <use xlink:href="#DejaVuSans-70" transform="translate(118.953125 0)"/>
      <use xlink:href="#DejaVuSans-72" transform="translate(182.429688 0)"/>
      <use xlink:href="#DejaVuSans-65" transform="translate(221.292969 0)"/>
      <use xlink:href="#DejaVuSans-73" transform="translate(282.816406 0)"/>
      <use xlink:href="#DejaVuSans-73" transform="translate(334.916016 0)"/>
      <use xlink:href="#DejaVuSans-69" transform="translate(387.015625 0)"/>
      <use xlink:href="#DejaVuSans-6f" transform="translate(414.798828 0)"/>
      <use xlink:href="#DejaVuSans-6e" transform="translate(475.980469 0)"/>
      <use xlink:href="#DejaVuSans-73" transform="translate(539.359375 0)"/>
      <use xlink:href="#DejaVuSans-2e" transform="translate(591.458984 0)"/>
      <use xlink:href="#DejaVuSans-68" transform="translate(623.246094 0)"/>
      <use xlink:href="#DejaVuSans-65" transform="translate(686.625 0)"/>
      <use xlink:href="#DejaVuSans-72" transform="translate(748.148438 0)"/>
      <use xlink:href="#DejaVuSans-6d" transform="translate(787.511719 0)"/>
      <use xlink:href="#DejaVuSans-69" transform="translate(884.923828 0)"/>
      <use xlink:href="#DejaVuSans-74" transform="translate(912.707031 0)"/>
      <use xlink:href="#DejaVuSans-65" transform="translate(951.916016 0)"/>
     </g>
    </g>
   </g>
  </g>
 </g>
 <defs>
  <clipPath id="p393d386389">
   <rect x="42.620313" y="22.318125" width="798.64" height="507.16"/>
  </clipPath>
 </defs>
</svg>
